<?xml version="1.0" encoding="utf-8" standalone="no"?>
<!DOCTYPE svg PUBLIC "-//W3C//DTD SVG 1.1//EN"
  "http://www.w3.org/Graphics/SVG/1.1/DTD/svg11.dtd">
<!-- Created with matplotlib (http://matplotlib.org/) -->
<svg height="345pt" version="1.1" viewBox="0 0 460 345" width="460pt" xmlns="http://www.w3.org/2000/svg" xmlns:xlink="http://www.w3.org/1999/xlink">
 <defs>
  <style type="text/css">
*{stroke-linecap:butt;stroke-linejoin:round;}
  </style>
 </defs>
 <g id="figure_1">
  <g id="patch_1">
   <path d="M 0 345.6 
L 460.8 345.6 
L 460.8 0 
L 0 0 
z
" style="fill:#ffffff;"/>
  </g>
  <g id="axes_1">
   <g id="patch_2">
    <path d="M 57.6 307.584 
L 414.72 307.584 
L 414.72 41.472 
L 57.6 41.472 
z
" style="fill:#ffffff;"/>
   </g>
   <g id="matplotlib.axis_1">
    <g id="xtick_1">
     <g id="line2d_1">
      <defs>
       <path d="M 0 0 
L 0 3.5 
" id="m01dcbf27de" style="stroke:#000000;stroke-width:0.8;"/>
      </defs>
      <g>
       <use style="stroke:#000000;stroke-width:0.8;" x="73.832727" xlink:href="#m01dcbf27de" y="307.584"/>
      </g>
     </g>
     <g id="text_1">
      <!-- 0 -->
      <defs>
       <path d="M 31.78125 66.40625 
Q 24.171875 66.40625 20.328125 58.90625 
Q 16.5 51.421875 16.5 36.375 
Q 16.5 21.390625 20.328125 13.890625 
Q 24.171875 6.390625 31.78125 6.390625 
Q 39.453125 6.390625 43.28125 13.890625 
Q 47.125 21.390625 47.125 36.375 
Q 47.125 51.421875 43.28125 58.90625 
Q 39.453125 66.40625 31.78125 66.40625 
z
M 31.78125 74.21875 
Q 44.046875 74.21875 50.515625 64.515625 
Q 56.984375 54.828125 56.984375 36.375 
Q 56.984375 17.96875 50.515625 8.265625 
Q 44.046875 -1.421875 31.78125 -1.421875 
Q 19.53125 -1.421875 13.0625 8.265625 
Q 6.59375 17.96875 6.59375 36.375 
Q 6.59375 54.828125 13.0625 64.515625 
Q 19.53125 74.21875 31.78125 74.21875 
z
" id="DejaVuSans-30"/>
      </defs>
      <g transform="translate(70.651477 322.182437)scale(0.1 -0.1)">
       <use xlink:href="#DejaVuSans-30"/>
      </g>
     </g>
    </g>
    <g id="xtick_2">
     <g id="line2d_2">
      <g>
       <use style="stroke:#000000;stroke-width:0.8;" x="138.828632" xlink:href="#m01dcbf27de" y="307.584"/>
      </g>
     </g>
     <g id="text_2">
      <!-- 200 -->
      <defs>
       <path d="M 19.1875 8.296875 
L 53.609375 8.296875 
L 53.609375 0 
L 7.328125 0 
L 7.328125 8.296875 
Q 12.9375 14.109375 22.625 23.890625 
Q 32.328125 33.6875 34.8125 36.53125 
Q 39.546875 41.84375 41.421875 45.53125 
Q 43.3125 49.21875 43.3125 52.78125 
Q 43.3125 58.59375 39.234375 62.25 
Q 35.15625 65.921875 28.609375 65.921875 
Q 23.96875 65.921875 18.8125 64.3125 
Q 13.671875 62.703125 7.8125 59.421875 
L 7.8125 69.390625 
Q 13.765625 71.78125 18.9375 73 
Q 24.125 74.21875 28.421875 74.21875 
Q 39.75 74.21875 46.484375 68.546875 
Q 53.21875 62.890625 53.21875 53.421875 
Q 53.21875 48.921875 51.53125 44.890625 
Q 49.859375 40.875 45.40625 35.40625 
Q 44.1875 33.984375 37.640625 27.21875 
Q 31.109375 20.453125 19.1875 8.296875 
z
" id="DejaVuSans-32"/>
      </defs>
      <g transform="translate(129.284882 322.182437)scale(0.1 -0.1)">
       <use xlink:href="#DejaVuSans-32"/>
       <use x="63.623047" xlink:href="#DejaVuSans-30"/>
       <use x="127.246094" xlink:href="#DejaVuSans-30"/>
      </g>
     </g>
    </g>
    <g id="xtick_3">
     <g id="line2d_3">
      <g>
       <use style="stroke:#000000;stroke-width:0.8;" x="203.824537" xlink:href="#m01dcbf27de" y="307.584"/>
      </g>
     </g>
     <g id="text_3">
      <!-- 400 -->
      <defs>
       <path d="M 37.796875 64.3125 
L 12.890625 25.390625 
L 37.796875 25.390625 
z
M 35.203125 72.90625 
L 47.609375 72.90625 
L 47.609375 25.390625 
L 58.015625 25.390625 
L 58.015625 17.1875 
L 47.609375 17.1875 
L 47.609375 0 
L 37.796875 0 
L 37.796875 17.1875 
L 4.890625 17.1875 
L 4.890625 26.703125 
z
" id="DejaVuSans-34"/>
      </defs>
      <g transform="translate(194.280787 322.182437)scale(0.1 -0.1)">
       <use xlink:href="#DejaVuSans-34"/>
       <use x="63.623047" xlink:href="#DejaVuSans-30"/>
       <use x="127.246094" xlink:href="#DejaVuSans-30"/>
      </g>
     </g>
    </g>
    <g id="xtick_4">
     <g id="line2d_4">
      <g>
       <use style="stroke:#000000;stroke-width:0.8;" x="268.820442" xlink:href="#m01dcbf27de" y="307.584"/>
      </g>
     </g>
     <g id="text_4">
      <!-- 600 -->
      <defs>
       <path d="M 33.015625 40.375 
Q 26.375 40.375 22.484375 35.828125 
Q 18.609375 31.296875 18.609375 23.390625 
Q 18.609375 15.53125 22.484375 10.953125 
Q 26.375 6.390625 33.015625 6.390625 
Q 39.65625 6.390625 43.53125 10.953125 
Q 47.40625 15.53125 47.40625 23.390625 
Q 47.40625 31.296875 43.53125 35.828125 
Q 39.65625 40.375 33.015625 40.375 
z
M 52.59375 71.296875 
L 52.59375 62.3125 
Q 48.875 64.0625 45.09375 64.984375 
Q 41.3125 65.921875 37.59375 65.921875 
Q 27.828125 65.921875 22.671875 59.328125 
Q 17.53125 52.734375 16.796875 39.40625 
Q 19.671875 43.65625 24.015625 45.921875 
Q 28.375 48.1875 33.59375 48.1875 
Q 44.578125 48.1875 50.953125 41.515625 
Q 57.328125 34.859375 57.328125 23.390625 
Q 57.328125 12.15625 50.6875 5.359375 
Q 44.046875 -1.421875 33.015625 -1.421875 
Q 20.359375 -1.421875 13.671875 8.265625 
Q 6.984375 17.96875 6.984375 36.375 
Q 6.984375 53.65625 15.1875 63.9375 
Q 23.390625 74.21875 37.203125 74.21875 
Q 40.921875 74.21875 44.703125 73.484375 
Q 48.484375 72.75 52.59375 71.296875 
z
" id="DejaVuSans-36"/>
      </defs>
      <g transform="translate(259.276692 322.182437)scale(0.1 -0.1)">
       <use xlink:href="#DejaVuSans-36"/>
       <use x="63.623047" xlink:href="#DejaVuSans-30"/>
       <use x="127.246094" xlink:href="#DejaVuSans-30"/>
      </g>
     </g>
    </g>
    <g id="xtick_5">
     <g id="line2d_5">
      <g>
       <use style="stroke:#000000;stroke-width:0.8;" x="333.816347" xlink:href="#m01dcbf27de" y="307.584"/>
      </g>
     </g>
     <g id="text_5">
      <!-- 800 -->
      <defs>
       <path d="M 31.78125 34.625 
Q 24.75 34.625 20.71875 30.859375 
Q 16.703125 27.09375 16.703125 20.515625 
Q 16.703125 13.921875 20.71875 10.15625 
Q 24.75 6.390625 31.78125 6.390625 
Q 38.8125 6.390625 42.859375 10.171875 
Q 46.921875 13.96875 46.921875 20.515625 
Q 46.921875 27.09375 42.890625 30.859375 
Q 38.875 34.625 31.78125 34.625 
z
M 21.921875 38.8125 
Q 15.578125 40.375 12.03125 44.71875 
Q 8.5 49.078125 8.5 55.328125 
Q 8.5 64.0625 14.71875 69.140625 
Q 20.953125 74.21875 31.78125 74.21875 
Q 42.671875 74.21875 48.875 69.140625 
Q 55.078125 64.0625 55.078125 55.328125 
Q 55.078125 49.078125 51.53125 44.71875 
Q 48 40.375 41.703125 38.8125 
Q 48.828125 37.15625 52.796875 32.3125 
Q 56.78125 27.484375 56.78125 20.515625 
Q 56.78125 9.90625 50.3125 4.234375 
Q 43.84375 -1.421875 31.78125 -1.421875 
Q 19.734375 -1.421875 13.25 4.234375 
Q 6.78125 9.90625 6.78125 20.515625 
Q 6.78125 27.484375 10.78125 32.3125 
Q 14.796875 37.15625 21.921875 38.8125 
z
M 18.3125 54.390625 
Q 18.3125 48.734375 21.84375 45.5625 
Q 25.390625 42.390625 31.78125 42.390625 
Q 38.140625 42.390625 41.71875 45.5625 
Q 45.3125 48.734375 45.3125 54.390625 
Q 45.3125 60.0625 41.71875 63.234375 
Q 38.140625 66.40625 31.78125 66.40625 
Q 25.390625 66.40625 21.84375 63.234375 
Q 18.3125 60.0625 18.3125 54.390625 
z
" id="DejaVuSans-38"/>
      </defs>
      <g transform="translate(324.272597 322.182437)scale(0.1 -0.1)">
       <use xlink:href="#DejaVuSans-38"/>
       <use x="63.623047" xlink:href="#DejaVuSans-30"/>
       <use x="127.246094" xlink:href="#DejaVuSans-30"/>
      </g>
     </g>
    </g>
    <g id="xtick_6">
     <g id="line2d_6">
      <g>
       <use style="stroke:#000000;stroke-width:0.8;" x="398.812252" xlink:href="#m01dcbf27de" y="307.584"/>
      </g>
     </g>
     <g id="text_6">
      <!-- 1000 -->
      <defs>
       <path d="M 12.40625 8.296875 
L 28.515625 8.296875 
L 28.515625 63.921875 
L 10.984375 60.40625 
L 10.984375 69.390625 
L 28.421875 72.90625 
L 38.28125 72.90625 
L 38.28125 8.296875 
L 54.390625 8.296875 
L 54.390625 0 
L 12.40625 0 
z
" id="DejaVuSans-31"/>
      </defs>
      <g transform="translate(386.087252 322.182437)scale(0.1 -0.1)">
       <use xlink:href="#DejaVuSans-31"/>
       <use x="63.623047" xlink:href="#DejaVuSans-30"/>
       <use x="127.246094" xlink:href="#DejaVuSans-30"/>
       <use x="190.869141" xlink:href="#DejaVuSans-30"/>
      </g>
     </g>
    </g>
   </g>
   <g id="matplotlib.axis_2">
    <g id="ytick_1">
     <g id="line2d_7">
      <defs>
       <path d="M 0 0 
L -3.5 0 
" id="m53e27b8e04" style="stroke:#000000;stroke-width:0.8;"/>
      </defs>
      <g>
       <use style="stroke:#000000;stroke-width:0.8;" x="57.6" xlink:href="#m53e27b8e04" y="295.653831"/>
      </g>
     </g>
     <g id="text_7">
      <!-- −0.015 -->
      <defs>
       <path d="M 10.59375 35.5 
L 73.1875 35.5 
L 73.1875 27.203125 
L 10.59375 27.203125 
z
" id="DejaVuSans-2212"/>
       <path d="M 10.6875 12.40625 
L 21 12.40625 
L 21 0 
L 10.6875 0 
z
" id="DejaVuSans-2e"/>
       <path d="M 10.796875 72.90625 
L 49.515625 72.90625 
L 49.515625 64.59375 
L 19.828125 64.59375 
L 19.828125 46.734375 
Q 21.96875 47.46875 24.109375 47.828125 
Q 26.265625 48.1875 28.421875 48.1875 
Q 40.625 48.1875 47.75 41.5 
Q 54.890625 34.8125 54.890625 23.390625 
Q 54.890625 11.625 47.5625 5.09375 
Q 40.234375 -1.421875 26.90625 -1.421875 
Q 22.3125 -1.421875 17.546875 -0.640625 
Q 12.796875 0.140625 7.71875 1.703125 
L 7.71875 11.625 
Q 12.109375 9.234375 16.796875 8.0625 
Q 21.484375 6.890625 26.703125 6.890625 
Q 35.15625 6.890625 40.078125 11.328125 
Q 45.015625 15.765625 45.015625 23.390625 
Q 45.015625 31 40.078125 35.4375 
Q 35.15625 39.890625 26.703125 39.890625 
Q 22.75 39.890625 18.8125 39.015625 
Q 14.890625 38.140625 10.796875 36.28125 
z
" id="DejaVuSans-35"/>
      </defs>
      <g transform="translate(13.592188 299.453049)scale(0.1 -0.1)">
       <use xlink:href="#DejaVuSans-2212"/>
       <use x="83.789062" xlink:href="#DejaVuSans-30"/>
       <use x="147.412109" xlink:href="#DejaVuSans-2e"/>
       <use x="179.199219" xlink:href="#DejaVuSans-30"/>
       <use x="242.822266" xlink:href="#DejaVuSans-31"/>
       <use x="306.445312" xlink:href="#DejaVuSans-35"/>
      </g>
     </g>
    </g>
    <g id="ytick_2">
     <g id="line2d_8">
      <g>
       <use style="stroke:#000000;stroke-width:0.8;" x="57.6" xlink:href="#m53e27b8e04" y="255.278554"/>
      </g>
     </g>
     <g id="text_8">
      <!-- −0.010 -->
      <g transform="translate(13.592188 259.077773)scale(0.1 -0.1)">
       <use xlink:href="#DejaVuSans-2212"/>
       <use x="83.789062" xlink:href="#DejaVuSans-30"/>
       <use x="147.412109" xlink:href="#DejaVuSans-2e"/>
       <use x="179.199219" xlink:href="#DejaVuSans-30"/>
       <use x="242.822266" xlink:href="#DejaVuSans-31"/>
       <use x="306.445312" xlink:href="#DejaVuSans-30"/>
      </g>
     </g>
    </g>
    <g id="ytick_3">
     <g id="line2d_9">
      <g>
       <use style="stroke:#000000;stroke-width:0.8;" x="57.6" xlink:href="#m53e27b8e04" y="214.903277"/>
      </g>
     </g>
     <g id="text_9">
      <!-- −0.005 -->
      <g transform="translate(13.592188 218.702496)scale(0.1 -0.1)">
       <use xlink:href="#DejaVuSans-2212"/>
       <use x="83.789062" xlink:href="#DejaVuSans-30"/>
       <use x="147.412109" xlink:href="#DejaVuSans-2e"/>
       <use x="179.199219" xlink:href="#DejaVuSans-30"/>
       <use x="242.822266" xlink:href="#DejaVuSans-30"/>
       <use x="306.445312" xlink:href="#DejaVuSans-35"/>
      </g>
     </g>
    </g>
    <g id="ytick_4">
     <g id="line2d_10">
      <g>
       <use style="stroke:#000000;stroke-width:0.8;" x="57.6" xlink:href="#m53e27b8e04" y="174.528"/>
      </g>
     </g>
     <g id="text_10">
      <!-- 0.000 -->
      <g transform="translate(21.971875 178.327219)scale(0.1 -0.1)">
       <use xlink:href="#DejaVuSans-30"/>
       <use x="63.623047" xlink:href="#DejaVuSans-2e"/>
       <use x="95.410156" xlink:href="#DejaVuSans-30"/>
       <use x="159.033203" xlink:href="#DejaVuSans-30"/>
       <use x="222.65625" xlink:href="#DejaVuSans-30"/>
      </g>
     </g>
    </g>
    <g id="ytick_5">
     <g id="line2d_11">
      <g>
       <use style="stroke:#000000;stroke-width:0.8;" x="57.6" xlink:href="#m53e27b8e04" y="134.152723"/>
      </g>
     </g>
     <g id="text_11">
      <!-- 0.005 -->
      <g transform="translate(21.971875 137.951942)scale(0.1 -0.1)">
       <use xlink:href="#DejaVuSans-30"/>
       <use x="63.623047" xlink:href="#DejaVuSans-2e"/>
       <use x="95.410156" xlink:href="#DejaVuSans-30"/>
       <use x="159.033203" xlink:href="#DejaVuSans-30"/>
       <use x="222.65625" xlink:href="#DejaVuSans-35"/>
      </g>
     </g>
    </g>
    <g id="ytick_6">
     <g id="line2d_12">
      <g>
       <use style="stroke:#000000;stroke-width:0.8;" x="57.6" xlink:href="#m53e27b8e04" y="93.777446"/>
      </g>
     </g>
     <g id="text_12">
      <!-- 0.010 -->
      <g transform="translate(21.971875 97.576665)scale(0.1 -0.1)">
       <use xlink:href="#DejaVuSans-30"/>
       <use x="63.623047" xlink:href="#DejaVuSans-2e"/>
       <use x="95.410156" xlink:href="#DejaVuSans-30"/>
       <use x="159.033203" xlink:href="#DejaVuSans-31"/>
       <use x="222.65625" xlink:href="#DejaVuSans-30"/>
      </g>
     </g>
    </g>
    <g id="ytick_7">
     <g id="line2d_13">
      <g>
       <use style="stroke:#000000;stroke-width:0.8;" x="57.6" xlink:href="#m53e27b8e04" y="53.402169"/>
      </g>
     </g>
     <g id="text_13">
      <!-- 0.015 -->
      <g transform="translate(21.971875 57.201388)scale(0.1 -0.1)">
       <use xlink:href="#DejaVuSans-30"/>
       <use x="63.623047" xlink:href="#DejaVuSans-2e"/>
       <use x="95.410156" xlink:href="#DejaVuSans-30"/>
       <use x="159.033203" xlink:href="#DejaVuSans-31"/>
       <use x="222.65625" xlink:href="#DejaVuSans-35"/>
      </g>
     </g>
    </g>
   </g>
   <g id="line2d_14">
    <path clip-path="url(#pd4bb686a0b)" d="M 73.832727 174.528 
L 74.157707 286.688499 
L 74.482686 115.783098 
L 74.807666 167.17405 
L 75.132645 170.063769 
L 75.457625 126.362332 
L 75.782604 260.152837 
L 76.107584 292.007903 
L 76.432563 227.360449 
L 76.757543 53.568 
L 77.082523 283.99762 
L 77.407502 140.966189 
L 77.732482 110.428055 
L 78.057461 206.759391 
L 78.382441 174.372429 
L 78.70742 283.99762 
L 79.0324 272.50724 
L 79.357379 131.029112 
L 79.682359 135.993759 
L 80.007338 293.559078 
L 80.332318 126.362332 
L 80.657297 136.657528 
L 80.982277 70.842714 
L 81.307256 212.114434 
L 81.632236 67.74926 
L 82.282195 281.30674 
L 82.607174 136.941566 
L 82.932154 278.213286 
L 83.257133 212.398472 
L 83.582113 222.693668 
L 83.907093 55.496922 
L 84.232072 213.062241 
L 84.557052 218.026888 
L 84.882031 76.54876 
L 85.207011 65.05838 
L 85.53199 174.683571 
L 85.85697 142.296609 
L 86.181949 238.627945 
L 86.506929 208.089811 
L 86.831908 65.05838 
L 87.156888 295.488 
L 87.481867 121.695551 
L 87.806847 57.048097 
L 88.131826 88.903163 
L 88.456806 222.693668 
L 88.781785 178.992231 
L 89.106765 181.88195 
L 89.431744 233.272902 
L 89.756724 62.367501 
L 90.406683 286.688499 
L 90.731663 115.783098 
L 91.056642 167.17405 
L 91.381622 170.063769 
L 91.706601 126.362332 
L 92.031581 260.152837 
L 92.35656 292.007903 
L 92.68154 227.360449 
L 93.006519 53.568 
L 93.331499 283.99762 
L 93.656478 140.966189 
L 93.981458 110.428055 
L 94.306437 206.759391 
L 94.631417 174.372429 
L 94.956396 283.99762 
L 95.281376 272.50724 
L 95.606355 131.029112 
L 95.931335 135.993759 
L 96.256314 293.559078 
L 96.581294 126.362332 
L 96.906274 136.657528 
L 97.231253 70.842714 
L 97.556233 212.114434 
L 97.881212 67.74926 
L 98.531171 281.30674 
L 98.856151 136.941566 
L 99.18113 278.213286 
L 99.50611 212.398472 
L 99.831089 222.693668 
L 100.156069 55.496922 
L 100.481048 213.062241 
L 100.806028 218.026888 
L 101.131007 76.54876 
L 101.455987 65.05838 
L 101.780966 174.683571 
L 102.105946 142.296609 
L 102.430925 238.627945 
L 102.755905 208.089811 
L 103.080885 65.05838 
L 103.405864 295.488 
L 103.730844 121.695551 
L 104.055823 57.048097 
L 104.380803 88.903163 
L 104.705782 222.693668 
L 105.030762 178.992231 
L 105.355741 181.88195 
L 105.680721 233.272902 
L 106.0057 62.367501 
L 106.655659 286.688499 
L 106.980639 115.783098 
L 107.305618 167.17405 
L 107.630598 170.063769 
L 107.955577 126.362332 
L 108.280557 260.152837 
L 108.605536 292.007903 
L 108.930516 227.360449 
L 109.255495 53.568 
L 109.580475 283.99762 
L 109.905455 140.966189 
L 110.230434 110.428055 
L 110.555414 206.759391 
L 110.880393 174.372429 
L 111.205373 283.99762 
L 111.530352 272.50724 
L 111.855332 131.029112 
L 112.180311 135.993759 
L 112.505291 293.559078 
L 112.83027 126.362332 
L 113.15525 136.657528 
L 113.480229 70.842714 
L 113.805209 212.114434 
L 114.130188 67.74926 
L 114.780147 281.30674 
L 115.105127 136.941566 
L 115.430106 278.213286 
L 115.755086 212.398472 
L 116.080066 222.693668 
L 116.405045 55.496922 
L 116.730025 213.062241 
L 117.055004 218.026888 
L 117.379984 76.54876 
L 117.704963 65.05838 
L 118.029943 174.683571 
L 118.354922 142.296609 
L 118.679902 238.627945 
L 119.004881 208.089811 
L 119.329861 65.05838 
L 119.65484 295.488 
L 119.97982 121.695551 
L 120.304799 57.048097 
L 120.629779 88.903163 
L 120.954758 222.693668 
L 121.279738 178.992231 
L 121.604717 181.88195 
L 121.929697 233.272902 
L 122.254676 62.367501 
L 122.904636 286.688499 
L 123.229615 115.783098 
L 123.554595 167.17405 
L 123.879574 170.063769 
L 124.204554 126.362332 
L 124.529533 260.152837 
L 124.854513 292.007903 
L 125.179492 227.360449 
L 125.504472 53.568 
L 125.829451 283.99762 
L 126.154431 140.966189 
L 126.47941 110.428055 
L 126.80439 206.759391 
L 127.129369 174.372429 
L 127.454349 283.99762 
L 127.779328 272.50724 
L 128.104308 131.029112 
L 128.429287 135.993759 
L 128.754267 293.559078 
L 129.079247 126.362332 
L 129.404226 136.657528 
L 129.729206 70.842714 
L 130.054185 212.114434 
L 130.379165 67.74926 
L 131.029124 281.30674 
L 131.354103 136.941566 
L 131.679083 278.213286 
L 132.004062 212.398472 
L 132.329042 222.693668 
L 132.654021 55.496922 
L 132.979001 213.062241 
L 133.30398 218.026888 
L 133.62896 76.54876 
L 133.953939 65.05838 
L 134.278919 174.683571 
L 134.603898 142.296609 
L 134.928878 238.627945 
L 135.253857 208.089811 
L 135.578837 65.05838 
L 135.903817 295.488 
L 136.228796 121.695551 
L 136.553776 57.048097 
L 136.878755 88.903163 
L 137.203735 222.693668 
L 137.528714 178.992231 
L 137.853694 181.88195 
L 138.178673 233.272902 
L 138.503653 62.367501 
L 139.153612 286.688499 
L 139.478591 115.783098 
L 139.803571 167.17405 
L 140.12855 170.063769 
L 140.45353 126.362332 
L 140.778509 260.152837 
L 141.103489 292.007903 
L 141.428468 227.360449 
L 141.753448 53.568 
L 142.078428 283.99762 
L 142.403407 140.966189 
L 142.728387 110.428055 
L 143.053366 206.759391 
L 143.378346 174.372429 
L 143.703325 283.99762 
L 144.028305 272.50724 
L 144.353284 131.029112 
L 144.678264 135.993759 
L 145.003243 293.559078 
L 145.328223 126.362332 
L 145.653202 136.657528 
L 145.978182 70.842714 
L 146.303161 212.114434 
L 146.628141 67.74926 
L 147.2781 281.30674 
L 147.603079 136.941566 
L 147.928059 278.213286 
L 148.253038 212.398472 
L 148.578018 222.693668 
L 148.902998 55.496922 
L 149.227977 213.062241 
L 149.552957 218.026888 
L 149.877936 76.54876 
L 150.202916 65.05838 
L 150.527895 174.683571 
L 150.852875 142.296609 
L 151.177854 238.627945 
L 151.502834 208.089811 
L 151.827813 65.05838 
L 152.152793 295.488 
L 152.477772 121.695551 
L 152.802752 57.048097 
L 153.127731 88.903163 
L 153.452711 222.693668 
L 153.77769 178.992231 
L 154.10267 181.88195 
L 154.427649 233.272902 
L 154.752629 62.367501 
L 155.402588 286.688499 
L 155.727568 115.783098 
L 156.052547 167.17405 
L 156.377527 170.063769 
L 156.702506 126.362332 
L 157.027486 260.152837 
L 157.352465 292.007903 
L 157.677445 227.360449 
L 158.002424 53.568 
L 158.327404 283.99762 
L 158.652383 140.966189 
L 158.977363 110.428055 
L 159.302342 206.759391 
L 159.627322 174.372429 
L 159.952301 283.99762 
L 160.277281 272.50724 
L 160.60226 131.029112 
L 160.92724 135.993759 
L 161.252219 293.559078 
L 161.577199 126.362332 
L 161.902179 136.657528 
L 162.227158 70.842714 
L 162.552138 212.114434 
L 162.877117 67.74926 
L 163.527076 281.30674 
L 163.852056 136.941566 
L 164.177035 278.213286 
L 164.502015 212.398472 
L 164.826994 222.693668 
L 165.151974 55.496922 
L 165.476953 213.062241 
L 165.801933 218.026888 
L 166.126912 76.54876 
L 166.451892 65.05838 
L 166.776871 174.683571 
L 167.101851 142.296609 
L 167.42683 238.627945 
L 167.75181 208.089811 
L 168.07679 65.05838 
L 168.401769 295.488 
L 168.726749 121.695551 
L 169.051728 57.048097 
L 169.376708 88.903163 
L 169.701687 222.693668 
L 170.026667 178.992231 
L 170.351646 181.88195 
L 170.676626 233.272902 
L 171.001605 62.367501 
L 171.651564 286.688499 
L 171.976544 115.783098 
L 172.301523 167.17405 
L 172.626503 170.063769 
L 172.951482 126.362332 
L 173.276462 260.152837 
L 173.601441 292.007903 
L 173.926421 227.360449 
L 174.2514 53.568 
L 174.57638 283.99762 
L 174.90136 140.966189 
L 175.226339 110.428055 
L 175.551319 206.759391 
L 175.876298 174.372429 
L 176.201278 283.99762 
L 176.526257 272.50724 
L 176.851237 131.029112 
L 177.176216 135.993759 
L 177.501196 293.559078 
L 177.826175 126.362332 
L 178.151155 136.657528 
L 178.476134 70.842714 
L 178.801114 212.114434 
L 179.126093 67.74926 
L 179.776052 281.30674 
L 180.101032 136.941566 
L 180.426011 278.213286 
L 180.750991 212.398472 
L 181.075971 222.693668 
L 181.40095 55.496922 
L 181.72593 213.062241 
L 182.050909 218.026888 
L 182.375889 76.54876 
L 182.700868 65.05838 
L 183.025848 174.683571 
L 183.350827 142.296609 
L 183.675807 238.627945 
L 184.000786 208.089811 
L 184.325766 65.05838 
L 184.650745 295.488 
L 184.975725 121.695551 
L 185.300704 57.048097 
L 185.625684 88.903163 
L 185.950663 222.693668 
L 186.275643 178.992231 
L 186.600622 181.88195 
L 186.925602 233.272902 
L 187.250581 62.367501 
L 187.900541 286.688499 
L 188.22552 115.783098 
L 188.5505 167.17405 
L 188.875479 170.063769 
L 189.200459 126.362332 
L 189.525438 260.152837 
L 189.850418 292.007903 
L 190.175397 227.360449 
L 190.500377 53.568 
L 190.825356 283.99762 
L 191.150336 140.966189 
L 191.475315 110.428055 
L 191.800295 206.759391 
L 192.125274 174.372429 
L 192.450254 283.99762 
L 192.775233 272.50724 
L 193.100213 131.029112 
L 193.425192 135.993759 
L 193.750172 293.559078 
L 194.075152 126.362332 
L 194.400131 136.657528 
L 194.725111 70.842714 
L 195.05009 212.114434 
L 195.37507 67.74926 
L 196.025029 281.30674 
L 196.350008 136.941566 
L 196.674988 278.213286 
L 196.999967 212.398472 
L 197.324947 222.693668 
L 197.649926 55.496922 
L 197.974906 213.062241 
L 198.299885 218.026888 
L 198.624865 76.54876 
L 198.949844 65.05838 
L 199.274824 174.683571 
L 199.599803 142.296609 
L 199.924783 238.627945 
L 200.249762 208.089811 
L 200.574742 65.05838 
L 200.899722 295.488 
L 201.224701 121.695551 
L 201.549681 57.048097 
L 201.87466 88.903163 
L 202.19964 222.693668 
L 202.524619 178.992231 
L 202.849599 181.88195 
L 203.174578 233.272902 
L 203.499558 62.367501 
L 204.149517 286.688499 
L 204.474496 115.783098 
L 204.799476 167.17405 
L 205.124455 170.063769 
L 205.449435 126.362332 
L 205.774414 260.152837 
L 206.099394 292.007903 
L 206.424373 227.360449 
L 206.749353 53.568 
L 207.074333 283.99762 
L 207.399312 140.966189 
L 207.724292 110.428055 
L 208.049271 206.759391 
L 208.374251 174.372429 
L 208.69923 283.99762 
L 209.02421 272.50724 
L 209.349189 131.029112 
L 209.674169 135.993759 
L 209.999148 293.559078 
L 210.324128 126.362332 
L 210.649107 136.657528 
L 210.974087 70.842714 
L 211.299066 212.114434 
L 211.624046 67.74926 
L 212.274005 281.30674 
L 212.598984 136.941566 
L 212.923964 278.213286 
L 213.248943 212.398472 
L 213.573923 222.693668 
L 213.898903 55.496922 
L 214.223882 213.062241 
L 214.548862 218.026888 
L 214.873841 76.54876 
L 215.198821 65.05838 
L 215.5238 174.683571 
L 215.84878 142.296609 
L 216.173759 238.627945 
L 216.498739 208.089811 
L 216.823718 65.05838 
L 217.148698 295.488 
L 217.473677 121.695551 
L 217.798657 57.048097 
L 218.123636 88.903163 
L 218.448616 222.693668 
L 218.773595 178.992231 
L 219.098575 181.88195 
L 219.423554 233.272902 
L 219.748534 62.367501 
L 220.398493 286.688499 
L 220.723473 115.783098 
L 221.048452 167.17405 
L 221.373432 170.063769 
L 221.698411 126.362332 
L 222.023391 260.152837 
L 222.34837 292.007903 
L 222.67335 227.360449 
L 222.998329 53.568 
L 223.323309 283.99762 
L 223.648288 140.966189 
L 223.973268 110.428055 
L 224.298247 206.759391 
L 224.623227 174.372429 
L 224.948206 283.99762 
L 225.273186 272.50724 
L 225.598165 131.029112 
L 225.923145 135.993759 
L 226.248124 293.559078 
L 226.573104 126.362332 
L 226.898084 136.657528 
L 227.223063 70.842714 
L 227.548043 212.114434 
L 227.873022 67.74926 
L 228.522981 281.30674 
L 228.847961 136.941566 
L 229.17294 278.213286 
L 229.49792 212.398472 
L 229.822899 222.693668 
L 230.147879 55.496922 
L 230.472858 213.062241 
L 230.797838 218.026888 
L 231.122817 76.54876 
L 231.447797 65.05838 
L 231.772776 174.683571 
L 232.097756 142.296609 
L 232.422735 238.627945 
L 232.747715 208.089811 
L 233.072695 65.05838 
L 233.397674 295.488 
L 233.722654 121.695551 
L 234.047633 57.048097 
L 234.372613 88.903163 
L 234.697592 222.693668 
L 235.022572 178.992231 
L 235.347551 181.88195 
L 235.672531 233.272902 
L 235.99751 62.367501 
L 236.647469 286.688499 
L 236.972449 115.783098 
L 237.297428 167.17405 
L 237.622408 170.063769 
L 237.947387 126.362332 
L 238.272367 260.152837 
L 238.597346 292.007903 
L 238.922326 227.360449 
L 239.247305 53.568 
L 239.572285 283.99762 
L 239.897265 140.966189 
L 240.222244 110.428055 
L 240.547224 206.759391 
L 240.872203 174.372429 
L 241.197183 283.99762 
L 241.522162 272.50724 
L 241.847142 131.029112 
L 242.172121 135.993759 
L 242.497101 293.559078 
L 242.82208 126.362332 
L 243.14706 136.657528 
L 243.472039 70.842714 
L 243.797019 212.114434 
L 244.121998 67.74926 
L 244.771957 281.30674 
L 245.096937 136.941566 
L 245.421916 278.213286 
L 245.746896 212.398472 
L 246.071876 222.693668 
L 246.396855 55.496922 
L 246.721835 213.062241 
L 247.046814 218.026888 
L 247.371794 76.54876 
L 247.696773 65.05838 
L 248.021753 174.683571 
L 248.346732 142.296609 
L 248.671712 238.627945 
L 248.996691 208.089811 
L 249.321671 65.05838 
L 249.64665 295.488 
L 249.97163 121.695551 
L 250.296609 57.048097 
L 250.621589 88.903163 
L 250.946568 222.693668 
L 251.271548 178.992231 
L 251.596527 181.88195 
L 251.921507 233.272902 
L 252.246486 62.367501 
L 252.896446 286.688499 
L 253.221425 115.783098 
L 253.546405 167.17405 
L 253.871384 170.063769 
L 254.196364 126.362332 
L 254.521343 260.152837 
L 254.846323 292.007903 
L 255.171302 227.360449 
L 255.496282 53.568 
L 255.821261 283.99762 
L 256.146241 140.966189 
L 256.47122 110.428055 
L 256.7962 206.759391 
L 257.121179 174.372429 
L 257.446159 283.99762 
L 257.771138 272.50724 
L 258.096118 131.029112 
L 258.421097 135.993759 
L 258.746077 293.559078 
L 259.071057 126.362332 
L 259.396036 136.657528 
L 259.721016 70.842714 
L 260.045995 212.114434 
L 260.370975 67.74926 
L 261.020934 281.30674 
L 261.345913 136.941566 
L 261.670893 278.213286 
L 261.995872 212.398472 
L 262.320852 222.693668 
L 262.645831 55.496922 
L 262.970811 213.062241 
L 263.29579 218.026888 
L 263.62077 76.54876 
L 263.945749 65.05838 
L 264.270729 174.683571 
L 264.595708 142.296609 
L 264.920688 238.627945 
L 265.245667 208.089811 
L 265.570647 65.05838 
L 265.895627 295.488 
L 266.220606 121.695551 
L 266.545586 57.048097 
L 266.870565 88.903163 
L 267.195545 222.693668 
L 267.520524 178.992231 
L 267.845504 181.88195 
L 268.170483 233.272902 
L 268.495463 62.367501 
L 269.145422 286.688499 
L 269.470401 115.783098 
L 269.795381 167.17405 
L 270.12036 170.063769 
L 270.44534 126.362332 
L 270.770319 260.152837 
L 271.095299 292.007903 
L 271.420278 227.360449 
L 271.745258 53.568 
L 272.070238 283.99762 
L 272.395217 140.966189 
L 272.720197 110.428055 
L 273.045176 206.759391 
L 273.370156 174.372429 
L 273.695135 283.99762 
L 274.020115 272.50724 
L 274.345094 131.029112 
L 274.670074 135.993759 
L 274.995053 293.559078 
L 275.320033 126.362332 
L 275.645012 136.657528 
L 275.969992 70.842714 
L 276.294971 212.114434 
L 276.619951 67.74926 
L 277.26991 281.30674 
L 277.594889 136.941566 
L 277.919869 278.213286 
L 278.244848 212.398472 
L 278.569828 222.693668 
L 278.894808 55.496922 
L 279.219787 213.062241 
L 279.544767 218.026888 
L 279.869746 76.54876 
L 280.194726 65.05838 
L 280.519705 174.683571 
L 280.844685 142.296609 
L 281.169664 238.627945 
L 281.494644 208.089811 
L 281.819623 65.05838 
L 282.144603 295.488 
L 282.469582 121.695551 
L 282.794562 57.048097 
L 283.119541 88.903163 
L 283.444521 222.693668 
L 283.7695 178.992231 
L 284.09448 181.88195 
L 284.419459 233.272902 
L 284.744439 62.367501 
L 285.394398 286.688499 
L 285.719378 115.783098 
L 286.044357 167.17405 
L 286.369337 170.063769 
L 286.694316 126.362332 
L 287.019296 260.152837 
L 287.344275 292.007903 
L 287.669255 227.360449 
L 287.994234 53.568 
L 288.319214 283.99762 
L 288.644193 140.966189 
L 288.969173 110.428055 
L 289.294152 206.759391 
L 289.619132 174.372429 
L 289.944111 283.99762 
L 290.269091 272.50724 
L 290.59407 131.029112 
L 290.91905 135.993759 
L 291.244029 293.559078 
L 291.569009 126.362332 
L 291.893989 136.657528 
L 292.218968 70.842714 
L 292.543948 212.114434 
L 292.868927 67.74926 
L 293.518886 281.30674 
L 293.843866 136.941566 
L 294.168845 278.213286 
L 294.493825 212.398472 
L 294.818804 222.693668 
L 295.143784 55.496922 
L 295.468763 213.062241 
L 295.793743 218.026888 
L 296.118722 76.54876 
L 296.443702 65.05838 
L 296.768681 174.683571 
L 297.093661 142.296609 
L 297.41864 238.627945 
L 297.74362 208.089811 
L 298.0686 65.05838 
L 298.393579 295.488 
L 298.718559 121.695551 
L 299.043538 57.048097 
L 299.368518 88.903163 
L 299.693497 222.693668 
L 300.018477 178.992231 
L 300.343456 181.88195 
L 300.668436 233.272902 
L 300.993415 62.367501 
L 301.643374 286.688499 
L 301.968354 115.783098 
L 302.293333 167.17405 
L 302.618313 170.063769 
L 302.943292 126.362332 
L 303.268272 260.152837 
L 303.593251 292.007903 
L 303.918231 227.360449 
L 304.24321 53.568 
L 304.56819 283.99762 
L 304.89317 140.966189 
L 305.218149 110.428055 
L 305.543129 206.759391 
L 305.868108 174.372429 
L 306.193088 283.99762 
L 306.518067 272.50724 
L 306.843047 131.029112 
L 307.168026 135.993759 
L 307.493006 293.559078 
L 307.817985 126.362332 
L 308.142965 136.657528 
L 308.467944 70.842714 
L 308.792924 212.114434 
L 309.117903 67.74926 
L 309.767862 281.30674 
L 310.092842 136.941566 
L 310.417821 278.213286 
L 310.742801 212.398472 
L 311.067781 222.693668 
L 311.39276 55.496922 
L 311.71774 213.062241 
L 312.042719 218.026888 
L 312.367699 76.54876 
L 312.692678 65.05838 
L 313.017658 174.683571 
L 313.342637 142.296609 
L 313.667617 238.627945 
L 313.992596 208.089811 
L 314.317576 65.05838 
L 314.642555 295.488 
L 314.967535 121.695551 
L 315.292514 57.048097 
L 315.617494 88.903163 
L 315.942473 222.693668 
L 316.267453 178.992231 
L 316.592432 181.88195 
L 316.917412 233.272902 
L 317.242391 62.367501 
L 317.892351 286.688499 
L 318.21733 115.783098 
L 318.54231 167.17405 
L 318.867289 170.063769 
L 319.192269 126.362332 
L 319.517248 260.152837 
L 319.842228 292.007903 
L 320.167207 227.360449 
L 320.492187 53.568 
L 320.817166 283.99762 
L 321.142146 140.966189 
L 321.467125 110.428055 
L 321.792105 206.759391 
L 322.117084 174.372429 
L 322.442064 283.99762 
L 322.767043 272.50724 
L 323.092023 131.029112 
L 323.417002 135.993759 
L 323.741982 293.559078 
L 324.066962 126.362332 
L 324.391941 136.657528 
L 324.716921 70.842714 
L 325.0419 212.114434 
L 325.36688 67.74926 
L 326.016839 281.30674 
L 326.341818 136.941566 
L 326.666798 278.213286 
L 326.991777 212.398472 
L 327.316757 222.693668 
L 327.641736 55.496922 
L 327.966716 213.062241 
L 328.291695 218.026888 
L 328.616675 76.54876 
L 328.941654 65.05838 
L 329.266634 174.683571 
L 329.591613 142.296609 
L 329.916593 238.627945 
L 330.241572 208.089811 
L 330.566552 65.05838 
L 330.891532 295.488 
L 331.216511 121.695551 
L 331.541491 57.048097 
L 331.86647 88.903163 
L 332.19145 222.693668 
L 332.516429 178.992231 
L 332.841409 181.88195 
L 333.166388 233.272902 
L 333.491368 62.367501 
L 334.141327 286.688499 
L 334.466306 115.783098 
L 334.791286 167.17405 
L 335.116265 170.063769 
L 335.441245 126.362332 
L 335.766224 260.152837 
L 336.091204 292.007903 
L 336.416183 227.360449 
L 336.741163 53.568 
L 337.066143 283.99762 
L 337.391122 140.966189 
L 337.716102 110.428055 
L 338.041081 206.759391 
L 338.366061 174.372429 
L 338.69104 283.99762 
L 339.01602 272.50724 
L 339.340999 131.029112 
L 339.665979 135.993759 
L 339.990958 293.559078 
L 340.315938 126.362332 
L 340.640917 136.657528 
L 340.965897 70.842714 
L 341.290876 212.114434 
L 341.615856 67.74926 
L 342.265815 281.30674 
L 342.590794 136.941566 
L 342.915774 278.213286 
L 343.240753 212.398472 
L 343.565733 222.693668 
L 343.890713 55.496922 
L 344.215692 213.062241 
L 344.540672 218.026888 
L 344.865651 76.54876 
L 345.190631 65.05838 
L 345.51561 174.683571 
L 345.84059 142.296609 
L 346.165569 238.627945 
L 346.490549 208.089811 
L 346.815528 65.05838 
L 347.140508 295.488 
L 347.465487 121.695551 
L 347.790467 57.048097 
L 348.115446 88.903163 
L 348.440426 222.693668 
L 348.765405 178.992231 
L 349.090385 181.88195 
L 349.415364 233.272902 
L 349.740344 62.367501 
L 350.390303 286.688499 
L 350.715283 115.783098 
L 351.040262 167.17405 
L 351.365242 170.063769 
L 351.690221 126.362332 
L 352.015201 260.152837 
L 352.34018 292.007903 
L 352.66516 227.360449 
L 352.990139 53.568 
L 353.315119 283.99762 
L 353.640098 140.966189 
L 353.965078 110.428055 
L 354.290057 206.759391 
L 354.615037 174.372429 
L 354.940016 283.99762 
L 355.264996 272.50724 
L 355.589975 131.029112 
L 355.914955 135.993759 
L 356.239934 293.559078 
L 356.564914 126.362332 
L 356.889894 136.657528 
L 357.214873 70.842714 
L 357.539853 212.114434 
L 357.864832 67.74926 
L 358.514791 281.30674 
L 358.839771 136.941566 
L 359.16475 278.213286 
L 359.48973 212.398472 
L 359.814709 222.693668 
L 360.139689 55.496922 
L 360.464668 213.062241 
L 360.789648 218.026888 
L 361.114627 76.54876 
L 361.439607 65.05838 
L 361.764586 174.683571 
L 362.089566 142.296609 
L 362.414545 238.627945 
L 362.739525 208.089811 
L 363.064505 65.05838 
L 363.389484 295.488 
L 363.714464 121.695551 
L 364.039443 57.048097 
L 364.364423 88.903163 
L 364.689402 222.693668 
L 365.014382 178.992231 
L 365.339361 181.88195 
L 365.664341 233.272902 
L 365.98932 62.367501 
L 366.639279 286.688499 
L 366.964259 115.783098 
L 367.289238 167.17405 
L 367.614218 170.063769 
L 367.939197 126.362332 
L 368.264177 260.152837 
L 368.589156 292.007903 
L 368.914136 227.360449 
L 369.239115 53.568 
L 369.564095 283.99762 
L 369.889075 140.966189 
L 370.214054 110.428055 
L 370.539034 206.759391 
L 370.864013 174.372429 
L 371.188993 283.99762 
L 371.513972 272.50724 
L 371.838952 131.029112 
L 372.163931 135.993759 
L 372.488911 293.559078 
L 372.81389 126.362332 
L 373.13887 136.657528 
L 373.463849 70.842714 
L 373.788829 212.114434 
L 374.113808 67.74926 
L 374.763767 281.30674 
L 375.088747 136.941566 
L 375.413726 278.213286 
L 375.738706 212.398472 
L 376.063686 222.693668 
L 376.388665 55.496922 
L 376.713645 213.062241 
L 377.038624 218.026888 
L 377.363604 76.54876 
L 377.688583 65.05838 
L 378.013563 174.683571 
L 378.338542 142.296609 
L 378.663522 238.627945 
L 378.988501 208.089811 
L 379.313481 65.05838 
L 379.63846 295.488 
L 379.96344 121.695551 
L 380.288419 57.048097 
L 380.613399 88.903163 
L 380.938378 222.693668 
L 381.263358 178.992231 
L 381.588337 181.88195 
L 381.913317 233.272902 
L 382.238296 62.367501 
L 382.888256 286.688499 
L 383.213235 115.783098 
L 383.538215 167.17405 
L 383.863194 170.063769 
L 384.188174 126.362332 
L 384.513153 260.152837 
L 384.838133 292.007903 
L 385.163112 227.360449 
L 385.488092 53.568 
L 385.813071 283.99762 
L 386.138051 140.966189 
L 386.46303 110.428055 
L 386.78801 206.759391 
L 387.112989 174.372429 
L 387.437969 283.99762 
L 387.762948 272.50724 
L 388.087928 131.029112 
L 388.412907 135.993759 
L 388.737887 293.559078 
L 389.062867 126.362332 
L 389.387846 136.657528 
L 389.712826 70.842714 
L 390.037805 212.114434 
L 390.362785 67.74926 
L 391.012744 281.30674 
L 391.337723 136.941566 
L 391.662703 278.213286 
L 391.987682 212.398472 
L 392.312662 222.693668 
L 392.637641 55.496922 
L 392.962621 213.062241 
L 393.2876 218.026888 
L 393.61258 76.54876 
L 393.937559 65.05838 
L 394.262539 174.683571 
L 394.587518 142.296609 
L 394.912498 238.627945 
L 395.237477 208.089811 
L 395.562457 65.05838 
L 395.887437 295.488 
L 396.212416 121.695551 
L 396.537396 57.048097 
L 396.862375 88.903163 
L 397.187355 222.693668 
L 397.512334 178.992231 
L 397.837314 181.88195 
L 398.162293 233.272902 
L 398.487273 62.367501 
L 398.487273 62.367501 
" style="fill:none;stroke:#ff0000;stroke-linecap:square;stroke-width:1.5;"/>
   </g>
   <g id="patch_3">
    <path d="M 57.6 307.584 
L 57.6 41.472 
" style="fill:none;stroke:#000000;stroke-linecap:square;stroke-linejoin:miter;stroke-width:0.8;"/>
   </g>
   <g id="patch_4">
    <path d="M 414.72 307.584 
L 414.72 41.472 
" style="fill:none;stroke:#000000;stroke-linecap:square;stroke-linejoin:miter;stroke-width:0.8;"/>
   </g>
   <g id="patch_5">
    <path d="M 57.6 307.584 
L 414.72 307.584 
" style="fill:none;stroke:#000000;stroke-linecap:square;stroke-linejoin:miter;stroke-width:0.8;"/>
   </g>
   <g id="patch_6">
    <path d="M 57.6 41.472 
L 414.72 41.472 
" style="fill:none;stroke:#000000;stroke-linecap:square;stroke-linejoin:miter;stroke-width:0.8;"/>
   </g>
   <g id="text_14">
    <!-- difference between the float and fixed input -->
    <defs>
     <path d="M 45.40625 46.390625 
L 45.40625 75.984375 
L 54.390625 75.984375 
L 54.390625 0 
L 45.40625 0 
L 45.40625 8.203125 
Q 42.578125 3.328125 38.25 0.953125 
Q 33.9375 -1.421875 27.875 -1.421875 
Q 17.96875 -1.421875 11.734375 6.484375 
Q 5.515625 14.40625 5.515625 27.296875 
Q 5.515625 40.1875 11.734375 48.09375 
Q 17.96875 56 27.875 56 
Q 33.9375 56 38.25 53.625 
Q 42.578125 51.265625 45.40625 46.390625 
z
M 14.796875 27.296875 
Q 14.796875 17.390625 18.875 11.75 
Q 22.953125 6.109375 30.078125 6.109375 
Q 37.203125 6.109375 41.296875 11.75 
Q 45.40625 17.390625 45.40625 27.296875 
Q 45.40625 37.203125 41.296875 42.84375 
Q 37.203125 48.484375 30.078125 48.484375 
Q 22.953125 48.484375 18.875 42.84375 
Q 14.796875 37.203125 14.796875 27.296875 
z
" id="DejaVuSans-64"/>
     <path d="M 9.421875 54.6875 
L 18.40625 54.6875 
L 18.40625 0 
L 9.421875 0 
z
M 9.421875 75.984375 
L 18.40625 75.984375 
L 18.40625 64.59375 
L 9.421875 64.59375 
z
" id="DejaVuSans-69"/>
     <path d="M 37.109375 75.984375 
L 37.109375 68.5 
L 28.515625 68.5 
Q 23.6875 68.5 21.796875 66.546875 
Q 19.921875 64.59375 19.921875 59.515625 
L 19.921875 54.6875 
L 34.71875 54.6875 
L 34.71875 47.703125 
L 19.921875 47.703125 
L 19.921875 0 
L 10.890625 0 
L 10.890625 47.703125 
L 2.296875 47.703125 
L 2.296875 54.6875 
L 10.890625 54.6875 
L 10.890625 58.5 
Q 10.890625 67.625 15.140625 71.796875 
Q 19.390625 75.984375 28.609375 75.984375 
z
" id="DejaVuSans-66"/>
     <path d="M 56.203125 29.59375 
L 56.203125 25.203125 
L 14.890625 25.203125 
Q 15.484375 15.921875 20.484375 11.0625 
Q 25.484375 6.203125 34.421875 6.203125 
Q 39.59375 6.203125 44.453125 7.46875 
Q 49.3125 8.734375 54.109375 11.28125 
L 54.109375 2.78125 
Q 49.265625 0.734375 44.1875 -0.34375 
Q 39.109375 -1.421875 33.890625 -1.421875 
Q 20.796875 -1.421875 13.15625 6.1875 
Q 5.515625 13.8125 5.515625 26.8125 
Q 5.515625 40.234375 12.765625 48.109375 
Q 20.015625 56 32.328125 56 
Q 43.359375 56 49.78125 48.890625 
Q 56.203125 41.796875 56.203125 29.59375 
z
M 47.21875 32.234375 
Q 47.125 39.59375 43.09375 43.984375 
Q 39.0625 48.390625 32.421875 48.390625 
Q 24.90625 48.390625 20.390625 44.140625 
Q 15.875 39.890625 15.1875 32.171875 
z
" id="DejaVuSans-65"/>
     <path d="M 41.109375 46.296875 
Q 39.59375 47.171875 37.8125 47.578125 
Q 36.03125 48 33.890625 48 
Q 26.265625 48 22.1875 43.046875 
Q 18.109375 38.09375 18.109375 28.8125 
L 18.109375 0 
L 9.078125 0 
L 9.078125 54.6875 
L 18.109375 54.6875 
L 18.109375 46.1875 
Q 20.953125 51.171875 25.484375 53.578125 
Q 30.03125 56 36.53125 56 
Q 37.453125 56 38.578125 55.875 
Q 39.703125 55.765625 41.0625 55.515625 
z
" id="DejaVuSans-72"/>
     <path d="M 54.890625 33.015625 
L 54.890625 0 
L 45.90625 0 
L 45.90625 32.71875 
Q 45.90625 40.484375 42.875 44.328125 
Q 39.84375 48.1875 33.796875 48.1875 
Q 26.515625 48.1875 22.3125 43.546875 
Q 18.109375 38.921875 18.109375 30.90625 
L 18.109375 0 
L 9.078125 0 
L 9.078125 54.6875 
L 18.109375 54.6875 
L 18.109375 46.1875 
Q 21.34375 51.125 25.703125 53.5625 
Q 30.078125 56 35.796875 56 
Q 45.21875 56 50.046875 50.171875 
Q 54.890625 44.34375 54.890625 33.015625 
z
" id="DejaVuSans-6e"/>
     <path d="M 48.78125 52.59375 
L 48.78125 44.1875 
Q 44.96875 46.296875 41.140625 47.34375 
Q 37.3125 48.390625 33.40625 48.390625 
Q 24.65625 48.390625 19.8125 42.84375 
Q 14.984375 37.3125 14.984375 27.296875 
Q 14.984375 17.28125 19.8125 11.734375 
Q 24.65625 6.203125 33.40625 6.203125 
Q 37.3125 6.203125 41.140625 7.25 
Q 44.96875 8.296875 48.78125 10.40625 
L 48.78125 2.09375 
Q 45.015625 0.34375 40.984375 -0.53125 
Q 36.96875 -1.421875 32.421875 -1.421875 
Q 20.0625 -1.421875 12.78125 6.34375 
Q 5.515625 14.109375 5.515625 27.296875 
Q 5.515625 40.671875 12.859375 48.328125 
Q 20.21875 56 33.015625 56 
Q 37.15625 56 41.109375 55.140625 
Q 45.0625 54.296875 48.78125 52.59375 
z
" id="DejaVuSans-63"/>
     <path id="DejaVuSans-20"/>
     <path d="M 48.6875 27.296875 
Q 48.6875 37.203125 44.609375 42.84375 
Q 40.53125 48.484375 33.40625 48.484375 
Q 26.265625 48.484375 22.1875 42.84375 
Q 18.109375 37.203125 18.109375 27.296875 
Q 18.109375 17.390625 22.1875 11.75 
Q 26.265625 6.109375 33.40625 6.109375 
Q 40.53125 6.109375 44.609375 11.75 
Q 48.6875 17.390625 48.6875 27.296875 
z
M 18.109375 46.390625 
Q 20.953125 51.265625 25.265625 53.625 
Q 29.59375 56 35.59375 56 
Q 45.5625 56 51.78125 48.09375 
Q 58.015625 40.1875 58.015625 27.296875 
Q 58.015625 14.40625 51.78125 6.484375 
Q 45.5625 -1.421875 35.59375 -1.421875 
Q 29.59375 -1.421875 25.265625 0.953125 
Q 20.953125 3.328125 18.109375 8.203125 
L 18.109375 0 
L 9.078125 0 
L 9.078125 75.984375 
L 18.109375 75.984375 
z
" id="DejaVuSans-62"/>
     <path d="M 18.3125 70.21875 
L 18.3125 54.6875 
L 36.8125 54.6875 
L 36.8125 47.703125 
L 18.3125 47.703125 
L 18.3125 18.015625 
Q 18.3125 11.328125 20.140625 9.421875 
Q 21.96875 7.515625 27.59375 7.515625 
L 36.8125 7.515625 
L 36.8125 0 
L 27.59375 0 
Q 17.1875 0 13.234375 3.875 
Q 9.28125 7.765625 9.28125 18.015625 
L 9.28125 47.703125 
L 2.6875 47.703125 
L 2.6875 54.6875 
L 9.28125 54.6875 
L 9.28125 70.21875 
z
" id="DejaVuSans-74"/>
     <path d="M 4.203125 54.6875 
L 13.1875 54.6875 
L 24.421875 12.015625 
L 35.59375 54.6875 
L 46.1875 54.6875 
L 57.421875 12.015625 
L 68.609375 54.6875 
L 77.59375 54.6875 
L 63.28125 0 
L 52.6875 0 
L 40.921875 44.828125 
L 29.109375 0 
L 18.5 0 
z
" id="DejaVuSans-77"/>
     <path d="M 54.890625 33.015625 
L 54.890625 0 
L 45.90625 0 
L 45.90625 32.71875 
Q 45.90625 40.484375 42.875 44.328125 
Q 39.84375 48.1875 33.796875 48.1875 
Q 26.515625 48.1875 22.3125 43.546875 
Q 18.109375 38.921875 18.109375 30.90625 
L 18.109375 0 
L 9.078125 0 
L 9.078125 75.984375 
L 18.109375 75.984375 
L 18.109375 46.1875 
Q 21.34375 51.125 25.703125 53.5625 
Q 30.078125 56 35.796875 56 
Q 45.21875 56 50.046875 50.171875 
Q 54.890625 44.34375 54.890625 33.015625 
z
" id="DejaVuSans-68"/>
     <path d="M 9.421875 75.984375 
L 18.40625 75.984375 
L 18.40625 0 
L 9.421875 0 
z
" id="DejaVuSans-6c"/>
     <path d="M 30.609375 48.390625 
Q 23.390625 48.390625 19.1875 42.75 
Q 14.984375 37.109375 14.984375 27.296875 
Q 14.984375 17.484375 19.15625 11.84375 
Q 23.34375 6.203125 30.609375 6.203125 
Q 37.796875 6.203125 41.984375 11.859375 
Q 46.1875 17.53125 46.1875 27.296875 
Q 46.1875 37.015625 41.984375 42.703125 
Q 37.796875 48.390625 30.609375 48.390625 
z
M 30.609375 56 
Q 42.328125 56 49.015625 48.375 
Q 55.71875 40.765625 55.71875 27.296875 
Q 55.71875 13.875 49.015625 6.21875 
Q 42.328125 -1.421875 30.609375 -1.421875 
Q 18.84375 -1.421875 12.171875 6.21875 
Q 5.515625 13.875 5.515625 27.296875 
Q 5.515625 40.765625 12.171875 48.375 
Q 18.84375 56 30.609375 56 
z
" id="DejaVuSans-6f"/>
     <path d="M 34.28125 27.484375 
Q 23.390625 27.484375 19.1875 25 
Q 14.984375 22.515625 14.984375 16.5 
Q 14.984375 11.71875 18.140625 8.90625 
Q 21.296875 6.109375 26.703125 6.109375 
Q 34.1875 6.109375 38.703125 11.40625 
Q 43.21875 16.703125 43.21875 25.484375 
L 43.21875 27.484375 
z
M 52.203125 31.203125 
L 52.203125 0 
L 43.21875 0 
L 43.21875 8.296875 
Q 40.140625 3.328125 35.546875 0.953125 
Q 30.953125 -1.421875 24.3125 -1.421875 
Q 15.921875 -1.421875 10.953125 3.296875 
Q 6 8.015625 6 15.921875 
Q 6 25.140625 12.171875 29.828125 
Q 18.359375 34.515625 30.609375 34.515625 
L 43.21875 34.515625 
L 43.21875 35.40625 
Q 43.21875 41.609375 39.140625 45 
Q 35.0625 48.390625 27.6875 48.390625 
Q 23 48.390625 18.546875 47.265625 
Q 14.109375 46.140625 10.015625 43.890625 
L 10.015625 52.203125 
Q 14.9375 54.109375 19.578125 55.046875 
Q 24.21875 56 28.609375 56 
Q 40.484375 56 46.34375 49.84375 
Q 52.203125 43.703125 52.203125 31.203125 
z
" id="DejaVuSans-61"/>
     <path d="M 54.890625 54.6875 
L 35.109375 28.078125 
L 55.90625 0 
L 45.3125 0 
L 29.390625 21.484375 
L 13.484375 0 
L 2.875 0 
L 24.125 28.609375 
L 4.6875 54.6875 
L 15.28125 54.6875 
L 29.78125 35.203125 
L 44.28125 54.6875 
z
" id="DejaVuSans-78"/>
     <path d="M 18.109375 8.203125 
L 18.109375 -20.796875 
L 9.078125 -20.796875 
L 9.078125 54.6875 
L 18.109375 54.6875 
L 18.109375 46.390625 
Q 20.953125 51.265625 25.265625 53.625 
Q 29.59375 56 35.59375 56 
Q 45.5625 56 51.78125 48.09375 
Q 58.015625 40.1875 58.015625 27.296875 
Q 58.015625 14.40625 51.78125 6.484375 
Q 45.5625 -1.421875 35.59375 -1.421875 
Q 29.59375 -1.421875 25.265625 0.953125 
Q 20.953125 3.328125 18.109375 8.203125 
z
M 48.6875 27.296875 
Q 48.6875 37.203125 44.609375 42.84375 
Q 40.53125 48.484375 33.40625 48.484375 
Q 26.265625 48.484375 22.1875 42.84375 
Q 18.109375 37.203125 18.109375 27.296875 
Q 18.109375 17.390625 22.1875 11.75 
Q 26.265625 6.109375 33.40625 6.109375 
Q 40.53125 6.109375 44.609375 11.75 
Q 48.6875 17.390625 48.6875 27.296875 
z
" id="DejaVuSans-70"/>
     <path d="M 8.5 21.578125 
L 8.5 54.6875 
L 17.484375 54.6875 
L 17.484375 21.921875 
Q 17.484375 14.15625 20.5 10.265625 
Q 23.53125 6.390625 29.59375 6.390625 
Q 36.859375 6.390625 41.078125 11.03125 
Q 45.3125 15.671875 45.3125 23.6875 
L 45.3125 54.6875 
L 54.296875 54.6875 
L 54.296875 0 
L 45.3125 0 
L 45.3125 8.40625 
Q 42.046875 3.421875 37.71875 1 
Q 33.40625 -1.421875 27.6875 -1.421875 
Q 18.265625 -1.421875 13.375 4.4375 
Q 8.5 10.296875 8.5 21.578125 
z
M 31.109375 56 
z
" id="DejaVuSans-75"/>
    </defs>
    <g transform="translate(103.554375 35.472)scale(0.12 -0.12)">
     <use xlink:href="#DejaVuSans-64"/>
     <use x="63.476562" xlink:href="#DejaVuSans-69"/>
     <use x="91.259766" xlink:href="#DejaVuSans-66"/>
     <use x="126.464844" xlink:href="#DejaVuSans-66"/>
     <use x="161.669922" xlink:href="#DejaVuSans-65"/>
     <use x="223.193359" xlink:href="#DejaVuSans-72"/>
     <use x="264.275391" xlink:href="#DejaVuSans-65"/>
     <use x="325.798828" xlink:href="#DejaVuSans-6e"/>
     <use x="389.177734" xlink:href="#DejaVuSans-63"/>
     <use x="444.158203" xlink:href="#DejaVuSans-65"/>
     <use x="505.681641" xlink:href="#DejaVuSans-20"/>
     <use x="537.46875" xlink:href="#DejaVuSans-62"/>
     <use x="600.945312" xlink:href="#DejaVuSans-65"/>
     <use x="662.46875" xlink:href="#DejaVuSans-74"/>
     <use x="701.677734" xlink:href="#DejaVuSans-77"/>
     <use x="783.464844" xlink:href="#DejaVuSans-65"/>
     <use x="844.988281" xlink:href="#DejaVuSans-65"/>
     <use x="906.511719" xlink:href="#DejaVuSans-6e"/>
     <use x="969.890625" xlink:href="#DejaVuSans-20"/>
     <use x="1001.677734" xlink:href="#DejaVuSans-74"/>
     <use x="1040.886719" xlink:href="#DejaVuSans-68"/>
     <use x="1104.265625" xlink:href="#DejaVuSans-65"/>
     <use x="1165.789062" xlink:href="#DejaVuSans-20"/>
     <use x="1197.576172" xlink:href="#DejaVuSans-66"/>
     <use x="1232.78125" xlink:href="#DejaVuSans-6c"/>
     <use x="1260.564453" xlink:href="#DejaVuSans-6f"/>
     <use x="1321.746094" xlink:href="#DejaVuSans-61"/>
     <use x="1383.025391" xlink:href="#DejaVuSans-74"/>
     <use x="1422.234375" xlink:href="#DejaVuSans-20"/>
     <use x="1454.021484" xlink:href="#DejaVuSans-61"/>
     <use x="1515.300781" xlink:href="#DejaVuSans-6e"/>
     <use x="1578.679688" xlink:href="#DejaVuSans-64"/>
     <use x="1642.15625" xlink:href="#DejaVuSans-20"/>
     <use x="1673.943359" xlink:href="#DejaVuSans-66"/>
     <use x="1709.148438" xlink:href="#DejaVuSans-69"/>
     <use x="1736.931641" xlink:href="#DejaVuSans-78"/>
     <use x="1796.064453" xlink:href="#DejaVuSans-65"/>
     <use x="1857.587891" xlink:href="#DejaVuSans-64"/>
     <use x="1921.064453" xlink:href="#DejaVuSans-20"/>
     <use x="1952.851562" xlink:href="#DejaVuSans-69"/>
     <use x="1980.634766" xlink:href="#DejaVuSans-6e"/>
     <use x="2044.013672" xlink:href="#DejaVuSans-70"/>
     <use x="2107.490234" xlink:href="#DejaVuSans-75"/>
     <use x="2170.869141" xlink:href="#DejaVuSans-74"/>
    </g>
   </g>
  </g>
 </g>
 <defs>
  <clipPath id="pd4bb686a0b">
   <rect height="266.112" width="357.12" x="57.6" y="41.472"/>
  </clipPath>
 </defs>
</svg>
