<?xml version="1.0" encoding="utf-8" standalone="no"?>
<!DOCTYPE svg PUBLIC "-//W3C//DTD SVG 1.1//EN"
  "http://www.w3.org/Graphics/SVG/1.1/DTD/svg11.dtd">
<!-- Created with matplotlib (http://matplotlib.org/) -->
<svg height="345pt" version="1.1" viewBox="0 0 460 345" width="460pt" xmlns="http://www.w3.org/2000/svg" xmlns:xlink="http://www.w3.org/1999/xlink">
 <defs>
  <style type="text/css">
*{stroke-linecap:butt;stroke-linejoin:round;}
  </style>
 </defs>
 <g id="figure_1">
  <g id="patch_1">
   <path d="M 0 345.6 
L 460.8 345.6 
L 460.8 0 
L 0 0 
z
" style="fill:#ffffff;"/>
  </g>
  <g id="axes_1">
   <g id="patch_2">
    <path d="M 57.6 162.432 
L 414.72 162.432 
L 414.72 41.472 
L 57.6 41.472 
z
" style="fill:#ffffff;"/>
   </g>
   <g id="matplotlib.axis_1">
    <g id="xtick_1">
     <g id="line2d_1">
      <defs>
       <path d="M 0 0 
L 0 3.5 
" id="mdc90e5688d" style="stroke:#000000;stroke-width:0.8;"/>
      </defs>
      <g>
       <use style="stroke:#000000;stroke-width:0.8;" x="57.6" xlink:href="#mdc90e5688d" y="162.432"/>
      </g>
     </g>
     <g id="text_1">
      <!-- 0 -->
      <defs>
       <path d="M 31.78125 66.40625 
Q 24.171875 66.40625 20.328125 58.90625 
Q 16.5 51.421875 16.5 36.375 
Q 16.5 21.390625 20.328125 13.890625 
Q 24.171875 6.390625 31.78125 6.390625 
Q 39.453125 6.390625 43.28125 13.890625 
Q 47.125 21.390625 47.125 36.375 
Q 47.125 51.421875 43.28125 58.90625 
Q 39.453125 66.40625 31.78125 66.40625 
z
M 31.78125 74.21875 
Q 44.046875 74.21875 50.515625 64.515625 
Q 56.984375 54.828125 56.984375 36.375 
Q 56.984375 17.96875 50.515625 8.265625 
Q 44.046875 -1.421875 31.78125 -1.421875 
Q 19.53125 -1.421875 13.0625 8.265625 
Q 6.59375 17.96875 6.59375 36.375 
Q 6.59375 54.828125 13.0625 64.515625 
Q 19.53125 74.21875 31.78125 74.21875 
z
" id="DejaVuSans-30"/>
      </defs>
      <g transform="translate(54.41875 177.030437)scale(0.1 -0.1)">
       <use xlink:href="#DejaVuSans-30"/>
      </g>
     </g>
    </g>
    <g id="xtick_2">
     <g id="line2d_2">
      <g>
       <use style="stroke:#000000;stroke-width:0.8;" x="129.024" xlink:href="#mdc90e5688d" y="162.432"/>
      </g>
     </g>
     <g id="text_2">
      <!-- 20 -->
      <defs>
       <path d="M 19.1875 8.296875 
L 53.609375 8.296875 
L 53.609375 0 
L 7.328125 0 
L 7.328125 8.296875 
Q 12.9375 14.109375 22.625 23.890625 
Q 32.328125 33.6875 34.8125 36.53125 
Q 39.546875 41.84375 41.421875 45.53125 
Q 43.3125 49.21875 43.3125 52.78125 
Q 43.3125 58.59375 39.234375 62.25 
Q 35.15625 65.921875 28.609375 65.921875 
Q 23.96875 65.921875 18.8125 64.3125 
Q 13.671875 62.703125 7.8125 59.421875 
L 7.8125 69.390625 
Q 13.765625 71.78125 18.9375 73 
Q 24.125 74.21875 28.421875 74.21875 
Q 39.75 74.21875 46.484375 68.546875 
Q 53.21875 62.890625 53.21875 53.421875 
Q 53.21875 48.921875 51.53125 44.890625 
Q 49.859375 40.875 45.40625 35.40625 
Q 44.1875 33.984375 37.640625 27.21875 
Q 31.109375 20.453125 19.1875 8.296875 
z
" id="DejaVuSans-32"/>
      </defs>
      <g transform="translate(122.6615 177.030437)scale(0.1 -0.1)">
       <use xlink:href="#DejaVuSans-32"/>
       <use x="63.623047" xlink:href="#DejaVuSans-30"/>
      </g>
     </g>
    </g>
    <g id="xtick_3">
     <g id="line2d_3">
      <g>
       <use style="stroke:#000000;stroke-width:0.8;" x="200.448" xlink:href="#mdc90e5688d" y="162.432"/>
      </g>
     </g>
     <g id="text_3">
      <!-- 40 -->
      <defs>
       <path d="M 37.796875 64.3125 
L 12.890625 25.390625 
L 37.796875 25.390625 
z
M 35.203125 72.90625 
L 47.609375 72.90625 
L 47.609375 25.390625 
L 58.015625 25.390625 
L 58.015625 17.1875 
L 47.609375 17.1875 
L 47.609375 0 
L 37.796875 0 
L 37.796875 17.1875 
L 4.890625 17.1875 
L 4.890625 26.703125 
z
" id="DejaVuSans-34"/>
      </defs>
      <g transform="translate(194.0855 177.030437)scale(0.1 -0.1)">
       <use xlink:href="#DejaVuSans-34"/>
       <use x="63.623047" xlink:href="#DejaVuSans-30"/>
      </g>
     </g>
    </g>
    <g id="xtick_4">
     <g id="line2d_4">
      <g>
       <use style="stroke:#000000;stroke-width:0.8;" x="271.872" xlink:href="#mdc90e5688d" y="162.432"/>
      </g>
     </g>
     <g id="text_4">
      <!-- 60 -->
      <defs>
       <path d="M 33.015625 40.375 
Q 26.375 40.375 22.484375 35.828125 
Q 18.609375 31.296875 18.609375 23.390625 
Q 18.609375 15.53125 22.484375 10.953125 
Q 26.375 6.390625 33.015625 6.390625 
Q 39.65625 6.390625 43.53125 10.953125 
Q 47.40625 15.53125 47.40625 23.390625 
Q 47.40625 31.296875 43.53125 35.828125 
Q 39.65625 40.375 33.015625 40.375 
z
M 52.59375 71.296875 
L 52.59375 62.3125 
Q 48.875 64.0625 45.09375 64.984375 
Q 41.3125 65.921875 37.59375 65.921875 
Q 27.828125 65.921875 22.671875 59.328125 
Q 17.53125 52.734375 16.796875 39.40625 
Q 19.671875 43.65625 24.015625 45.921875 
Q 28.375 48.1875 33.59375 48.1875 
Q 44.578125 48.1875 50.953125 41.515625 
Q 57.328125 34.859375 57.328125 23.390625 
Q 57.328125 12.15625 50.6875 5.359375 
Q 44.046875 -1.421875 33.015625 -1.421875 
Q 20.359375 -1.421875 13.671875 8.265625 
Q 6.984375 17.96875 6.984375 36.375 
Q 6.984375 53.65625 15.1875 63.9375 
Q 23.390625 74.21875 37.203125 74.21875 
Q 40.921875 74.21875 44.703125 73.484375 
Q 48.484375 72.75 52.59375 71.296875 
z
" id="DejaVuSans-36"/>
      </defs>
      <g transform="translate(265.5095 177.030437)scale(0.1 -0.1)">
       <use xlink:href="#DejaVuSans-36"/>
       <use x="63.623047" xlink:href="#DejaVuSans-30"/>
      </g>
     </g>
    </g>
    <g id="xtick_5">
     <g id="line2d_5">
      <g>
       <use style="stroke:#000000;stroke-width:0.8;" x="343.296" xlink:href="#mdc90e5688d" y="162.432"/>
      </g>
     </g>
     <g id="text_5">
      <!-- 80 -->
      <defs>
       <path d="M 31.78125 34.625 
Q 24.75 34.625 20.71875 30.859375 
Q 16.703125 27.09375 16.703125 20.515625 
Q 16.703125 13.921875 20.71875 10.15625 
Q 24.75 6.390625 31.78125 6.390625 
Q 38.8125 6.390625 42.859375 10.171875 
Q 46.921875 13.96875 46.921875 20.515625 
Q 46.921875 27.09375 42.890625 30.859375 
Q 38.875 34.625 31.78125 34.625 
z
M 21.921875 38.8125 
Q 15.578125 40.375 12.03125 44.71875 
Q 8.5 49.078125 8.5 55.328125 
Q 8.5 64.0625 14.71875 69.140625 
Q 20.953125 74.21875 31.78125 74.21875 
Q 42.671875 74.21875 48.875 69.140625 
Q 55.078125 64.0625 55.078125 55.328125 
Q 55.078125 49.078125 51.53125 44.71875 
Q 48 40.375 41.703125 38.8125 
Q 48.828125 37.15625 52.796875 32.3125 
Q 56.78125 27.484375 56.78125 20.515625 
Q 56.78125 9.90625 50.3125 4.234375 
Q 43.84375 -1.421875 31.78125 -1.421875 
Q 19.734375 -1.421875 13.25 4.234375 
Q 6.78125 9.90625 6.78125 20.515625 
Q 6.78125 27.484375 10.78125 32.3125 
Q 14.796875 37.15625 21.921875 38.8125 
z
M 18.3125 54.390625 
Q 18.3125 48.734375 21.84375 45.5625 
Q 25.390625 42.390625 31.78125 42.390625 
Q 38.140625 42.390625 41.71875 45.5625 
Q 45.3125 48.734375 45.3125 54.390625 
Q 45.3125 60.0625 41.71875 63.234375 
Q 38.140625 66.40625 31.78125 66.40625 
Q 25.390625 66.40625 21.84375 63.234375 
Q 18.3125 60.0625 18.3125 54.390625 
z
" id="DejaVuSans-38"/>
      </defs>
      <g transform="translate(336.9335 177.030437)scale(0.1 -0.1)">
       <use xlink:href="#DejaVuSans-38"/>
       <use x="63.623047" xlink:href="#DejaVuSans-30"/>
      </g>
     </g>
    </g>
    <g id="xtick_6">
     <g id="line2d_6">
      <g>
       <use style="stroke:#000000;stroke-width:0.8;" x="414.72" xlink:href="#mdc90e5688d" y="162.432"/>
      </g>
     </g>
     <g id="text_6">
      <!-- 100 -->
      <defs>
       <path d="M 12.40625 8.296875 
L 28.515625 8.296875 
L 28.515625 63.921875 
L 10.984375 60.40625 
L 10.984375 69.390625 
L 28.421875 72.90625 
L 38.28125 72.90625 
L 38.28125 8.296875 
L 54.390625 8.296875 
L 54.390625 0 
L 12.40625 0 
z
" id="DejaVuSans-31"/>
      </defs>
      <g transform="translate(405.17625 177.030437)scale(0.1 -0.1)">
       <use xlink:href="#DejaVuSans-31"/>
       <use x="63.623047" xlink:href="#DejaVuSans-30"/>
       <use x="127.246094" xlink:href="#DejaVuSans-30"/>
      </g>
     </g>
    </g>
   </g>
   <g id="matplotlib.axis_2">
    <g id="ytick_1">
     <g id="line2d_7">
      <defs>
       <path d="M 0 0 
L -3.5 0 
" id="m3edf9d0228" style="stroke:#000000;stroke-width:0.8;"/>
      </defs>
      <g>
       <use style="stroke:#000000;stroke-width:0.8;" x="57.6" xlink:href="#m3edf9d0228" y="157.042527"/>
      </g>
     </g>
     <g id="text_7">
      <!-- −1.0 -->
      <defs>
       <path d="M 10.59375 35.5 
L 73.1875 35.5 
L 73.1875 27.203125 
L 10.59375 27.203125 
z
" id="DejaVuSans-2212"/>
       <path d="M 10.6875 12.40625 
L 21 12.40625 
L 21 0 
L 10.6875 0 
z
" id="DejaVuSans-2e"/>
      </defs>
      <g transform="translate(26.317187 160.841746)scale(0.1 -0.1)">
       <use xlink:href="#DejaVuSans-2212"/>
       <use x="83.789062" xlink:href="#DejaVuSans-31"/>
       <use x="147.412109" xlink:href="#DejaVuSans-2e"/>
       <use x="179.199219" xlink:href="#DejaVuSans-30"/>
      </g>
     </g>
    </g>
    <g id="ytick_2">
     <g id="line2d_8">
      <g>
       <use style="stroke:#000000;stroke-width:0.8;" x="57.6" xlink:href="#m3edf9d0228" y="129.497263"/>
      </g>
     </g>
     <g id="text_8">
      <!-- −0.5 -->
      <defs>
       <path d="M 10.796875 72.90625 
L 49.515625 72.90625 
L 49.515625 64.59375 
L 19.828125 64.59375 
L 19.828125 46.734375 
Q 21.96875 47.46875 24.109375 47.828125 
Q 26.265625 48.1875 28.421875 48.1875 
Q 40.625 48.1875 47.75 41.5 
Q 54.890625 34.8125 54.890625 23.390625 
Q 54.890625 11.625 47.5625 5.09375 
Q 40.234375 -1.421875 26.90625 -1.421875 
Q 22.3125 -1.421875 17.546875 -0.640625 
Q 12.796875 0.140625 7.71875 1.703125 
L 7.71875 11.625 
Q 12.109375 9.234375 16.796875 8.0625 
Q 21.484375 6.890625 26.703125 6.890625 
Q 35.15625 6.890625 40.078125 11.328125 
Q 45.015625 15.765625 45.015625 23.390625 
Q 45.015625 31 40.078125 35.4375 
Q 35.15625 39.890625 26.703125 39.890625 
Q 22.75 39.890625 18.8125 39.015625 
Q 14.890625 38.140625 10.796875 36.28125 
z
" id="DejaVuSans-35"/>
      </defs>
      <g transform="translate(26.317187 133.296482)scale(0.1 -0.1)">
       <use xlink:href="#DejaVuSans-2212"/>
       <use x="83.789062" xlink:href="#DejaVuSans-30"/>
       <use x="147.412109" xlink:href="#DejaVuSans-2e"/>
       <use x="179.199219" xlink:href="#DejaVuSans-35"/>
      </g>
     </g>
    </g>
    <g id="ytick_3">
     <g id="line2d_9">
      <g>
       <use style="stroke:#000000;stroke-width:0.8;" x="57.6" xlink:href="#m3edf9d0228" y="101.952"/>
      </g>
     </g>
     <g id="text_9">
      <!-- 0.0 -->
      <g transform="translate(34.696875 105.751219)scale(0.1 -0.1)">
       <use xlink:href="#DejaVuSans-30"/>
       <use x="63.623047" xlink:href="#DejaVuSans-2e"/>
       <use x="95.410156" xlink:href="#DejaVuSans-30"/>
      </g>
     </g>
    </g>
    <g id="ytick_4">
     <g id="line2d_10">
      <g>
       <use style="stroke:#000000;stroke-width:0.8;" x="57.6" xlink:href="#m3edf9d0228" y="74.406737"/>
      </g>
     </g>
     <g id="text_10">
      <!-- 0.5 -->
      <g transform="translate(34.696875 78.205955)scale(0.1 -0.1)">
       <use xlink:href="#DejaVuSans-30"/>
       <use x="63.623047" xlink:href="#DejaVuSans-2e"/>
       <use x="95.410156" xlink:href="#DejaVuSans-35"/>
      </g>
     </g>
    </g>
    <g id="ytick_5">
     <g id="line2d_11">
      <g>
       <use style="stroke:#000000;stroke-width:0.8;" x="57.6" xlink:href="#m3edf9d0228" y="46.861473"/>
      </g>
     </g>
     <g id="text_11">
      <!-- 1.0 -->
      <g transform="translate(34.696875 50.660692)scale(0.1 -0.1)">
       <use xlink:href="#DejaVuSans-31"/>
       <use x="63.623047" xlink:href="#DejaVuSans-2e"/>
       <use x="95.410156" xlink:href="#DejaVuSans-30"/>
      </g>
     </g>
    </g>
   </g>
   <g id="line2d_12">
    <path clip-path="url(#p6c04eaf89c)" d="M 57.6 101.952 
L 61.1712 95.047326 
L 64.7424 88.251543 
L 68.3136 81.671824 
L 71.8848 75.411936 
L 75.456 69.570601 
L 79.0272 64.239939 
L 82.5984 59.50402 
L 86.1696 55.43753 
L 89.7408 52.104601 
L 93.312 49.557796 
L 96.8832 47.837278 
L 100.4544 46.970182 
L 104.0256 46.970182 
L 107.5968 47.837278 
L 111.168 49.557796 
L 114.7392 52.104601 
L 118.3104 55.43753 
L 121.8816 59.50402 
L 125.4528 64.239939 
L 129.024 69.570601 
L 132.5952 75.411936 
L 136.1664 81.671824 
L 143.3088 95.047326 
L 154.0224 115.652457 
L 157.5936 122.232176 
L 161.1648 128.492064 
L 164.736 134.333399 
L 168.3072 139.664061 
L 171.8784 144.39998 
L 175.4496 148.46647 
L 179.0208 151.799399 
L 182.592 154.346204 
L 186.1632 156.066722 
L 189.7344 156.933818 
L 193.3056 156.933818 
L 196.8768 156.066722 
L 200.448 154.346204 
L 204.0192 151.799399 
L 207.5904 148.46647 
L 211.1616 144.39998 
L 214.7328 139.664061 
L 218.304 134.333399 
L 221.8752 128.492064 
L 225.4464 122.232176 
L 232.5888 108.856674 
L 243.3024 88.251543 
L 246.8736 81.671824 
L 250.4448 75.411936 
L 254.016 69.570601 
L 257.5872 64.239939 
L 261.1584 59.50402 
L 264.7296 55.43753 
L 268.3008 52.104601 
L 271.872 49.557796 
L 275.4432 47.837278 
L 279.0144 46.970182 
L 282.5856 46.970182 
L 286.1568 47.837278 
L 289.728 49.557796 
L 293.2992 52.104601 
L 296.8704 55.43753 
L 300.4416 59.50402 
L 304.0128 64.239939 
L 307.584 69.570601 
L 311.1552 75.411936 
L 314.7264 81.671824 
L 321.8688 95.047326 
L 332.5824 115.652457 
L 336.1536 122.232176 
L 339.7248 128.492064 
L 343.296 134.333399 
L 346.8672 139.664061 
L 350.4384 144.39998 
L 354.0096 148.46647 
L 357.5808 151.799399 
L 361.152 154.346204 
L 364.7232 156.066722 
L 368.2944 156.933818 
L 371.8656 156.933818 
L 375.4368 156.066722 
L 379.008 154.346204 
L 382.5792 151.799399 
L 386.1504 148.46647 
L 389.7216 144.39998 
L 393.2928 139.664061 
L 396.864 134.333399 
L 400.4352 128.492064 
L 404.0064 122.232176 
L 411.1488 108.856674 
L 421.8624 88.251543 
L 425.4336 81.671824 
L 429.0048 75.411936 
L 432.576 69.570601 
L 436.1472 64.239939 
L 439.7184 59.50402 
L 443.2896 55.43753 
L 446.8608 52.104601 
L 450.432 49.557796 
L 454.0032 47.837278 
L 457.5744 46.970182 
L 461.1456 46.970182 
L 461.8 47.129072 
L 461.8 47.129072 
" style="fill:none;stroke:#1f77b4;stroke-linecap:square;stroke-width:1.5;"/>
   </g>
   <g id="line2d_13">
    <path clip-path="url(#p6c04eaf89c)" d="M 57.6 101.952 
L 61.1712 49.557796 
L 64.7424 69.570601 
L 68.3136 134.333399 
L 71.8848 154.346204 
L 79.0272 49.557796 
L 82.5984 69.570601 
L 86.1696 134.333399 
L 89.7408 154.346204 
L 96.8832 49.557796 
L 100.4544 69.570601 
L 104.0256 134.333399 
L 107.5968 154.346204 
L 114.7392 49.557796 
L 118.3104 69.570601 
L 121.8816 134.333399 
L 125.4528 154.346204 
L 132.5952 49.557796 
L 136.1664 69.570601 
L 139.7376 134.333399 
L 143.3088 154.346204 
L 150.4512 49.557796 
L 154.0224 69.570601 
L 157.5936 134.333399 
L 161.1648 154.346204 
L 168.3072 49.557796 
L 171.8784 69.570601 
L 175.4496 134.333399 
L 179.0208 154.346204 
L 186.1632 49.557796 
L 189.7344 69.570601 
L 193.3056 134.333399 
L 196.8768 154.346204 
L 204.0192 49.557796 
L 207.5904 69.570601 
L 211.1616 134.333399 
L 214.7328 154.346204 
L 221.8752 49.557796 
L 225.4464 69.570601 
L 229.0176 134.333399 
L 232.5888 154.346204 
L 239.7312 49.557796 
L 243.3024 69.570601 
L 246.8736 134.333399 
L 250.4448 154.346204 
L 257.5872 49.557796 
L 261.1584 69.570601 
L 264.7296 134.333399 
L 268.3008 154.346204 
L 275.4432 49.557796 
L 279.0144 69.570601 
L 282.5856 134.333399 
L 286.1568 154.346204 
L 293.2992 49.557796 
L 296.8704 69.570601 
L 300.4416 134.333399 
L 304.0128 154.346204 
L 311.1552 49.557796 
L 314.7264 69.570601 
L 318.2976 134.333399 
L 321.8688 154.346204 
L 329.0112 49.557796 
L 332.5824 69.570601 
L 336.1536 134.333399 
L 339.7248 154.346204 
L 346.8672 49.557796 
L 350.4384 69.570601 
L 354.0096 134.333399 
L 357.5808 154.346204 
L 364.7232 49.557796 
L 368.2944 69.570601 
L 371.8656 134.333399 
L 375.4368 154.346204 
L 382.5792 49.557796 
L 386.1504 69.570601 
L 389.7216 134.333399 
L 393.2928 154.346204 
L 400.4352 49.557796 
L 404.0064 69.570601 
L 407.5776 134.333399 
L 411.1488 154.346204 
L 418.2912 49.557796 
L 421.8624 69.570601 
L 425.4336 134.333399 
L 429.0048 154.346204 
L 436.1472 49.557796 
L 439.7184 69.570601 
L 443.2896 134.333399 
L 446.8608 154.346204 
L 454.0032 49.557796 
L 457.5744 69.570601 
L 461.1456 134.333399 
L 461.8 138.00062 
L 461.8 138.00062 
" style="fill:none;stroke:#ff7f0e;stroke-linecap:square;stroke-width:1.5;"/>
   </g>
   <g id="patch_3">
    <path d="M 57.6 162.432 
L 57.6 41.472 
" style="fill:none;stroke:#000000;stroke-linecap:square;stroke-linejoin:miter;stroke-width:0.8;"/>
   </g>
   <g id="patch_4">
    <path d="M 414.72 162.432 
L 414.72 41.472 
" style="fill:none;stroke:#000000;stroke-linecap:square;stroke-linejoin:miter;stroke-width:0.8;"/>
   </g>
   <g id="patch_5">
    <path d="M 57.6 162.432 
L 414.72 162.432 
" style="fill:none;stroke:#000000;stroke-linecap:square;stroke-linejoin:miter;stroke-width:0.8;"/>
   </g>
   <g id="patch_6">
    <path d="M 57.6 41.472 
L 414.72 41.472 
" style="fill:none;stroke:#000000;stroke-linecap:square;stroke-linejoin:miter;stroke-width:0.8;"/>
   </g>
   <g id="legend_1">
    <g id="patch_7">
     <path d="M 346.140313 118.130125 
L 407.72 118.130125 
Q 409.72 118.130125 409.72 116.130125 
L 409.72 87.773875 
Q 409.72 85.773875 407.72 85.773875 
L 346.140313 85.773875 
Q 344.140313 85.773875 344.140313 87.773875 
L 344.140313 116.130125 
Q 344.140313 118.130125 346.140313 118.130125 
z
" style="fill:#ffffff;opacity:0.8;stroke:#cccccc;stroke-linejoin:miter;"/>
    </g>
    <g id="line2d_14">
     <path d="M 348.140313 93.872312 
L 368.140313 93.872312 
" style="fill:none;stroke:#1f77b4;stroke-linecap:square;stroke-width:1.5;"/>
    </g>
    <g id="line2d_15"/>
    <g id="text_12">
     <!-- signal -->
     <defs>
      <path d="M 44.28125 53.078125 
L 44.28125 44.578125 
Q 40.484375 46.53125 36.375 47.5 
Q 32.28125 48.484375 27.875 48.484375 
Q 21.1875 48.484375 17.84375 46.4375 
Q 14.5 44.390625 14.5 40.28125 
Q 14.5 37.15625 16.890625 35.375 
Q 19.28125 33.59375 26.515625 31.984375 
L 29.59375 31.296875 
Q 39.15625 29.25 43.1875 25.515625 
Q 47.21875 21.78125 47.21875 15.09375 
Q 47.21875 7.46875 41.1875 3.015625 
Q 35.15625 -1.421875 24.609375 -1.421875 
Q 20.21875 -1.421875 15.453125 -0.5625 
Q 10.6875 0.296875 5.421875 2 
L 5.421875 11.28125 
Q 10.40625 8.6875 15.234375 7.390625 
Q 20.0625 6.109375 24.8125 6.109375 
Q 31.15625 6.109375 34.5625 8.28125 
Q 37.984375 10.453125 37.984375 14.40625 
Q 37.984375 18.0625 35.515625 20.015625 
Q 33.0625 21.96875 24.703125 23.78125 
L 21.578125 24.515625 
Q 13.234375 26.265625 9.515625 29.90625 
Q 5.8125 33.546875 5.8125 39.890625 
Q 5.8125 47.609375 11.28125 51.796875 
Q 16.75 56 26.8125 56 
Q 31.78125 56 36.171875 55.265625 
Q 40.578125 54.546875 44.28125 53.078125 
z
" id="DejaVuSans-73"/>
      <path d="M 9.421875 54.6875 
L 18.40625 54.6875 
L 18.40625 0 
L 9.421875 0 
z
M 9.421875 75.984375 
L 18.40625 75.984375 
L 18.40625 64.59375 
L 9.421875 64.59375 
z
" id="DejaVuSans-69"/>
      <path d="M 45.40625 27.984375 
Q 45.40625 37.75 41.375 43.109375 
Q 37.359375 48.484375 30.078125 48.484375 
Q 22.859375 48.484375 18.828125 43.109375 
Q 14.796875 37.75 14.796875 27.984375 
Q 14.796875 18.265625 18.828125 12.890625 
Q 22.859375 7.515625 30.078125 7.515625 
Q 37.359375 7.515625 41.375 12.890625 
Q 45.40625 18.265625 45.40625 27.984375 
z
M 54.390625 6.78125 
Q 54.390625 -7.171875 48.1875 -13.984375 
Q 42 -20.796875 29.203125 -20.796875 
Q 24.46875 -20.796875 20.265625 -20.09375 
Q 16.0625 -19.390625 12.109375 -17.921875 
L 12.109375 -9.1875 
Q 16.0625 -11.328125 19.921875 -12.34375 
Q 23.78125 -13.375 27.78125 -13.375 
Q 36.625 -13.375 41.015625 -8.765625 
Q 45.40625 -4.15625 45.40625 5.171875 
L 45.40625 9.625 
Q 42.625 4.78125 38.28125 2.390625 
Q 33.9375 0 27.875 0 
Q 17.828125 0 11.671875 7.65625 
Q 5.515625 15.328125 5.515625 27.984375 
Q 5.515625 40.671875 11.671875 48.328125 
Q 17.828125 56 27.875 56 
Q 33.9375 56 38.28125 53.609375 
Q 42.625 51.21875 45.40625 46.390625 
L 45.40625 54.6875 
L 54.390625 54.6875 
z
" id="DejaVuSans-67"/>
      <path d="M 54.890625 33.015625 
L 54.890625 0 
L 45.90625 0 
L 45.90625 32.71875 
Q 45.90625 40.484375 42.875 44.328125 
Q 39.84375 48.1875 33.796875 48.1875 
Q 26.515625 48.1875 22.3125 43.546875 
Q 18.109375 38.921875 18.109375 30.90625 
L 18.109375 0 
L 9.078125 0 
L 9.078125 54.6875 
L 18.109375 54.6875 
L 18.109375 46.1875 
Q 21.34375 51.125 25.703125 53.5625 
Q 30.078125 56 35.796875 56 
Q 45.21875 56 50.046875 50.171875 
Q 54.890625 44.34375 54.890625 33.015625 
z
" id="DejaVuSans-6e"/>
      <path d="M 34.28125 27.484375 
Q 23.390625 27.484375 19.1875 25 
Q 14.984375 22.515625 14.984375 16.5 
Q 14.984375 11.71875 18.140625 8.90625 
Q 21.296875 6.109375 26.703125 6.109375 
Q 34.1875 6.109375 38.703125 11.40625 
Q 43.21875 16.703125 43.21875 25.484375 
L 43.21875 27.484375 
z
M 52.203125 31.203125 
L 52.203125 0 
L 43.21875 0 
L 43.21875 8.296875 
Q 40.140625 3.328125 35.546875 0.953125 
Q 30.953125 -1.421875 24.3125 -1.421875 
Q 15.921875 -1.421875 10.953125 3.296875 
Q 6 8.015625 6 15.921875 
Q 6 25.140625 12.171875 29.828125 
Q 18.359375 34.515625 30.609375 34.515625 
L 43.21875 34.515625 
L 43.21875 35.40625 
Q 43.21875 41.609375 39.140625 45 
Q 35.0625 48.390625 27.6875 48.390625 
Q 23 48.390625 18.546875 47.265625 
Q 14.109375 46.140625 10.015625 43.890625 
L 10.015625 52.203125 
Q 14.9375 54.109375 19.578125 55.046875 
Q 24.21875 56 28.609375 56 
Q 40.484375 56 46.34375 49.84375 
Q 52.203125 43.703125 52.203125 31.203125 
z
" id="DejaVuSans-61"/>
      <path d="M 9.421875 75.984375 
L 18.40625 75.984375 
L 18.40625 0 
L 9.421875 0 
z
" id="DejaVuSans-6c"/>
     </defs>
     <g transform="translate(376.140313 97.372312)scale(0.1 -0.1)">
      <use xlink:href="#DejaVuSans-73"/>
      <use x="52.099609" xlink:href="#DejaVuSans-69"/>
      <use x="79.882812" xlink:href="#DejaVuSans-67"/>
      <use x="143.359375" xlink:href="#DejaVuSans-6e"/>
      <use x="206.738281" xlink:href="#DejaVuSans-61"/>
      <use x="268.017578" xlink:href="#DejaVuSans-6c"/>
     </g>
    </g>
    <g id="line2d_16">
     <path d="M 348.140313 108.550437 
L 368.140313 108.550437 
" style="fill:none;stroke:#ff7f0e;stroke-linecap:square;stroke-width:1.5;"/>
    </g>
    <g id="line2d_17"/>
    <g id="text_13">
     <!-- noise -->
     <defs>
      <path d="M 30.609375 48.390625 
Q 23.390625 48.390625 19.1875 42.75 
Q 14.984375 37.109375 14.984375 27.296875 
Q 14.984375 17.484375 19.15625 11.84375 
Q 23.34375 6.203125 30.609375 6.203125 
Q 37.796875 6.203125 41.984375 11.859375 
Q 46.1875 17.53125 46.1875 27.296875 
Q 46.1875 37.015625 41.984375 42.703125 
Q 37.796875 48.390625 30.609375 48.390625 
z
M 30.609375 56 
Q 42.328125 56 49.015625 48.375 
Q 55.71875 40.765625 55.71875 27.296875 
Q 55.71875 13.875 49.015625 6.21875 
Q 42.328125 -1.421875 30.609375 -1.421875 
Q 18.84375 -1.421875 12.171875 6.21875 
Q 5.515625 13.875 5.515625 27.296875 
Q 5.515625 40.765625 12.171875 48.375 
Q 18.84375 56 30.609375 56 
z
" id="DejaVuSans-6f"/>
      <path d="M 56.203125 29.59375 
L 56.203125 25.203125 
L 14.890625 25.203125 
Q 15.484375 15.921875 20.484375 11.0625 
Q 25.484375 6.203125 34.421875 6.203125 
Q 39.59375 6.203125 44.453125 7.46875 
Q 49.3125 8.734375 54.109375 11.28125 
L 54.109375 2.78125 
Q 49.265625 0.734375 44.1875 -0.34375 
Q 39.109375 -1.421875 33.890625 -1.421875 
Q 20.796875 -1.421875 13.15625 6.1875 
Q 5.515625 13.8125 5.515625 26.8125 
Q 5.515625 40.234375 12.765625 48.109375 
Q 20.015625 56 32.328125 56 
Q 43.359375 56 49.78125 48.890625 
Q 56.203125 41.796875 56.203125 29.59375 
z
M 47.21875 32.234375 
Q 47.125 39.59375 43.09375 43.984375 
Q 39.0625 48.390625 32.421875 48.390625 
Q 24.90625 48.390625 20.390625 44.140625 
Q 15.875 39.890625 15.1875 32.171875 
z
" id="DejaVuSans-65"/>
     </defs>
     <g transform="translate(376.140313 112.050437)scale(0.1 -0.1)">
      <use xlink:href="#DejaVuSans-6e"/>
      <use x="63.378906" xlink:href="#DejaVuSans-6f"/>
      <use x="124.560547" xlink:href="#DejaVuSans-69"/>
      <use x="152.34375" xlink:href="#DejaVuSans-73"/>
      <use x="204.443359" xlink:href="#DejaVuSans-65"/>
     </g>
    </g>
   </g>
  </g>
  <g id="axes_2">
   <g id="patch_8">
    <path d="M 57.6 307.584 
L 414.72 307.584 
L 414.72 186.624 
L 57.6 186.624 
z
" style="fill:#ffffff;"/>
   </g>
   <g id="matplotlib.axis_3">
    <g id="xtick_7">
     <g id="line2d_18">
      <g>
       <use style="stroke:#000000;stroke-width:0.8;" x="73.832727" xlink:href="#mdc90e5688d" y="307.584"/>
      </g>
     </g>
     <g id="text_14">
      <!-- 0.0 -->
      <g transform="translate(65.881165 322.182437)scale(0.1 -0.1)">
       <use xlink:href="#DejaVuSans-30"/>
       <use x="63.623047" xlink:href="#DejaVuSans-2e"/>
       <use x="95.410156" xlink:href="#DejaVuSans-30"/>
      </g>
     </g>
    </g>
    <g id="xtick_8">
     <g id="line2d_19">
      <g>
       <use style="stroke:#000000;stroke-width:0.8;" x="138.828632" xlink:href="#mdc90e5688d" y="307.584"/>
      </g>
     </g>
     <g id="text_15">
      <!-- 0.2 -->
      <g transform="translate(130.87707 322.182437)scale(0.1 -0.1)">
       <use xlink:href="#DejaVuSans-30"/>
       <use x="63.623047" xlink:href="#DejaVuSans-2e"/>
       <use x="95.410156" xlink:href="#DejaVuSans-32"/>
      </g>
     </g>
    </g>
    <g id="xtick_9">
     <g id="line2d_20">
      <g>
       <use style="stroke:#000000;stroke-width:0.8;" x="203.824537" xlink:href="#mdc90e5688d" y="307.584"/>
      </g>
     </g>
     <g id="text_16">
      <!-- 0.4 -->
      <g transform="translate(195.872975 322.182437)scale(0.1 -0.1)">
       <use xlink:href="#DejaVuSans-30"/>
       <use x="63.623047" xlink:href="#DejaVuSans-2e"/>
       <use x="95.410156" xlink:href="#DejaVuSans-34"/>
      </g>
     </g>
    </g>
    <g id="xtick_10">
     <g id="line2d_21">
      <g>
       <use style="stroke:#000000;stroke-width:0.8;" x="268.820442" xlink:href="#mdc90e5688d" y="307.584"/>
      </g>
     </g>
     <g id="text_17">
      <!-- 0.6 -->
      <g transform="translate(260.86888 322.182437)scale(0.1 -0.1)">
       <use xlink:href="#DejaVuSans-30"/>
       <use x="63.623047" xlink:href="#DejaVuSans-2e"/>
       <use x="95.410156" xlink:href="#DejaVuSans-36"/>
      </g>
     </g>
    </g>
    <g id="xtick_11">
     <g id="line2d_22">
      <g>
       <use style="stroke:#000000;stroke-width:0.8;" x="333.816347" xlink:href="#mdc90e5688d" y="307.584"/>
      </g>
     </g>
     <g id="text_18">
      <!-- 0.8 -->
      <g transform="translate(325.864785 322.182437)scale(0.1 -0.1)">
       <use xlink:href="#DejaVuSans-30"/>
       <use x="63.623047" xlink:href="#DejaVuSans-2e"/>
       <use x="95.410156" xlink:href="#DejaVuSans-38"/>
      </g>
     </g>
    </g>
    <g id="xtick_12">
     <g id="line2d_23">
      <g>
       <use style="stroke:#000000;stroke-width:0.8;" x="398.812252" xlink:href="#mdc90e5688d" y="307.584"/>
      </g>
     </g>
     <g id="text_19">
      <!-- 1.0 -->
      <g transform="translate(390.86069 322.182437)scale(0.1 -0.1)">
       <use xlink:href="#DejaVuSans-31"/>
       <use x="63.623047" xlink:href="#DejaVuSans-2e"/>
       <use x="95.410156" xlink:href="#DejaVuSans-30"/>
      </g>
     </g>
    </g>
    <g id="text_20">
     <!-- Normalized frequency -->
     <defs>
      <path d="M 9.8125 72.90625 
L 23.09375 72.90625 
L 55.421875 11.921875 
L 55.421875 72.90625 
L 64.984375 72.90625 
L 64.984375 0 
L 51.703125 0 
L 19.390625 60.984375 
L 19.390625 0 
L 9.8125 0 
z
" id="DejaVuSans-4e"/>
      <path d="M 41.109375 46.296875 
Q 39.59375 47.171875 37.8125 47.578125 
Q 36.03125 48 33.890625 48 
Q 26.265625 48 22.1875 43.046875 
Q 18.109375 38.09375 18.109375 28.8125 
L 18.109375 0 
L 9.078125 0 
L 9.078125 54.6875 
L 18.109375 54.6875 
L 18.109375 46.1875 
Q 20.953125 51.171875 25.484375 53.578125 
Q 30.03125 56 36.53125 56 
Q 37.453125 56 38.578125 55.875 
Q 39.703125 55.765625 41.0625 55.515625 
z
" id="DejaVuSans-72"/>
      <path d="M 52 44.1875 
Q 55.375 50.25 60.0625 53.125 
Q 64.75 56 71.09375 56 
Q 79.640625 56 84.28125 50.015625 
Q 88.921875 44.046875 88.921875 33.015625 
L 88.921875 0 
L 79.890625 0 
L 79.890625 32.71875 
Q 79.890625 40.578125 77.09375 44.375 
Q 74.3125 48.1875 68.609375 48.1875 
Q 61.625 48.1875 57.5625 43.546875 
Q 53.515625 38.921875 53.515625 30.90625 
L 53.515625 0 
L 44.484375 0 
L 44.484375 32.71875 
Q 44.484375 40.625 41.703125 44.40625 
Q 38.921875 48.1875 33.109375 48.1875 
Q 26.21875 48.1875 22.15625 43.53125 
Q 18.109375 38.875 18.109375 30.90625 
L 18.109375 0 
L 9.078125 0 
L 9.078125 54.6875 
L 18.109375 54.6875 
L 18.109375 46.1875 
Q 21.1875 51.21875 25.484375 53.609375 
Q 29.78125 56 35.6875 56 
Q 41.65625 56 45.828125 52.96875 
Q 50 49.953125 52 44.1875 
z
" id="DejaVuSans-6d"/>
      <path d="M 5.515625 54.6875 
L 48.1875 54.6875 
L 48.1875 46.484375 
L 14.40625 7.171875 
L 48.1875 7.171875 
L 48.1875 0 
L 4.296875 0 
L 4.296875 8.203125 
L 38.09375 47.515625 
L 5.515625 47.515625 
z
" id="DejaVuSans-7a"/>
      <path d="M 45.40625 46.390625 
L 45.40625 75.984375 
L 54.390625 75.984375 
L 54.390625 0 
L 45.40625 0 
L 45.40625 8.203125 
Q 42.578125 3.328125 38.25 0.953125 
Q 33.9375 -1.421875 27.875 -1.421875 
Q 17.96875 -1.421875 11.734375 6.484375 
Q 5.515625 14.40625 5.515625 27.296875 
Q 5.515625 40.1875 11.734375 48.09375 
Q 17.96875 56 27.875 56 
Q 33.9375 56 38.25 53.625 
Q 42.578125 51.265625 45.40625 46.390625 
z
M 14.796875 27.296875 
Q 14.796875 17.390625 18.875 11.75 
Q 22.953125 6.109375 30.078125 6.109375 
Q 37.203125 6.109375 41.296875 11.75 
Q 45.40625 17.390625 45.40625 27.296875 
Q 45.40625 37.203125 41.296875 42.84375 
Q 37.203125 48.484375 30.078125 48.484375 
Q 22.953125 48.484375 18.875 42.84375 
Q 14.796875 37.203125 14.796875 27.296875 
z
" id="DejaVuSans-64"/>
      <path id="DejaVuSans-20"/>
      <path d="M 37.109375 75.984375 
L 37.109375 68.5 
L 28.515625 68.5 
Q 23.6875 68.5 21.796875 66.546875 
Q 19.921875 64.59375 19.921875 59.515625 
L 19.921875 54.6875 
L 34.71875 54.6875 
L 34.71875 47.703125 
L 19.921875 47.703125 
L 19.921875 0 
L 10.890625 0 
L 10.890625 47.703125 
L 2.296875 47.703125 
L 2.296875 54.6875 
L 10.890625 54.6875 
L 10.890625 58.5 
Q 10.890625 67.625 15.140625 71.796875 
Q 19.390625 75.984375 28.609375 75.984375 
z
" id="DejaVuSans-66"/>
      <path d="M 14.796875 27.296875 
Q 14.796875 17.390625 18.875 11.75 
Q 22.953125 6.109375 30.078125 6.109375 
Q 37.203125 6.109375 41.296875 11.75 
Q 45.40625 17.390625 45.40625 27.296875 
Q 45.40625 37.203125 41.296875 42.84375 
Q 37.203125 48.484375 30.078125 48.484375 
Q 22.953125 48.484375 18.875 42.84375 
Q 14.796875 37.203125 14.796875 27.296875 
z
M 45.40625 8.203125 
Q 42.578125 3.328125 38.25 0.953125 
Q 33.9375 -1.421875 27.875 -1.421875 
Q 17.96875 -1.421875 11.734375 6.484375 
Q 5.515625 14.40625 5.515625 27.296875 
Q 5.515625 40.1875 11.734375 48.09375 
Q 17.96875 56 27.875 56 
Q 33.9375 56 38.25 53.625 
Q 42.578125 51.265625 45.40625 46.390625 
L 45.40625 54.6875 
L 54.390625 54.6875 
L 54.390625 -20.796875 
L 45.40625 -20.796875 
z
" id="DejaVuSans-71"/>
      <path d="M 8.5 21.578125 
L 8.5 54.6875 
L 17.484375 54.6875 
L 17.484375 21.921875 
Q 17.484375 14.15625 20.5 10.265625 
Q 23.53125 6.390625 29.59375 6.390625 
Q 36.859375 6.390625 41.078125 11.03125 
Q 45.3125 15.671875 45.3125 23.6875 
L 45.3125 54.6875 
L 54.296875 54.6875 
L 54.296875 0 
L 45.3125 0 
L 45.3125 8.40625 
Q 42.046875 3.421875 37.71875 1 
Q 33.40625 -1.421875 27.6875 -1.421875 
Q 18.265625 -1.421875 13.375 4.4375 
Q 8.5 10.296875 8.5 21.578125 
z
M 31.109375 56 
z
" id="DejaVuSans-75"/>
      <path d="M 48.78125 52.59375 
L 48.78125 44.1875 
Q 44.96875 46.296875 41.140625 47.34375 
Q 37.3125 48.390625 33.40625 48.390625 
Q 24.65625 48.390625 19.8125 42.84375 
Q 14.984375 37.3125 14.984375 27.296875 
Q 14.984375 17.28125 19.8125 11.734375 
Q 24.65625 6.203125 33.40625 6.203125 
Q 37.3125 6.203125 41.140625 7.25 
Q 44.96875 8.296875 48.78125 10.40625 
L 48.78125 2.09375 
Q 45.015625 0.34375 40.984375 -0.53125 
Q 36.96875 -1.421875 32.421875 -1.421875 
Q 20.0625 -1.421875 12.78125 6.34375 
Q 5.515625 14.109375 5.515625 27.296875 
Q 5.515625 40.671875 12.859375 48.328125 
Q 20.21875 56 33.015625 56 
Q 37.15625 56 41.109375 55.140625 
Q 45.0625 54.296875 48.78125 52.59375 
z
" id="DejaVuSans-63"/>
      <path d="M 32.171875 -5.078125 
Q 28.375 -14.84375 24.75 -17.8125 
Q 21.140625 -20.796875 15.09375 -20.796875 
L 7.90625 -20.796875 
L 7.90625 -13.28125 
L 13.1875 -13.28125 
Q 16.890625 -13.28125 18.9375 -11.515625 
Q 21 -9.765625 23.484375 -3.21875 
L 25.09375 0.875 
L 2.984375 54.6875 
L 12.5 54.6875 
L 29.59375 11.921875 
L 46.6875 54.6875 
L 56.203125 54.6875 
z
" id="DejaVuSans-79"/>
     </defs>
     <g transform="translate(180.94125 335.860562)scale(0.1 -0.1)">
      <use xlink:href="#DejaVuSans-4e"/>
      <use x="74.804688" xlink:href="#DejaVuSans-6f"/>
      <use x="135.986328" xlink:href="#DejaVuSans-72"/>
      <use x="177.083984" xlink:href="#DejaVuSans-6d"/>
      <use x="274.496094" xlink:href="#DejaVuSans-61"/>
      <use x="335.775391" xlink:href="#DejaVuSans-6c"/>
      <use x="363.558594" xlink:href="#DejaVuSans-69"/>
      <use x="391.341797" xlink:href="#DejaVuSans-7a"/>
      <use x="443.832031" xlink:href="#DejaVuSans-65"/>
      <use x="505.355469" xlink:href="#DejaVuSans-64"/>
      <use x="568.832031" xlink:href="#DejaVuSans-20"/>
      <use x="600.619141" xlink:href="#DejaVuSans-66"/>
      <use x="635.824219" xlink:href="#DejaVuSans-72"/>
      <use x="676.90625" xlink:href="#DejaVuSans-65"/>
      <use x="738.429688" xlink:href="#DejaVuSans-71"/>
      <use x="801.90625" xlink:href="#DejaVuSans-75"/>
      <use x="865.285156" xlink:href="#DejaVuSans-65"/>
      <use x="926.808594" xlink:href="#DejaVuSans-6e"/>
      <use x="990.1875" xlink:href="#DejaVuSans-63"/>
      <use x="1045.167969" xlink:href="#DejaVuSans-79"/>
     </g>
    </g>
   </g>
   <g id="matplotlib.axis_4">
    <g id="ytick_6">
     <g id="line2d_24">
      <g>
       <use style="stroke:#000000;stroke-width:0.8;" x="57.6" xlink:href="#m3edf9d0228" y="301.482033"/>
      </g>
     </g>
     <g id="text_21">
      <!-- −300 -->
      <defs>
       <path d="M 40.578125 39.3125 
Q 47.65625 37.796875 51.625 33 
Q 55.609375 28.21875 55.609375 21.1875 
Q 55.609375 10.40625 48.1875 4.484375 
Q 40.765625 -1.421875 27.09375 -1.421875 
Q 22.515625 -1.421875 17.65625 -0.515625 
Q 12.796875 0.390625 7.625 2.203125 
L 7.625 11.71875 
Q 11.71875 9.328125 16.59375 8.109375 
Q 21.484375 6.890625 26.8125 6.890625 
Q 36.078125 6.890625 40.9375 10.546875 
Q 45.796875 14.203125 45.796875 21.1875 
Q 45.796875 27.640625 41.28125 31.265625 
Q 36.765625 34.90625 28.71875 34.90625 
L 20.21875 34.90625 
L 20.21875 43.015625 
L 29.109375 43.015625 
Q 36.375 43.015625 40.234375 45.921875 
Q 44.09375 48.828125 44.09375 54.296875 
Q 44.09375 59.90625 40.109375 62.90625 
Q 36.140625 65.921875 28.71875 65.921875 
Q 24.65625 65.921875 20.015625 65.03125 
Q 15.375 64.15625 9.8125 62.3125 
L 9.8125 71.09375 
Q 15.4375 72.65625 20.34375 73.4375 
Q 25.25 74.21875 29.59375 74.21875 
Q 40.828125 74.21875 47.359375 69.109375 
Q 53.90625 64.015625 53.90625 55.328125 
Q 53.90625 49.265625 50.4375 45.09375 
Q 46.96875 40.921875 40.578125 39.3125 
z
" id="DejaVuSans-33"/>
      </defs>
      <g transform="translate(23.132812 305.281252)scale(0.1 -0.1)">
       <use xlink:href="#DejaVuSans-2212"/>
       <use x="83.789062" xlink:href="#DejaVuSans-33"/>
       <use x="147.412109" xlink:href="#DejaVuSans-30"/>
       <use x="211.035156" xlink:href="#DejaVuSans-30"/>
      </g>
     </g>
    </g>
    <g id="ytick_7">
     <g id="line2d_25">
      <g>
       <use style="stroke:#000000;stroke-width:0.8;" x="57.6" xlink:href="#m3edf9d0228" y="270.587622"/>
      </g>
     </g>
     <g id="text_22">
      <!-- −200 -->
      <g transform="translate(23.132812 274.386841)scale(0.1 -0.1)">
       <use xlink:href="#DejaVuSans-2212"/>
       <use x="83.789062" xlink:href="#DejaVuSans-32"/>
       <use x="147.412109" xlink:href="#DejaVuSans-30"/>
       <use x="211.035156" xlink:href="#DejaVuSans-30"/>
      </g>
     </g>
    </g>
    <g id="ytick_8">
     <g id="line2d_26">
      <g>
       <use style="stroke:#000000;stroke-width:0.8;" x="57.6" xlink:href="#m3edf9d0228" y="239.693211"/>
      </g>
     </g>
     <g id="text_23">
      <!-- −100 -->
      <g transform="translate(23.132812 243.49243)scale(0.1 -0.1)">
       <use xlink:href="#DejaVuSans-2212"/>
       <use x="83.789062" xlink:href="#DejaVuSans-31"/>
       <use x="147.412109" xlink:href="#DejaVuSans-30"/>
       <use x="211.035156" xlink:href="#DejaVuSans-30"/>
      </g>
     </g>
    </g>
    <g id="ytick_9">
     <g id="line2d_27">
      <g>
       <use style="stroke:#000000;stroke-width:0.8;" x="57.6" xlink:href="#m3edf9d0228" y="208.7988"/>
      </g>
     </g>
     <g id="text_24">
      <!-- 0 -->
      <g transform="translate(44.2375 212.598018)scale(0.1 -0.1)">
       <use xlink:href="#DejaVuSans-30"/>
      </g>
     </g>
    </g>
   </g>
   <g id="line2d_28">
    <path clip-path="url(#p2595192c3d)" d="M 73.832727 285.117036 
L 74.157707 285.683066 
L 74.482686 285.928404 
L 74.807666 285.940699 
L 75.132645 289.427494 
L 75.457625 290.464821 
L 75.782604 290.643052 
L 76.107584 287.606747 
L 76.432563 289.05164 
L 77.082523 284.233188 
L 77.407502 284.519038 
L 77.732482 282.486983 
L 78.382441 286.098715 
L 79.0324 281.104791 
L 79.357379 280.544041 
L 79.682359 279.630838 
L 80.007338 279.267957 
L 80.332318 192.122182 
L 80.657297 279.929935 
L 80.982277 281.104534 
L 81.307256 282.83533 
L 81.632236 287.64544 
L 81.957215 284.956931 
L 82.282195 283.75119 
L 82.607174 284.050087 
L 82.932154 286.407144 
L 83.257133 287.318714 
L 83.582113 284.328971 
L 83.907093 283.40431 
L 84.232072 283.302474 
L 84.882031 284.969172 
L 85.207011 287.464558 
L 85.53199 286.663941 
L 85.85697 284.972707 
L 86.831908 288.634357 
L 87.156888 287.715431 
L 87.481867 284.396326 
L 87.806847 286.582924 
L 88.131826 283.665363 
L 88.456806 284.490031 
L 88.781785 285.810419 
L 89.106765 284.402423 
L 89.431744 283.788245 
L 89.756724 285.790486 
L 90.081704 282.148188 
L 90.406683 284.596824 
L 90.731663 285.1636 
L 91.056642 284.616346 
L 91.381622 284.933102 
L 91.706601 286.210234 
L 92.031581 289.141008 
L 92.35656 285.947358 
L 92.68154 285.563106 
L 93.006519 285.495478 
L 93.331499 285.75596 
L 93.656478 285.505636 
L 93.981458 286.819119 
L 94.306437 285.175136 
L 94.631417 284.765751 
L 95.281376 284.689988 
L 95.606355 285.467084 
L 95.931335 287.683622 
L 96.256314 286.645834 
L 96.581294 287.84483 
L 96.906274 284.881427 
L 97.231253 285.611064 
L 97.556233 283.675902 
L 97.881212 281.053375 
L 98.206192 282.197993 
L 98.531171 280.800854 
L 98.856151 283.189293 
L 99.18113 284.354521 
L 99.50611 283.987157 
L 99.831089 285.616183 
L 100.156069 283.534546 
L 100.481048 283.679098 
L 100.806028 287.188263 
L 101.131007 286.654714 
L 101.780966 286.535748 
L 102.105946 290.96001 
L 102.430925 286.761932 
L 103.080885 285.482057 
L 103.405864 285.688959 
L 103.730844 285.076809 
L 104.055823 286.593721 
L 104.380803 285.078619 
L 104.705782 285.523698 
L 105.030762 284.669657 
L 105.355741 286.358682 
L 105.680721 285.736708 
L 106.0057 295.205712 
L 106.33068 289.98148 
L 106.655659 287.993102 
L 106.980639 287.938026 
L 107.305618 288.766353 
L 107.630598 284.659644 
L 107.955577 285.931476 
L 108.280557 282.018826 
L 108.605536 282.86923 
L 109.255495 287.354906 
L 109.580475 286.451274 
L 109.905455 282.382721 
L 110.230434 284.975638 
L 110.555414 284.333935 
L 110.880393 281.953586 
L 111.205373 286.908515 
L 111.530352 284.431595 
L 111.855332 288.073265 
L 112.180311 287.633935 
L 112.505291 284.867502 
L 112.83027 286.025042 
L 113.15525 288.266128 
L 113.480229 284.601138 
L 113.805209 286.960308 
L 114.130188 283.418346 
L 114.455168 285.173207 
L 114.780147 284.468936 
L 115.105127 286.820825 
L 115.755086 284.990132 
L 116.080066 284.877491 
L 116.405045 286.044573 
L 116.730025 286.46899 
L 117.055004 290.539264 
L 117.379984 284.958505 
L 117.704963 284.692863 
L 118.029943 285.223571 
L 118.354922 284.335274 
L 118.679902 286.662705 
L 119.004881 285.902912 
L 119.65484 283.033825 
L 119.97982 282.423776 
L 120.304799 282.663684 
L 120.629779 284.546649 
L 120.954758 282.186127 
L 121.279738 283.922546 
L 121.604717 284.366849 
L 121.929697 286.849287 
L 122.254676 288.061233 
L 122.579656 286.191841 
L 123.229615 285.18454 
L 123.554595 285.192706 
L 123.879574 284.928714 
L 124.204554 285.249639 
L 124.529533 285.068963 
L 125.179492 286.203953 
L 125.504472 287.948439 
L 125.829451 287.957072 
L 126.154431 288.994753 
L 126.47941 289.486595 
L 127.129369 287.374048 
L 127.454349 287.59059 
L 127.779328 289.310263 
L 128.104308 287.369691 
L 128.429287 284.422276 
L 128.754267 282.499421 
L 129.079247 286.145196 
L 129.404226 284.880521 
L 129.729206 289.206472 
L 130.054185 285.196209 
L 130.379165 286.075335 
L 130.704144 284.080548 
L 131.029124 285.205105 
L 131.354103 285.185995 
L 131.679083 289.37299 
L 132.004062 288.423826 
L 132.329042 285.701115 
L 132.654021 285.255329 
L 132.979001 284.37999 
L 133.30398 286.19724 
L 133.62896 285.976383 
L 133.953939 288.037855 
L 134.278919 286.878023 
L 134.603898 284.825225 
L 134.928878 284.283894 
L 135.253857 284.189139 
L 135.903817 284.425366 
L 136.228796 284.797038 
L 136.553776 284.4885 
L 137.203735 284.205095 
L 138.178673 280.979812 
L 138.503653 279.268368 
L 138.828632 192.122182 
L 139.153612 279.222986 
L 139.803571 282.844983 
L 140.12855 283.793034 
L 140.45353 282.967307 
L 140.778509 282.485183 
L 141.103489 286.468 
L 141.428468 283.353052 
L 141.753448 284.859336 
L 142.403407 285.619693 
L 142.728387 284.833316 
L 143.053366 285.362564 
L 143.703325 288.823356 
L 144.353284 284.43267 
L 144.678264 284.265321 
L 145.003243 284.36162 
L 145.328223 285.054439 
L 145.653202 287.142804 
L 145.978182 287.922967 
L 146.303161 286.528768 
L 146.628141 286.1697 
L 146.95312 291.686633 
L 147.2781 289.623086 
L 147.603079 285.091531 
L 147.928059 285.92127 
L 148.253038 283.654434 
L 148.578018 288.184205 
L 148.902998 282.857196 
L 149.227977 284.807768 
L 149.552957 284.65254 
L 149.877936 282.313229 
L 150.202916 282.027036 
L 150.527895 280.191772 
L 150.852875 279.959364 
L 151.177854 279.964637 
L 151.502834 280.100004 
L 151.827813 282.241451 
L 152.152793 281.895764 
L 152.477772 285.377967 
L 152.802752 284.916302 
L 153.127731 285.416686 
L 153.452711 287.582326 
L 153.77769 285.257852 
L 154.427649 288.039288 
L 154.752629 284.748007 
L 155.077609 284.924711 
L 155.402588 283.838807 
L 155.727568 285.047155 
L 156.052547 284.321641 
L 156.377527 286.009976 
L 156.702506 286.376227 
L 157.027486 285.531226 
L 157.352465 288.537566 
L 157.677445 285.977257 
L 158.002424 288.125195 
L 158.327404 288.563888 
L 158.652383 284.367208 
L 158.977363 288.850782 
L 159.302342 284.272502 
L 159.627322 285.135655 
L 159.952301 285.391421 
L 160.277281 286.622509 
L 160.60226 284.361463 
L 160.92724 283.151971 
L 161.252219 284.989481 
L 161.577199 283.576533 
L 161.902179 285.542881 
L 162.227158 285.654074 
L 162.552138 288.306655 
L 162.877117 288.161536 
L 163.527076 285.502279 
L 163.852056 284.932021 
L 164.177035 285.552912 
L 164.502015 285.873438 
L 164.826994 287.295851 
L 165.151974 287.049836 
L 165.476953 287.035445 
L 165.801933 285.415034 
L 166.126912 285.881806 
L 166.451892 285.179913 
L 166.776871 285.32615 
L 167.101851 285.924389 
L 167.42683 287.576436 
L 167.75181 302.085818 
L 168.07679 286.731808 
L 168.401769 285.848245 
L 168.726749 285.381675 
L 169.051728 283.170772 
L 169.376708 282.040075 
L 169.701687 285.859417 
L 170.026667 284.86535 
L 170.351646 290.115891 
L 170.676626 286.714227 
L 171.326585 289.535927 
L 171.651564 286.651655 
L 171.976544 289.707626 
L 172.301523 286.845663 
L 172.626503 288.240526 
L 172.951482 291.848755 
L 173.276462 286.529758 
L 173.601441 288.015578 
L 173.926421 285.235835 
L 174.2514 287.292138 
L 174.57638 285.37169 
L 174.90136 286.324241 
L 175.226339 285.471679 
L 175.551319 285.75225 
L 175.876298 285.326949 
L 176.526257 287.360849 
L 176.851237 285.148798 
L 177.176216 286.039788 
L 177.501196 285.524355 
L 177.826175 286.853778 
L 178.151155 284.84963 
L 178.476134 285.055912 
L 179.126093 280.951781 
L 179.451073 281.869954 
L 179.776052 281.033486 
L 180.101032 282.945943 
L 180.426011 286.993342 
L 180.750991 284.543884 
L 181.075971 284.135694 
L 181.40095 284.880836 
L 181.72593 283.455112 
L 182.050909 283.318848 
L 182.375889 284.722686 
L 182.700868 285.41188 
L 183.025848 289.432295 
L 183.350827 286.667457 
L 183.675807 288.894764 
L 184.000786 286.612115 
L 184.325766 298.818739 
L 184.650745 286.44455 
L 184.975725 285.758269 
L 185.300704 284.687653 
L 185.625684 284.454558 
L 185.950663 284.839211 
L 186.275643 285.967422 
L 186.600622 285.054349 
L 186.925602 285.428434 
L 187.250581 284.182698 
L 187.575561 284.864909 
L 187.900541 285.067178 
L 188.22552 288.340413 
L 188.5505 287.028943 
L 188.875479 284.211656 
L 189.200459 283.145226 
L 189.525438 282.661434 
L 189.850418 283.835803 
L 190.175397 289.209332 
L 190.500377 281.86461 
L 190.825356 282.268962 
L 191.150336 279.936563 
L 191.475315 279.966598 
L 191.800295 279.850649 
L 192.125274 280.038694 
L 192.450254 282.0205 
L 192.775233 282.273083 
L 193.100213 285.090554 
L 193.425192 284.591614 
L 193.750172 283.43748 
L 194.075152 283.958255 
L 194.400131 283.483902 
L 194.725111 285.545895 
L 195.05009 285.458188 
L 195.37507 287.562961 
L 195.700049 286.778782 
L 196.025029 286.399177 
L 196.674988 287.217464 
L 196.999967 285.612471 
L 197.324947 285.879813 
L 197.649926 286.488484 
L 197.974906 287.57844 
L 198.299885 288.064072 
L 198.624865 287.535719 
L 198.949844 284.964405 
L 199.274824 285.259378 
L 199.599803 283.554896 
L 199.924783 283.834872 
L 200.249762 286.062974 
L 200.574742 286.7291 
L 200.899722 288.869403 
L 201.224701 286.288221 
L 201.549681 284.640062 
L 201.87466 285.627445 
L 202.19964 283.420296 
L 202.524619 285.360207 
L 202.849599 285.817464 
L 203.174578 287.686599 
L 203.499558 287.416347 
L 203.824537 285.172648 
L 204.149517 284.773026 
L 204.474496 284.805756 
L 204.799476 285.128185 
L 205.124455 285.919426 
L 205.449435 288.67402 
L 205.774414 288.439469 
L 206.099394 290.647341 
L 206.424373 288.083952 
L 206.749353 284.456575 
L 207.074333 283.508212 
L 207.399312 283.246797 
L 207.724292 283.810555 
L 208.049271 284.63933 
L 208.374251 285.896384 
L 208.69923 282.887398 
L 209.02421 281.064713 
L 209.349189 280.451087 
L 209.674169 279.481659 
L 209.999148 279.225608 
L 210.324128 280.196786 
L 210.649107 280.381191 
L 210.974087 281.429075 
L 211.624046 286.661977 
L 212.274005 283.531387 
L 212.598984 283.529585 
L 212.923964 284.1034 
L 213.248943 284.167031 
L 213.573923 283.601275 
L 213.898903 284.399851 
L 214.223882 284.060936 
L 214.548862 284.09791 
L 214.873841 285.740437 
L 215.198821 286.242334 
L 215.5238 285.494892 
L 215.84878 285.132222 
L 216.173759 284.581223 
L 216.498739 286.053109 
L 216.823718 286.691171 
L 217.148698 286.26295 
L 217.798657 286.256211 
L 218.448616 288.361936 
L 219.098575 284.149916 
L 219.423554 284.271207 
L 219.748534 286.428944 
L 220.073514 282.614525 
L 220.398493 284.522334 
L 220.723473 287.800419 
L 221.048452 282.791634 
L 221.373432 282.686091 
L 221.698411 282.066233 
L 222.023391 284.279675 
L 222.34837 282.654758 
L 222.67335 283.030514 
L 222.998329 284.666816 
L 223.323309 284.299153 
L 223.648288 286.265449 
L 224.298247 292.237188 
L 224.623227 289.069786 
L 224.948206 290.671646 
L 225.273186 286.29998 
L 225.598165 286.420137 
L 225.923145 284.353194 
L 226.248124 284.010974 
L 226.898084 286.421387 
L 227.223063 285.10134 
L 227.548043 285.365938 
L 227.873022 285.298852 
L 228.198002 286.03485 
L 228.522981 287.100244 
L 228.847961 291.08022 
L 229.17294 286.642788 
L 229.49792 285.972415 
L 230.147879 283.647165 
L 230.472858 284.416565 
L 230.797838 286.511166 
L 231.122817 284.662396 
L 231.447797 291.940136 
L 231.772776 282.228983 
L 232.097756 285.305151 
L 232.422735 284.424515 
L 232.747715 282.158702 
L 233.072695 287.699345 
L 233.397674 284.639931 
L 233.722654 290.124555 
L 234.047633 288.352434 
L 234.372613 284.975173 
L 234.697592 286.696423 
L 235.022572 284.976966 
L 235.347551 286.03404 
L 235.672531 286.108823 
L 235.99751 289.204986 
L 236.32249 286.611507 
L 236.647469 289.204986 
L 236.972449 286.108823 
L 237.297428 286.03404 
L 237.622408 284.976966 
L 237.947387 286.696423 
L 238.272367 284.975173 
L 238.597346 288.352434 
L 238.922326 289.833135 
L 239.247305 284.639931 
L 239.572285 287.699345 
L 239.897265 282.158702 
L 240.222244 284.424515 
L 240.547224 285.305151 
L 240.872203 282.228983 
L 241.197183 291.940136 
L 241.522162 284.653585 
L 241.847142 286.511166 
L 242.172121 284.416565 
L 242.497101 283.647165 
L 243.472039 286.642788 
L 243.797019 291.08022 
L 244.121998 286.925592 
L 244.771957 285.298852 
L 245.096937 285.365938 
L 245.421916 285.10134 
L 245.746896 286.421387 
L 246.396855 284.010974 
L 246.721835 284.303465 
L 247.046814 286.420137 
L 247.371794 286.29998 
L 247.696773 290.671646 
L 248.021753 289.069786 
L 248.346732 292.237188 
L 249.321671 284.550378 
L 249.64665 284.666816 
L 249.97163 283.030514 
L 250.296609 282.654758 
L 250.621589 284.279675 
L 250.946568 282.066233 
L 251.271548 282.686091 
L 251.596527 282.791634 
L 251.921507 288.170744 
L 252.246486 284.522334 
L 252.571466 282.614525 
L 252.896446 286.428944 
L 253.221425 284.271207 
L 253.546405 284.149916 
L 254.196364 288.361936 
L 254.846323 286.256211 
L 255.496282 286.26295 
L 255.821261 286.691171 
L 256.146241 286.053109 
L 256.47122 284.581223 
L 257.446159 286.242334 
L 257.771138 285.740437 
L 258.096118 284.09791 
L 258.421097 284.060936 
L 258.746077 284.399851 
L 259.071057 283.601275 
L 259.396036 284.167031 
L 259.721016 284.216132 
L 260.045995 283.529585 
L 260.370975 283.531387 
L 261.020934 286.661977 
L 261.345913 284.472468 
L 261.670893 281.429075 
L 261.995872 280.381191 
L 262.320852 280.392159 
L 262.645831 279.225608 
L 262.970811 279.481659 
L 263.29579 280.451087 
L 263.62077 281.064713 
L 263.945749 282.887398 
L 264.270729 285.896384 
L 264.595708 284.63933 
L 265.245667 283.246797 
L 265.570647 283.508212 
L 265.895627 284.456575 
L 266.545586 290.647341 
L 266.870565 288.439469 
L 267.195545 288.67402 
L 267.520524 285.931716 
L 267.845504 285.128185 
L 268.170483 284.805756 
L 268.495463 284.773026 
L 268.820442 285.172648 
L 269.145422 287.416347 
L 269.470401 287.686599 
L 269.795381 285.817464 
L 270.12036 285.27956 
L 270.44534 283.420296 
L 270.770319 285.627445 
L 271.095299 284.640062 
L 271.420278 286.288221 
L 271.745258 288.869403 
L 272.070238 286.7291 
L 272.395217 286.062974 
L 272.720197 283.871944 
L 273.045176 283.554896 
L 273.370156 285.259378 
L 273.695135 284.964405 
L 274.020115 287.535719 
L 274.345094 288.064072 
L 274.670074 287.57844 
L 275.320033 285.587616 
L 275.645012 285.612471 
L 275.969992 287.217464 
L 276.619951 286.399177 
L 276.94493 286.778782 
L 277.26991 287.562961 
L 277.594889 285.458188 
L 277.919869 285.566702 
L 278.244848 283.483902 
L 278.569828 283.958255 
L 278.894808 283.43748 
L 279.219787 284.591614 
L 279.544767 285.090554 
L 279.869746 282.273083 
L 280.194726 282.0205 
L 280.519705 280.037161 
L 280.844685 279.850649 
L 281.169664 279.966598 
L 281.494644 279.936563 
L 281.819623 282.268962 
L 282.144603 281.86461 
L 282.469582 289.209332 
L 282.794562 283.835803 
L 283.119541 282.637561 
L 283.444521 283.145226 
L 283.7695 284.211656 
L 284.09448 287.028943 
L 284.419459 288.340413 
L 284.744439 285.067178 
L 285.069419 284.864909 
L 285.394398 284.182698 
L 285.719378 285.410813 
L 286.044357 285.054349 
L 286.369337 285.967422 
L 286.694316 284.839211 
L 287.019296 284.454558 
L 287.344275 284.687653 
L 287.669255 285.758269 
L 287.994234 286.44455 
L 288.319214 291.150283 
L 288.644193 286.612115 
L 288.969173 288.894764 
L 289.294152 286.667457 
L 289.619132 289.432295 
L 289.944111 285.41188 
L 290.269091 284.722686 
L 290.59407 283.318848 
L 290.91905 283.458795 
L 291.244029 284.880836 
L 291.569009 284.135694 
L 291.893989 284.543884 
L 292.218968 286.993342 
L 292.543948 282.945943 
L 292.868927 281.033486 
L 293.193907 281.869954 
L 293.518886 280.965141 
L 294.168845 285.055912 
L 294.493825 284.84963 
L 294.818804 286.853778 
L 295.143784 285.524355 
L 295.468763 286.039788 
L 295.793743 285.148798 
L 296.118722 287.156224 
L 296.443702 286.431383 
L 296.768681 285.326949 
L 297.093661 285.75225 
L 297.41864 285.471679 
L 297.74362 286.324241 
L 298.0686 285.37169 
L 298.393579 287.292138 
L 298.718559 285.35094 
L 299.043538 288.015578 
L 299.368518 286.529758 
L 299.693497 291.848755 
L 300.018477 288.240526 
L 300.343456 286.845663 
L 300.668436 289.707626 
L 300.993415 286.651655 
L 301.318395 290.160952 
L 301.968354 286.714227 
L 302.293333 290.115891 
L 302.618313 284.86535 
L 302.943292 285.859417 
L 303.268272 282.040075 
L 303.593251 283.170772 
L 303.918231 285.416811 
L 304.24321 285.848245 
L 304.56819 286.731808 
L 304.89317 302.085818 
L 305.218149 287.576436 
L 305.543129 285.924389 
L 305.868108 285.32615 
L 306.193088 285.179913 
L 306.518067 285.864843 
L 306.843047 285.415034 
L 307.168026 287.035445 
L 307.493006 287.049836 
L 307.817985 287.295851 
L 308.142965 285.873438 
L 308.467944 285.552912 
L 308.792924 284.932021 
L 309.117903 285.549077 
L 309.442883 286.650932 
L 309.767862 288.161536 
L 310.092842 288.306655 
L 310.417821 285.654074 
L 310.742801 285.542881 
L 311.067781 283.576533 
L 311.39276 284.989481 
L 311.71774 283.151809 
L 312.042719 284.361463 
L 312.367699 286.622509 
L 312.692678 285.391421 
L 313.017658 285.135655 
L 313.342637 284.272502 
L 313.667617 288.850782 
L 313.992596 284.367208 
L 314.317576 288.497551 
L 314.642555 288.125195 
L 314.967535 285.977257 
L 315.292514 288.537566 
L 315.617494 285.531226 
L 315.942473 286.376227 
L 316.267453 286.009976 
L 316.592432 284.321641 
L 316.917412 285.097571 
L 317.242391 283.838807 
L 317.567371 284.924711 
L 317.892351 284.748007 
L 318.21733 288.039288 
L 318.54231 286.858888 
L 318.867289 285.257852 
L 319.192269 287.582326 
L 319.517248 285.406425 
L 319.842228 284.916302 
L 320.167207 285.377967 
L 320.492187 281.895764 
L 320.817166 282.241451 
L 321.142146 280.100004 
L 321.467125 279.964637 
L 321.792105 279.959364 
L 322.117084 280.185136 
L 322.442064 282.027036 
L 322.767043 282.313229 
L 323.092023 284.65254 
L 323.417002 284.807768 
L 323.741982 282.857196 
L 324.066962 288.184205 
L 324.391941 283.654434 
L 324.716921 285.810715 
L 325.0419 285.091531 
L 325.36688 289.623086 
L 325.691859 291.686633 
L 326.016839 286.1697 
L 326.341818 286.528768 
L 326.666798 287.922967 
L 326.991777 287.142804 
L 327.316757 287.084986 
L 327.641736 284.36162 
L 327.966716 284.265321 
L 328.291695 284.43267 
L 328.616675 286.200942 
L 328.941654 288.823356 
L 329.591613 285.362564 
L 329.916593 284.801019 
L 330.241572 285.619693 
L 330.566552 285.3261 
L 330.891532 284.859336 
L 331.216511 283.353052 
L 331.541491 286.468 
L 331.86647 282.485183 
L 332.19145 282.967307 
L 332.516429 283.789115 
L 332.841409 282.844983 
L 333.491368 279.222986 
L 333.816347 192.122182 
L 334.141327 279.268368 
L 334.791286 282.324747 
L 335.441245 284.205095 
L 336.091204 284.4885 
L 336.416183 284.797038 
L 336.741163 284.425366 
L 337.391122 284.189139 
L 337.716102 284.276681 
L 338.041081 284.825225 
L 338.366061 286.878023 
L 338.69104 288.037855 
L 339.01602 285.976383 
L 339.340999 286.19724 
L 339.665979 284.37999 
L 339.990958 285.255329 
L 340.315938 287.244466 
L 340.965897 289.37299 
L 341.290876 285.185995 
L 341.615856 285.205105 
L 341.940835 284.080548 
L 342.265815 286.075335 
L 342.590794 285.196209 
L 342.915774 289.367176 
L 343.240753 284.880521 
L 343.565733 286.145196 
L 343.890713 282.499421 
L 344.215692 284.422276 
L 344.865651 289.310263 
L 345.190631 287.59059 
L 345.51561 287.420074 
L 346.165569 289.486595 
L 346.490549 288.994753 
L 346.815528 287.957072 
L 347.140508 287.948439 
L 347.465487 286.203953 
L 348.115446 285.064101 
L 348.440426 285.249639 
L 348.765405 284.928714 
L 349.090385 285.192706 
L 349.415364 285.18454 
L 350.065324 286.191841 
L 350.390303 288.061233 
L 350.715283 286.821574 
L 351.040262 284.366849 
L 351.365242 283.922546 
L 351.690221 282.186127 
L 352.015201 284.546649 
L 352.34018 282.663684 
L 352.66516 282.423776 
L 352.990139 283.033825 
L 353.315119 284.048171 
L 353.640098 285.902912 
L 353.965078 286.662705 
L 354.290057 284.335274 
L 354.615037 285.223571 
L 354.940016 284.692863 
L 355.264996 284.958505 
L 355.589975 290.539264 
L 355.914955 286.386172 
L 356.239934 286.044573 
L 356.564914 284.877491 
L 356.889894 284.990132 
L 357.539853 286.820825 
L 357.864832 284.468936 
L 358.189812 285.173207 
L 358.514791 283.336127 
L 358.839771 286.960308 
L 359.16475 284.601138 
L 359.48973 288.266128 
L 359.814709 286.025042 
L 360.139689 284.867502 
L 360.464668 287.633935 
L 360.789648 288.073265 
L 361.114627 284.503584 
L 361.439607 286.908515 
L 361.764586 281.953586 
L 362.089566 284.333935 
L 362.414545 284.975638 
L 362.739525 282.382721 
L 363.064505 286.451274 
L 363.389484 287.354906 
L 363.714464 285.460297 
L 364.039443 282.86923 
L 364.364423 282.018826 
L 364.689402 285.931476 
L 365.014382 284.659644 
L 365.339361 288.766353 
L 365.664341 287.938026 
L 365.98932 287.993102 
L 366.3143 288.295005 
L 366.639279 295.205712 
L 366.964259 285.736708 
L 367.289238 286.358682 
L 367.614218 284.669657 
L 367.939197 285.523698 
L 368.264177 285.078619 
L 368.589156 286.593721 
L 368.914136 285.12368 
L 369.239115 285.688959 
L 369.564095 285.482057 
L 370.214054 286.761932 
L 370.539034 290.96001 
L 370.864013 286.535748 
L 371.513972 286.545928 
L 371.838952 287.188263 
L 372.163931 283.679098 
L 372.488911 283.534546 
L 372.81389 285.616183 
L 373.13887 283.987157 
L 373.463849 284.354521 
L 373.788829 283.189293 
L 374.113808 280.803533 
L 374.438788 282.197993 
L 374.763767 281.053375 
L 375.413726 285.611064 
L 375.738706 284.881427 
L 376.063686 287.84483 
L 376.388665 286.645834 
L 376.713645 287.906148 
L 377.038624 285.467084 
L 377.363604 284.689988 
L 378.013563 284.765751 
L 378.338542 285.175136 
L 378.663522 286.819119 
L 378.988501 285.505636 
L 379.313481 287.380218 
L 379.63846 285.495478 
L 379.96344 285.563106 
L 380.288419 285.947358 
L 380.613399 289.141008 
L 380.938378 286.210234 
L 381.263358 284.933102 
L 381.588337 284.616346 
L 381.913317 285.353112 
L 382.238296 284.596824 
L 382.563276 282.148188 
L 382.888256 285.790486 
L 383.213235 283.788245 
L 383.538215 284.402423 
L 383.863194 285.810419 
L 384.513153 283.504536 
L 384.838133 286.582924 
L 385.163112 284.396326 
L 385.488092 287.715431 
L 385.813071 288.634357 
L 386.138051 287.69316 
L 386.78801 284.972707 
L 387.112989 286.540213 
L 387.437969 287.464558 
L 387.762948 284.969172 
L 388.412907 283.302474 
L 388.737887 283.40431 
L 389.062867 284.328971 
L 389.387846 287.318714 
L 390.037805 284.050087 
L 390.362785 283.75119 
L 390.687764 284.956931 
L 391.012744 287.64544 
L 391.337723 282.83533 
L 391.987682 279.929935 
L 392.312662 192.122182 
L 392.637641 279.267957 
L 392.962621 279.630838 
L 393.2876 280.544041 
L 393.61258 281.104791 
L 393.937559 283.086441 
L 394.262539 286.098715 
L 394.912498 282.870255 
L 395.237477 284.519038 
L 395.562457 284.233188 
L 396.212416 289.05164 
L 396.537396 287.606747 
L 396.862375 290.643052 
L 397.187355 290.464821 
L 397.512334 286.473447 
L 397.837314 285.940699 
L 398.162293 285.928404 
L 398.487273 285.683066 
L 398.487273 285.683066 
" style="fill:none;stroke:#1f77b4;stroke-linecap:square;stroke-width:1.5;"/>
   </g>
   <g id="patch_9">
    <path d="M 57.6 307.584 
L 57.6 186.624 
" style="fill:none;stroke:#000000;stroke-linecap:square;stroke-linejoin:miter;stroke-width:0.8;"/>
   </g>
   <g id="patch_10">
    <path d="M 414.72 307.584 
L 414.72 186.624 
" style="fill:none;stroke:#000000;stroke-linecap:square;stroke-linejoin:miter;stroke-width:0.8;"/>
   </g>
   <g id="patch_11">
    <path d="M 57.6 307.584 
L 414.72 307.584 
" style="fill:none;stroke:#000000;stroke-linecap:square;stroke-linejoin:miter;stroke-width:0.8;"/>
   </g>
   <g id="patch_12">
    <path d="M 57.6 186.624 
L 414.72 186.624 
" style="fill:none;stroke:#000000;stroke-linecap:square;stroke-linejoin:miter;stroke-width:0.8;"/>
   </g>
  </g>
 </g>
 <defs>
  <clipPath id="p6c04eaf89c">
   <rect height="120.96" width="357.12" x="57.6" y="41.472"/>
  </clipPath>
  <clipPath id="p2595192c3d">
   <rect height="120.96" width="357.12" x="57.6" y="186.624"/>
  </clipPath>
 </defs>
</svg>
