<?xml version="1.0" encoding="utf-8" standalone="no"?>
<!DOCTYPE svg PUBLIC "-//W3C//DTD SVG 1.1//EN"
  "http://www.w3.org/Graphics/SVG/1.1/DTD/svg11.dtd">
<!-- Created with matplotlib (http://matplotlib.org/) -->
<svg height="345pt" version="1.1" viewBox="0 0 460 345" width="460pt" xmlns="http://www.w3.org/2000/svg" xmlns:xlink="http://www.w3.org/1999/xlink">
 <defs>
  <style type="text/css">
*{stroke-linecap:butt;stroke-linejoin:round;}
  </style>
 </defs>
 <g id="figure_1">
  <g id="patch_1">
   <path d="M 0 345.6 
L 460.8 345.6 
L 460.8 0 
L 0 0 
z
" style="fill:#ffffff;"/>
  </g>
  <g id="axes_1">
   <g id="patch_2">
    <path d="M 57.6 307.584 
L 414.72 307.584 
L 414.72 41.472 
L 57.6 41.472 
z
" style="fill:#ffffff;"/>
   </g>
   <g id="matplotlib.axis_1">
    <g id="xtick_1">
     <g id="line2d_1">
      <defs>
       <path d="M 0 0 
L 0 3.5 
" id="m92bbf9062e" style="stroke:#000000;stroke-width:0.8;"/>
      </defs>
      <g>
       <use style="stroke:#000000;stroke-width:0.8;" x="73.832727" xlink:href="#m92bbf9062e" y="307.584"/>
      </g>
     </g>
     <g id="text_1">
      <!-- 0 -->
      <defs>
       <path d="M 31.78125 66.40625 
Q 24.171875 66.40625 20.328125 58.90625 
Q 16.5 51.421875 16.5 36.375 
Q 16.5 21.390625 20.328125 13.890625 
Q 24.171875 6.390625 31.78125 6.390625 
Q 39.453125 6.390625 43.28125 13.890625 
Q 47.125 21.390625 47.125 36.375 
Q 47.125 51.421875 43.28125 58.90625 
Q 39.453125 66.40625 31.78125 66.40625 
z
M 31.78125 74.21875 
Q 44.046875 74.21875 50.515625 64.515625 
Q 56.984375 54.828125 56.984375 36.375 
Q 56.984375 17.96875 50.515625 8.265625 
Q 44.046875 -1.421875 31.78125 -1.421875 
Q 19.53125 -1.421875 13.0625 8.265625 
Q 6.59375 17.96875 6.59375 36.375 
Q 6.59375 54.828125 13.0625 64.515625 
Q 19.53125 74.21875 31.78125 74.21875 
z
" id="DejaVuSans-30"/>
      </defs>
      <g transform="translate(70.651477 322.182437)scale(0.1 -0.1)">
       <use xlink:href="#DejaVuSans-30"/>
      </g>
     </g>
    </g>
    <g id="xtick_2">
     <g id="line2d_2">
      <g>
       <use style="stroke:#000000;stroke-width:0.8;" x="138.828632" xlink:href="#m92bbf9062e" y="307.584"/>
      </g>
     </g>
     <g id="text_2">
      <!-- 200 -->
      <defs>
       <path d="M 19.1875 8.296875 
L 53.609375 8.296875 
L 53.609375 0 
L 7.328125 0 
L 7.328125 8.296875 
Q 12.9375 14.109375 22.625 23.890625 
Q 32.328125 33.6875 34.8125 36.53125 
Q 39.546875 41.84375 41.421875 45.53125 
Q 43.3125 49.21875 43.3125 52.78125 
Q 43.3125 58.59375 39.234375 62.25 
Q 35.15625 65.921875 28.609375 65.921875 
Q 23.96875 65.921875 18.8125 64.3125 
Q 13.671875 62.703125 7.8125 59.421875 
L 7.8125 69.390625 
Q 13.765625 71.78125 18.9375 73 
Q 24.125 74.21875 28.421875 74.21875 
Q 39.75 74.21875 46.484375 68.546875 
Q 53.21875 62.890625 53.21875 53.421875 
Q 53.21875 48.921875 51.53125 44.890625 
Q 49.859375 40.875 45.40625 35.40625 
Q 44.1875 33.984375 37.640625 27.21875 
Q 31.109375 20.453125 19.1875 8.296875 
z
" id="DejaVuSans-32"/>
      </defs>
      <g transform="translate(129.284882 322.182437)scale(0.1 -0.1)">
       <use xlink:href="#DejaVuSans-32"/>
       <use x="63.623047" xlink:href="#DejaVuSans-30"/>
       <use x="127.246094" xlink:href="#DejaVuSans-30"/>
      </g>
     </g>
    </g>
    <g id="xtick_3">
     <g id="line2d_3">
      <g>
       <use style="stroke:#000000;stroke-width:0.8;" x="203.824537" xlink:href="#m92bbf9062e" y="307.584"/>
      </g>
     </g>
     <g id="text_3">
      <!-- 400 -->
      <defs>
       <path d="M 37.796875 64.3125 
L 12.890625 25.390625 
L 37.796875 25.390625 
z
M 35.203125 72.90625 
L 47.609375 72.90625 
L 47.609375 25.390625 
L 58.015625 25.390625 
L 58.015625 17.1875 
L 47.609375 17.1875 
L 47.609375 0 
L 37.796875 0 
L 37.796875 17.1875 
L 4.890625 17.1875 
L 4.890625 26.703125 
z
" id="DejaVuSans-34"/>
      </defs>
      <g transform="translate(194.280787 322.182437)scale(0.1 -0.1)">
       <use xlink:href="#DejaVuSans-34"/>
       <use x="63.623047" xlink:href="#DejaVuSans-30"/>
       <use x="127.246094" xlink:href="#DejaVuSans-30"/>
      </g>
     </g>
    </g>
    <g id="xtick_4">
     <g id="line2d_4">
      <g>
       <use style="stroke:#000000;stroke-width:0.8;" x="268.820442" xlink:href="#m92bbf9062e" y="307.584"/>
      </g>
     </g>
     <g id="text_4">
      <!-- 600 -->
      <defs>
       <path d="M 33.015625 40.375 
Q 26.375 40.375 22.484375 35.828125 
Q 18.609375 31.296875 18.609375 23.390625 
Q 18.609375 15.53125 22.484375 10.953125 
Q 26.375 6.390625 33.015625 6.390625 
Q 39.65625 6.390625 43.53125 10.953125 
Q 47.40625 15.53125 47.40625 23.390625 
Q 47.40625 31.296875 43.53125 35.828125 
Q 39.65625 40.375 33.015625 40.375 
z
M 52.59375 71.296875 
L 52.59375 62.3125 
Q 48.875 64.0625 45.09375 64.984375 
Q 41.3125 65.921875 37.59375 65.921875 
Q 27.828125 65.921875 22.671875 59.328125 
Q 17.53125 52.734375 16.796875 39.40625 
Q 19.671875 43.65625 24.015625 45.921875 
Q 28.375 48.1875 33.59375 48.1875 
Q 44.578125 48.1875 50.953125 41.515625 
Q 57.328125 34.859375 57.328125 23.390625 
Q 57.328125 12.15625 50.6875 5.359375 
Q 44.046875 -1.421875 33.015625 -1.421875 
Q 20.359375 -1.421875 13.671875 8.265625 
Q 6.984375 17.96875 6.984375 36.375 
Q 6.984375 53.65625 15.1875 63.9375 
Q 23.390625 74.21875 37.203125 74.21875 
Q 40.921875 74.21875 44.703125 73.484375 
Q 48.484375 72.75 52.59375 71.296875 
z
" id="DejaVuSans-36"/>
      </defs>
      <g transform="translate(259.276692 322.182437)scale(0.1 -0.1)">
       <use xlink:href="#DejaVuSans-36"/>
       <use x="63.623047" xlink:href="#DejaVuSans-30"/>
       <use x="127.246094" xlink:href="#DejaVuSans-30"/>
      </g>
     </g>
    </g>
    <g id="xtick_5">
     <g id="line2d_5">
      <g>
       <use style="stroke:#000000;stroke-width:0.8;" x="333.816347" xlink:href="#m92bbf9062e" y="307.584"/>
      </g>
     </g>
     <g id="text_5">
      <!-- 800 -->
      <defs>
       <path d="M 31.78125 34.625 
Q 24.75 34.625 20.71875 30.859375 
Q 16.703125 27.09375 16.703125 20.515625 
Q 16.703125 13.921875 20.71875 10.15625 
Q 24.75 6.390625 31.78125 6.390625 
Q 38.8125 6.390625 42.859375 10.171875 
Q 46.921875 13.96875 46.921875 20.515625 
Q 46.921875 27.09375 42.890625 30.859375 
Q 38.875 34.625 31.78125 34.625 
z
M 21.921875 38.8125 
Q 15.578125 40.375 12.03125 44.71875 
Q 8.5 49.078125 8.5 55.328125 
Q 8.5 64.0625 14.71875 69.140625 
Q 20.953125 74.21875 31.78125 74.21875 
Q 42.671875 74.21875 48.875 69.140625 
Q 55.078125 64.0625 55.078125 55.328125 
Q 55.078125 49.078125 51.53125 44.71875 
Q 48 40.375 41.703125 38.8125 
Q 48.828125 37.15625 52.796875 32.3125 
Q 56.78125 27.484375 56.78125 20.515625 
Q 56.78125 9.90625 50.3125 4.234375 
Q 43.84375 -1.421875 31.78125 -1.421875 
Q 19.734375 -1.421875 13.25 4.234375 
Q 6.78125 9.90625 6.78125 20.515625 
Q 6.78125 27.484375 10.78125 32.3125 
Q 14.796875 37.15625 21.921875 38.8125 
z
M 18.3125 54.390625 
Q 18.3125 48.734375 21.84375 45.5625 
Q 25.390625 42.390625 31.78125 42.390625 
Q 38.140625 42.390625 41.71875 45.5625 
Q 45.3125 48.734375 45.3125 54.390625 
Q 45.3125 60.0625 41.71875 63.234375 
Q 38.140625 66.40625 31.78125 66.40625 
Q 25.390625 66.40625 21.84375 63.234375 
Q 18.3125 60.0625 18.3125 54.390625 
z
" id="DejaVuSans-38"/>
      </defs>
      <g transform="translate(324.272597 322.182437)scale(0.1 -0.1)">
       <use xlink:href="#DejaVuSans-38"/>
       <use x="63.623047" xlink:href="#DejaVuSans-30"/>
       <use x="127.246094" xlink:href="#DejaVuSans-30"/>
      </g>
     </g>
    </g>
    <g id="xtick_6">
     <g id="line2d_6">
      <g>
       <use style="stroke:#000000;stroke-width:0.8;" x="398.812252" xlink:href="#m92bbf9062e" y="307.584"/>
      </g>
     </g>
     <g id="text_6">
      <!-- 1000 -->
      <defs>
       <path d="M 12.40625 8.296875 
L 28.515625 8.296875 
L 28.515625 63.921875 
L 10.984375 60.40625 
L 10.984375 69.390625 
L 28.421875 72.90625 
L 38.28125 72.90625 
L 38.28125 8.296875 
L 54.390625 8.296875 
L 54.390625 0 
L 12.40625 0 
z
" id="DejaVuSans-31"/>
      </defs>
      <g transform="translate(386.087252 322.182437)scale(0.1 -0.1)">
       <use xlink:href="#DejaVuSans-31"/>
       <use x="63.623047" xlink:href="#DejaVuSans-30"/>
       <use x="127.246094" xlink:href="#DejaVuSans-30"/>
       <use x="190.869141" xlink:href="#DejaVuSans-30"/>
      </g>
     </g>
    </g>
   </g>
   <g id="matplotlib.axis_2">
    <g id="ytick_1">
     <g id="line2d_7">
      <defs>
       <path d="M 0 0 
L -3.5 0 
" id="mab7c490556" style="stroke:#000000;stroke-width:0.8;"/>
      </defs>
      <g>
       <use style="stroke:#000000;stroke-width:0.8;" x="57.6" xlink:href="#mab7c490556" y="296.830388"/>
      </g>
     </g>
     <g id="text_7">
      <!-- −0.00100 -->
      <defs>
       <path d="M 10.59375 35.5 
L 73.1875 35.5 
L 73.1875 27.203125 
L 10.59375 27.203125 
z
" id="DejaVuSans-2212"/>
       <path d="M 10.6875 12.40625 
L 21 12.40625 
L 21 0 
L 10.6875 0 
z
" id="DejaVuSans-2e"/>
      </defs>
      <g transform="translate(0.867188 300.629607)scale(0.1 -0.1)">
       <use xlink:href="#DejaVuSans-2212"/>
       <use x="83.789062" xlink:href="#DejaVuSans-30"/>
       <use x="147.412109" xlink:href="#DejaVuSans-2e"/>
       <use x="179.199219" xlink:href="#DejaVuSans-30"/>
       <use x="242.822266" xlink:href="#DejaVuSans-30"/>
       <use x="306.445312" xlink:href="#DejaVuSans-31"/>
       <use x="370.068359" xlink:href="#DejaVuSans-30"/>
       <use x="433.691406" xlink:href="#DejaVuSans-30"/>
      </g>
     </g>
    </g>
    <g id="ytick_2">
     <g id="line2d_8">
      <g>
       <use style="stroke:#000000;stroke-width:0.8;" x="57.6" xlink:href="#mab7c490556" y="267.149042"/>
      </g>
     </g>
     <g id="text_8">
      <!-- −0.00075 -->
      <defs>
       <path d="M 8.203125 72.90625 
L 55.078125 72.90625 
L 55.078125 68.703125 
L 28.609375 0 
L 18.3125 0 
L 43.21875 64.59375 
L 8.203125 64.59375 
z
" id="DejaVuSans-37"/>
       <path d="M 10.796875 72.90625 
L 49.515625 72.90625 
L 49.515625 64.59375 
L 19.828125 64.59375 
L 19.828125 46.734375 
Q 21.96875 47.46875 24.109375 47.828125 
Q 26.265625 48.1875 28.421875 48.1875 
Q 40.625 48.1875 47.75 41.5 
Q 54.890625 34.8125 54.890625 23.390625 
Q 54.890625 11.625 47.5625 5.09375 
Q 40.234375 -1.421875 26.90625 -1.421875 
Q 22.3125 -1.421875 17.546875 -0.640625 
Q 12.796875 0.140625 7.71875 1.703125 
L 7.71875 11.625 
Q 12.109375 9.234375 16.796875 8.0625 
Q 21.484375 6.890625 26.703125 6.890625 
Q 35.15625 6.890625 40.078125 11.328125 
Q 45.015625 15.765625 45.015625 23.390625 
Q 45.015625 31 40.078125 35.4375 
Q 35.15625 39.890625 26.703125 39.890625 
Q 22.75 39.890625 18.8125 39.015625 
Q 14.890625 38.140625 10.796875 36.28125 
z
" id="DejaVuSans-35"/>
      </defs>
      <g transform="translate(0.867188 270.94826)scale(0.1 -0.1)">
       <use xlink:href="#DejaVuSans-2212"/>
       <use x="83.789062" xlink:href="#DejaVuSans-30"/>
       <use x="147.412109" xlink:href="#DejaVuSans-2e"/>
       <use x="179.199219" xlink:href="#DejaVuSans-30"/>
       <use x="242.822266" xlink:href="#DejaVuSans-30"/>
       <use x="306.445312" xlink:href="#DejaVuSans-30"/>
       <use x="370.068359" xlink:href="#DejaVuSans-37"/>
       <use x="433.691406" xlink:href="#DejaVuSans-35"/>
      </g>
     </g>
    </g>
    <g id="ytick_3">
     <g id="line2d_9">
      <g>
       <use style="stroke:#000000;stroke-width:0.8;" x="57.6" xlink:href="#mab7c490556" y="237.467695"/>
      </g>
     </g>
     <g id="text_9">
      <!-- −0.00050 -->
      <g transform="translate(0.867188 241.266914)scale(0.1 -0.1)">
       <use xlink:href="#DejaVuSans-2212"/>
       <use x="83.789062" xlink:href="#DejaVuSans-30"/>
       <use x="147.412109" xlink:href="#DejaVuSans-2e"/>
       <use x="179.199219" xlink:href="#DejaVuSans-30"/>
       <use x="242.822266" xlink:href="#DejaVuSans-30"/>
       <use x="306.445312" xlink:href="#DejaVuSans-30"/>
       <use x="370.068359" xlink:href="#DejaVuSans-35"/>
       <use x="433.691406" xlink:href="#DejaVuSans-30"/>
      </g>
     </g>
    </g>
    <g id="ytick_4">
     <g id="line2d_10">
      <g>
       <use style="stroke:#000000;stroke-width:0.8;" x="57.6" xlink:href="#mab7c490556" y="207.786348"/>
      </g>
     </g>
     <g id="text_10">
      <!-- −0.00025 -->
      <g transform="translate(0.867188 211.585567)scale(0.1 -0.1)">
       <use xlink:href="#DejaVuSans-2212"/>
       <use x="83.789062" xlink:href="#DejaVuSans-30"/>
       <use x="147.412109" xlink:href="#DejaVuSans-2e"/>
       <use x="179.199219" xlink:href="#DejaVuSans-30"/>
       <use x="242.822266" xlink:href="#DejaVuSans-30"/>
       <use x="306.445312" xlink:href="#DejaVuSans-30"/>
       <use x="370.068359" xlink:href="#DejaVuSans-32"/>
       <use x="433.691406" xlink:href="#DejaVuSans-35"/>
      </g>
     </g>
    </g>
    <g id="ytick_5">
     <g id="line2d_11">
      <g>
       <use style="stroke:#000000;stroke-width:0.8;" x="57.6" xlink:href="#mab7c490556" y="178.105002"/>
      </g>
     </g>
     <g id="text_11">
      <!-- 0.00000 -->
      <g transform="translate(9.246875 181.90422)scale(0.1 -0.1)">
       <use xlink:href="#DejaVuSans-30"/>
       <use x="63.623047" xlink:href="#DejaVuSans-2e"/>
       <use x="95.410156" xlink:href="#DejaVuSans-30"/>
       <use x="159.033203" xlink:href="#DejaVuSans-30"/>
       <use x="222.65625" xlink:href="#DejaVuSans-30"/>
       <use x="286.279297" xlink:href="#DejaVuSans-30"/>
       <use x="349.902344" xlink:href="#DejaVuSans-30"/>
      </g>
     </g>
    </g>
    <g id="ytick_6">
     <g id="line2d_12">
      <g>
       <use style="stroke:#000000;stroke-width:0.8;" x="57.6" xlink:href="#mab7c490556" y="148.423655"/>
      </g>
     </g>
     <g id="text_12">
      <!-- 0.00025 -->
      <g transform="translate(9.246875 152.222874)scale(0.1 -0.1)">
       <use xlink:href="#DejaVuSans-30"/>
       <use x="63.623047" xlink:href="#DejaVuSans-2e"/>
       <use x="95.410156" xlink:href="#DejaVuSans-30"/>
       <use x="159.033203" xlink:href="#DejaVuSans-30"/>
       <use x="222.65625" xlink:href="#DejaVuSans-30"/>
       <use x="286.279297" xlink:href="#DejaVuSans-32"/>
       <use x="349.902344" xlink:href="#DejaVuSans-35"/>
      </g>
     </g>
    </g>
    <g id="ytick_7">
     <g id="line2d_13">
      <g>
       <use style="stroke:#000000;stroke-width:0.8;" x="57.6" xlink:href="#mab7c490556" y="118.742308"/>
      </g>
     </g>
     <g id="text_13">
      <!-- 0.00050 -->
      <g transform="translate(9.246875 122.541527)scale(0.1 -0.1)">
       <use xlink:href="#DejaVuSans-30"/>
       <use x="63.623047" xlink:href="#DejaVuSans-2e"/>
       <use x="95.410156" xlink:href="#DejaVuSans-30"/>
       <use x="159.033203" xlink:href="#DejaVuSans-30"/>
       <use x="222.65625" xlink:href="#DejaVuSans-30"/>
       <use x="286.279297" xlink:href="#DejaVuSans-35"/>
       <use x="349.902344" xlink:href="#DejaVuSans-30"/>
      </g>
     </g>
    </g>
    <g id="ytick_8">
     <g id="line2d_14">
      <g>
       <use style="stroke:#000000;stroke-width:0.8;" x="57.6" xlink:href="#mab7c490556" y="89.060961"/>
      </g>
     </g>
     <g id="text_14">
      <!-- 0.00075 -->
      <g transform="translate(9.246875 92.86018)scale(0.1 -0.1)">
       <use xlink:href="#DejaVuSans-30"/>
       <use x="63.623047" xlink:href="#DejaVuSans-2e"/>
       <use x="95.410156" xlink:href="#DejaVuSans-30"/>
       <use x="159.033203" xlink:href="#DejaVuSans-30"/>
       <use x="222.65625" xlink:href="#DejaVuSans-30"/>
       <use x="286.279297" xlink:href="#DejaVuSans-37"/>
       <use x="349.902344" xlink:href="#DejaVuSans-35"/>
      </g>
     </g>
    </g>
    <g id="ytick_9">
     <g id="line2d_15">
      <g>
       <use style="stroke:#000000;stroke-width:0.8;" x="57.6" xlink:href="#mab7c490556" y="59.379615"/>
      </g>
     </g>
     <g id="text_15">
      <!-- 0.00100 -->
      <g transform="translate(9.246875 63.178833)scale(0.1 -0.1)">
       <use xlink:href="#DejaVuSans-30"/>
       <use x="63.623047" xlink:href="#DejaVuSans-2e"/>
       <use x="95.410156" xlink:href="#DejaVuSans-30"/>
       <use x="159.033203" xlink:href="#DejaVuSans-30"/>
       <use x="222.65625" xlink:href="#DejaVuSans-31"/>
       <use x="286.279297" xlink:href="#DejaVuSans-30"/>
       <use x="349.902344" xlink:href="#DejaVuSans-30"/>
      </g>
     </g>
    </g>
   </g>
   <g id="line2d_16">
    <path clip-path="url(#pb50110129c)" d="M 73.832727 178.105002 
L 74.157707 117.548504 
L 74.807666 267.266083 
L 75.132645 183.713031 
L 75.457625 53.568 
L 75.782604 122.794929 
L 76.107584 295.346441 
L 76.432563 269.279581 
L 76.757543 82.590335 
L 77.082523 53.945383 
L 77.407502 250.417969 
L 77.732482 293.494174 
L 78.382441 75.094466 
L 78.70742 117.322489 
L 79.0324 251.412893 
L 79.357379 294.787533 
L 80.007338 76.836731 
L 80.332318 113.684977 
L 80.657297 253.101191 
L 80.982277 295.488 
L 81.632236 71.272693 
L 81.957215 112.606633 
L 82.282195 252.19324 
L 82.607174 292.673194 
L 83.257133 67.51693 
L 83.582113 111.600103 
L 83.907093 244.6099 
L 84.232072 288.693073 
L 84.882031 63.536809 
L 85.207011 104.016763 
L 85.53199 243.603371 
L 85.85697 284.93731 
L 86.506929 60.722003 
L 86.831908 103.108812 
L 87.156888 242.525026 
L 87.481867 279.373272 
L 88.131826 61.42247 
L 88.456806 104.79711 
L 88.781785 238.887514 
L 89.106765 281.115537 
L 89.756724 62.715829 
L 90.081704 105.792034 
L 90.406683 241.708123 
L 90.731663 285.889873 
L 91.381622 66.471592 
L 91.706601 108.878072 
L 92.031581 247.331931 
L 92.35656 289.738411 
L 93.006519 70.32013 
L 93.331499 114.50188 
L 93.656478 250.417969 
L 93.981458 293.494174 
L 94.631417 75.094466 
L 94.956396 117.322489 
L 95.281376 251.412893 
L 95.606355 294.787533 
L 96.256314 76.836731 
L 96.581294 113.684977 
L 96.906274 253.101191 
L 97.231253 295.488 
L 97.881212 71.272693 
L 98.206192 112.606633 
L 98.531171 252.19324 
L 98.856151 292.673194 
L 99.50611 67.51693 
L 99.831089 111.600103 
L 100.156069 244.6099 
L 100.481048 288.693073 
L 101.131007 63.536809 
L 101.455987 104.016763 
L 101.780966 243.603371 
L 102.105946 284.93731 
L 102.755905 60.722003 
L 103.080885 103.108812 
L 103.405864 242.525026 
L 103.730844 279.373272 
L 104.380803 61.42247 
L 104.705782 104.79711 
L 105.030762 238.887514 
L 105.355741 281.115537 
L 106.0057 62.715829 
L 106.33068 105.792034 
L 106.655659 241.708123 
L 106.980639 285.889873 
L 107.630598 66.471592 
L 107.955577 108.878072 
L 108.280557 247.331931 
L 108.605536 289.738411 
L 109.255495 70.32013 
L 109.580475 114.50188 
L 109.905455 250.417969 
L 110.230434 293.494174 
L 110.880393 75.094466 
L 111.205373 117.322489 
L 111.530352 251.412893 
L 111.855332 294.787533 
L 112.505291 76.836731 
L 112.83027 113.684977 
L 113.15525 253.101191 
L 113.480229 295.488 
L 114.130188 71.272693 
L 114.455168 112.606633 
L 114.780147 252.19324 
L 115.105127 292.673194 
L 115.755086 67.51693 
L 116.080066 111.600103 
L 116.405045 244.6099 
L 116.730025 288.693073 
L 117.379984 63.536809 
L 117.704963 104.016763 
L 118.029943 243.603371 
L 118.354922 284.93731 
L 119.004881 60.722003 
L 119.329861 103.108812 
L 119.65484 242.525026 
L 119.97982 279.373272 
L 120.629779 61.42247 
L 120.954758 104.79711 
L 121.279738 238.887514 
L 121.604717 281.115537 
L 122.254676 62.715829 
L 122.579656 105.792034 
L 122.904636 241.708123 
L 123.229615 285.889873 
L 123.879574 66.471592 
L 124.204554 108.878072 
L 124.529533 247.331931 
L 124.854513 289.738411 
L 125.504472 70.32013 
L 125.829451 114.50188 
L 126.154431 250.417969 
L 126.47941 293.494174 
L 127.129369 75.094466 
L 127.454349 117.322489 
L 127.779328 251.412893 
L 128.104308 294.787533 
L 128.754267 76.836731 
L 129.079247 113.684977 
L 129.404226 253.101191 
L 129.729206 295.488 
L 130.379165 71.272693 
L 130.704144 112.606633 
L 131.029124 252.19324 
L 131.354103 292.673194 
L 132.004062 67.51693 
L 132.329042 111.600103 
L 132.654021 244.6099 
L 132.979001 288.693073 
L 133.62896 63.536809 
L 133.953939 104.016763 
L 134.278919 243.603371 
L 134.603898 284.93731 
L 135.253857 60.722003 
L 135.578837 103.108812 
L 135.903817 242.525026 
L 136.228796 279.373272 
L 136.878755 61.42247 
L 137.203735 104.79711 
L 137.528714 238.887514 
L 137.853694 281.115537 
L 138.503653 62.715829 
L 138.828632 105.792034 
L 139.153612 241.708123 
L 139.478591 285.889873 
L 140.12855 66.471592 
L 140.45353 108.878072 
L 140.778509 247.331931 
L 141.103489 289.738411 
L 141.753448 70.32013 
L 142.078428 114.50188 
L 142.403407 250.417969 
L 142.728387 293.494174 
L 143.378346 75.094466 
L 143.703325 117.322489 
L 144.028305 251.412893 
L 144.353284 294.787533 
L 145.003243 76.836731 
L 145.328223 113.684977 
L 145.653202 253.101191 
L 145.978182 295.488 
L 146.628141 71.272693 
L 146.95312 112.606633 
L 147.2781 252.19324 
L 147.603079 292.673194 
L 148.253038 67.51693 
L 148.578018 111.600103 
L 148.902998 244.6099 
L 149.227977 288.693073 
L 149.877936 63.536809 
L 150.202916 104.016763 
L 150.527895 243.603371 
L 150.852875 284.93731 
L 151.502834 60.722003 
L 151.827813 103.108812 
L 152.152793 242.525026 
L 152.477772 279.373272 
L 153.127731 61.42247 
L 153.452711 104.79711 
L 153.77769 238.887514 
L 154.10267 281.115537 
L 154.752629 62.715829 
L 155.077609 105.792034 
L 155.402588 241.708123 
L 155.727568 285.889873 
L 156.377527 66.471592 
L 156.702506 108.878072 
L 157.027486 247.331931 
L 157.352465 289.738411 
L 158.002424 70.32013 
L 158.327404 114.50188 
L 158.652383 250.417969 
L 158.977363 293.494174 
L 159.627322 75.094466 
L 159.952301 117.322489 
L 160.277281 251.412893 
L 160.60226 294.787533 
L 161.252219 76.836731 
L 161.577199 113.684977 
L 161.902179 253.101191 
L 162.227158 295.488 
L 162.877117 71.272693 
L 163.202097 112.606633 
L 163.527076 252.19324 
L 163.852056 292.673194 
L 164.502015 67.51693 
L 164.826994 111.600103 
L 165.151974 244.6099 
L 165.476953 288.693073 
L 166.126912 63.536809 
L 166.451892 104.016763 
L 166.776871 243.603371 
L 167.101851 284.93731 
L 167.75181 60.722003 
L 168.07679 103.108812 
L 168.401769 242.525026 
L 168.726749 279.373272 
L 169.376708 61.42247 
L 169.701687 104.79711 
L 170.026667 238.887514 
L 170.351646 281.115537 
L 171.001605 62.715829 
L 171.326585 105.792034 
L 171.651564 241.708123 
L 171.976544 285.889873 
L 172.626503 66.471592 
L 172.951482 108.878072 
L 173.276462 247.331931 
L 173.601441 289.738411 
L 174.2514 70.32013 
L 174.57638 114.50188 
L 174.90136 250.417969 
L 175.226339 293.494174 
L 175.876298 75.094466 
L 176.201278 117.322489 
L 176.526257 251.412893 
L 176.851237 294.787533 
L 177.501196 76.836731 
L 177.826175 113.684977 
L 178.151155 253.101191 
L 178.476134 295.488 
L 179.126093 71.272693 
L 179.451073 112.606633 
L 179.776052 252.19324 
L 180.101032 292.673194 
L 180.750991 67.51693 
L 181.075971 111.600103 
L 181.40095 244.6099 
L 181.72593 288.693073 
L 182.375889 63.536809 
L 182.700868 104.016763 
L 183.025848 243.603371 
L 183.350827 284.93731 
L 184.000786 60.722003 
L 184.325766 103.108812 
L 184.650745 242.525026 
L 184.975725 279.373272 
L 185.625684 61.42247 
L 185.950663 104.79711 
L 186.275643 238.887514 
L 186.600622 281.115537 
L 187.250581 62.715829 
L 187.575561 105.792034 
L 187.900541 241.708123 
L 188.22552 285.889873 
L 188.875479 66.471592 
L 189.200459 108.878072 
L 189.525438 247.331931 
L 189.850418 289.738411 
L 190.500377 70.32013 
L 190.825356 114.50188 
L 191.150336 250.417969 
L 191.475315 293.494174 
L 192.125274 75.094466 
L 192.450254 117.322489 
L 192.775233 251.412893 
L 193.100213 294.787533 
L 193.750172 76.836731 
L 194.075152 113.684977 
L 194.400131 253.101191 
L 194.725111 295.488 
L 195.37507 71.272693 
L 195.700049 112.606633 
L 196.025029 252.19324 
L 196.350008 292.673194 
L 196.999967 67.51693 
L 197.324947 111.600103 
L 197.649926 244.6099 
L 197.974906 288.693073 
L 198.624865 63.536809 
L 198.949844 104.016763 
L 199.274824 243.603371 
L 199.599803 284.93731 
L 200.249762 60.722003 
L 200.574742 103.108812 
L 200.899722 242.525026 
L 201.224701 279.373272 
L 201.87466 61.42247 
L 202.19964 104.79711 
L 202.524619 238.887514 
L 202.849599 281.115537 
L 203.499558 62.715829 
L 203.824537 105.792034 
L 204.149517 241.708123 
L 204.474496 285.889873 
L 205.124455 66.471592 
L 205.449435 108.878072 
L 205.774414 247.331931 
L 206.099394 289.738411 
L 206.749353 70.32013 
L 207.074333 114.50188 
L 207.399312 250.417969 
L 207.724292 293.494174 
L 208.374251 75.094466 
L 208.69923 117.322489 
L 209.02421 251.412893 
L 209.349189 294.787533 
L 209.999148 76.836731 
L 210.324128 113.684977 
L 210.649107 253.101191 
L 210.974087 295.488 
L 211.624046 71.272693 
L 211.949025 112.606633 
L 212.274005 252.19324 
L 212.598984 292.673194 
L 213.248943 67.51693 
L 213.573923 111.600103 
L 213.898903 244.6099 
L 214.223882 288.693073 
L 214.873841 63.536809 
L 215.198821 104.016763 
L 215.5238 243.603371 
L 215.84878 284.93731 
L 216.498739 60.722003 
L 216.823718 103.108812 
L 217.148698 242.525026 
L 217.473677 279.373272 
L 218.123636 61.42247 
L 218.448616 104.79711 
L 218.773595 238.887514 
L 219.098575 281.115537 
L 219.748534 62.715829 
L 220.073514 105.792034 
L 220.398493 241.708123 
L 220.723473 285.889873 
L 221.373432 66.471592 
L 221.698411 108.878072 
L 222.023391 247.331931 
L 222.34837 289.738411 
L 222.998329 70.32013 
L 223.323309 114.50188 
L 223.648288 250.417969 
L 223.973268 293.494174 
L 224.623227 75.094466 
L 224.948206 117.322489 
L 225.273186 251.412893 
L 225.598165 294.787533 
L 226.248124 76.836731 
L 226.573104 113.684977 
L 226.898084 253.101191 
L 227.223063 295.488 
L 227.873022 71.272693 
L 228.198002 112.606633 
L 228.522981 252.19324 
L 228.847961 292.673194 
L 229.49792 67.51693 
L 229.822899 111.600103 
L 230.147879 244.6099 
L 230.472858 288.693073 
L 231.122817 63.536809 
L 231.447797 104.016763 
L 231.772776 243.603371 
L 232.097756 284.93731 
L 232.747715 60.722003 
L 233.072695 103.108812 
L 233.397674 242.525026 
L 233.722654 279.373272 
L 234.372613 61.42247 
L 234.697592 104.79711 
L 235.022572 238.887514 
L 235.347551 281.115537 
L 235.99751 62.715829 
L 236.32249 105.792034 
L 236.647469 241.708123 
L 236.972449 285.889873 
L 237.622408 66.471592 
L 237.947387 108.878072 
L 238.272367 247.331931 
L 238.597346 289.738411 
L 239.247305 70.32013 
L 239.572285 114.50188 
L 239.897265 250.417969 
L 240.222244 293.494174 
L 240.872203 75.094466 
L 241.197183 117.322489 
L 241.522162 251.412893 
L 241.847142 294.787533 
L 242.497101 76.836731 
L 242.82208 113.684977 
L 243.14706 253.101191 
L 243.472039 295.488 
L 244.121998 71.272693 
L 244.446978 112.606633 
L 244.771957 252.19324 
L 245.096937 292.673194 
L 245.746896 67.51693 
L 246.071876 111.600103 
L 246.396855 244.6099 
L 246.721835 288.693073 
L 247.371794 63.536809 
L 247.696773 104.016763 
L 248.021753 243.603371 
L 248.346732 284.93731 
L 248.996691 60.722003 
L 249.321671 103.108812 
L 249.64665 242.525026 
L 249.97163 279.373272 
L 250.621589 61.42247 
L 250.946568 104.79711 
L 251.271548 238.887514 
L 251.596527 281.115537 
L 252.246486 62.715829 
L 252.571466 105.792034 
L 252.896446 241.708123 
L 253.221425 285.889873 
L 253.871384 66.471592 
L 254.196364 108.878072 
L 254.521343 247.331931 
L 254.846323 289.738411 
L 255.496282 70.32013 
L 255.821261 114.50188 
L 256.146241 250.417969 
L 256.47122 293.494174 
L 257.121179 75.094466 
L 257.446159 117.322489 
L 257.771138 251.412893 
L 258.096118 294.787533 
L 258.746077 76.836731 
L 259.071057 113.684977 
L 259.396036 253.101191 
L 259.721016 295.488 
L 260.370975 71.272693 
L 260.695954 112.606633 
L 261.020934 252.19324 
L 261.345913 292.673194 
L 261.995872 67.51693 
L 262.320852 111.600103 
L 262.645831 244.6099 
L 262.970811 288.693073 
L 263.62077 63.536809 
L 263.945749 104.016763 
L 264.270729 243.603371 
L 264.595708 284.93731 
L 265.245667 60.722003 
L 265.570647 103.108812 
L 265.895627 242.525026 
L 266.220606 279.373272 
L 266.870565 61.42247 
L 267.195545 104.79711 
L 267.520524 238.887514 
L 267.845504 281.115537 
L 268.495463 62.715829 
L 268.820442 105.792034 
L 269.145422 241.708123 
L 269.470401 285.889873 
L 270.12036 66.471592 
L 270.44534 108.878072 
L 270.770319 247.331931 
L 271.095299 289.738411 
L 271.745258 70.32013 
L 272.070238 114.50188 
L 272.395217 250.417969 
L 272.720197 293.494174 
L 273.370156 75.094466 
L 273.695135 117.322489 
L 274.020115 251.412893 
L 274.345094 294.787533 
L 274.995053 76.836731 
L 275.320033 113.684977 
L 275.645012 253.101191 
L 275.969992 295.488 
L 276.619951 71.272693 
L 276.94493 112.606633 
L 277.26991 252.19324 
L 277.594889 292.673194 
L 278.244848 67.51693 
L 278.569828 111.600103 
L 278.894808 244.6099 
L 279.219787 288.693073 
L 279.869746 63.536809 
L 280.194726 104.016763 
L 280.519705 243.603371 
L 280.844685 284.93731 
L 281.494644 60.722003 
L 281.819623 103.108812 
L 282.144603 242.525026 
L 282.469582 279.373272 
L 283.119541 61.42247 
L 283.444521 104.79711 
L 283.7695 238.887514 
L 284.09448 281.115537 
L 284.744439 62.715829 
L 285.069419 105.792034 
L 285.394398 241.708123 
L 285.719378 285.889873 
L 286.369337 66.471592 
L 286.694316 108.878072 
L 287.019296 247.331931 
L 287.344275 289.738411 
L 287.994234 70.32013 
L 288.319214 114.50188 
L 288.644193 250.417969 
L 288.969173 293.494174 
L 289.619132 75.094466 
L 289.944111 117.322489 
L 290.269091 251.412893 
L 290.59407 294.787533 
L 291.244029 76.836731 
L 291.569009 113.684977 
L 291.893989 253.101191 
L 292.218968 295.488 
L 292.868927 71.272693 
L 293.193907 112.606633 
L 293.518886 252.19324 
L 293.843866 292.673194 
L 294.493825 67.51693 
L 294.818804 111.600103 
L 295.143784 244.6099 
L 295.468763 288.693073 
L 296.118722 63.536809 
L 296.443702 104.016763 
L 296.768681 243.603371 
L 297.093661 284.93731 
L 297.74362 60.722003 
L 298.0686 103.108812 
L 298.393579 242.525026 
L 298.718559 279.373272 
L 299.368518 61.42247 
L 299.693497 104.79711 
L 300.018477 238.887514 
L 300.343456 281.115537 
L 300.993415 62.715829 
L 301.318395 105.792034 
L 301.643374 241.708123 
L 301.968354 285.889873 
L 302.618313 66.471592 
L 302.943292 108.878072 
L 303.268272 247.331931 
L 303.593251 289.738411 
L 304.24321 70.32013 
L 304.56819 114.50188 
L 304.89317 250.417969 
L 305.218149 293.494174 
L 305.868108 75.094466 
L 306.193088 117.322489 
L 306.518067 251.412893 
L 306.843047 294.787533 
L 307.493006 76.836731 
L 307.817985 113.684977 
L 308.142965 253.101191 
L 308.467944 295.488 
L 309.117903 71.272693 
L 309.442883 112.606633 
L 309.767862 252.19324 
L 310.092842 292.673194 
L 310.742801 67.51693 
L 311.067781 111.600103 
L 311.39276 244.6099 
L 311.71774 288.693073 
L 312.367699 63.536809 
L 312.692678 104.016763 
L 313.017658 243.603371 
L 313.342637 284.93731 
L 313.992596 60.722003 
L 314.317576 103.108812 
L 314.642555 242.525026 
L 314.967535 279.373272 
L 315.617494 61.42247 
L 315.942473 104.79711 
L 316.267453 238.887514 
L 316.592432 281.115537 
L 317.242391 62.715829 
L 317.567371 105.792034 
L 317.892351 241.708123 
L 318.21733 285.889873 
L 318.867289 66.471592 
L 319.192269 108.878072 
L 319.517248 247.331931 
L 319.842228 289.738411 
L 320.492187 70.32013 
L 320.817166 114.50188 
L 321.142146 250.417969 
L 321.467125 293.494174 
L 322.117084 75.094466 
L 322.442064 117.322489 
L 322.767043 251.412893 
L 323.092023 294.787533 
L 323.741982 76.836731 
L 324.066962 113.684977 
L 324.391941 253.101191 
L 324.716921 295.488 
L 325.36688 71.272693 
L 325.691859 112.606633 
L 326.016839 252.19324 
L 326.341818 292.673194 
L 326.991777 67.51693 
L 327.316757 111.600103 
L 327.641736 244.6099 
L 327.966716 288.693073 
L 328.616675 63.536809 
L 328.941654 104.016763 
L 329.266634 243.603371 
L 329.591613 284.93731 
L 330.241572 60.722003 
L 330.566552 103.108812 
L 330.891532 242.525026 
L 331.216511 279.373272 
L 331.86647 61.42247 
L 332.19145 104.79711 
L 332.516429 238.887514 
L 332.841409 281.115537 
L 333.491368 62.715829 
L 333.816347 105.792034 
L 334.141327 241.708123 
L 334.466306 285.889873 
L 335.116265 66.471592 
L 335.441245 108.878072 
L 335.766224 247.331931 
L 336.091204 289.738411 
L 336.741163 70.32013 
L 337.066143 114.50188 
L 337.391122 250.417969 
L 337.716102 293.494174 
L 338.366061 75.094466 
L 338.69104 117.322489 
L 339.01602 251.412893 
L 339.340999 294.787533 
L 339.990958 76.836731 
L 340.315938 113.684977 
L 340.640917 253.101191 
L 340.965897 295.488 
L 341.615856 71.272693 
L 341.940835 112.606633 
L 342.265815 252.19324 
L 342.590794 292.673194 
L 343.240753 67.51693 
L 343.565733 111.600103 
L 343.890713 244.6099 
L 344.215692 288.693073 
L 344.865651 63.536809 
L 345.190631 104.016763 
L 345.51561 243.603371 
L 345.84059 284.93731 
L 346.490549 60.722003 
L 346.815528 103.108812 
L 347.140508 242.525026 
L 347.465487 279.373272 
L 348.115446 61.42247 
L 348.440426 104.79711 
L 348.765405 238.887514 
L 349.090385 281.115537 
L 349.740344 62.715829 
L 350.065324 105.792034 
L 350.390303 241.708123 
L 350.715283 285.889873 
L 351.365242 66.471592 
L 351.690221 108.878072 
L 352.015201 247.331931 
L 352.34018 289.738411 
L 352.990139 70.32013 
L 353.315119 114.50188 
L 353.640098 250.417969 
L 353.965078 293.494174 
L 354.615037 75.094466 
L 354.940016 117.322489 
L 355.264996 251.412893 
L 355.589975 294.787533 
L 356.239934 76.836731 
L 356.564914 113.684977 
L 356.889894 253.101191 
L 357.214873 295.488 
L 357.864832 71.272693 
L 358.189812 112.606633 
L 358.514791 252.19324 
L 358.839771 292.673194 
L 359.48973 67.51693 
L 359.814709 111.600103 
L 360.139689 244.6099 
L 360.464668 288.693073 
L 361.114627 63.536809 
L 361.439607 104.016763 
L 361.764586 243.603371 
L 362.089566 284.93731 
L 362.739525 60.722003 
L 363.064505 103.108812 
L 363.389484 242.525026 
L 363.714464 279.373272 
L 364.364423 61.42247 
L 364.689402 104.79711 
L 365.014382 238.887514 
L 365.339361 281.115537 
L 365.98932 62.715829 
L 366.3143 105.792034 
L 366.639279 241.708123 
L 366.964259 285.889873 
L 367.614218 66.471592 
L 367.939197 108.878072 
L 368.264177 247.331931 
L 368.589156 289.738411 
L 369.239115 70.32013 
L 369.564095 114.50188 
L 369.889075 250.417969 
L 370.214054 293.494174 
L 370.864013 75.094466 
L 371.188993 117.322489 
L 371.513972 251.412893 
L 371.838952 294.787533 
L 372.488911 76.836731 
L 372.81389 113.684977 
L 373.13887 253.101191 
L 373.463849 295.488 
L 374.113808 71.272693 
L 374.438788 112.606633 
L 374.763767 252.19324 
L 375.088747 292.673194 
L 375.738706 67.51693 
L 376.063686 111.600103 
L 376.388665 244.6099 
L 376.713645 288.693073 
L 377.363604 63.536809 
L 377.688583 104.016763 
L 378.013563 243.603371 
L 378.338542 284.93731 
L 378.988501 60.722003 
L 379.313481 103.108812 
L 379.63846 242.525026 
L 379.96344 279.373272 
L 380.613399 61.42247 
L 380.938378 104.79711 
L 381.263358 238.887514 
L 381.588337 281.115537 
L 382.238296 62.715829 
L 382.563276 105.792034 
L 382.888256 241.708123 
L 383.213235 285.889873 
L 383.863194 66.471592 
L 384.188174 108.878072 
L 384.513153 247.331931 
L 384.838133 289.738411 
L 385.488092 70.32013 
L 385.813071 114.50188 
L 386.138051 250.417969 
L 386.46303 293.494174 
L 387.112989 75.094466 
L 387.437969 117.322489 
L 387.762948 251.412893 
L 388.087928 294.787533 
L 388.737887 76.836731 
L 389.062867 113.684977 
L 389.387846 253.101191 
L 389.712826 295.488 
L 390.362785 71.272693 
L 390.687764 112.606633 
L 391.012744 252.19324 
L 391.337723 292.673194 
L 391.987682 67.51693 
L 392.312662 111.600103 
L 392.637641 244.6099 
L 392.962621 288.693073 
L 393.61258 63.536809 
L 393.937559 104.016763 
L 394.262539 243.603371 
L 394.587518 284.93731 
L 395.237477 60.722003 
L 395.562457 103.108812 
L 395.887437 242.525026 
L 396.212416 279.373272 
L 396.862375 61.42247 
L 397.187355 104.79711 
L 397.512334 238.887514 
L 397.837314 281.115537 
L 398.487273 62.715829 
L 398.487273 62.715829 
" style="fill:none;stroke:#1f77b4;stroke-linecap:square;stroke-width:1.5;"/>
   </g>
   <g id="patch_3">
    <path d="M 57.6 307.584 
L 57.6 41.472 
" style="fill:none;stroke:#000000;stroke-linecap:square;stroke-linejoin:miter;stroke-width:0.8;"/>
   </g>
   <g id="patch_4">
    <path d="M 414.72 307.584 
L 414.72 41.472 
" style="fill:none;stroke:#000000;stroke-linecap:square;stroke-linejoin:miter;stroke-width:0.8;"/>
   </g>
   <g id="patch_5">
    <path d="M 57.6 307.584 
L 414.72 307.584 
" style="fill:none;stroke:#000000;stroke-linecap:square;stroke-linejoin:miter;stroke-width:0.8;"/>
   </g>
   <g id="patch_6">
    <path d="M 57.6 41.472 
L 414.72 41.472 
" style="fill:none;stroke:#000000;stroke-linecap:square;stroke-linejoin:miter;stroke-width:0.8;"/>
   </g>
  </g>
 </g>
 <defs>
  <clipPath id="pb50110129c">
   <rect height="266.112" width="357.12" x="57.6" y="41.472"/>
  </clipPath>
 </defs>
</svg>
