<?xml version="1.0" encoding="utf-8" standalone="no"?>
<!DOCTYPE svg PUBLIC "-//W3C//DTD SVG 1.1//EN"
  "http://www.w3.org/Graphics/SVG/1.1/DTD/svg11.dtd">
<!-- Created with matplotlib (http://matplotlib.org/) -->
<svg height="345pt" version="1.1" viewBox="0 0 460 345" width="460pt" xmlns="http://www.w3.org/2000/svg" xmlns:xlink="http://www.w3.org/1999/xlink">
 <defs>
  <style type="text/css">
*{stroke-linecap:butt;stroke-linejoin:round;}
  </style>
 </defs>
 <g id="figure_1">
  <g id="patch_1">
   <path d="M 0 345.6 
L 460.8 345.6 
L 460.8 0 
L 0 0 
z
" style="fill:#ffffff;"/>
  </g>
  <g id="axes_1">
   <g id="patch_2">
    <path d="M 59.42 143.28 
L 447.48 143.28 
L 447.48 13.32 
L 59.42 13.32 
z
" style="fill:#ffffff;"/>
   </g>
   <g id="matplotlib.axis_1">
    <g id="xtick_1">
     <g id="line2d_1">
      <path clip-path="url(#pedfabdb1d9)" d="M 77.059091 143.28 
L 77.059091 13.32 
" style="fill:none;stroke:#b0b0b0;stroke-dasharray:0.8,1.32;stroke-dashoffset:0;stroke-width:0.8;"/>
     </g>
     <g id="line2d_2">
      <defs>
       <path d="M 0 0 
L 0 3.5 
" id="mf059ea5c7f" style="stroke:#000000;stroke-width:0.8;"/>
      </defs>
      <g>
       <use style="stroke:#000000;stroke-width:0.8;" x="77.059091" xlink:href="#mf059ea5c7f" y="143.28"/>
      </g>
     </g>
     <g id="text_1">
      <!-- 0 -->
      <defs>
       <path d="M 31.78125 66.40625 
Q 24.171875 66.40625 20.328125 58.90625 
Q 16.5 51.421875 16.5 36.375 
Q 16.5 21.390625 20.328125 13.890625 
Q 24.171875 6.390625 31.78125 6.390625 
Q 39.453125 6.390625 43.28125 13.890625 
Q 47.125 21.390625 47.125 36.375 
Q 47.125 51.421875 43.28125 58.90625 
Q 39.453125 66.40625 31.78125 66.40625 
z
M 31.78125 74.21875 
Q 44.046875 74.21875 50.515625 64.515625 
Q 56.984375 54.828125 56.984375 36.375 
Q 56.984375 17.96875 50.515625 8.265625 
Q 44.046875 -1.421875 31.78125 -1.421875 
Q 19.53125 -1.421875 13.0625 8.265625 
Q 6.59375 17.96875 6.59375 36.375 
Q 6.59375 54.828125 13.0625 64.515625 
Q 19.53125 74.21875 31.78125 74.21875 
z
" id="DejaVuSans-30"/>
      </defs>
      <g transform="translate(73.877841 157.878437)scale(0.1 -0.1)">
       <use xlink:href="#DejaVuSans-30"/>
      </g>
     </g>
    </g>
    <g id="xtick_2">
     <g id="line2d_3">
      <path clip-path="url(#pedfabdb1d9)" d="M 135.856061 143.28 
L 135.856061 13.32 
" style="fill:none;stroke:#b0b0b0;stroke-dasharray:0.8,1.32;stroke-dashoffset:0;stroke-width:0.8;"/>
     </g>
     <g id="line2d_4">
      <g>
       <use style="stroke:#000000;stroke-width:0.8;" x="135.856061" xlink:href="#mf059ea5c7f" y="143.28"/>
      </g>
     </g>
     <g id="text_2">
      <!-- 20 -->
      <defs>
       <path d="M 19.1875 8.296875 
L 53.609375 8.296875 
L 53.609375 0 
L 7.328125 0 
L 7.328125 8.296875 
Q 12.9375 14.109375 22.625 23.890625 
Q 32.328125 33.6875 34.8125 36.53125 
Q 39.546875 41.84375 41.421875 45.53125 
Q 43.3125 49.21875 43.3125 52.78125 
Q 43.3125 58.59375 39.234375 62.25 
Q 35.15625 65.921875 28.609375 65.921875 
Q 23.96875 65.921875 18.8125 64.3125 
Q 13.671875 62.703125 7.8125 59.421875 
L 7.8125 69.390625 
Q 13.765625 71.78125 18.9375 73 
Q 24.125 74.21875 28.421875 74.21875 
Q 39.75 74.21875 46.484375 68.546875 
Q 53.21875 62.890625 53.21875 53.421875 
Q 53.21875 48.921875 51.53125 44.890625 
Q 49.859375 40.875 45.40625 35.40625 
Q 44.1875 33.984375 37.640625 27.21875 
Q 31.109375 20.453125 19.1875 8.296875 
z
" id="DejaVuSans-32"/>
      </defs>
      <g transform="translate(129.493561 157.878437)scale(0.1 -0.1)">
       <use xlink:href="#DejaVuSans-32"/>
       <use x="63.623047" xlink:href="#DejaVuSans-30"/>
      </g>
     </g>
    </g>
    <g id="xtick_3">
     <g id="line2d_5">
      <path clip-path="url(#pedfabdb1d9)" d="M 194.65303 143.28 
L 194.65303 13.32 
" style="fill:none;stroke:#b0b0b0;stroke-dasharray:0.8,1.32;stroke-dashoffset:0;stroke-width:0.8;"/>
     </g>
     <g id="line2d_6">
      <g>
       <use style="stroke:#000000;stroke-width:0.8;" x="194.65303" xlink:href="#mf059ea5c7f" y="143.28"/>
      </g>
     </g>
     <g id="text_3">
      <!-- 40 -->
      <defs>
       <path d="M 37.796875 64.3125 
L 12.890625 25.390625 
L 37.796875 25.390625 
z
M 35.203125 72.90625 
L 47.609375 72.90625 
L 47.609375 25.390625 
L 58.015625 25.390625 
L 58.015625 17.1875 
L 47.609375 17.1875 
L 47.609375 0 
L 37.796875 0 
L 37.796875 17.1875 
L 4.890625 17.1875 
L 4.890625 26.703125 
z
" id="DejaVuSans-34"/>
      </defs>
      <g transform="translate(188.29053 157.878437)scale(0.1 -0.1)">
       <use xlink:href="#DejaVuSans-34"/>
       <use x="63.623047" xlink:href="#DejaVuSans-30"/>
      </g>
     </g>
    </g>
    <g id="xtick_4">
     <g id="line2d_7">
      <path clip-path="url(#pedfabdb1d9)" d="M 253.45 143.28 
L 253.45 13.32 
" style="fill:none;stroke:#b0b0b0;stroke-dasharray:0.8,1.32;stroke-dashoffset:0;stroke-width:0.8;"/>
     </g>
     <g id="line2d_8">
      <g>
       <use style="stroke:#000000;stroke-width:0.8;" x="253.45" xlink:href="#mf059ea5c7f" y="143.28"/>
      </g>
     </g>
     <g id="text_4">
      <!-- 60 -->
      <defs>
       <path d="M 33.015625 40.375 
Q 26.375 40.375 22.484375 35.828125 
Q 18.609375 31.296875 18.609375 23.390625 
Q 18.609375 15.53125 22.484375 10.953125 
Q 26.375 6.390625 33.015625 6.390625 
Q 39.65625 6.390625 43.53125 10.953125 
Q 47.40625 15.53125 47.40625 23.390625 
Q 47.40625 31.296875 43.53125 35.828125 
Q 39.65625 40.375 33.015625 40.375 
z
M 52.59375 71.296875 
L 52.59375 62.3125 
Q 48.875 64.0625 45.09375 64.984375 
Q 41.3125 65.921875 37.59375 65.921875 
Q 27.828125 65.921875 22.671875 59.328125 
Q 17.53125 52.734375 16.796875 39.40625 
Q 19.671875 43.65625 24.015625 45.921875 
Q 28.375 48.1875 33.59375 48.1875 
Q 44.578125 48.1875 50.953125 41.515625 
Q 57.328125 34.859375 57.328125 23.390625 
Q 57.328125 12.15625 50.6875 5.359375 
Q 44.046875 -1.421875 33.015625 -1.421875 
Q 20.359375 -1.421875 13.671875 8.265625 
Q 6.984375 17.96875 6.984375 36.375 
Q 6.984375 53.65625 15.1875 63.9375 
Q 23.390625 74.21875 37.203125 74.21875 
Q 40.921875 74.21875 44.703125 73.484375 
Q 48.484375 72.75 52.59375 71.296875 
z
" id="DejaVuSans-36"/>
      </defs>
      <g transform="translate(247.0875 157.878437)scale(0.1 -0.1)">
       <use xlink:href="#DejaVuSans-36"/>
       <use x="63.623047" xlink:href="#DejaVuSans-30"/>
      </g>
     </g>
    </g>
    <g id="xtick_5">
     <g id="line2d_9">
      <path clip-path="url(#pedfabdb1d9)" d="M 312.24697 143.28 
L 312.24697 13.32 
" style="fill:none;stroke:#b0b0b0;stroke-dasharray:0.8,1.32;stroke-dashoffset:0;stroke-width:0.8;"/>
     </g>
     <g id="line2d_10">
      <g>
       <use style="stroke:#000000;stroke-width:0.8;" x="312.24697" xlink:href="#mf059ea5c7f" y="143.28"/>
      </g>
     </g>
     <g id="text_5">
      <!-- 80 -->
      <defs>
       <path d="M 31.78125 34.625 
Q 24.75 34.625 20.71875 30.859375 
Q 16.703125 27.09375 16.703125 20.515625 
Q 16.703125 13.921875 20.71875 10.15625 
Q 24.75 6.390625 31.78125 6.390625 
Q 38.8125 6.390625 42.859375 10.171875 
Q 46.921875 13.96875 46.921875 20.515625 
Q 46.921875 27.09375 42.890625 30.859375 
Q 38.875 34.625 31.78125 34.625 
z
M 21.921875 38.8125 
Q 15.578125 40.375 12.03125 44.71875 
Q 8.5 49.078125 8.5 55.328125 
Q 8.5 64.0625 14.71875 69.140625 
Q 20.953125 74.21875 31.78125 74.21875 
Q 42.671875 74.21875 48.875 69.140625 
Q 55.078125 64.0625 55.078125 55.328125 
Q 55.078125 49.078125 51.53125 44.71875 
Q 48 40.375 41.703125 38.8125 
Q 48.828125 37.15625 52.796875 32.3125 
Q 56.78125 27.484375 56.78125 20.515625 
Q 56.78125 9.90625 50.3125 4.234375 
Q 43.84375 -1.421875 31.78125 -1.421875 
Q 19.734375 -1.421875 13.25 4.234375 
Q 6.78125 9.90625 6.78125 20.515625 
Q 6.78125 27.484375 10.78125 32.3125 
Q 14.796875 37.15625 21.921875 38.8125 
z
M 18.3125 54.390625 
Q 18.3125 48.734375 21.84375 45.5625 
Q 25.390625 42.390625 31.78125 42.390625 
Q 38.140625 42.390625 41.71875 45.5625 
Q 45.3125 48.734375 45.3125 54.390625 
Q 45.3125 60.0625 41.71875 63.234375 
Q 38.140625 66.40625 31.78125 66.40625 
Q 25.390625 66.40625 21.84375 63.234375 
Q 18.3125 60.0625 18.3125 54.390625 
z
" id="DejaVuSans-38"/>
      </defs>
      <g transform="translate(305.88447 157.878437)scale(0.1 -0.1)">
       <use xlink:href="#DejaVuSans-38"/>
       <use x="63.623047" xlink:href="#DejaVuSans-30"/>
      </g>
     </g>
    </g>
    <g id="xtick_6">
     <g id="line2d_11">
      <path clip-path="url(#pedfabdb1d9)" d="M 371.043939 143.28 
L 371.043939 13.32 
" style="fill:none;stroke:#b0b0b0;stroke-dasharray:0.8,1.32;stroke-dashoffset:0;stroke-width:0.8;"/>
     </g>
     <g id="line2d_12">
      <g>
       <use style="stroke:#000000;stroke-width:0.8;" x="371.043939" xlink:href="#mf059ea5c7f" y="143.28"/>
      </g>
     </g>
     <g id="text_6">
      <!-- 100 -->
      <defs>
       <path d="M 12.40625 8.296875 
L 28.515625 8.296875 
L 28.515625 63.921875 
L 10.984375 60.40625 
L 10.984375 69.390625 
L 28.421875 72.90625 
L 38.28125 72.90625 
L 38.28125 8.296875 
L 54.390625 8.296875 
L 54.390625 0 
L 12.40625 0 
z
" id="DejaVuSans-31"/>
      </defs>
      <g transform="translate(361.500189 157.878437)scale(0.1 -0.1)">
       <use xlink:href="#DejaVuSans-31"/>
       <use x="63.623047" xlink:href="#DejaVuSans-30"/>
       <use x="127.246094" xlink:href="#DejaVuSans-30"/>
      </g>
     </g>
    </g>
    <g id="xtick_7">
     <g id="line2d_13">
      <path clip-path="url(#pedfabdb1d9)" d="M 429.840909 143.28 
L 429.840909 13.32 
" style="fill:none;stroke:#b0b0b0;stroke-dasharray:0.8,1.32;stroke-dashoffset:0;stroke-width:0.8;"/>
     </g>
     <g id="line2d_14">
      <g>
       <use style="stroke:#000000;stroke-width:0.8;" x="429.840909" xlink:href="#mf059ea5c7f" y="143.28"/>
      </g>
     </g>
     <g id="text_7">
      <!-- 120 -->
      <g transform="translate(420.297159 157.878437)scale(0.1 -0.1)">
       <use xlink:href="#DejaVuSans-31"/>
       <use x="63.623047" xlink:href="#DejaVuSans-32"/>
       <use x="127.246094" xlink:href="#DejaVuSans-30"/>
      </g>
     </g>
    </g>
   </g>
   <g id="matplotlib.axis_2">
    <g id="ytick_1">
     <g id="line2d_15">
      <path clip-path="url(#pedfabdb1d9)" d="M 59.42 123.283212 
L 447.48 123.283212 
" style="fill:none;stroke:#b0b0b0;stroke-dasharray:0.8,1.32;stroke-dashoffset:0;stroke-width:0.8;"/>
     </g>
     <g id="line2d_16">
      <defs>
       <path d="M 0 0 
L -3.5 0 
" id="m4607cf01f1" style="stroke:#000000;stroke-width:0.8;"/>
      </defs>
      <g>
       <use style="stroke:#000000;stroke-width:0.8;" x="59.42" xlink:href="#m4607cf01f1" y="123.283212"/>
      </g>
     </g>
     <g id="text_8">
      <!-- 0.00 -->
      <defs>
       <path d="M 10.6875 12.40625 
L 21 12.40625 
L 21 0 
L 10.6875 0 
z
" id="DejaVuSans-2e"/>
      </defs>
      <g transform="translate(30.154375 127.082431)scale(0.1 -0.1)">
       <use xlink:href="#DejaVuSans-30"/>
       <use x="63.623047" xlink:href="#DejaVuSans-2e"/>
       <use x="95.410156" xlink:href="#DejaVuSans-30"/>
       <use x="159.033203" xlink:href="#DejaVuSans-30"/>
      </g>
     </g>
    </g>
    <g id="ytick_2">
     <g id="line2d_17">
      <path clip-path="url(#pedfabdb1d9)" d="M 59.42 83.684453 
L 447.48 83.684453 
" style="fill:none;stroke:#b0b0b0;stroke-dasharray:0.8,1.32;stroke-dashoffset:0;stroke-width:0.8;"/>
     </g>
     <g id="line2d_18">
      <g>
       <use style="stroke:#000000;stroke-width:0.8;" x="59.42" xlink:href="#m4607cf01f1" y="83.684453"/>
      </g>
     </g>
     <g id="text_9">
      <!-- 0.02 -->
      <g transform="translate(30.154375 87.483672)scale(0.1 -0.1)">
       <use xlink:href="#DejaVuSans-30"/>
       <use x="63.623047" xlink:href="#DejaVuSans-2e"/>
       <use x="95.410156" xlink:href="#DejaVuSans-30"/>
       <use x="159.033203" xlink:href="#DejaVuSans-32"/>
      </g>
     </g>
    </g>
    <g id="ytick_3">
     <g id="line2d_19">
      <path clip-path="url(#pedfabdb1d9)" d="M 59.42 44.085693 
L 447.48 44.085693 
" style="fill:none;stroke:#b0b0b0;stroke-dasharray:0.8,1.32;stroke-dashoffset:0;stroke-width:0.8;"/>
     </g>
     <g id="line2d_20">
      <g>
       <use style="stroke:#000000;stroke-width:0.8;" x="59.42" xlink:href="#m4607cf01f1" y="44.085693"/>
      </g>
     </g>
     <g id="text_10">
      <!-- 0.04 -->
      <g transform="translate(30.154375 47.884912)scale(0.1 -0.1)">
       <use xlink:href="#DejaVuSans-30"/>
       <use x="63.623047" xlink:href="#DejaVuSans-2e"/>
       <use x="95.410156" xlink:href="#DejaVuSans-30"/>
       <use x="159.033203" xlink:href="#DejaVuSans-34"/>
      </g>
     </g>
    </g>
   </g>
   <g id="line2d_21">
    <path clip-path="url(#pedfabdb1d9)" d="M 77.059091 123.682576 
L 79.998939 123.562466 
L 82.938788 123.430585 
L 85.878636 123.283212 
L 88.818485 123.116644 
L 91.758333 122.927758 
L 94.698182 122.714597 
L 97.63803 122.476936 
L 100.577879 122.216796 
L 103.517727 121.93886 
L 106.457576 121.650767 
L 109.397424 121.363242 
L 112.337273 121.090052 
L 115.277121 120.847756 
L 118.21697 120.655261 
L 121.156818 120.533162 
L 124.096667 120.502911 
L 127.036515 120.585804 
L 129.976364 120.80185 
L 132.916212 121.168539 
L 135.856061 121.699582 
L 138.795909 122.403653 
L 141.735758 123.283212 
L 144.675606 124.333457 
L 147.615455 125.541459 
L 150.555303 126.885555 
L 153.495152 128.335011 
L 156.435 129.850025 
L 159.374848 131.382078 
L 162.314697 132.874653 
L 165.254545 134.264322 
L 168.194394 135.482184 
L 171.134242 136.455627 
L 174.074091 137.11037 
L 177.013939 137.372727 
L 179.953788 137.172029 
L 182.893636 136.443117 
L 185.833485 135.128833 
L 188.773333 133.182418 
L 191.713182 130.569719 
L 194.65303 127.271137 
L 197.592879 123.283212 
L 200.532727 118.619809 
L 203.472576 113.312802 
L 206.412424 107.412259 
L 209.352273 100.986063 
L 212.292121 94.118984 
L 215.23197 86.911201 
L 218.171818 79.476307 
L 221.111667 71.938844 
L 224.051515 64.43143 
L 226.991364 57.091565 
L 229.931212 50.058203 
L 232.871061 43.468193 
L 235.810909 37.452695 
L 238.750758 32.133695 
L 241.690606 27.620707 
L 244.630455 24.00779 
L 247.570303 21.370957 
L 250.510152 19.766067 
L 253.45 19.227273 
L 256.389848 19.766067 
L 259.329697 21.370957 
L 262.269545 24.00779 
L 265.209394 27.620707 
L 268.149242 32.133695 
L 271.089091 37.452695 
L 274.028939 43.468193 
L 276.968788 50.058203 
L 279.908636 57.091565 
L 282.848485 64.43143 
L 285.788333 71.938844 
L 288.728182 79.476307 
L 291.66803 86.911201 
L 294.607879 94.118984 
L 297.547727 100.986063 
L 300.487576 107.412259 
L 303.427424 113.312802 
L 306.367273 118.619809 
L 309.307121 123.283212 
L 312.24697 127.271137 
L 315.186818 130.569719 
L 318.126667 133.182418 
L 321.066515 135.128833 
L 324.006364 136.443117 
L 326.946212 137.172029 
L 329.886061 137.372727 
L 332.825909 137.11037 
L 335.765758 136.455627 
L 338.705606 135.482184 
L 341.645455 134.264322 
L 344.585303 132.874653 
L 347.525152 131.382078 
L 350.465 129.850025 
L 353.404848 128.335011 
L 356.344697 126.885555 
L 359.284545 125.541459 
L 362.224394 124.333457 
L 365.164242 123.283212 
L 368.104091 122.403653 
L 371.043939 121.699582 
L 373.983788 121.168539 
L 376.923636 120.80185 
L 379.863485 120.585804 
L 382.803333 120.502911 
L 385.743182 120.533162 
L 388.68303 120.655261 
L 391.622879 120.847756 
L 394.562727 121.090052 
L 397.502576 121.363242 
L 400.442424 121.650767 
L 403.382273 121.93886 
L 406.322121 122.216796 
L 409.26197 122.476936 
L 412.201818 122.714597 
L 415.141667 122.927758 
L 418.081515 123.116644 
L 421.021364 123.283212 
L 423.961212 123.430585 
L 426.901061 123.562466 
L 429.840909 123.682576 
" style="fill:none;stroke:#1f77b4;stroke-linecap:square;stroke-width:1.5;"/>
   </g>
   <g id="patch_3">
    <path d="M 59.42 143.28 
L 59.42 13.32 
" style="fill:none;stroke:#000000;stroke-linecap:square;stroke-linejoin:miter;stroke-width:0.8;"/>
   </g>
   <g id="patch_4">
    <path d="M 447.48 143.28 
L 447.48 13.32 
" style="fill:none;stroke:#000000;stroke-linecap:square;stroke-linejoin:miter;stroke-width:0.8;"/>
   </g>
   <g id="patch_5">
    <path d="M 59.42 143.28 
L 447.48 143.28 
" style="fill:none;stroke:#000000;stroke-linecap:square;stroke-linejoin:miter;stroke-width:0.8;"/>
   </g>
   <g id="patch_6">
    <path d="M 59.42 13.32 
L 447.48 13.32 
" style="fill:none;stroke:#000000;stroke-linecap:square;stroke-linejoin:miter;stroke-width:0.8;"/>
   </g>
  </g>
  <g id="axes_2">
   <g id="patch_7">
    <path d="M 59.42 303.64 
L 447.48 303.64 
L 447.48 173.68 
L 59.42 173.68 
z
" style="fill:#ffffff;"/>
   </g>
   <g id="matplotlib.axis_3">
    <g id="xtick_8">
     <g id="line2d_22">
      <path clip-path="url(#pa59364b303)" d="M 77.059091 303.64 
L 77.059091 173.68 
" style="fill:none;stroke:#b0b0b0;stroke-dasharray:0.8,1.32;stroke-dashoffset:0;stroke-width:0.8;"/>
     </g>
     <g id="line2d_23">
      <g>
       <use style="stroke:#000000;stroke-width:0.8;" x="77.059091" xlink:href="#mf059ea5c7f" y="303.64"/>
      </g>
     </g>
     <g id="text_11">
      <!-- 0 -->
      <g transform="translate(73.877841 318.238438)scale(0.1 -0.1)">
       <use xlink:href="#DejaVuSans-30"/>
      </g>
     </g>
    </g>
    <g id="xtick_9">
     <g id="line2d_24">
      <path clip-path="url(#pa59364b303)" d="M 154.574923 303.64 
L 154.574923 173.68 
" style="fill:none;stroke:#b0b0b0;stroke-dasharray:0.8,1.32;stroke-dashoffset:0;stroke-width:0.8;"/>
     </g>
     <g id="line2d_25">
      <g>
       <use style="stroke:#000000;stroke-width:0.8;" x="154.574923" xlink:href="#mf059ea5c7f" y="303.64"/>
      </g>
     </g>
     <g id="text_12">
      <!-- 100 -->
      <g transform="translate(145.031173 318.238438)scale(0.1 -0.1)">
       <use xlink:href="#DejaVuSans-31"/>
       <use x="63.623047" xlink:href="#DejaVuSans-30"/>
       <use x="127.246094" xlink:href="#DejaVuSans-30"/>
      </g>
     </g>
    </g>
    <g id="xtick_10">
     <g id="line2d_26">
      <path clip-path="url(#pa59364b303)" d="M 232.090755 303.64 
L 232.090755 173.68 
" style="fill:none;stroke:#b0b0b0;stroke-dasharray:0.8,1.32;stroke-dashoffset:0;stroke-width:0.8;"/>
     </g>
     <g id="line2d_27">
      <g>
       <use style="stroke:#000000;stroke-width:0.8;" x="232.090755" xlink:href="#mf059ea5c7f" y="303.64"/>
      </g>
     </g>
     <g id="text_13">
      <!-- 200 -->
      <g transform="translate(222.547005 318.238438)scale(0.1 -0.1)">
       <use xlink:href="#DejaVuSans-32"/>
       <use x="63.623047" xlink:href="#DejaVuSans-30"/>
       <use x="127.246094" xlink:href="#DejaVuSans-30"/>
      </g>
     </g>
    </g>
    <g id="xtick_11">
     <g id="line2d_28">
      <path clip-path="url(#pa59364b303)" d="M 309.606587 303.64 
L 309.606587 173.68 
" style="fill:none;stroke:#b0b0b0;stroke-dasharray:0.8,1.32;stroke-dashoffset:0;stroke-width:0.8;"/>
     </g>
     <g id="line2d_29">
      <g>
       <use style="stroke:#000000;stroke-width:0.8;" x="309.606587" xlink:href="#mf059ea5c7f" y="303.64"/>
      </g>
     </g>
     <g id="text_14">
      <!-- 300 -->
      <defs>
       <path d="M 40.578125 39.3125 
Q 47.65625 37.796875 51.625 33 
Q 55.609375 28.21875 55.609375 21.1875 
Q 55.609375 10.40625 48.1875 4.484375 
Q 40.765625 -1.421875 27.09375 -1.421875 
Q 22.515625 -1.421875 17.65625 -0.515625 
Q 12.796875 0.390625 7.625 2.203125 
L 7.625 11.71875 
Q 11.71875 9.328125 16.59375 8.109375 
Q 21.484375 6.890625 26.8125 6.890625 
Q 36.078125 6.890625 40.9375 10.546875 
Q 45.796875 14.203125 45.796875 21.1875 
Q 45.796875 27.640625 41.28125 31.265625 
Q 36.765625 34.90625 28.71875 34.90625 
L 20.21875 34.90625 
L 20.21875 43.015625 
L 29.109375 43.015625 
Q 36.375 43.015625 40.234375 45.921875 
Q 44.09375 48.828125 44.09375 54.296875 
Q 44.09375 59.90625 40.109375 62.90625 
Q 36.140625 65.921875 28.71875 65.921875 
Q 24.65625 65.921875 20.015625 65.03125 
Q 15.375 64.15625 9.8125 62.3125 
L 9.8125 71.09375 
Q 15.4375 72.65625 20.34375 73.4375 
Q 25.25 74.21875 29.59375 74.21875 
Q 40.828125 74.21875 47.359375 69.109375 
Q 53.90625 64.015625 53.90625 55.328125 
Q 53.90625 49.265625 50.4375 45.09375 
Q 46.96875 40.921875 40.578125 39.3125 
z
" id="DejaVuSans-33"/>
      </defs>
      <g transform="translate(300.062837 318.238438)scale(0.1 -0.1)">
       <use xlink:href="#DejaVuSans-33"/>
       <use x="63.623047" xlink:href="#DejaVuSans-30"/>
       <use x="127.246094" xlink:href="#DejaVuSans-30"/>
      </g>
     </g>
    </g>
    <g id="xtick_12">
     <g id="line2d_30">
      <path clip-path="url(#pa59364b303)" d="M 387.122419 303.64 
L 387.122419 173.68 
" style="fill:none;stroke:#b0b0b0;stroke-dasharray:0.8,1.32;stroke-dashoffset:0;stroke-width:0.8;"/>
     </g>
     <g id="line2d_31">
      <g>
       <use style="stroke:#000000;stroke-width:0.8;" x="387.122419" xlink:href="#mf059ea5c7f" y="303.64"/>
      </g>
     </g>
     <g id="text_15">
      <!-- 400 -->
      <g transform="translate(377.578669 318.238438)scale(0.1 -0.1)">
       <use xlink:href="#DejaVuSans-34"/>
       <use x="63.623047" xlink:href="#DejaVuSans-30"/>
       <use x="127.246094" xlink:href="#DejaVuSans-30"/>
      </g>
     </g>
    </g>
    <g id="text_16">
     <!-- f (kHz) -->
     <defs>
      <path d="M 37.109375 75.984375 
L 37.109375 68.5 
L 28.515625 68.5 
Q 23.6875 68.5 21.796875 66.546875 
Q 19.921875 64.59375 19.921875 59.515625 
L 19.921875 54.6875 
L 34.71875 54.6875 
L 34.71875 47.703125 
L 19.921875 47.703125 
L 19.921875 0 
L 10.890625 0 
L 10.890625 47.703125 
L 2.296875 47.703125 
L 2.296875 54.6875 
L 10.890625 54.6875 
L 10.890625 58.5 
Q 10.890625 67.625 15.140625 71.796875 
Q 19.390625 75.984375 28.609375 75.984375 
z
" id="DejaVuSans-66"/>
      <path id="DejaVuSans-20"/>
      <path d="M 31 75.875 
Q 24.46875 64.65625 21.28125 53.65625 
Q 18.109375 42.671875 18.109375 31.390625 
Q 18.109375 20.125 21.3125 9.0625 
Q 24.515625 -2 31 -13.1875 
L 23.1875 -13.1875 
Q 15.875 -1.703125 12.234375 9.375 
Q 8.59375 20.453125 8.59375 31.390625 
Q 8.59375 42.28125 12.203125 53.3125 
Q 15.828125 64.359375 23.1875 75.875 
z
" id="DejaVuSans-28"/>
      <path d="M 9.078125 75.984375 
L 18.109375 75.984375 
L 18.109375 31.109375 
L 44.921875 54.6875 
L 56.390625 54.6875 
L 27.390625 29.109375 
L 57.625 0 
L 45.90625 0 
L 18.109375 26.703125 
L 18.109375 0 
L 9.078125 0 
z
" id="DejaVuSans-6b"/>
      <path d="M 9.8125 72.90625 
L 19.671875 72.90625 
L 19.671875 43.015625 
L 55.515625 43.015625 
L 55.515625 72.90625 
L 65.375 72.90625 
L 65.375 0 
L 55.515625 0 
L 55.515625 34.71875 
L 19.671875 34.71875 
L 19.671875 0 
L 9.8125 0 
z
" id="DejaVuSans-48"/>
      <path d="M 5.515625 54.6875 
L 48.1875 54.6875 
L 48.1875 46.484375 
L 14.40625 7.171875 
L 48.1875 7.171875 
L 48.1875 0 
L 4.296875 0 
L 4.296875 8.203125 
L 38.09375 47.515625 
L 5.515625 47.515625 
z
" id="DejaVuSans-7a"/>
      <path d="M 8.015625 75.875 
L 15.828125 75.875 
Q 23.140625 64.359375 26.78125 53.3125 
Q 30.421875 42.28125 30.421875 31.390625 
Q 30.421875 20.453125 26.78125 9.375 
Q 23.140625 -1.703125 15.828125 -13.1875 
L 8.015625 -13.1875 
Q 14.5 -2 17.703125 9.0625 
Q 20.90625 20.125 20.90625 31.390625 
Q 20.90625 42.671875 17.703125 53.65625 
Q 14.5 64.65625 8.015625 75.875 
z
" id="DejaVuSans-29"/>
     </defs>
     <g transform="translate(236.919531 331.916562)scale(0.1 -0.1)">
      <use xlink:href="#DejaVuSans-66"/>
      <use x="35.205078" xlink:href="#DejaVuSans-20"/>
      <use x="66.992188" xlink:href="#DejaVuSans-28"/>
      <use x="106.005859" xlink:href="#DejaVuSans-6b"/>
      <use x="163.916016" xlink:href="#DejaVuSans-48"/>
      <use x="239.111328" xlink:href="#DejaVuSans-7a"/>
      <use x="291.601562" xlink:href="#DejaVuSans-29"/>
     </g>
    </g>
   </g>
   <g id="matplotlib.axis_4">
    <g id="ytick_4">
     <g id="line2d_32">
      <path clip-path="url(#pa59364b303)" d="M 59.42 298.804871 
L 447.48 298.804871 
" style="fill:none;stroke:#b0b0b0;stroke-dasharray:0.8,1.32;stroke-dashoffset:0;stroke-width:0.8;"/>
     </g>
     <g id="line2d_33">
      <g>
       <use style="stroke:#000000;stroke-width:0.8;" x="59.42" xlink:href="#m4607cf01f1" y="298.804871"/>
      </g>
     </g>
     <g id="text_17">
      <!-- −125 -->
      <defs>
       <path d="M 10.59375 35.5 
L 73.1875 35.5 
L 73.1875 27.203125 
L 10.59375 27.203125 
z
" id="DejaVuSans-2212"/>
       <path d="M 10.796875 72.90625 
L 49.515625 72.90625 
L 49.515625 64.59375 
L 19.828125 64.59375 
L 19.828125 46.734375 
Q 21.96875 47.46875 24.109375 47.828125 
Q 26.265625 48.1875 28.421875 48.1875 
Q 40.625 48.1875 47.75 41.5 
Q 54.890625 34.8125 54.890625 23.390625 
Q 54.890625 11.625 47.5625 5.09375 
Q 40.234375 -1.421875 26.90625 -1.421875 
Q 22.3125 -1.421875 17.546875 -0.640625 
Q 12.796875 0.140625 7.71875 1.703125 
L 7.71875 11.625 
Q 12.109375 9.234375 16.796875 8.0625 
Q 21.484375 6.890625 26.703125 6.890625 
Q 35.15625 6.890625 40.078125 11.328125 
Q 45.015625 15.765625 45.015625 23.390625 
Q 45.015625 31 40.078125 35.4375 
Q 35.15625 39.890625 26.703125 39.890625 
Q 22.75 39.890625 18.8125 39.015625 
Q 14.890625 38.140625 10.796875 36.28125 
z
" id="DejaVuSans-35"/>
      </defs>
      <g transform="translate(24.952813 302.604089)scale(0.1 -0.1)">
       <use xlink:href="#DejaVuSans-2212"/>
       <use x="83.789062" xlink:href="#DejaVuSans-31"/>
       <use x="147.412109" xlink:href="#DejaVuSans-32"/>
       <use x="211.035156" xlink:href="#DejaVuSans-35"/>
      </g>
     </g>
    </g>
    <g id="ytick_5">
     <g id="line2d_34">
      <path clip-path="url(#pa59364b303)" d="M 59.42 274.961381 
L 447.48 274.961381 
" style="fill:none;stroke:#b0b0b0;stroke-dasharray:0.8,1.32;stroke-dashoffset:0;stroke-width:0.8;"/>
     </g>
     <g id="line2d_35">
      <g>
       <use style="stroke:#000000;stroke-width:0.8;" x="59.42" xlink:href="#m4607cf01f1" y="274.961381"/>
      </g>
     </g>
     <g id="text_18">
      <!-- −100 -->
      <g transform="translate(24.952813 278.760599)scale(0.1 -0.1)">
       <use xlink:href="#DejaVuSans-2212"/>
       <use x="83.789062" xlink:href="#DejaVuSans-31"/>
       <use x="147.412109" xlink:href="#DejaVuSans-30"/>
       <use x="211.035156" xlink:href="#DejaVuSans-30"/>
      </g>
     </g>
    </g>
    <g id="ytick_6">
     <g id="line2d_36">
      <path clip-path="url(#pa59364b303)" d="M 59.42 251.117891 
L 447.48 251.117891 
" style="fill:none;stroke:#b0b0b0;stroke-dasharray:0.8,1.32;stroke-dashoffset:0;stroke-width:0.8;"/>
     </g>
     <g id="line2d_37">
      <g>
       <use style="stroke:#000000;stroke-width:0.8;" x="59.42" xlink:href="#m4607cf01f1" y="251.117891"/>
      </g>
     </g>
     <g id="text_19">
      <!-- −75 -->
      <defs>
       <path d="M 8.203125 72.90625 
L 55.078125 72.90625 
L 55.078125 68.703125 
L 28.609375 0 
L 18.3125 0 
L 43.21875 64.59375 
L 8.203125 64.59375 
z
" id="DejaVuSans-37"/>
      </defs>
      <g transform="translate(31.315313 254.917109)scale(0.1 -0.1)">
       <use xlink:href="#DejaVuSans-2212"/>
       <use x="83.789062" xlink:href="#DejaVuSans-37"/>
       <use x="147.412109" xlink:href="#DejaVuSans-35"/>
      </g>
     </g>
    </g>
    <g id="ytick_7">
     <g id="line2d_38">
      <path clip-path="url(#pa59364b303)" d="M 59.42 227.274401 
L 447.48 227.274401 
" style="fill:none;stroke:#b0b0b0;stroke-dasharray:0.8,1.32;stroke-dashoffset:0;stroke-width:0.8;"/>
     </g>
     <g id="line2d_39">
      <g>
       <use style="stroke:#000000;stroke-width:0.8;" x="59.42" xlink:href="#m4607cf01f1" y="227.274401"/>
      </g>
     </g>
     <g id="text_20">
      <!-- −50 -->
      <g transform="translate(31.315313 231.073619)scale(0.1 -0.1)">
       <use xlink:href="#DejaVuSans-2212"/>
       <use x="83.789062" xlink:href="#DejaVuSans-35"/>
       <use x="147.412109" xlink:href="#DejaVuSans-30"/>
      </g>
     </g>
    </g>
    <g id="ytick_8">
     <g id="line2d_40">
      <path clip-path="url(#pa59364b303)" d="M 59.42 203.430911 
L 447.48 203.430911 
" style="fill:none;stroke:#b0b0b0;stroke-dasharray:0.8,1.32;stroke-dashoffset:0;stroke-width:0.8;"/>
     </g>
     <g id="line2d_41">
      <g>
       <use style="stroke:#000000;stroke-width:0.8;" x="59.42" xlink:href="#m4607cf01f1" y="203.430911"/>
      </g>
     </g>
     <g id="text_21">
      <!-- −25 -->
      <g transform="translate(31.315313 207.230129)scale(0.1 -0.1)">
       <use xlink:href="#DejaVuSans-2212"/>
       <use x="83.789062" xlink:href="#DejaVuSans-32"/>
       <use x="147.412109" xlink:href="#DejaVuSans-35"/>
      </g>
     </g>
    </g>
    <g id="ytick_9">
     <g id="line2d_42">
      <path clip-path="url(#pa59364b303)" d="M 59.42 179.587421 
L 447.48 179.587421 
" style="fill:none;stroke:#b0b0b0;stroke-dasharray:0.8,1.32;stroke-dashoffset:0;stroke-width:0.8;"/>
     </g>
     <g id="line2d_43">
      <g>
       <use style="stroke:#000000;stroke-width:0.8;" x="59.42" xlink:href="#m4607cf01f1" y="179.587421"/>
      </g>
     </g>
     <g id="text_22">
      <!-- 0 -->
      <g transform="translate(46.0575 183.386639)scale(0.1 -0.1)">
       <use xlink:href="#DejaVuSans-30"/>
      </g>
     </g>
    </g>
    <g id="text_23">
     <!-- Magnitude (dB) -->
     <defs>
      <path d="M 9.8125 72.90625 
L 24.515625 72.90625 
L 43.109375 23.296875 
L 61.8125 72.90625 
L 76.515625 72.90625 
L 76.515625 0 
L 66.890625 0 
L 66.890625 64.015625 
L 48.09375 14.015625 
L 38.1875 14.015625 
L 19.390625 64.015625 
L 19.390625 0 
L 9.8125 0 
z
" id="DejaVuSans-4d"/>
      <path d="M 34.28125 27.484375 
Q 23.390625 27.484375 19.1875 25 
Q 14.984375 22.515625 14.984375 16.5 
Q 14.984375 11.71875 18.140625 8.90625 
Q 21.296875 6.109375 26.703125 6.109375 
Q 34.1875 6.109375 38.703125 11.40625 
Q 43.21875 16.703125 43.21875 25.484375 
L 43.21875 27.484375 
z
M 52.203125 31.203125 
L 52.203125 0 
L 43.21875 0 
L 43.21875 8.296875 
Q 40.140625 3.328125 35.546875 0.953125 
Q 30.953125 -1.421875 24.3125 -1.421875 
Q 15.921875 -1.421875 10.953125 3.296875 
Q 6 8.015625 6 15.921875 
Q 6 25.140625 12.171875 29.828125 
Q 18.359375 34.515625 30.609375 34.515625 
L 43.21875 34.515625 
L 43.21875 35.40625 
Q 43.21875 41.609375 39.140625 45 
Q 35.0625 48.390625 27.6875 48.390625 
Q 23 48.390625 18.546875 47.265625 
Q 14.109375 46.140625 10.015625 43.890625 
L 10.015625 52.203125 
Q 14.9375 54.109375 19.578125 55.046875 
Q 24.21875 56 28.609375 56 
Q 40.484375 56 46.34375 49.84375 
Q 52.203125 43.703125 52.203125 31.203125 
z
" id="DejaVuSans-61"/>
      <path d="M 45.40625 27.984375 
Q 45.40625 37.75 41.375 43.109375 
Q 37.359375 48.484375 30.078125 48.484375 
Q 22.859375 48.484375 18.828125 43.109375 
Q 14.796875 37.75 14.796875 27.984375 
Q 14.796875 18.265625 18.828125 12.890625 
Q 22.859375 7.515625 30.078125 7.515625 
Q 37.359375 7.515625 41.375 12.890625 
Q 45.40625 18.265625 45.40625 27.984375 
z
M 54.390625 6.78125 
Q 54.390625 -7.171875 48.1875 -13.984375 
Q 42 -20.796875 29.203125 -20.796875 
Q 24.46875 -20.796875 20.265625 -20.09375 
Q 16.0625 -19.390625 12.109375 -17.921875 
L 12.109375 -9.1875 
Q 16.0625 -11.328125 19.921875 -12.34375 
Q 23.78125 -13.375 27.78125 -13.375 
Q 36.625 -13.375 41.015625 -8.765625 
Q 45.40625 -4.15625 45.40625 5.171875 
L 45.40625 9.625 
Q 42.625 4.78125 38.28125 2.390625 
Q 33.9375 0 27.875 0 
Q 17.828125 0 11.671875 7.65625 
Q 5.515625 15.328125 5.515625 27.984375 
Q 5.515625 40.671875 11.671875 48.328125 
Q 17.828125 56 27.875 56 
Q 33.9375 56 38.28125 53.609375 
Q 42.625 51.21875 45.40625 46.390625 
L 45.40625 54.6875 
L 54.390625 54.6875 
z
" id="DejaVuSans-67"/>
      <path d="M 54.890625 33.015625 
L 54.890625 0 
L 45.90625 0 
L 45.90625 32.71875 
Q 45.90625 40.484375 42.875 44.328125 
Q 39.84375 48.1875 33.796875 48.1875 
Q 26.515625 48.1875 22.3125 43.546875 
Q 18.109375 38.921875 18.109375 30.90625 
L 18.109375 0 
L 9.078125 0 
L 9.078125 54.6875 
L 18.109375 54.6875 
L 18.109375 46.1875 
Q 21.34375 51.125 25.703125 53.5625 
Q 30.078125 56 35.796875 56 
Q 45.21875 56 50.046875 50.171875 
Q 54.890625 44.34375 54.890625 33.015625 
z
" id="DejaVuSans-6e"/>
      <path d="M 9.421875 54.6875 
L 18.40625 54.6875 
L 18.40625 0 
L 9.421875 0 
z
M 9.421875 75.984375 
L 18.40625 75.984375 
L 18.40625 64.59375 
L 9.421875 64.59375 
z
" id="DejaVuSans-69"/>
      <path d="M 18.3125 70.21875 
L 18.3125 54.6875 
L 36.8125 54.6875 
L 36.8125 47.703125 
L 18.3125 47.703125 
L 18.3125 18.015625 
Q 18.3125 11.328125 20.140625 9.421875 
Q 21.96875 7.515625 27.59375 7.515625 
L 36.8125 7.515625 
L 36.8125 0 
L 27.59375 0 
Q 17.1875 0 13.234375 3.875 
Q 9.28125 7.765625 9.28125 18.015625 
L 9.28125 47.703125 
L 2.6875 47.703125 
L 2.6875 54.6875 
L 9.28125 54.6875 
L 9.28125 70.21875 
z
" id="DejaVuSans-74"/>
      <path d="M 8.5 21.578125 
L 8.5 54.6875 
L 17.484375 54.6875 
L 17.484375 21.921875 
Q 17.484375 14.15625 20.5 10.265625 
Q 23.53125 6.390625 29.59375 6.390625 
Q 36.859375 6.390625 41.078125 11.03125 
Q 45.3125 15.671875 45.3125 23.6875 
L 45.3125 54.6875 
L 54.296875 54.6875 
L 54.296875 0 
L 45.3125 0 
L 45.3125 8.40625 
Q 42.046875 3.421875 37.71875 1 
Q 33.40625 -1.421875 27.6875 -1.421875 
Q 18.265625 -1.421875 13.375 4.4375 
Q 8.5 10.296875 8.5 21.578125 
z
M 31.109375 56 
z
" id="DejaVuSans-75"/>
      <path d="M 45.40625 46.390625 
L 45.40625 75.984375 
L 54.390625 75.984375 
L 54.390625 0 
L 45.40625 0 
L 45.40625 8.203125 
Q 42.578125 3.328125 38.25 0.953125 
Q 33.9375 -1.421875 27.875 -1.421875 
Q 17.96875 -1.421875 11.734375 6.484375 
Q 5.515625 14.40625 5.515625 27.296875 
Q 5.515625 40.1875 11.734375 48.09375 
Q 17.96875 56 27.875 56 
Q 33.9375 56 38.25 53.625 
Q 42.578125 51.265625 45.40625 46.390625 
z
M 14.796875 27.296875 
Q 14.796875 17.390625 18.875 11.75 
Q 22.953125 6.109375 30.078125 6.109375 
Q 37.203125 6.109375 41.296875 11.75 
Q 45.40625 17.390625 45.40625 27.296875 
Q 45.40625 37.203125 41.296875 42.84375 
Q 37.203125 48.484375 30.078125 48.484375 
Q 22.953125 48.484375 18.875 42.84375 
Q 14.796875 37.203125 14.796875 27.296875 
z
" id="DejaVuSans-64"/>
      <path d="M 56.203125 29.59375 
L 56.203125 25.203125 
L 14.890625 25.203125 
Q 15.484375 15.921875 20.484375 11.0625 
Q 25.484375 6.203125 34.421875 6.203125 
Q 39.59375 6.203125 44.453125 7.46875 
Q 49.3125 8.734375 54.109375 11.28125 
L 54.109375 2.78125 
Q 49.265625 0.734375 44.1875 -0.34375 
Q 39.109375 -1.421875 33.890625 -1.421875 
Q 20.796875 -1.421875 13.15625 6.1875 
Q 5.515625 13.8125 5.515625 26.8125 
Q 5.515625 40.234375 12.765625 48.109375 
Q 20.015625 56 32.328125 56 
Q 43.359375 56 49.78125 48.890625 
Q 56.203125 41.796875 56.203125 29.59375 
z
M 47.21875 32.234375 
Q 47.125 39.59375 43.09375 43.984375 
Q 39.0625 48.390625 32.421875 48.390625 
Q 24.90625 48.390625 20.390625 44.140625 
Q 15.875 39.890625 15.1875 32.171875 
z
" id="DejaVuSans-65"/>
      <path d="M 19.671875 34.8125 
L 19.671875 8.109375 
L 35.5 8.109375 
Q 43.453125 8.109375 47.28125 11.40625 
Q 51.125 14.703125 51.125 21.484375 
Q 51.125 28.328125 47.28125 31.5625 
Q 43.453125 34.8125 35.5 34.8125 
z
M 19.671875 64.796875 
L 19.671875 42.828125 
L 34.28125 42.828125 
Q 41.5 42.828125 45.03125 45.53125 
Q 48.578125 48.25 48.578125 53.8125 
Q 48.578125 59.328125 45.03125 62.0625 
Q 41.5 64.796875 34.28125 64.796875 
z
M 9.8125 72.90625 
L 35.015625 72.90625 
Q 46.296875 72.90625 52.390625 68.21875 
Q 58.5 63.53125 58.5 54.890625 
Q 58.5 48.1875 55.375 44.234375 
Q 52.25 40.28125 46.1875 39.3125 
Q 53.46875 37.75 57.5 32.78125 
Q 61.53125 27.828125 61.53125 20.40625 
Q 61.53125 10.640625 54.890625 5.3125 
Q 48.25 0 35.984375 0 
L 9.8125 0 
z
" id="DejaVuSans-42"/>
     </defs>
     <g transform="translate(18.873125 277.245156)rotate(-90)scale(0.1 -0.1)">
      <use xlink:href="#DejaVuSans-4d"/>
      <use x="86.279297" xlink:href="#DejaVuSans-61"/>
      <use x="147.558594" xlink:href="#DejaVuSans-67"/>
      <use x="211.035156" xlink:href="#DejaVuSans-6e"/>
      <use x="274.414062" xlink:href="#DejaVuSans-69"/>
      <use x="302.197266" xlink:href="#DejaVuSans-74"/>
      <use x="341.40625" xlink:href="#DejaVuSans-75"/>
      <use x="404.785156" xlink:href="#DejaVuSans-64"/>
      <use x="468.261719" xlink:href="#DejaVuSans-65"/>
      <use x="529.785156" xlink:href="#DejaVuSans-20"/>
      <use x="561.572266" xlink:href="#DejaVuSans-28"/>
      <use x="600.585938" xlink:href="#DejaVuSans-64"/>
      <use x="664.0625" xlink:href="#DejaVuSans-42"/>
      <use x="732.666016" xlink:href="#DejaVuSans-29"/>
     </g>
    </g>
   </g>
   <g id="line2d_44">
    <path clip-path="url(#pa59364b303)" d="M 77.059091 179.587421 
L 86.724346 179.660618 
L 88.795472 179.97646 
L 90.176223 180.420488 
L 91.556974 181.123242 
L 92.937725 182.145905 
L 94.318475 183.550546 
L 95.699226 185.40406 
L 97.079977 187.784924 
L 98.460728 190.794421 
L 99.841478 194.57724 
L 101.222229 199.365737 
L 102.60298 205.598717 
L 103.293355 209.539823 
L 103.983731 214.379668 
L 104.674106 220.843546 
L 105.364481 232.021633 
L 106.054857 236.781596 
L 106.745232 230.420035 
L 107.435608 229.965972 
L 108.125983 231.715592 
L 108.816358 235.165739 
L 109.506734 240.532862 
L 110.197109 248.6093 
L 110.887484 258.490029 
L 111.57786 254.890481 
L 112.268235 246.946215 
L 112.958611 242.040244 
L 113.648986 239.289111 
L 114.339361 238.106843 
L 115.029737 238.328421 
L 115.720112 240.198132 
L 116.410487 245.027498 
L 117.100863 282.872871 
L 117.791238 244.375582 
L 118.481614 239.096828 
L 119.171989 236.641647 
L 119.862364 235.683849 
L 120.55274 235.914327 
L 121.243115 237.412655 
L 121.93349 240.790103 
L 122.623866 249.19969 
L 123.314241 250.219334 
L 124.004617 241.181147 
L 124.694992 237.699692 
L 125.385367 236.157676 
L 126.075743 235.884039 
L 126.766118 236.771174 
L 127.456494 239.092725 
L 128.146869 244.055472 
L 128.837244 267.049252 
L 129.52762 245.257269 
L 130.217995 239.865707 
L 130.90837 237.468994 
L 131.598746 236.581616 
L 132.289121 236.862846 
L 132.979497 238.371698 
L 133.669872 241.665897 
L 134.360247 249.471418 
L 135.050623 252.867319 
L 135.740998 242.930742 
L 136.431373 239.297789 
L 137.121749 237.688173 
L 137.812124 237.363368 
L 138.5025 238.191222 
L 139.192875 240.415764 
L 139.88325 245.131057 
L 140.573626 262.896212 
L 141.264001 247.381206 
L 141.954376 241.655662 
L 142.644752 239.135917 
L 143.335127 238.168692 
L 144.025503 238.37832 
L 144.715878 239.802687 
L 145.406253 242.956283 
L 146.096629 250.274665 
L 146.787004 255.643738 
L 147.477379 244.761389 
L 148.167755 240.954264 
L 148.85813 239.252605 
L 149.548506 238.856822 
L 150.238881 239.614116 
L 150.929256 241.746887 
L 151.619632 246.275326 
L 152.310007 261.810399 
L 153.000382 249.257024 
L 153.690758 243.255869 
L 154.381133 240.632756 
L 155.071509 239.5976 
L 155.761884 239.74814 
L 156.452259 241.107669 
L 157.142635 244.163789 
L 158.523386 257.908875 
L 159.213761 246.29959 
L 159.904136 242.368927 
L 160.594512 240.601722 
L 161.284887 240.155856 
L 161.975262 240.865056 
L 162.665638 242.938992 
L 163.356013 247.357423 
L 164.046389 261.877745 
L 164.736764 250.760565 
L 165.427139 244.585678 
L 166.117515 241.897549 
L 166.80789 240.819554 
L 167.498265 240.9335 
L 168.188641 242.254681 
L 168.879016 245.257353 
L 170.259767 259.564892 
L 170.950142 247.546624 
L 171.640518 243.548696 
L 172.330893 241.745053 
L 173.021268 241.27139 
L 173.711644 241.954882 
L 174.402019 243.999851 
L 175.092395 248.370679 
L 175.78277 262.532971 
L 176.473145 251.92846 
L 177.163521 245.679778 
L 177.853896 242.962212 
L 178.544271 241.864173 
L 179.234647 241.961411 
L 179.925022 243.266771 
L 180.615398 246.251631 
L 181.996148 260.65541 
L 182.686524 248.550295 
L 183.376899 244.534048 
L 184.067275 242.71868 
L 184.75765 242.235843 
L 185.448025 242.911997 
L 186.138401 244.951977 
L 186.828776 249.323805 
L 187.519151 263.568136 
L 188.209527 252.820203 
L 188.899902 246.582176 
L 189.590278 243.864381 
L 190.280653 242.764793 
L 190.971028 242.861316 
L 191.661404 244.168811 
L 192.351779 247.163987 
L 193.73253 261.281873 
L 194.422905 249.357755 
L 195.113281 245.362463 
L 195.803656 243.555073 
L 196.494031 243.077855 
L 197.184407 243.761237 
L 197.874782 245.815242 
L 198.565157 250.22674 
L 199.255533 264.914466 
L 199.945908 253.49172 
L 200.636284 247.330227 
L 201.326659 244.635133 
L 202.017034 243.548559 
L 202.70741 243.656994 
L 203.397785 244.980878 
L 204.08816 248.008938 
L 205.468911 261.560591 
L 206.159287 250.007952 
L 206.849662 246.063808 
L 207.540037 244.279751 
L 208.230413 243.819779 
L 208.920788 244.521945 
L 209.611163 246.605267 
L 210.301539 251.088426 
L 210.991914 266.58147 
L 211.68229 253.989866 
L 212.372665 247.953349 
L 213.06304 245.298556 
L 213.753416 244.236361 
L 214.443791 244.366696 
L 215.134167 245.718433 
L 215.824542 248.798014 
L 216.514917 256.004891 
L 217.205293 261.596275 
L 217.895668 250.531642 
L 218.586043 246.661156 
L 219.276419 244.912282 
L 219.966794 244.478705 
L 220.65717 245.208921 
L 221.347545 247.334152 
L 222.03792 251.916633 
L 222.728296 268.652467 
L 223.418671 254.352144 
L 224.109046 248.474332 
L 224.799422 245.87314 
L 225.489797 244.844187 
L 226.180173 245.004395 
L 226.870548 246.393378 
L 227.560923 249.540389 
L 228.251299 256.995108 
L 228.941674 261.470936 
L 229.632049 250.952802 
L 230.322425 247.172293 
L 231.0128 245.467691 
L 231.703176 245.067754 
L 232.393551 245.833567 
L 233.083926 248.011346 
L 233.774302 252.718158 
L 234.464677 271.331734 
L 235.155052 254.60789 
L 235.845428 248.910841 
L 236.535803 246.373158 
L 237.226179 245.384369 
L 237.916554 245.58089 
L 238.606929 247.01498 
L 239.297305 250.243465 
L 239.98768 258.006701 
L 240.678056 261.243402 
L 241.368431 251.290096 
L 242.058806 247.611023 
L 242.749182 245.957636 
L 243.439557 245.597116 
L 244.129932 246.40478 
L 244.820308 248.644343 
L 245.510683 253.499072 
L 246.201059 275.133008 
L 246.891434 254.779756 
L 247.581809 249.276651 
L 248.272185 246.809743 
L 248.96256 245.866538 
L 249.652935 246.104637 
L 250.343311 247.590562 
L 251.033686 250.913335 
L 251.724062 259.049717 
L 252.414437 260.953562 
L 253.104812 251.558084 
L 253.795188 247.988166 
L 254.485563 246.391266 
L 255.175938 246.07481 
L 255.866314 246.929598 
L 256.556689 249.23918 
L 257.247065 254.264946 
L 257.93744 281.915791 
L 258.627815 254.885113 
L 259.318191 249.582586 
L 260.008566 247.191675 
L 260.698941 246.298306 
L 261.389317 246.582351 
L 262.079692 248.125996 
L 262.770068 251.55511 
L 263.460443 260.136851 
L 264.150818 260.627472 
L 264.841194 251.768178 
L 265.531569 248.312284 
L 266.221944 246.775846 
L 266.91232 246.507226 
L 267.602695 247.413663 
L 268.293071 249.800798 
L 268.983446 255.02105 
L 269.673821 294.587543 
L 270.364197 254.93724 
L 271.054572 249.837223 
L 271.744948 247.525952 
L 272.435323 246.685764 
L 273.125698 247.019427 
L 273.816074 248.626051 
L 274.506449 252.173168 
L 275.196824 261.284436 
L 275.8872 260.28168 
L 276.577575 251.929361 
L 277.267951 248.590218 
L 277.958326 247.117207 
L 278.648701 246.899511 
L 279.339077 247.861554 
L 280.029452 250.333302 
L 280.719827 255.77254 
L 281.410203 279.210543 
L 282.100578 254.946276 
L 282.790954 250.047408 
L 283.481329 247.818203 
L 284.171704 247.033831 
L 284.86208 247.420243 
L 285.552455 249.094648 
L 286.24283 252.77134 
L 286.933206 262.51415 
L 287.623581 259.926431 
L 288.313957 252.048743 
L 289.004332 248.827478 
L 289.694707 247.420073 
L 290.385083 247.255853 
L 291.075458 248.277025 
L 291.765833 250.840151 
L 292.456209 256.524636 
L 293.146584 274.278735 
L 293.83696 254.919965 
L 294.527335 250.218641 
L 295.21771 248.072999 
L 295.908086 247.346517 
L 296.598461 247.788391 
L 297.288837 249.535047 
L 297.979212 253.35305 
L 298.669587 263.85595 
L 299.359963 259.567862 
L 300.050338 252.131974 
L 300.740713 249.028534 
L 301.431089 247.688299 
L 302.121464 247.579685 
L 302.81184 248.663178 
L 303.502215 251.324294 
L 304.19259 257.282808 
L 304.882966 271.290505 
L 305.573341 254.864226 
L 306.263716 250.355367 
L 306.954092 248.294069 
L 307.644467 247.627113 
L 308.334843 248.126831 
L 309.025218 249.949979 
L 309.715593 253.921427 
L 310.405969 265.353367 
L 311.786719 252.183562 
L 312.477095 249.19703 
L 313.16747 247.92505 
L 313.857846 247.873841 
L 314.548221 249.022594 
L 315.238596 251.788281 
L 315.928972 258.052997 
L 316.619347 269.151792 
L 317.309722 254.783582 
L 318.000098 250.461192 
L 318.690473 248.484477 
L 319.380849 247.878333 
L 320.071224 248.438021 
L 320.761599 250.341753 
L 321.451975 254.479396 
L 322.14235 267.073808 
L 322.832725 258.853064 
L 323.523101 252.207109 
L 324.213476 249.335954 
L 324.903852 248.132936 
L 325.594227 248.140665 
L 326.284602 249.357434 
L 326.974978 252.234343 
L 327.665353 258.841867 
L 328.355729 267.48789 
L 329.046104 254.68149 
L 329.736479 250.539053 
L 330.426855 248.646743 
L 331.11723 248.102423 
L 331.807605 248.724005 
L 332.497981 250.712329 
L 333.188356 255.02976 
L 333.878732 269.130861 
L 334.569107 258.499372 
L 335.259482 252.205502 
L 335.949858 249.447753 
L 336.640233 248.314113 
L 337.330608 248.382103 
L 338.020984 249.669507 
L 338.711359 252.664452 
L 340.09211 266.124837 
L 340.782485 254.56058 
L 341.472861 250.591337 
L 342.163236 248.782945 
L 342.853611 248.30124 
L 343.543987 248.986485 
L 344.234362 251.06338 
L 344.924738 255.575272 
L 345.615113 271.740615 
L 346.305488 258.14845 
L 346.995864 252.181049 
L 347.686239 249.534437 
L 348.376614 248.47036 
L 349.06699 248.599768 
L 349.757365 249.960331 
L 350.447741 253.080375 
L 351.138116 260.508134 
L 351.828491 264.967493 
L 352.518867 254.422845 
L 353.209242 250.619989 
L 353.899618 248.894791 
L 354.589993 248.476319 
L 355.280368 249.226873 
L 355.970744 251.396339 
L 356.661119 256.118702 
L 357.351494 275.402907 
L 358.04187 257.799923 
L 358.732245 252.135586 
L 359.422621 249.59765 
L 360.112996 248.603141 
L 360.803371 248.794988 
L 361.493747 250.231175 
L 362.184122 253.48371 
L 362.874497 261.406269 
L 363.564873 263.95809 
L 364.255248 254.269775 
L 364.945624 250.626581 
L 365.635999 248.98368 
L 366.326374 248.628916 
L 367.01675 249.446334 
L 367.707125 251.712429 
L 368.3975 256.662909 
L 369.087876 281.833563 
L 369.778251 257.453153 
L 370.468627 252.070567 
L 371.159002 249.638726 
L 371.849377 248.713647 
L 372.539753 248.96885 
L 373.230128 250.483091 
L 373.920503 253.875921 
L 374.610879 262.366228 
L 375.301254 263.058884 
L 375.99163 254.102462 
L 376.682005 250.612371 
L 377.37238 249.050743 
L 378.062756 248.760051 
L 378.753131 249.645818 
L 379.443506 252.012693 
L 380.133882 257.210916 
L 380.824257 297.732727 
L 381.514633 257.10734 
L 382.205008 251.987124 
L 382.895383 249.658734 
L 383.585759 248.802838 
L 384.276134 249.122227 
L 384.96651 250.716938 
L 385.656885 254.258364 
L 386.34726 263.407441 
L 387.037636 262.243827 
L 387.728011 253.921678 
L 388.418386 250.578353 
L 389.108762 249.09688 
L 389.799137 248.870533 
L 390.489513 249.826078 
L 391.179888 252.298014 
L 391.870263 257.766 
L 392.560639 279.823731 
L 393.251014 256.761585 
L 393.941389 251.886119 
L 394.631765 249.658514 
L 395.32214 248.871465 
L 396.012516 249.255798 
L 396.702891 250.933406 
L 397.393266 254.632308 
L 398.083642 264.556684 
L 398.774017 261.494155 
L 399.464392 253.727936 
L 400.154768 250.52529 
L 400.845143 249.122788 
L 401.535519 248.960981 
L 402.225894 249.987696 
L 402.916269 252.56913 
L 403.606645 258.331797 
L 404.29702 274.612387 
L 404.987395 256.414928 
L 405.677771 251.768181 
L 406.368146 249.638701 
L 407.058522 248.920092 
L 407.748897 249.370071 
L 408.439272 251.13302 
L 409.129648 254.998954 
L 409.820023 265.85262 
L 410.510399 260.795867 
L 411.200774 253.521531 
L 411.891149 250.45374 
L 412.581525 249.128978 
L 413.2719 249.031843 
L 413.962275 250.131087 
L 414.652651 252.826639 
L 415.343026 258.912428 
L 416.033402 271.448497 
L 416.723777 256.066374 
L 417.414152 251.633738 
L 418.104528 249.599748 
L 418.794903 248.949114 
L 419.485278 249.465388 
L 420.175654 251.316155 
L 420.866029 255.359448 
L 421.556405 267.354412 
L 422.937155 253.302572 
L 423.627531 250.364079 
L 424.317906 249.115789 
L 425.008281 249.083403 
L 425.698657 250.256512 
L 426.389032 253.071008 
L 427.079408 259.512676 
L 427.769783 269.159771 
L 428.460158 255.714896 
L 429.150534 251.483036 
L 429.840909 249.541936 
L 429.840909 249.541936 
" style="fill:none;stroke:#1f77b4;stroke-linecap:square;stroke-width:1.5;"/>
   </g>
   <g id="patch_8">
    <path d="M 59.42 303.64 
L 59.42 173.68 
" style="fill:none;stroke:#000000;stroke-linecap:square;stroke-linejoin:miter;stroke-width:0.8;"/>
   </g>
   <g id="patch_9">
    <path d="M 447.48 303.64 
L 447.48 173.68 
" style="fill:none;stroke:#000000;stroke-linecap:square;stroke-linejoin:miter;stroke-width:0.8;"/>
   </g>
   <g id="patch_10">
    <path d="M 59.42 303.64 
L 447.48 303.64 
" style="fill:none;stroke:#000000;stroke-linecap:square;stroke-linejoin:miter;stroke-width:0.8;"/>
   </g>
   <g id="patch_11">
    <path d="M 59.42 173.68 
L 447.48 173.68 
" style="fill:none;stroke:#000000;stroke-linecap:square;stroke-linejoin:miter;stroke-width:0.8;"/>
   </g>
  </g>
 </g>
 <defs>
  <clipPath id="pedfabdb1d9">
   <rect height="129.96" width="388.06" x="59.42" y="13.32"/>
  </clipPath>
  <clipPath id="pa59364b303">
   <rect height="129.96" width="388.06" x="59.42" y="173.68"/>
  </clipPath>
 </defs>
</svg>
