<?xml version="1.0" encoding="utf-8" standalone="no"?>
<!DOCTYPE svg PUBLIC "-//W3C//DTD SVG 1.1//EN"
  "http://www.w3.org/Graphics/SVG/1.1/DTD/svg11.dtd">
<!-- Created with matplotlib (http://matplotlib.org/) -->
<svg height="315pt" version="1.1" viewBox="0 0 579 315" width="579pt" xmlns="http://www.w3.org/2000/svg" xmlns:xlink="http://www.w3.org/1999/xlink">
 <defs>
  <style type="text/css">
*{stroke-linecap:butt;stroke-linejoin:round;}
  </style>
 </defs>
 <g id="figure_1">
  <g id="patch_1">
   <path d="M 0 315.36 
L 579.6 315.36 
L 579.6 0 
L 0 0 
z
" style="fill:#ffffff;"/>
  </g>
  <g id="axes_1">
   <g id="patch_2">
    <path d="M 65.307812 274.181875 
L 531.154687 274.181875 
L 531.154687 14.599219 
L 65.307812 14.599219 
z
" style="fill:#ffffff;"/>
   </g>
   <g id="matplotlib.axis_1">
    <g id="xtick_1">
     <g id="line2d_1">
      <path clip-path="url(#pd34bb0ccc0)" d="M 86.48267 274.181875 
L 86.48267 14.599219 
" style="fill:none;stroke:#b0b0b0;stroke-dasharray:0.8,1.32;stroke-dashoffset:0;stroke-width:0.8;"/>
     </g>
     <g id="line2d_2">
      <defs>
       <path d="M 0 0 
L 0 3.5 
" id="md24e7b3faa" style="stroke:#000000;stroke-width:0.8;"/>
      </defs>
      <g>
       <use style="stroke:#000000;stroke-width:0.8;" x="86.48267" xlink:href="#md24e7b3faa" y="274.181875"/>
      </g>
     </g>
     <g id="text_1">
      <!-- 0 -->
      <defs>
       <path d="M 31.78125 66.40625 
Q 24.171875 66.40625 20.328125 58.90625 
Q 16.5 51.421875 16.5 36.375 
Q 16.5 21.390625 20.328125 13.890625 
Q 24.171875 6.390625 31.78125 6.390625 
Q 39.453125 6.390625 43.28125 13.890625 
Q 47.125 21.390625 47.125 36.375 
Q 47.125 51.421875 43.28125 58.90625 
Q 39.453125 66.40625 31.78125 66.40625 
z
M 31.78125 74.21875 
Q 44.046875 74.21875 50.515625 64.515625 
Q 56.984375 54.828125 56.984375 36.375 
Q 56.984375 17.96875 50.515625 8.265625 
Q 44.046875 -1.421875 31.78125 -1.421875 
Q 19.53125 -1.421875 13.0625 8.265625 
Q 6.59375 17.96875 6.59375 36.375 
Q 6.59375 54.828125 13.0625 64.515625 
Q 19.53125 74.21875 31.78125 74.21875 
z
" id="DejaVuSans-30"/>
      </defs>
      <g transform="translate(83.30142 288.780313)scale(0.1 -0.1)">
       <use xlink:href="#DejaVuSans-30"/>
      </g>
     </g>
    </g>
    <g id="xtick_2">
     <g id="line2d_3">
      <path clip-path="url(#pd34bb0ccc0)" d="M 157.06553 274.181875 
L 157.06553 14.599219 
" style="fill:none;stroke:#b0b0b0;stroke-dasharray:0.8,1.32;stroke-dashoffset:0;stroke-width:0.8;"/>
     </g>
     <g id="line2d_4">
      <g>
       <use style="stroke:#000000;stroke-width:0.8;" x="157.06553" xlink:href="#md24e7b3faa" y="274.181875"/>
      </g>
     </g>
     <g id="text_2">
      <!-- 20 -->
      <defs>
       <path d="M 19.1875 8.296875 
L 53.609375 8.296875 
L 53.609375 0 
L 7.328125 0 
L 7.328125 8.296875 
Q 12.9375 14.109375 22.625 23.890625 
Q 32.328125 33.6875 34.8125 36.53125 
Q 39.546875 41.84375 41.421875 45.53125 
Q 43.3125 49.21875 43.3125 52.78125 
Q 43.3125 58.59375 39.234375 62.25 
Q 35.15625 65.921875 28.609375 65.921875 
Q 23.96875 65.921875 18.8125 64.3125 
Q 13.671875 62.703125 7.8125 59.421875 
L 7.8125 69.390625 
Q 13.765625 71.78125 18.9375 73 
Q 24.125 74.21875 28.421875 74.21875 
Q 39.75 74.21875 46.484375 68.546875 
Q 53.21875 62.890625 53.21875 53.421875 
Q 53.21875 48.921875 51.53125 44.890625 
Q 49.859375 40.875 45.40625 35.40625 
Q 44.1875 33.984375 37.640625 27.21875 
Q 31.109375 20.453125 19.1875 8.296875 
z
" id="DejaVuSans-32"/>
      </defs>
      <g transform="translate(150.70303 288.780313)scale(0.1 -0.1)">
       <use xlink:href="#DejaVuSans-32"/>
       <use x="63.623047" xlink:href="#DejaVuSans-30"/>
      </g>
     </g>
    </g>
    <g id="xtick_3">
     <g id="line2d_5">
      <path clip-path="url(#pd34bb0ccc0)" d="M 227.64839 274.181875 
L 227.64839 14.599219 
" style="fill:none;stroke:#b0b0b0;stroke-dasharray:0.8,1.32;stroke-dashoffset:0;stroke-width:0.8;"/>
     </g>
     <g id="line2d_6">
      <g>
       <use style="stroke:#000000;stroke-width:0.8;" x="227.64839" xlink:href="#md24e7b3faa" y="274.181875"/>
      </g>
     </g>
     <g id="text_3">
      <!-- 40 -->
      <defs>
       <path d="M 37.796875 64.3125 
L 12.890625 25.390625 
L 37.796875 25.390625 
z
M 35.203125 72.90625 
L 47.609375 72.90625 
L 47.609375 25.390625 
L 58.015625 25.390625 
L 58.015625 17.1875 
L 47.609375 17.1875 
L 47.609375 0 
L 37.796875 0 
L 37.796875 17.1875 
L 4.890625 17.1875 
L 4.890625 26.703125 
z
" id="DejaVuSans-34"/>
      </defs>
      <g transform="translate(221.28589 288.780313)scale(0.1 -0.1)">
       <use xlink:href="#DejaVuSans-34"/>
       <use x="63.623047" xlink:href="#DejaVuSans-30"/>
      </g>
     </g>
    </g>
    <g id="xtick_4">
     <g id="line2d_7">
      <path clip-path="url(#pd34bb0ccc0)" d="M 298.23125 274.181875 
L 298.23125 14.599219 
" style="fill:none;stroke:#b0b0b0;stroke-dasharray:0.8,1.32;stroke-dashoffset:0;stroke-width:0.8;"/>
     </g>
     <g id="line2d_8">
      <g>
       <use style="stroke:#000000;stroke-width:0.8;" x="298.23125" xlink:href="#md24e7b3faa" y="274.181875"/>
      </g>
     </g>
     <g id="text_4">
      <!-- 60 -->
      <defs>
       <path d="M 33.015625 40.375 
Q 26.375 40.375 22.484375 35.828125 
Q 18.609375 31.296875 18.609375 23.390625 
Q 18.609375 15.53125 22.484375 10.953125 
Q 26.375 6.390625 33.015625 6.390625 
Q 39.65625 6.390625 43.53125 10.953125 
Q 47.40625 15.53125 47.40625 23.390625 
Q 47.40625 31.296875 43.53125 35.828125 
Q 39.65625 40.375 33.015625 40.375 
z
M 52.59375 71.296875 
L 52.59375 62.3125 
Q 48.875 64.0625 45.09375 64.984375 
Q 41.3125 65.921875 37.59375 65.921875 
Q 27.828125 65.921875 22.671875 59.328125 
Q 17.53125 52.734375 16.796875 39.40625 
Q 19.671875 43.65625 24.015625 45.921875 
Q 28.375 48.1875 33.59375 48.1875 
Q 44.578125 48.1875 50.953125 41.515625 
Q 57.328125 34.859375 57.328125 23.390625 
Q 57.328125 12.15625 50.6875 5.359375 
Q 44.046875 -1.421875 33.015625 -1.421875 
Q 20.359375 -1.421875 13.671875 8.265625 
Q 6.984375 17.96875 6.984375 36.375 
Q 6.984375 53.65625 15.1875 63.9375 
Q 23.390625 74.21875 37.203125 74.21875 
Q 40.921875 74.21875 44.703125 73.484375 
Q 48.484375 72.75 52.59375 71.296875 
z
" id="DejaVuSans-36"/>
      </defs>
      <g transform="translate(291.86875 288.780313)scale(0.1 -0.1)">
       <use xlink:href="#DejaVuSans-36"/>
       <use x="63.623047" xlink:href="#DejaVuSans-30"/>
      </g>
     </g>
    </g>
    <g id="xtick_5">
     <g id="line2d_9">
      <path clip-path="url(#pd34bb0ccc0)" d="M 368.81411 274.181875 
L 368.81411 14.599219 
" style="fill:none;stroke:#b0b0b0;stroke-dasharray:0.8,1.32;stroke-dashoffset:0;stroke-width:0.8;"/>
     </g>
     <g id="line2d_10">
      <g>
       <use style="stroke:#000000;stroke-width:0.8;" x="368.81411" xlink:href="#md24e7b3faa" y="274.181875"/>
      </g>
     </g>
     <g id="text_5">
      <!-- 80 -->
      <defs>
       <path d="M 31.78125 34.625 
Q 24.75 34.625 20.71875 30.859375 
Q 16.703125 27.09375 16.703125 20.515625 
Q 16.703125 13.921875 20.71875 10.15625 
Q 24.75 6.390625 31.78125 6.390625 
Q 38.8125 6.390625 42.859375 10.171875 
Q 46.921875 13.96875 46.921875 20.515625 
Q 46.921875 27.09375 42.890625 30.859375 
Q 38.875 34.625 31.78125 34.625 
z
M 21.921875 38.8125 
Q 15.578125 40.375 12.03125 44.71875 
Q 8.5 49.078125 8.5 55.328125 
Q 8.5 64.0625 14.71875 69.140625 
Q 20.953125 74.21875 31.78125 74.21875 
Q 42.671875 74.21875 48.875 69.140625 
Q 55.078125 64.0625 55.078125 55.328125 
Q 55.078125 49.078125 51.53125 44.71875 
Q 48 40.375 41.703125 38.8125 
Q 48.828125 37.15625 52.796875 32.3125 
Q 56.78125 27.484375 56.78125 20.515625 
Q 56.78125 9.90625 50.3125 4.234375 
Q 43.84375 -1.421875 31.78125 -1.421875 
Q 19.734375 -1.421875 13.25 4.234375 
Q 6.78125 9.90625 6.78125 20.515625 
Q 6.78125 27.484375 10.78125 32.3125 
Q 14.796875 37.15625 21.921875 38.8125 
z
M 18.3125 54.390625 
Q 18.3125 48.734375 21.84375 45.5625 
Q 25.390625 42.390625 31.78125 42.390625 
Q 38.140625 42.390625 41.71875 45.5625 
Q 45.3125 48.734375 45.3125 54.390625 
Q 45.3125 60.0625 41.71875 63.234375 
Q 38.140625 66.40625 31.78125 66.40625 
Q 25.390625 66.40625 21.84375 63.234375 
Q 18.3125 60.0625 18.3125 54.390625 
z
" id="DejaVuSans-38"/>
      </defs>
      <g transform="translate(362.45161 288.780313)scale(0.1 -0.1)">
       <use xlink:href="#DejaVuSans-38"/>
       <use x="63.623047" xlink:href="#DejaVuSans-30"/>
      </g>
     </g>
    </g>
    <g id="xtick_6">
     <g id="line2d_11">
      <path clip-path="url(#pd34bb0ccc0)" d="M 439.39697 274.181875 
L 439.39697 14.599219 
" style="fill:none;stroke:#b0b0b0;stroke-dasharray:0.8,1.32;stroke-dashoffset:0;stroke-width:0.8;"/>
     </g>
     <g id="line2d_12">
      <g>
       <use style="stroke:#000000;stroke-width:0.8;" x="439.39697" xlink:href="#md24e7b3faa" y="274.181875"/>
      </g>
     </g>
     <g id="text_6">
      <!-- 100 -->
      <defs>
       <path d="M 12.40625 8.296875 
L 28.515625 8.296875 
L 28.515625 63.921875 
L 10.984375 60.40625 
L 10.984375 69.390625 
L 28.421875 72.90625 
L 38.28125 72.90625 
L 38.28125 8.296875 
L 54.390625 8.296875 
L 54.390625 0 
L 12.40625 0 
z
" id="DejaVuSans-31"/>
      </defs>
      <g transform="translate(429.85322 288.780313)scale(0.1 -0.1)">
       <use xlink:href="#DejaVuSans-31"/>
       <use x="63.623047" xlink:href="#DejaVuSans-30"/>
       <use x="127.246094" xlink:href="#DejaVuSans-30"/>
      </g>
     </g>
    </g>
    <g id="xtick_7">
     <g id="line2d_13">
      <path clip-path="url(#pd34bb0ccc0)" d="M 509.97983 274.181875 
L 509.97983 14.599219 
" style="fill:none;stroke:#b0b0b0;stroke-dasharray:0.8,1.32;stroke-dashoffset:0;stroke-width:0.8;"/>
     </g>
     <g id="line2d_14">
      <g>
       <use style="stroke:#000000;stroke-width:0.8;" x="509.97983" xlink:href="#md24e7b3faa" y="274.181875"/>
      </g>
     </g>
     <g id="text_7">
      <!-- 120 -->
      <g transform="translate(500.43608 288.780313)scale(0.1 -0.1)">
       <use xlink:href="#DejaVuSans-31"/>
       <use x="63.623047" xlink:href="#DejaVuSans-32"/>
       <use x="127.246094" xlink:href="#DejaVuSans-30"/>
      </g>
     </g>
    </g>
    <g id="text_8">
     <!-- n (sampling frequency = M$f_i$) -->
     <defs>
      <path d="M 54.890625 33.015625 
L 54.890625 0 
L 45.90625 0 
L 45.90625 32.71875 
Q 45.90625 40.484375 42.875 44.328125 
Q 39.84375 48.1875 33.796875 48.1875 
Q 26.515625 48.1875 22.3125 43.546875 
Q 18.109375 38.921875 18.109375 30.90625 
L 18.109375 0 
L 9.078125 0 
L 9.078125 54.6875 
L 18.109375 54.6875 
L 18.109375 46.1875 
Q 21.34375 51.125 25.703125 53.5625 
Q 30.078125 56 35.796875 56 
Q 45.21875 56 50.046875 50.171875 
Q 54.890625 44.34375 54.890625 33.015625 
z
" id="DejaVuSans-6e"/>
      <path id="DejaVuSans-20"/>
      <path d="M 31 75.875 
Q 24.46875 64.65625 21.28125 53.65625 
Q 18.109375 42.671875 18.109375 31.390625 
Q 18.109375 20.125 21.3125 9.0625 
Q 24.515625 -2 31 -13.1875 
L 23.1875 -13.1875 
Q 15.875 -1.703125 12.234375 9.375 
Q 8.59375 20.453125 8.59375 31.390625 
Q 8.59375 42.28125 12.203125 53.3125 
Q 15.828125 64.359375 23.1875 75.875 
z
" id="DejaVuSans-28"/>
      <path d="M 44.28125 53.078125 
L 44.28125 44.578125 
Q 40.484375 46.53125 36.375 47.5 
Q 32.28125 48.484375 27.875 48.484375 
Q 21.1875 48.484375 17.84375 46.4375 
Q 14.5 44.390625 14.5 40.28125 
Q 14.5 37.15625 16.890625 35.375 
Q 19.28125 33.59375 26.515625 31.984375 
L 29.59375 31.296875 
Q 39.15625 29.25 43.1875 25.515625 
Q 47.21875 21.78125 47.21875 15.09375 
Q 47.21875 7.46875 41.1875 3.015625 
Q 35.15625 -1.421875 24.609375 -1.421875 
Q 20.21875 -1.421875 15.453125 -0.5625 
Q 10.6875 0.296875 5.421875 2 
L 5.421875 11.28125 
Q 10.40625 8.6875 15.234375 7.390625 
Q 20.0625 6.109375 24.8125 6.109375 
Q 31.15625 6.109375 34.5625 8.28125 
Q 37.984375 10.453125 37.984375 14.40625 
Q 37.984375 18.0625 35.515625 20.015625 
Q 33.0625 21.96875 24.703125 23.78125 
L 21.578125 24.515625 
Q 13.234375 26.265625 9.515625 29.90625 
Q 5.8125 33.546875 5.8125 39.890625 
Q 5.8125 47.609375 11.28125 51.796875 
Q 16.75 56 26.8125 56 
Q 31.78125 56 36.171875 55.265625 
Q 40.578125 54.546875 44.28125 53.078125 
z
" id="DejaVuSans-73"/>
      <path d="M 34.28125 27.484375 
Q 23.390625 27.484375 19.1875 25 
Q 14.984375 22.515625 14.984375 16.5 
Q 14.984375 11.71875 18.140625 8.90625 
Q 21.296875 6.109375 26.703125 6.109375 
Q 34.1875 6.109375 38.703125 11.40625 
Q 43.21875 16.703125 43.21875 25.484375 
L 43.21875 27.484375 
z
M 52.203125 31.203125 
L 52.203125 0 
L 43.21875 0 
L 43.21875 8.296875 
Q 40.140625 3.328125 35.546875 0.953125 
Q 30.953125 -1.421875 24.3125 -1.421875 
Q 15.921875 -1.421875 10.953125 3.296875 
Q 6 8.015625 6 15.921875 
Q 6 25.140625 12.171875 29.828125 
Q 18.359375 34.515625 30.609375 34.515625 
L 43.21875 34.515625 
L 43.21875 35.40625 
Q 43.21875 41.609375 39.140625 45 
Q 35.0625 48.390625 27.6875 48.390625 
Q 23 48.390625 18.546875 47.265625 
Q 14.109375 46.140625 10.015625 43.890625 
L 10.015625 52.203125 
Q 14.9375 54.109375 19.578125 55.046875 
Q 24.21875 56 28.609375 56 
Q 40.484375 56 46.34375 49.84375 
Q 52.203125 43.703125 52.203125 31.203125 
z
" id="DejaVuSans-61"/>
      <path d="M 52 44.1875 
Q 55.375 50.25 60.0625 53.125 
Q 64.75 56 71.09375 56 
Q 79.640625 56 84.28125 50.015625 
Q 88.921875 44.046875 88.921875 33.015625 
L 88.921875 0 
L 79.890625 0 
L 79.890625 32.71875 
Q 79.890625 40.578125 77.09375 44.375 
Q 74.3125 48.1875 68.609375 48.1875 
Q 61.625 48.1875 57.5625 43.546875 
Q 53.515625 38.921875 53.515625 30.90625 
L 53.515625 0 
L 44.484375 0 
L 44.484375 32.71875 
Q 44.484375 40.625 41.703125 44.40625 
Q 38.921875 48.1875 33.109375 48.1875 
Q 26.21875 48.1875 22.15625 43.53125 
Q 18.109375 38.875 18.109375 30.90625 
L 18.109375 0 
L 9.078125 0 
L 9.078125 54.6875 
L 18.109375 54.6875 
L 18.109375 46.1875 
Q 21.1875 51.21875 25.484375 53.609375 
Q 29.78125 56 35.6875 56 
Q 41.65625 56 45.828125 52.96875 
Q 50 49.953125 52 44.1875 
z
" id="DejaVuSans-6d"/>
      <path d="M 18.109375 8.203125 
L 18.109375 -20.796875 
L 9.078125 -20.796875 
L 9.078125 54.6875 
L 18.109375 54.6875 
L 18.109375 46.390625 
Q 20.953125 51.265625 25.265625 53.625 
Q 29.59375 56 35.59375 56 
Q 45.5625 56 51.78125 48.09375 
Q 58.015625 40.1875 58.015625 27.296875 
Q 58.015625 14.40625 51.78125 6.484375 
Q 45.5625 -1.421875 35.59375 -1.421875 
Q 29.59375 -1.421875 25.265625 0.953125 
Q 20.953125 3.328125 18.109375 8.203125 
z
M 48.6875 27.296875 
Q 48.6875 37.203125 44.609375 42.84375 
Q 40.53125 48.484375 33.40625 48.484375 
Q 26.265625 48.484375 22.1875 42.84375 
Q 18.109375 37.203125 18.109375 27.296875 
Q 18.109375 17.390625 22.1875 11.75 
Q 26.265625 6.109375 33.40625 6.109375 
Q 40.53125 6.109375 44.609375 11.75 
Q 48.6875 17.390625 48.6875 27.296875 
z
" id="DejaVuSans-70"/>
      <path d="M 9.421875 75.984375 
L 18.40625 75.984375 
L 18.40625 0 
L 9.421875 0 
z
" id="DejaVuSans-6c"/>
      <path d="M 9.421875 54.6875 
L 18.40625 54.6875 
L 18.40625 0 
L 9.421875 0 
z
M 9.421875 75.984375 
L 18.40625 75.984375 
L 18.40625 64.59375 
L 9.421875 64.59375 
z
" id="DejaVuSans-69"/>
      <path d="M 45.40625 27.984375 
Q 45.40625 37.75 41.375 43.109375 
Q 37.359375 48.484375 30.078125 48.484375 
Q 22.859375 48.484375 18.828125 43.109375 
Q 14.796875 37.75 14.796875 27.984375 
Q 14.796875 18.265625 18.828125 12.890625 
Q 22.859375 7.515625 30.078125 7.515625 
Q 37.359375 7.515625 41.375 12.890625 
Q 45.40625 18.265625 45.40625 27.984375 
z
M 54.390625 6.78125 
Q 54.390625 -7.171875 48.1875 -13.984375 
Q 42 -20.796875 29.203125 -20.796875 
Q 24.46875 -20.796875 20.265625 -20.09375 
Q 16.0625 -19.390625 12.109375 -17.921875 
L 12.109375 -9.1875 
Q 16.0625 -11.328125 19.921875 -12.34375 
Q 23.78125 -13.375 27.78125 -13.375 
Q 36.625 -13.375 41.015625 -8.765625 
Q 45.40625 -4.15625 45.40625 5.171875 
L 45.40625 9.625 
Q 42.625 4.78125 38.28125 2.390625 
Q 33.9375 0 27.875 0 
Q 17.828125 0 11.671875 7.65625 
Q 5.515625 15.328125 5.515625 27.984375 
Q 5.515625 40.671875 11.671875 48.328125 
Q 17.828125 56 27.875 56 
Q 33.9375 56 38.28125 53.609375 
Q 42.625 51.21875 45.40625 46.390625 
L 45.40625 54.6875 
L 54.390625 54.6875 
z
" id="DejaVuSans-67"/>
      <path d="M 37.109375 75.984375 
L 37.109375 68.5 
L 28.515625 68.5 
Q 23.6875 68.5 21.796875 66.546875 
Q 19.921875 64.59375 19.921875 59.515625 
L 19.921875 54.6875 
L 34.71875 54.6875 
L 34.71875 47.703125 
L 19.921875 47.703125 
L 19.921875 0 
L 10.890625 0 
L 10.890625 47.703125 
L 2.296875 47.703125 
L 2.296875 54.6875 
L 10.890625 54.6875 
L 10.890625 58.5 
Q 10.890625 67.625 15.140625 71.796875 
Q 19.390625 75.984375 28.609375 75.984375 
z
" id="DejaVuSans-66"/>
      <path d="M 41.109375 46.296875 
Q 39.59375 47.171875 37.8125 47.578125 
Q 36.03125 48 33.890625 48 
Q 26.265625 48 22.1875 43.046875 
Q 18.109375 38.09375 18.109375 28.8125 
L 18.109375 0 
L 9.078125 0 
L 9.078125 54.6875 
L 18.109375 54.6875 
L 18.109375 46.1875 
Q 20.953125 51.171875 25.484375 53.578125 
Q 30.03125 56 36.53125 56 
Q 37.453125 56 38.578125 55.875 
Q 39.703125 55.765625 41.0625 55.515625 
z
" id="DejaVuSans-72"/>
      <path d="M 56.203125 29.59375 
L 56.203125 25.203125 
L 14.890625 25.203125 
Q 15.484375 15.921875 20.484375 11.0625 
Q 25.484375 6.203125 34.421875 6.203125 
Q 39.59375 6.203125 44.453125 7.46875 
Q 49.3125 8.734375 54.109375 11.28125 
L 54.109375 2.78125 
Q 49.265625 0.734375 44.1875 -0.34375 
Q 39.109375 -1.421875 33.890625 -1.421875 
Q 20.796875 -1.421875 13.15625 6.1875 
Q 5.515625 13.8125 5.515625 26.8125 
Q 5.515625 40.234375 12.765625 48.109375 
Q 20.015625 56 32.328125 56 
Q 43.359375 56 49.78125 48.890625 
Q 56.203125 41.796875 56.203125 29.59375 
z
M 47.21875 32.234375 
Q 47.125 39.59375 43.09375 43.984375 
Q 39.0625 48.390625 32.421875 48.390625 
Q 24.90625 48.390625 20.390625 44.140625 
Q 15.875 39.890625 15.1875 32.171875 
z
" id="DejaVuSans-65"/>
      <path d="M 14.796875 27.296875 
Q 14.796875 17.390625 18.875 11.75 
Q 22.953125 6.109375 30.078125 6.109375 
Q 37.203125 6.109375 41.296875 11.75 
Q 45.40625 17.390625 45.40625 27.296875 
Q 45.40625 37.203125 41.296875 42.84375 
Q 37.203125 48.484375 30.078125 48.484375 
Q 22.953125 48.484375 18.875 42.84375 
Q 14.796875 37.203125 14.796875 27.296875 
z
M 45.40625 8.203125 
Q 42.578125 3.328125 38.25 0.953125 
Q 33.9375 -1.421875 27.875 -1.421875 
Q 17.96875 -1.421875 11.734375 6.484375 
Q 5.515625 14.40625 5.515625 27.296875 
Q 5.515625 40.1875 11.734375 48.09375 
Q 17.96875 56 27.875 56 
Q 33.9375 56 38.25 53.625 
Q 42.578125 51.265625 45.40625 46.390625 
L 45.40625 54.6875 
L 54.390625 54.6875 
L 54.390625 -20.796875 
L 45.40625 -20.796875 
z
" id="DejaVuSans-71"/>
      <path d="M 8.5 21.578125 
L 8.5 54.6875 
L 17.484375 54.6875 
L 17.484375 21.921875 
Q 17.484375 14.15625 20.5 10.265625 
Q 23.53125 6.390625 29.59375 6.390625 
Q 36.859375 6.390625 41.078125 11.03125 
Q 45.3125 15.671875 45.3125 23.6875 
L 45.3125 54.6875 
L 54.296875 54.6875 
L 54.296875 0 
L 45.3125 0 
L 45.3125 8.40625 
Q 42.046875 3.421875 37.71875 1 
Q 33.40625 -1.421875 27.6875 -1.421875 
Q 18.265625 -1.421875 13.375 4.4375 
Q 8.5 10.296875 8.5 21.578125 
z
M 31.109375 56 
z
" id="DejaVuSans-75"/>
      <path d="M 48.78125 52.59375 
L 48.78125 44.1875 
Q 44.96875 46.296875 41.140625 47.34375 
Q 37.3125 48.390625 33.40625 48.390625 
Q 24.65625 48.390625 19.8125 42.84375 
Q 14.984375 37.3125 14.984375 27.296875 
Q 14.984375 17.28125 19.8125 11.734375 
Q 24.65625 6.203125 33.40625 6.203125 
Q 37.3125 6.203125 41.140625 7.25 
Q 44.96875 8.296875 48.78125 10.40625 
L 48.78125 2.09375 
Q 45.015625 0.34375 40.984375 -0.53125 
Q 36.96875 -1.421875 32.421875 -1.421875 
Q 20.0625 -1.421875 12.78125 6.34375 
Q 5.515625 14.109375 5.515625 27.296875 
Q 5.515625 40.671875 12.859375 48.328125 
Q 20.21875 56 33.015625 56 
Q 37.15625 56 41.109375 55.140625 
Q 45.0625 54.296875 48.78125 52.59375 
z
" id="DejaVuSans-63"/>
      <path d="M 32.171875 -5.078125 
Q 28.375 -14.84375 24.75 -17.8125 
Q 21.140625 -20.796875 15.09375 -20.796875 
L 7.90625 -20.796875 
L 7.90625 -13.28125 
L 13.1875 -13.28125 
Q 16.890625 -13.28125 18.9375 -11.515625 
Q 21 -9.765625 23.484375 -3.21875 
L 25.09375 0.875 
L 2.984375 54.6875 
L 12.5 54.6875 
L 29.59375 11.921875 
L 46.6875 54.6875 
L 56.203125 54.6875 
z
" id="DejaVuSans-79"/>
      <path d="M 10.59375 45.40625 
L 73.1875 45.40625 
L 73.1875 37.203125 
L 10.59375 37.203125 
z
M 10.59375 25.484375 
L 73.1875 25.484375 
L 73.1875 17.1875 
L 10.59375 17.1875 
z
" id="DejaVuSans-3d"/>
      <path d="M 9.8125 72.90625 
L 24.515625 72.90625 
L 43.109375 23.296875 
L 61.8125 72.90625 
L 76.515625 72.90625 
L 76.515625 0 
L 66.890625 0 
L 66.890625 64.015625 
L 48.09375 14.015625 
L 38.1875 14.015625 
L 19.390625 64.015625 
L 19.390625 0 
L 9.8125 0 
z
" id="DejaVuSans-4d"/>
      <path d="M 47.796875 75.984375 
L 46.390625 68.5 
L 37.796875 68.5 
Q 32.90625 68.5 30.6875 66.578125 
Q 28.46875 64.65625 27.390625 59.515625 
L 26.421875 54.6875 
L 41.21875 54.6875 
L 39.890625 47.703125 
L 25.09375 47.703125 
L 15.828125 0 
L 6.78125 0 
L 16.109375 47.703125 
L 7.515625 47.703125 
L 8.796875 54.6875 
L 17.390625 54.6875 
L 18.109375 58.5 
Q 19.96875 68.171875 24.625 72.078125 
Q 29.296875 75.984375 39.3125 75.984375 
z
" id="DejaVuSans-Oblique-66"/>
      <path d="M 18.3125 75.984375 
L 27.296875 75.984375 
L 25.09375 64.59375 
L 16.109375 64.59375 
z
M 14.203125 54.6875 
L 23.1875 54.6875 
L 12.5 0 
L 3.515625 0 
z
" id="DejaVuSans-Oblique-69"/>
      <path d="M 8.015625 75.875 
L 15.828125 75.875 
Q 23.140625 64.359375 26.78125 53.3125 
Q 30.421875 42.28125 30.421875 31.390625 
Q 30.421875 20.453125 26.78125 9.375 
Q 23.140625 -1.703125 15.828125 -13.1875 
L 8.015625 -13.1875 
Q 14.5 -2 17.703125 9.0625 
Q 20.90625 20.125 20.90625 31.390625 
Q 20.90625 42.671875 17.703125 53.65625 
Q 14.5 64.65625 8.015625 75.875 
z
" id="DejaVuSans-29"/>
     </defs>
     <g transform="translate(225.38125 302.46)scale(0.1 -0.1)">
      <use transform="translate(0 0.015625)" xlink:href="#DejaVuSans-6e"/>
      <use transform="translate(63.378906 0.015625)" xlink:href="#DejaVuSans-20"/>
      <use transform="translate(95.166016 0.015625)" xlink:href="#DejaVuSans-28"/>
      <use transform="translate(134.179688 0.015625)" xlink:href="#DejaVuSans-73"/>
      <use transform="translate(186.279297 0.015625)" xlink:href="#DejaVuSans-61"/>
      <use transform="translate(247.558594 0.015625)" xlink:href="#DejaVuSans-6d"/>
      <use transform="translate(344.970703 0.015625)" xlink:href="#DejaVuSans-70"/>
      <use transform="translate(408.447266 0.015625)" xlink:href="#DejaVuSans-6c"/>
      <use transform="translate(436.230469 0.015625)" xlink:href="#DejaVuSans-69"/>
      <use transform="translate(464.013672 0.015625)" xlink:href="#DejaVuSans-6e"/>
      <use transform="translate(527.392578 0.015625)" xlink:href="#DejaVuSans-67"/>
      <use transform="translate(590.869141 0.015625)" xlink:href="#DejaVuSans-20"/>
      <use transform="translate(622.65625 0.015625)" xlink:href="#DejaVuSans-66"/>
      <use transform="translate(657.861328 0.015625)" xlink:href="#DejaVuSans-72"/>
      <use transform="translate(698.974609 0.015625)" xlink:href="#DejaVuSans-65"/>
      <use transform="translate(760.498047 0.015625)" xlink:href="#DejaVuSans-71"/>
      <use transform="translate(823.974609 0.015625)" xlink:href="#DejaVuSans-75"/>
      <use transform="translate(887.353516 0.015625)" xlink:href="#DejaVuSans-65"/>
      <use transform="translate(948.876953 0.015625)" xlink:href="#DejaVuSans-6e"/>
      <use transform="translate(1012.255859 0.015625)" xlink:href="#DejaVuSans-63"/>
      <use transform="translate(1067.236328 0.015625)" xlink:href="#DejaVuSans-79"/>
      <use transform="translate(1126.416016 0.015625)" xlink:href="#DejaVuSans-20"/>
      <use transform="translate(1158.203125 0.015625)" xlink:href="#DejaVuSans-3d"/>
      <use transform="translate(1241.992188 0.015625)" xlink:href="#DejaVuSans-20"/>
      <use transform="translate(1273.779297 0.015625)" xlink:href="#DejaVuSans-4d"/>
      <use transform="translate(1360.058594 0.015625)" xlink:href="#DejaVuSans-Oblique-66"/>
      <use transform="translate(1395.263672 -16.390625)scale(0.7)" xlink:href="#DejaVuSans-Oblique-69"/>
      <use transform="translate(1417.446289 0.015625)" xlink:href="#DejaVuSans-29"/>
     </g>
    </g>
   </g>
   <g id="matplotlib.axis_2">
    <g id="ytick_1">
     <g id="line2d_15">
      <path clip-path="url(#pd34bb0ccc0)" d="M 65.307812 244.591533 
L 531.154687 244.591533 
" style="fill:none;stroke:#b0b0b0;stroke-dasharray:0.8,1.32;stroke-dashoffset:0;stroke-width:0.8;"/>
     </g>
     <g id="line2d_16">
      <defs>
       <path d="M 0 0 
L -3.5 0 
" id="m15ccb6405e" style="stroke:#000000;stroke-width:0.8;"/>
      </defs>
      <g>
       <use style="stroke:#000000;stroke-width:0.8;" x="65.307812" xlink:href="#m15ccb6405e" y="244.591533"/>
      </g>
     </g>
     <g id="text_9">
      <!-- −1000 -->
      <defs>
       <path d="M 10.59375 35.5 
L 73.1875 35.5 
L 73.1875 27.203125 
L 10.59375 27.203125 
z
" id="DejaVuSans-2212"/>
      </defs>
      <g transform="translate(24.478125 248.390752)scale(0.1 -0.1)">
       <use xlink:href="#DejaVuSans-2212"/>
       <use x="83.789062" xlink:href="#DejaVuSans-31"/>
       <use x="147.412109" xlink:href="#DejaVuSans-30"/>
       <use x="211.035156" xlink:href="#DejaVuSans-30"/>
       <use x="274.658203" xlink:href="#DejaVuSans-30"/>
      </g>
     </g>
    </g>
    <g id="ytick_2">
     <g id="line2d_17">
      <path clip-path="url(#pd34bb0ccc0)" d="M 65.307812 211.023364 
L 531.154687 211.023364 
" style="fill:none;stroke:#b0b0b0;stroke-dasharray:0.8,1.32;stroke-dashoffset:0;stroke-width:0.8;"/>
     </g>
     <g id="line2d_18">
      <g>
       <use style="stroke:#000000;stroke-width:0.8;" x="65.307812" xlink:href="#m15ccb6405e" y="211.023364"/>
      </g>
     </g>
     <g id="text_10">
      <!-- 0 -->
      <g transform="translate(51.945312 214.822582)scale(0.1 -0.1)">
       <use xlink:href="#DejaVuSans-30"/>
      </g>
     </g>
    </g>
    <g id="ytick_3">
     <g id="line2d_19">
      <path clip-path="url(#pd34bb0ccc0)" d="M 65.307812 177.455194 
L 531.154687 177.455194 
" style="fill:none;stroke:#b0b0b0;stroke-dasharray:0.8,1.32;stroke-dashoffset:0;stroke-width:0.8;"/>
     </g>
     <g id="line2d_20">
      <g>
       <use style="stroke:#000000;stroke-width:0.8;" x="65.307812" xlink:href="#m15ccb6405e" y="177.455194"/>
      </g>
     </g>
     <g id="text_11">
      <!-- 1000 -->
      <g transform="translate(32.857812 181.254413)scale(0.1 -0.1)">
       <use xlink:href="#DejaVuSans-31"/>
       <use x="63.623047" xlink:href="#DejaVuSans-30"/>
       <use x="127.246094" xlink:href="#DejaVuSans-30"/>
       <use x="190.869141" xlink:href="#DejaVuSans-30"/>
      </g>
     </g>
    </g>
    <g id="ytick_4">
     <g id="line2d_21">
      <path clip-path="url(#pd34bb0ccc0)" d="M 65.307812 143.887024 
L 531.154687 143.887024 
" style="fill:none;stroke:#b0b0b0;stroke-dasharray:0.8,1.32;stroke-dashoffset:0;stroke-width:0.8;"/>
     </g>
     <g id="line2d_22">
      <g>
       <use style="stroke:#000000;stroke-width:0.8;" x="65.307812" xlink:href="#m15ccb6405e" y="143.887024"/>
      </g>
     </g>
     <g id="text_12">
      <!-- 2000 -->
      <g transform="translate(32.857812 147.686243)scale(0.1 -0.1)">
       <use xlink:href="#DejaVuSans-32"/>
       <use x="63.623047" xlink:href="#DejaVuSans-30"/>
       <use x="127.246094" xlink:href="#DejaVuSans-30"/>
       <use x="190.869141" xlink:href="#DejaVuSans-30"/>
      </g>
     </g>
    </g>
    <g id="ytick_5">
     <g id="line2d_23">
      <path clip-path="url(#pd34bb0ccc0)" d="M 65.307812 110.318855 
L 531.154687 110.318855 
" style="fill:none;stroke:#b0b0b0;stroke-dasharray:0.8,1.32;stroke-dashoffset:0;stroke-width:0.8;"/>
     </g>
     <g id="line2d_24">
      <g>
       <use style="stroke:#000000;stroke-width:0.8;" x="65.307812" xlink:href="#m15ccb6405e" y="110.318855"/>
      </g>
     </g>
     <g id="text_13">
      <!-- 3000 -->
      <defs>
       <path d="M 40.578125 39.3125 
Q 47.65625 37.796875 51.625 33 
Q 55.609375 28.21875 55.609375 21.1875 
Q 55.609375 10.40625 48.1875 4.484375 
Q 40.765625 -1.421875 27.09375 -1.421875 
Q 22.515625 -1.421875 17.65625 -0.515625 
Q 12.796875 0.390625 7.625 2.203125 
L 7.625 11.71875 
Q 11.71875 9.328125 16.59375 8.109375 
Q 21.484375 6.890625 26.8125 6.890625 
Q 36.078125 6.890625 40.9375 10.546875 
Q 45.796875 14.203125 45.796875 21.1875 
Q 45.796875 27.640625 41.28125 31.265625 
Q 36.765625 34.90625 28.71875 34.90625 
L 20.21875 34.90625 
L 20.21875 43.015625 
L 29.109375 43.015625 
Q 36.375 43.015625 40.234375 45.921875 
Q 44.09375 48.828125 44.09375 54.296875 
Q 44.09375 59.90625 40.109375 62.90625 
Q 36.140625 65.921875 28.71875 65.921875 
Q 24.65625 65.921875 20.015625 65.03125 
Q 15.375 64.15625 9.8125 62.3125 
L 9.8125 71.09375 
Q 15.4375 72.65625 20.34375 73.4375 
Q 25.25 74.21875 29.59375 74.21875 
Q 40.828125 74.21875 47.359375 69.109375 
Q 53.90625 64.015625 53.90625 55.328125 
Q 53.90625 49.265625 50.4375 45.09375 
Q 46.96875 40.921875 40.578125 39.3125 
z
" id="DejaVuSans-33"/>
      </defs>
      <g transform="translate(32.857812 114.118073)scale(0.1 -0.1)">
       <use xlink:href="#DejaVuSans-33"/>
       <use x="63.623047" xlink:href="#DejaVuSans-30"/>
       <use x="127.246094" xlink:href="#DejaVuSans-30"/>
       <use x="190.869141" xlink:href="#DejaVuSans-30"/>
      </g>
     </g>
    </g>
    <g id="ytick_6">
     <g id="line2d_25">
      <path clip-path="url(#pd34bb0ccc0)" d="M 65.307812 76.750685 
L 531.154687 76.750685 
" style="fill:none;stroke:#b0b0b0;stroke-dasharray:0.8,1.32;stroke-dashoffset:0;stroke-width:0.8;"/>
     </g>
     <g id="line2d_26">
      <g>
       <use style="stroke:#000000;stroke-width:0.8;" x="65.307812" xlink:href="#m15ccb6405e" y="76.750685"/>
      </g>
     </g>
     <g id="text_14">
      <!-- 4000 -->
      <g transform="translate(32.857812 80.549904)scale(0.1 -0.1)">
       <use xlink:href="#DejaVuSans-34"/>
       <use x="63.623047" xlink:href="#DejaVuSans-30"/>
       <use x="127.246094" xlink:href="#DejaVuSans-30"/>
       <use x="190.869141" xlink:href="#DejaVuSans-30"/>
      </g>
     </g>
    </g>
    <g id="ytick_7">
     <g id="line2d_27">
      <path clip-path="url(#pd34bb0ccc0)" d="M 65.307812 43.182515 
L 531.154687 43.182515 
" style="fill:none;stroke:#b0b0b0;stroke-dasharray:0.8,1.32;stroke-dashoffset:0;stroke-width:0.8;"/>
     </g>
     <g id="line2d_28">
      <g>
       <use style="stroke:#000000;stroke-width:0.8;" x="65.307812" xlink:href="#m15ccb6405e" y="43.182515"/>
      </g>
     </g>
     <g id="text_15">
      <!-- 5000 -->
      <defs>
       <path d="M 10.796875 72.90625 
L 49.515625 72.90625 
L 49.515625 64.59375 
L 19.828125 64.59375 
L 19.828125 46.734375 
Q 21.96875 47.46875 24.109375 47.828125 
Q 26.265625 48.1875 28.421875 48.1875 
Q 40.625 48.1875 47.75 41.5 
Q 54.890625 34.8125 54.890625 23.390625 
Q 54.890625 11.625 47.5625 5.09375 
Q 40.234375 -1.421875 26.90625 -1.421875 
Q 22.3125 -1.421875 17.546875 -0.640625 
Q 12.796875 0.140625 7.71875 1.703125 
L 7.71875 11.625 
Q 12.109375 9.234375 16.796875 8.0625 
Q 21.484375 6.890625 26.703125 6.890625 
Q 35.15625 6.890625 40.078125 11.328125 
Q 45.015625 15.765625 45.015625 23.390625 
Q 45.015625 31 40.078125 35.4375 
Q 35.15625 39.890625 26.703125 39.890625 
Q 22.75 39.890625 18.8125 39.015625 
Q 14.890625 38.140625 10.796875 36.28125 
z
" id="DejaVuSans-35"/>
      </defs>
      <g transform="translate(32.857812 46.981734)scale(0.1 -0.1)">
       <use xlink:href="#DejaVuSans-35"/>
       <use x="63.623047" xlink:href="#DejaVuSans-30"/>
       <use x="127.246094" xlink:href="#DejaVuSans-30"/>
       <use x="190.869141" xlink:href="#DejaVuSans-30"/>
      </g>
     </g>
    </g>
    <g id="text_16">
     <!-- d12 -->
     <defs>
      <path d="M 45.40625 46.390625 
L 45.40625 75.984375 
L 54.390625 75.984375 
L 54.390625 0 
L 45.40625 0 
L 45.40625 8.203125 
Q 42.578125 3.328125 38.25 0.953125 
Q 33.9375 -1.421875 27.875 -1.421875 
Q 17.96875 -1.421875 11.734375 6.484375 
Q 5.515625 14.40625 5.515625 27.296875 
Q 5.515625 40.1875 11.734375 48.09375 
Q 17.96875 56 27.875 56 
Q 33.9375 56 38.25 53.625 
Q 42.578125 51.265625 45.40625 46.390625 
z
M 14.796875 27.296875 
Q 14.796875 17.390625 18.875 11.75 
Q 22.953125 6.109375 30.078125 6.109375 
Q 37.203125 6.109375 41.296875 11.75 
Q 45.40625 17.390625 45.40625 27.296875 
Q 45.40625 37.203125 41.296875 42.84375 
Q 37.203125 48.484375 30.078125 48.484375 
Q 22.953125 48.484375 18.875 42.84375 
Q 14.796875 37.203125 14.796875 27.296875 
z
" id="DejaVuSans-64"/>
     </defs>
     <g transform="translate(18.398438 153.927266)rotate(-90)scale(0.1 -0.1)">
      <use xlink:href="#DejaVuSans-64"/>
      <use x="63.476562" xlink:href="#DejaVuSans-31"/>
      <use x="127.099609" xlink:href="#DejaVuSans-32"/>
     </g>
    </g>
   </g>
   <g id="line2d_29">
    <defs>
     <path d="M 0 3 
C 0.795609 3 1.55874 2.683901 2.12132 2.12132 
C 2.683901 1.55874 3 0.795609 3 0 
C 3 -0.795609 2.683901 -1.55874 2.12132 -2.12132 
C 1.55874 -2.683901 0.795609 -3 0 -3 
C -0.795609 -3 -1.55874 -2.683901 -2.12132 -2.12132 
C -2.683901 -1.55874 -3 -0.795609 -3 0 
C -3 0.795609 -2.683901 1.55874 -2.12132 2.12132 
C -1.55874 2.683901 -0.795609 3 0 3 
z
" id="m9f0507f92d" style="stroke:#1f77b4;"/>
    </defs>
    <g clip-path="url(#pd34bb0ccc0)">
     <use style="fill:#1f77b4;stroke:#1f77b4;" x="86.48267" xlink:href="#m9f0507f92d" y="121.463487"/>
     <use style="fill:#1f77b4;stroke:#1f77b4;" x="90.011813" xlink:href="#m9f0507f92d" y="211.023364"/>
     <use style="fill:#1f77b4;stroke:#1f77b4;" x="93.540956" xlink:href="#m9f0507f92d" y="211.023364"/>
     <use style="fill:#1f77b4;stroke:#1f77b4;" x="97.070099" xlink:href="#m9f0507f92d" y="211.023364"/>
     <use style="fill:#1f77b4;stroke:#1f77b4;" x="100.599242" xlink:href="#m9f0507f92d" y="211.023364"/>
     <use style="fill:#1f77b4;stroke:#1f77b4;" x="104.128385" xlink:href="#m9f0507f92d" y="211.023364"/>
     <use style="fill:#1f77b4;stroke:#1f77b4;" x="107.657528" xlink:href="#m9f0507f92d" y="211.023364"/>
     <use style="fill:#1f77b4;stroke:#1f77b4;" x="111.186671" xlink:href="#m9f0507f92d" y="211.023364"/>
     <use style="fill:#1f77b4;stroke:#1f77b4;" x="114.715814" xlink:href="#m9f0507f92d" y="211.023364"/>
     <use style="fill:#1f77b4;stroke:#1f77b4;" x="118.244957" xlink:href="#m9f0507f92d" y="211.023364"/>
     <use style="fill:#1f77b4;stroke:#1f77b4;" x="121.7741" xlink:href="#m9f0507f92d" y="211.023364"/>
     <use style="fill:#1f77b4;stroke:#1f77b4;" x="125.303243" xlink:href="#m9f0507f92d" y="211.023364"/>
     <use style="fill:#1f77b4;stroke:#1f77b4;" x="128.832386" xlink:href="#m9f0507f92d" y="228.579516"/>
     <use style="fill:#1f77b4;stroke:#1f77b4;" x="132.361529" xlink:href="#m9f0507f92d" y="211.023364"/>
     <use style="fill:#1f77b4;stroke:#1f77b4;" x="135.890672" xlink:href="#m9f0507f92d" y="211.023364"/>
     <use style="fill:#1f77b4;stroke:#1f77b4;" x="139.419815" xlink:href="#m9f0507f92d" y="211.023364"/>
     <use style="fill:#1f77b4;stroke:#1f77b4;" x="142.948958" xlink:href="#m9f0507f92d" y="211.023364"/>
     <use style="fill:#1f77b4;stroke:#1f77b4;" x="146.478101" xlink:href="#m9f0507f92d" y="211.023364"/>
     <use style="fill:#1f77b4;stroke:#1f77b4;" x="150.007244" xlink:href="#m9f0507f92d" y="211.023364"/>
     <use style="fill:#1f77b4;stroke:#1f77b4;" x="153.536387" xlink:href="#m9f0507f92d" y="211.023364"/>
     <use style="fill:#1f77b4;stroke:#1f77b4;" x="157.06553" xlink:href="#m9f0507f92d" y="211.023364"/>
     <use style="fill:#1f77b4;stroke:#1f77b4;" x="160.594673" xlink:href="#m9f0507f92d" y="211.023364"/>
     <use style="fill:#1f77b4;stroke:#1f77b4;" x="164.123816" xlink:href="#m9f0507f92d" y="211.023364"/>
     <use style="fill:#1f77b4;stroke:#1f77b4;" x="167.652959" xlink:href="#m9f0507f92d" y="211.023364"/>
     <use style="fill:#1f77b4;stroke:#1f77b4;" x="171.182102" xlink:href="#m9f0507f92d" y="262.382663"/>
     <use style="fill:#1f77b4;stroke:#1f77b4;" x="174.711245" xlink:href="#m9f0507f92d" y="211.023364"/>
     <use style="fill:#1f77b4;stroke:#1f77b4;" x="178.240388" xlink:href="#m9f0507f92d" y="211.023364"/>
     <use style="fill:#1f77b4;stroke:#1f77b4;" x="181.769531" xlink:href="#m9f0507f92d" y="211.023364"/>
     <use style="fill:#1f77b4;stroke:#1f77b4;" x="185.298674" xlink:href="#m9f0507f92d" y="211.023364"/>
     <use style="fill:#1f77b4;stroke:#1f77b4;" x="188.827817" xlink:href="#m9f0507f92d" y="211.023364"/>
     <use style="fill:#1f77b4;stroke:#1f77b4;" x="192.35696" xlink:href="#m9f0507f92d" y="211.023364"/>
     <use style="fill:#1f77b4;stroke:#1f77b4;" x="195.886103" xlink:href="#m9f0507f92d" y="211.023364"/>
     <use style="fill:#1f77b4;stroke:#1f77b4;" x="199.415246" xlink:href="#m9f0507f92d" y="211.023364"/>
     <use style="fill:#1f77b4;stroke:#1f77b4;" x="202.944389" xlink:href="#m9f0507f92d" y="211.023364"/>
     <use style="fill:#1f77b4;stroke:#1f77b4;" x="206.473532" xlink:href="#m9f0507f92d" y="211.023364"/>
     <use style="fill:#1f77b4;stroke:#1f77b4;" x="210.002675" xlink:href="#m9f0507f92d" y="211.023364"/>
     <use style="fill:#1f77b4;stroke:#1f77b4;" x="213.531818" xlink:href="#m9f0507f92d" y="232.070606"/>
     <use style="fill:#1f77b4;stroke:#1f77b4;" x="217.060961" xlink:href="#m9f0507f92d" y="211.023364"/>
     <use style="fill:#1f77b4;stroke:#1f77b4;" x="220.590104" xlink:href="#m9f0507f92d" y="211.023364"/>
     <use style="fill:#1f77b4;stroke:#1f77b4;" x="224.119247" xlink:href="#m9f0507f92d" y="211.023364"/>
     <use style="fill:#1f77b4;stroke:#1f77b4;" x="227.64839" xlink:href="#m9f0507f92d" y="211.023364"/>
     <use style="fill:#1f77b4;stroke:#1f77b4;" x="231.177533" xlink:href="#m9f0507f92d" y="211.023364"/>
     <use style="fill:#1f77b4;stroke:#1f77b4;" x="234.706676" xlink:href="#m9f0507f92d" y="211.023364"/>
     <use style="fill:#1f77b4;stroke:#1f77b4;" x="238.235819" xlink:href="#m9f0507f92d" y="211.023364"/>
     <use style="fill:#1f77b4;stroke:#1f77b4;" x="241.764962" xlink:href="#m9f0507f92d" y="211.023364"/>
     <use style="fill:#1f77b4;stroke:#1f77b4;" x="245.294105" xlink:href="#m9f0507f92d" y="211.023364"/>
     <use style="fill:#1f77b4;stroke:#1f77b4;" x="248.823248" xlink:href="#m9f0507f92d" y="211.023364"/>
     <use style="fill:#1f77b4;stroke:#1f77b4;" x="252.352391" xlink:href="#m9f0507f92d" y="211.023364"/>
     <use style="fill:#1f77b4;stroke:#1f77b4;" x="255.881534" xlink:href="#m9f0507f92d" y="165.303517"/>
     <use style="fill:#1f77b4;stroke:#1f77b4;" x="259.410677" xlink:href="#m9f0507f92d" y="211.023364"/>
     <use style="fill:#1f77b4;stroke:#1f77b4;" x="262.93982" xlink:href="#m9f0507f92d" y="211.023364"/>
     <use style="fill:#1f77b4;stroke:#1f77b4;" x="266.468963" xlink:href="#m9f0507f92d" y="211.023364"/>
     <use style="fill:#1f77b4;stroke:#1f77b4;" x="269.998106" xlink:href="#m9f0507f92d" y="211.023364"/>
     <use style="fill:#1f77b4;stroke:#1f77b4;" x="273.527249" xlink:href="#m9f0507f92d" y="211.023364"/>
     <use style="fill:#1f77b4;stroke:#1f77b4;" x="277.056392" xlink:href="#m9f0507f92d" y="211.023364"/>
     <use style="fill:#1f77b4;stroke:#1f77b4;" x="280.585535" xlink:href="#m9f0507f92d" y="211.023364"/>
     <use style="fill:#1f77b4;stroke:#1f77b4;" x="284.114678" xlink:href="#m9f0507f92d" y="211.023364"/>
     <use style="fill:#1f77b4;stroke:#1f77b4;" x="287.643821" xlink:href="#m9f0507f92d" y="211.023364"/>
     <use style="fill:#1f77b4;stroke:#1f77b4;" x="291.172964" xlink:href="#m9f0507f92d" y="211.023364"/>
     <use style="fill:#1f77b4;stroke:#1f77b4;" x="294.702107" xlink:href="#m9f0507f92d" y="211.023364"/>
     <use style="fill:#1f77b4;stroke:#1f77b4;" x="298.23125" xlink:href="#m9f0507f92d" y="97.529382"/>
     <use style="fill:#1f77b4;stroke:#1f77b4;" x="301.760393" xlink:href="#m9f0507f92d" y="211.023364"/>
     <use style="fill:#1f77b4;stroke:#1f77b4;" x="305.289536" xlink:href="#m9f0507f92d" y="211.023364"/>
     <use style="fill:#1f77b4;stroke:#1f77b4;" x="308.818679" xlink:href="#m9f0507f92d" y="211.023364"/>
     <use style="fill:#1f77b4;stroke:#1f77b4;" x="312.347822" xlink:href="#m9f0507f92d" y="211.023364"/>
     <use style="fill:#1f77b4;stroke:#1f77b4;" x="315.876965" xlink:href="#m9f0507f92d" y="211.023364"/>
     <use style="fill:#1f77b4;stroke:#1f77b4;" x="319.406108" xlink:href="#m9f0507f92d" y="211.023364"/>
     <use style="fill:#1f77b4;stroke:#1f77b4;" x="322.935251" xlink:href="#m9f0507f92d" y="211.023364"/>
     <use style="fill:#1f77b4;stroke:#1f77b4;" x="326.464394" xlink:href="#m9f0507f92d" y="211.023364"/>
     <use style="fill:#1f77b4;stroke:#1f77b4;" x="329.993537" xlink:href="#m9f0507f92d" y="211.023364"/>
     <use style="fill:#1f77b4;stroke:#1f77b4;" x="333.52268" xlink:href="#m9f0507f92d" y="211.023364"/>
     <use style="fill:#1f77b4;stroke:#1f77b4;" x="337.051823" xlink:href="#m9f0507f92d" y="211.023364"/>
     <use style="fill:#1f77b4;stroke:#1f77b4;" x="340.580966" xlink:href="#m9f0507f92d" y="68.996438"/>
     <use style="fill:#1f77b4;stroke:#1f77b4;" x="344.110109" xlink:href="#m9f0507f92d" y="211.023364"/>
     <use style="fill:#1f77b4;stroke:#1f77b4;" x="347.639252" xlink:href="#m9f0507f92d" y="211.023364"/>
     <use style="fill:#1f77b4;stroke:#1f77b4;" x="351.168395" xlink:href="#m9f0507f92d" y="211.023364"/>
     <use style="fill:#1f77b4;stroke:#1f77b4;" x="354.697538" xlink:href="#m9f0507f92d" y="211.023364"/>
     <use style="fill:#1f77b4;stroke:#1f77b4;" x="358.226681" xlink:href="#m9f0507f92d" y="211.023364"/>
     <use style="fill:#1f77b4;stroke:#1f77b4;" x="361.755824" xlink:href="#m9f0507f92d" y="211.023364"/>
     <use style="fill:#1f77b4;stroke:#1f77b4;" x="365.284967" xlink:href="#m9f0507f92d" y="211.023364"/>
     <use style="fill:#1f77b4;stroke:#1f77b4;" x="368.81411" xlink:href="#m9f0507f92d" y="211.023364"/>
     <use style="fill:#1f77b4;stroke:#1f77b4;" x="372.343253" xlink:href="#m9f0507f92d" y="211.023364"/>
     <use style="fill:#1f77b4;stroke:#1f77b4;" x="375.872396" xlink:href="#m9f0507f92d" y="211.023364"/>
     <use style="fill:#1f77b4;stroke:#1f77b4;" x="379.401539" xlink:href="#m9f0507f92d" y="211.023364"/>
     <use style="fill:#1f77b4;stroke:#1f77b4;" x="382.930682" xlink:href="#m9f0507f92d" y="98.100041"/>
     <use style="fill:#1f77b4;stroke:#1f77b4;" x="386.459825" xlink:href="#m9f0507f92d" y="211.023364"/>
     <use style="fill:#1f77b4;stroke:#1f77b4;" x="389.988968" xlink:href="#m9f0507f92d" y="211.023364"/>
     <use style="fill:#1f77b4;stroke:#1f77b4;" x="393.518111" xlink:href="#m9f0507f92d" y="211.023364"/>
     <use style="fill:#1f77b4;stroke:#1f77b4;" x="397.047254" xlink:href="#m9f0507f92d" y="211.023364"/>
     <use style="fill:#1f77b4;stroke:#1f77b4;" x="400.576397" xlink:href="#m9f0507f92d" y="211.023364"/>
     <use style="fill:#1f77b4;stroke:#1f77b4;" x="404.10554" xlink:href="#m9f0507f92d" y="211.023364"/>
     <use style="fill:#1f77b4;stroke:#1f77b4;" x="407.634683" xlink:href="#m9f0507f92d" y="211.023364"/>
     <use style="fill:#1f77b4;stroke:#1f77b4;" x="411.163826" xlink:href="#m9f0507f92d" y="211.023364"/>
     <use style="fill:#1f77b4;stroke:#1f77b4;" x="414.692969" xlink:href="#m9f0507f92d" y="211.023364"/>
     <use style="fill:#1f77b4;stroke:#1f77b4;" x="418.222112" xlink:href="#m9f0507f92d" y="211.023364"/>
     <use style="fill:#1f77b4;stroke:#1f77b4;" x="421.751255" xlink:href="#m9f0507f92d" y="211.023364"/>
     <use style="fill:#1f77b4;stroke:#1f77b4;" x="425.280398" xlink:href="#m9f0507f92d" y="156.07227"/>
     <use style="fill:#1f77b4;stroke:#1f77b4;" x="428.809541" xlink:href="#m9f0507f92d" y="211.023364"/>
     <use style="fill:#1f77b4;stroke:#1f77b4;" x="432.338684" xlink:href="#m9f0507f92d" y="211.023364"/>
     <use style="fill:#1f77b4;stroke:#1f77b4;" x="435.867827" xlink:href="#m9f0507f92d" y="211.023364"/>
     <use style="fill:#1f77b4;stroke:#1f77b4;" x="439.39697" xlink:href="#m9f0507f92d" y="211.023364"/>
     <use style="fill:#1f77b4;stroke:#1f77b4;" x="442.926113" xlink:href="#m9f0507f92d" y="211.023364"/>
     <use style="fill:#1f77b4;stroke:#1f77b4;" x="446.455256" xlink:href="#m9f0507f92d" y="211.023364"/>
     <use style="fill:#1f77b4;stroke:#1f77b4;" x="449.984399" xlink:href="#m9f0507f92d" y="211.023364"/>
     <use style="fill:#1f77b4;stroke:#1f77b4;" x="453.513542" xlink:href="#m9f0507f92d" y="211.023364"/>
     <use style="fill:#1f77b4;stroke:#1f77b4;" x="457.042685" xlink:href="#m9f0507f92d" y="211.023364"/>
     <use style="fill:#1f77b4;stroke:#1f77b4;" x="460.571828" xlink:href="#m9f0507f92d" y="211.023364"/>
     <use style="fill:#1f77b4;stroke:#1f77b4;" x="464.100971" xlink:href="#m9f0507f92d" y="211.023364"/>
     <use style="fill:#1f77b4;stroke:#1f77b4;" x="467.630114" xlink:href="#m9f0507f92d" y="187.995599"/>
     <use style="fill:#1f77b4;stroke:#1f77b4;" x="471.159257" xlink:href="#m9f0507f92d" y="211.023364"/>
     <use style="fill:#1f77b4;stroke:#1f77b4;" x="474.6884" xlink:href="#m9f0507f92d" y="211.023364"/>
     <use style="fill:#1f77b4;stroke:#1f77b4;" x="478.217543" xlink:href="#m9f0507f92d" y="211.023364"/>
     <use style="fill:#1f77b4;stroke:#1f77b4;" x="481.746686" xlink:href="#m9f0507f92d" y="211.023364"/>
     <use style="fill:#1f77b4;stroke:#1f77b4;" x="485.275829" xlink:href="#m9f0507f92d" y="211.023364"/>
     <use style="fill:#1f77b4;stroke:#1f77b4;" x="488.804972" xlink:href="#m9f0507f92d" y="211.023364"/>
     <use style="fill:#1f77b4;stroke:#1f77b4;" x="492.334115" xlink:href="#m9f0507f92d" y="211.023364"/>
     <use style="fill:#1f77b4;stroke:#1f77b4;" x="495.863258" xlink:href="#m9f0507f92d" y="211.023364"/>
     <use style="fill:#1f77b4;stroke:#1f77b4;" x="499.392401" xlink:href="#m9f0507f92d" y="211.023364"/>
     <use style="fill:#1f77b4;stroke:#1f77b4;" x="502.921544" xlink:href="#m9f0507f92d" y="211.023364"/>
     <use style="fill:#1f77b4;stroke:#1f77b4;" x="506.450687" xlink:href="#m9f0507f92d" y="211.023364"/>
     <use style="fill:#1f77b4;stroke:#1f77b4;" x="509.97983" xlink:href="#m9f0507f92d" y="174.870445"/>
    </g>
   </g>
   <g id="line2d_30">
    <path clip-path="url(#pd34bb0ccc0)" d="M 86.48267 211.023364 
L 86.48267 121.463487 
" style="fill:none;stroke:#1f77b4;stroke-linecap:square;stroke-width:1.5;"/>
   </g>
   <g id="line2d_31">
    <path clip-path="url(#pd34bb0ccc0)" d="M 90.011813 211.023364 
L 90.011813 211.023364 
" style="fill:none;stroke:#1f77b4;stroke-linecap:square;stroke-width:1.5;"/>
   </g>
   <g id="line2d_32">
    <path clip-path="url(#pd34bb0ccc0)" d="M 93.540956 211.023364 
L 93.540956 211.023364 
" style="fill:none;stroke:#1f77b4;stroke-linecap:square;stroke-width:1.5;"/>
   </g>
   <g id="line2d_33">
    <path clip-path="url(#pd34bb0ccc0)" d="M 97.070099 211.023364 
L 97.070099 211.023364 
" style="fill:none;stroke:#1f77b4;stroke-linecap:square;stroke-width:1.5;"/>
   </g>
   <g id="line2d_34">
    <path clip-path="url(#pd34bb0ccc0)" d="M 100.599242 211.023364 
L 100.599242 211.023364 
" style="fill:none;stroke:#1f77b4;stroke-linecap:square;stroke-width:1.5;"/>
   </g>
   <g id="line2d_35">
    <path clip-path="url(#pd34bb0ccc0)" d="M 104.128385 211.023364 
L 104.128385 211.023364 
" style="fill:none;stroke:#1f77b4;stroke-linecap:square;stroke-width:1.5;"/>
   </g>
   <g id="line2d_36">
    <path clip-path="url(#pd34bb0ccc0)" d="M 107.657528 211.023364 
L 107.657528 211.023364 
" style="fill:none;stroke:#1f77b4;stroke-linecap:square;stroke-width:1.5;"/>
   </g>
   <g id="line2d_37">
    <path clip-path="url(#pd34bb0ccc0)" d="M 111.186671 211.023364 
L 111.186671 211.023364 
" style="fill:none;stroke:#1f77b4;stroke-linecap:square;stroke-width:1.5;"/>
   </g>
   <g id="line2d_38">
    <path clip-path="url(#pd34bb0ccc0)" d="M 114.715814 211.023364 
L 114.715814 211.023364 
" style="fill:none;stroke:#1f77b4;stroke-linecap:square;stroke-width:1.5;"/>
   </g>
   <g id="line2d_39">
    <path clip-path="url(#pd34bb0ccc0)" d="M 118.244957 211.023364 
L 118.244957 211.023364 
" style="fill:none;stroke:#1f77b4;stroke-linecap:square;stroke-width:1.5;"/>
   </g>
   <g id="line2d_40">
    <path clip-path="url(#pd34bb0ccc0)" d="M 121.7741 211.023364 
L 121.7741 211.023364 
" style="fill:none;stroke:#1f77b4;stroke-linecap:square;stroke-width:1.5;"/>
   </g>
   <g id="line2d_41">
    <path clip-path="url(#pd34bb0ccc0)" d="M 125.303243 211.023364 
L 125.303243 211.023364 
" style="fill:none;stroke:#1f77b4;stroke-linecap:square;stroke-width:1.5;"/>
   </g>
   <g id="line2d_42">
    <path clip-path="url(#pd34bb0ccc0)" d="M 128.832386 211.023364 
L 128.832386 228.579516 
" style="fill:none;stroke:#1f77b4;stroke-linecap:square;stroke-width:1.5;"/>
   </g>
   <g id="line2d_43">
    <path clip-path="url(#pd34bb0ccc0)" d="M 132.361529 211.023364 
L 132.361529 211.023364 
" style="fill:none;stroke:#1f77b4;stroke-linecap:square;stroke-width:1.5;"/>
   </g>
   <g id="line2d_44">
    <path clip-path="url(#pd34bb0ccc0)" d="M 135.890672 211.023364 
L 135.890672 211.023364 
" style="fill:none;stroke:#1f77b4;stroke-linecap:square;stroke-width:1.5;"/>
   </g>
   <g id="line2d_45">
    <path clip-path="url(#pd34bb0ccc0)" d="M 139.419815 211.023364 
L 139.419815 211.023364 
" style="fill:none;stroke:#1f77b4;stroke-linecap:square;stroke-width:1.5;"/>
   </g>
   <g id="line2d_46">
    <path clip-path="url(#pd34bb0ccc0)" d="M 142.948958 211.023364 
L 142.948958 211.023364 
" style="fill:none;stroke:#1f77b4;stroke-linecap:square;stroke-width:1.5;"/>
   </g>
   <g id="line2d_47">
    <path clip-path="url(#pd34bb0ccc0)" d="M 146.478101 211.023364 
L 146.478101 211.023364 
" style="fill:none;stroke:#1f77b4;stroke-linecap:square;stroke-width:1.5;"/>
   </g>
   <g id="line2d_48">
    <path clip-path="url(#pd34bb0ccc0)" d="M 150.007244 211.023364 
L 150.007244 211.023364 
" style="fill:none;stroke:#1f77b4;stroke-linecap:square;stroke-width:1.5;"/>
   </g>
   <g id="line2d_49">
    <path clip-path="url(#pd34bb0ccc0)" d="M 153.536387 211.023364 
L 153.536387 211.023364 
" style="fill:none;stroke:#1f77b4;stroke-linecap:square;stroke-width:1.5;"/>
   </g>
   <g id="line2d_50">
    <path clip-path="url(#pd34bb0ccc0)" d="M 157.06553 211.023364 
L 157.06553 211.023364 
" style="fill:none;stroke:#1f77b4;stroke-linecap:square;stroke-width:1.5;"/>
   </g>
   <g id="line2d_51">
    <path clip-path="url(#pd34bb0ccc0)" d="M 160.594673 211.023364 
L 160.594673 211.023364 
" style="fill:none;stroke:#1f77b4;stroke-linecap:square;stroke-width:1.5;"/>
   </g>
   <g id="line2d_52">
    <path clip-path="url(#pd34bb0ccc0)" d="M 164.123816 211.023364 
L 164.123816 211.023364 
" style="fill:none;stroke:#1f77b4;stroke-linecap:square;stroke-width:1.5;"/>
   </g>
   <g id="line2d_53">
    <path clip-path="url(#pd34bb0ccc0)" d="M 167.652959 211.023364 
L 167.652959 211.023364 
" style="fill:none;stroke:#1f77b4;stroke-linecap:square;stroke-width:1.5;"/>
   </g>
   <g id="line2d_54">
    <path clip-path="url(#pd34bb0ccc0)" d="M 171.182102 211.023364 
L 171.182102 262.382663 
" style="fill:none;stroke:#1f77b4;stroke-linecap:square;stroke-width:1.5;"/>
   </g>
   <g id="line2d_55">
    <path clip-path="url(#pd34bb0ccc0)" d="M 174.711245 211.023364 
L 174.711245 211.023364 
" style="fill:none;stroke:#1f77b4;stroke-linecap:square;stroke-width:1.5;"/>
   </g>
   <g id="line2d_56">
    <path clip-path="url(#pd34bb0ccc0)" d="M 178.240388 211.023364 
L 178.240388 211.023364 
" style="fill:none;stroke:#1f77b4;stroke-linecap:square;stroke-width:1.5;"/>
   </g>
   <g id="line2d_57">
    <path clip-path="url(#pd34bb0ccc0)" d="M 181.769531 211.023364 
L 181.769531 211.023364 
" style="fill:none;stroke:#1f77b4;stroke-linecap:square;stroke-width:1.5;"/>
   </g>
   <g id="line2d_58">
    <path clip-path="url(#pd34bb0ccc0)" d="M 185.298674 211.023364 
L 185.298674 211.023364 
" style="fill:none;stroke:#1f77b4;stroke-linecap:square;stroke-width:1.5;"/>
   </g>
   <g id="line2d_59">
    <path clip-path="url(#pd34bb0ccc0)" d="M 188.827817 211.023364 
L 188.827817 211.023364 
" style="fill:none;stroke:#1f77b4;stroke-linecap:square;stroke-width:1.5;"/>
   </g>
   <g id="line2d_60">
    <path clip-path="url(#pd34bb0ccc0)" d="M 192.35696 211.023364 
L 192.35696 211.023364 
" style="fill:none;stroke:#1f77b4;stroke-linecap:square;stroke-width:1.5;"/>
   </g>
   <g id="line2d_61">
    <path clip-path="url(#pd34bb0ccc0)" d="M 195.886103 211.023364 
L 195.886103 211.023364 
" style="fill:none;stroke:#1f77b4;stroke-linecap:square;stroke-width:1.5;"/>
   </g>
   <g id="line2d_62">
    <path clip-path="url(#pd34bb0ccc0)" d="M 199.415246 211.023364 
L 199.415246 211.023364 
" style="fill:none;stroke:#1f77b4;stroke-linecap:square;stroke-width:1.5;"/>
   </g>
   <g id="line2d_63">
    <path clip-path="url(#pd34bb0ccc0)" d="M 202.944389 211.023364 
L 202.944389 211.023364 
" style="fill:none;stroke:#1f77b4;stroke-linecap:square;stroke-width:1.5;"/>
   </g>
   <g id="line2d_64">
    <path clip-path="url(#pd34bb0ccc0)" d="M 206.473532 211.023364 
L 206.473532 211.023364 
" style="fill:none;stroke:#1f77b4;stroke-linecap:square;stroke-width:1.5;"/>
   </g>
   <g id="line2d_65">
    <path clip-path="url(#pd34bb0ccc0)" d="M 210.002675 211.023364 
L 210.002675 211.023364 
" style="fill:none;stroke:#1f77b4;stroke-linecap:square;stroke-width:1.5;"/>
   </g>
   <g id="line2d_66">
    <path clip-path="url(#pd34bb0ccc0)" d="M 213.531818 211.023364 
L 213.531818 232.070606 
" style="fill:none;stroke:#1f77b4;stroke-linecap:square;stroke-width:1.5;"/>
   </g>
   <g id="line2d_67">
    <path clip-path="url(#pd34bb0ccc0)" d="M 217.060961 211.023364 
L 217.060961 211.023364 
" style="fill:none;stroke:#1f77b4;stroke-linecap:square;stroke-width:1.5;"/>
   </g>
   <g id="line2d_68">
    <path clip-path="url(#pd34bb0ccc0)" d="M 220.590104 211.023364 
L 220.590104 211.023364 
" style="fill:none;stroke:#1f77b4;stroke-linecap:square;stroke-width:1.5;"/>
   </g>
   <g id="line2d_69">
    <path clip-path="url(#pd34bb0ccc0)" d="M 224.119247 211.023364 
L 224.119247 211.023364 
" style="fill:none;stroke:#1f77b4;stroke-linecap:square;stroke-width:1.5;"/>
   </g>
   <g id="line2d_70">
    <path clip-path="url(#pd34bb0ccc0)" d="M 227.64839 211.023364 
L 227.64839 211.023364 
" style="fill:none;stroke:#1f77b4;stroke-linecap:square;stroke-width:1.5;"/>
   </g>
   <g id="line2d_71">
    <path clip-path="url(#pd34bb0ccc0)" d="M 231.177533 211.023364 
L 231.177533 211.023364 
" style="fill:none;stroke:#1f77b4;stroke-linecap:square;stroke-width:1.5;"/>
   </g>
   <g id="line2d_72">
    <path clip-path="url(#pd34bb0ccc0)" d="M 234.706676 211.023364 
L 234.706676 211.023364 
" style="fill:none;stroke:#1f77b4;stroke-linecap:square;stroke-width:1.5;"/>
   </g>
   <g id="line2d_73">
    <path clip-path="url(#pd34bb0ccc0)" d="M 238.235819 211.023364 
L 238.235819 211.023364 
" style="fill:none;stroke:#1f77b4;stroke-linecap:square;stroke-width:1.5;"/>
   </g>
   <g id="line2d_74">
    <path clip-path="url(#pd34bb0ccc0)" d="M 241.764962 211.023364 
L 241.764962 211.023364 
" style="fill:none;stroke:#1f77b4;stroke-linecap:square;stroke-width:1.5;"/>
   </g>
   <g id="line2d_75">
    <path clip-path="url(#pd34bb0ccc0)" d="M 245.294105 211.023364 
L 245.294105 211.023364 
" style="fill:none;stroke:#1f77b4;stroke-linecap:square;stroke-width:1.5;"/>
   </g>
   <g id="line2d_76">
    <path clip-path="url(#pd34bb0ccc0)" d="M 248.823248 211.023364 
L 248.823248 211.023364 
" style="fill:none;stroke:#1f77b4;stroke-linecap:square;stroke-width:1.5;"/>
   </g>
   <g id="line2d_77">
    <path clip-path="url(#pd34bb0ccc0)" d="M 252.352391 211.023364 
L 252.352391 211.023364 
" style="fill:none;stroke:#1f77b4;stroke-linecap:square;stroke-width:1.5;"/>
   </g>
   <g id="line2d_78">
    <path clip-path="url(#pd34bb0ccc0)" d="M 255.881534 211.023364 
L 255.881534 165.303517 
" style="fill:none;stroke:#1f77b4;stroke-linecap:square;stroke-width:1.5;"/>
   </g>
   <g id="line2d_79">
    <path clip-path="url(#pd34bb0ccc0)" d="M 259.410677 211.023364 
L 259.410677 211.023364 
" style="fill:none;stroke:#1f77b4;stroke-linecap:square;stroke-width:1.5;"/>
   </g>
   <g id="line2d_80">
    <path clip-path="url(#pd34bb0ccc0)" d="M 262.93982 211.023364 
L 262.93982 211.023364 
" style="fill:none;stroke:#1f77b4;stroke-linecap:square;stroke-width:1.5;"/>
   </g>
   <g id="line2d_81">
    <path clip-path="url(#pd34bb0ccc0)" d="M 266.468963 211.023364 
L 266.468963 211.023364 
" style="fill:none;stroke:#1f77b4;stroke-linecap:square;stroke-width:1.5;"/>
   </g>
   <g id="line2d_82">
    <path clip-path="url(#pd34bb0ccc0)" d="M 269.998106 211.023364 
L 269.998106 211.023364 
" style="fill:none;stroke:#1f77b4;stroke-linecap:square;stroke-width:1.5;"/>
   </g>
   <g id="line2d_83">
    <path clip-path="url(#pd34bb0ccc0)" d="M 273.527249 211.023364 
L 273.527249 211.023364 
" style="fill:none;stroke:#1f77b4;stroke-linecap:square;stroke-width:1.5;"/>
   </g>
   <g id="line2d_84">
    <path clip-path="url(#pd34bb0ccc0)" d="M 277.056392 211.023364 
L 277.056392 211.023364 
" style="fill:none;stroke:#1f77b4;stroke-linecap:square;stroke-width:1.5;"/>
   </g>
   <g id="line2d_85">
    <path clip-path="url(#pd34bb0ccc0)" d="M 280.585535 211.023364 
L 280.585535 211.023364 
" style="fill:none;stroke:#1f77b4;stroke-linecap:square;stroke-width:1.5;"/>
   </g>
   <g id="line2d_86">
    <path clip-path="url(#pd34bb0ccc0)" d="M 284.114678 211.023364 
L 284.114678 211.023364 
" style="fill:none;stroke:#1f77b4;stroke-linecap:square;stroke-width:1.5;"/>
   </g>
   <g id="line2d_87">
    <path clip-path="url(#pd34bb0ccc0)" d="M 287.643821 211.023364 
L 287.643821 211.023364 
" style="fill:none;stroke:#1f77b4;stroke-linecap:square;stroke-width:1.5;"/>
   </g>
   <g id="line2d_88">
    <path clip-path="url(#pd34bb0ccc0)" d="M 291.172964 211.023364 
L 291.172964 211.023364 
" style="fill:none;stroke:#1f77b4;stroke-linecap:square;stroke-width:1.5;"/>
   </g>
   <g id="line2d_89">
    <path clip-path="url(#pd34bb0ccc0)" d="M 294.702107 211.023364 
L 294.702107 211.023364 
" style="fill:none;stroke:#1f77b4;stroke-linecap:square;stroke-width:1.5;"/>
   </g>
   <g id="line2d_90">
    <path clip-path="url(#pd34bb0ccc0)" d="M 298.23125 211.023364 
L 298.23125 97.529382 
" style="fill:none;stroke:#1f77b4;stroke-linecap:square;stroke-width:1.5;"/>
   </g>
   <g id="line2d_91">
    <path clip-path="url(#pd34bb0ccc0)" d="M 301.760393 211.023364 
L 301.760393 211.023364 
" style="fill:none;stroke:#1f77b4;stroke-linecap:square;stroke-width:1.5;"/>
   </g>
   <g id="line2d_92">
    <path clip-path="url(#pd34bb0ccc0)" d="M 305.289536 211.023364 
L 305.289536 211.023364 
" style="fill:none;stroke:#1f77b4;stroke-linecap:square;stroke-width:1.5;"/>
   </g>
   <g id="line2d_93">
    <path clip-path="url(#pd34bb0ccc0)" d="M 308.818679 211.023364 
L 308.818679 211.023364 
" style="fill:none;stroke:#1f77b4;stroke-linecap:square;stroke-width:1.5;"/>
   </g>
   <g id="line2d_94">
    <path clip-path="url(#pd34bb0ccc0)" d="M 312.347822 211.023364 
L 312.347822 211.023364 
" style="fill:none;stroke:#1f77b4;stroke-linecap:square;stroke-width:1.5;"/>
   </g>
   <g id="line2d_95">
    <path clip-path="url(#pd34bb0ccc0)" d="M 315.876965 211.023364 
L 315.876965 211.023364 
" style="fill:none;stroke:#1f77b4;stroke-linecap:square;stroke-width:1.5;"/>
   </g>
   <g id="line2d_96">
    <path clip-path="url(#pd34bb0ccc0)" d="M 319.406108 211.023364 
L 319.406108 211.023364 
" style="fill:none;stroke:#1f77b4;stroke-linecap:square;stroke-width:1.5;"/>
   </g>
   <g id="line2d_97">
    <path clip-path="url(#pd34bb0ccc0)" d="M 322.935251 211.023364 
L 322.935251 211.023364 
" style="fill:none;stroke:#1f77b4;stroke-linecap:square;stroke-width:1.5;"/>
   </g>
   <g id="line2d_98">
    <path clip-path="url(#pd34bb0ccc0)" d="M 326.464394 211.023364 
L 326.464394 211.023364 
" style="fill:none;stroke:#1f77b4;stroke-linecap:square;stroke-width:1.5;"/>
   </g>
   <g id="line2d_99">
    <path clip-path="url(#pd34bb0ccc0)" d="M 329.993537 211.023364 
L 329.993537 211.023364 
" style="fill:none;stroke:#1f77b4;stroke-linecap:square;stroke-width:1.5;"/>
   </g>
   <g id="line2d_100">
    <path clip-path="url(#pd34bb0ccc0)" d="M 333.52268 211.023364 
L 333.52268 211.023364 
" style="fill:none;stroke:#1f77b4;stroke-linecap:square;stroke-width:1.5;"/>
   </g>
   <g id="line2d_101">
    <path clip-path="url(#pd34bb0ccc0)" d="M 337.051823 211.023364 
L 337.051823 211.023364 
" style="fill:none;stroke:#1f77b4;stroke-linecap:square;stroke-width:1.5;"/>
   </g>
   <g id="line2d_102">
    <path clip-path="url(#pd34bb0ccc0)" d="M 340.580966 211.023364 
L 340.580966 68.996438 
" style="fill:none;stroke:#1f77b4;stroke-linecap:square;stroke-width:1.5;"/>
   </g>
   <g id="line2d_103">
    <path clip-path="url(#pd34bb0ccc0)" d="M 344.110109 211.023364 
L 344.110109 211.023364 
" style="fill:none;stroke:#1f77b4;stroke-linecap:square;stroke-width:1.5;"/>
   </g>
   <g id="line2d_104">
    <path clip-path="url(#pd34bb0ccc0)" d="M 347.639252 211.023364 
L 347.639252 211.023364 
" style="fill:none;stroke:#1f77b4;stroke-linecap:square;stroke-width:1.5;"/>
   </g>
   <g id="line2d_105">
    <path clip-path="url(#pd34bb0ccc0)" d="M 351.168395 211.023364 
L 351.168395 211.023364 
" style="fill:none;stroke:#1f77b4;stroke-linecap:square;stroke-width:1.5;"/>
   </g>
   <g id="line2d_106">
    <path clip-path="url(#pd34bb0ccc0)" d="M 354.697538 211.023364 
L 354.697538 211.023364 
" style="fill:none;stroke:#1f77b4;stroke-linecap:square;stroke-width:1.5;"/>
   </g>
   <g id="line2d_107">
    <path clip-path="url(#pd34bb0ccc0)" d="M 358.226681 211.023364 
L 358.226681 211.023364 
" style="fill:none;stroke:#1f77b4;stroke-linecap:square;stroke-width:1.5;"/>
   </g>
   <g id="line2d_108">
    <path clip-path="url(#pd34bb0ccc0)" d="M 361.755824 211.023364 
L 361.755824 211.023364 
" style="fill:none;stroke:#1f77b4;stroke-linecap:square;stroke-width:1.5;"/>
   </g>
   <g id="line2d_109">
    <path clip-path="url(#pd34bb0ccc0)" d="M 365.284967 211.023364 
L 365.284967 211.023364 
" style="fill:none;stroke:#1f77b4;stroke-linecap:square;stroke-width:1.5;"/>
   </g>
   <g id="line2d_110">
    <path clip-path="url(#pd34bb0ccc0)" d="M 368.81411 211.023364 
L 368.81411 211.023364 
" style="fill:none;stroke:#1f77b4;stroke-linecap:square;stroke-width:1.5;"/>
   </g>
   <g id="line2d_111">
    <path clip-path="url(#pd34bb0ccc0)" d="M 372.343253 211.023364 
L 372.343253 211.023364 
" style="fill:none;stroke:#1f77b4;stroke-linecap:square;stroke-width:1.5;"/>
   </g>
   <g id="line2d_112">
    <path clip-path="url(#pd34bb0ccc0)" d="M 375.872396 211.023364 
L 375.872396 211.023364 
" style="fill:none;stroke:#1f77b4;stroke-linecap:square;stroke-width:1.5;"/>
   </g>
   <g id="line2d_113">
    <path clip-path="url(#pd34bb0ccc0)" d="M 379.401539 211.023364 
L 379.401539 211.023364 
" style="fill:none;stroke:#1f77b4;stroke-linecap:square;stroke-width:1.5;"/>
   </g>
   <g id="line2d_114">
    <path clip-path="url(#pd34bb0ccc0)" d="M 382.930682 211.023364 
L 382.930682 98.100041 
" style="fill:none;stroke:#1f77b4;stroke-linecap:square;stroke-width:1.5;"/>
   </g>
   <g id="line2d_115">
    <path clip-path="url(#pd34bb0ccc0)" d="M 386.459825 211.023364 
L 386.459825 211.023364 
" style="fill:none;stroke:#1f77b4;stroke-linecap:square;stroke-width:1.5;"/>
   </g>
   <g id="line2d_116">
    <path clip-path="url(#pd34bb0ccc0)" d="M 389.988968 211.023364 
L 389.988968 211.023364 
" style="fill:none;stroke:#1f77b4;stroke-linecap:square;stroke-width:1.5;"/>
   </g>
   <g id="line2d_117">
    <path clip-path="url(#pd34bb0ccc0)" d="M 393.518111 211.023364 
L 393.518111 211.023364 
" style="fill:none;stroke:#1f77b4;stroke-linecap:square;stroke-width:1.5;"/>
   </g>
   <g id="line2d_118">
    <path clip-path="url(#pd34bb0ccc0)" d="M 397.047254 211.023364 
L 397.047254 211.023364 
" style="fill:none;stroke:#1f77b4;stroke-linecap:square;stroke-width:1.5;"/>
   </g>
   <g id="line2d_119">
    <path clip-path="url(#pd34bb0ccc0)" d="M 400.576397 211.023364 
L 400.576397 211.023364 
" style="fill:none;stroke:#1f77b4;stroke-linecap:square;stroke-width:1.5;"/>
   </g>
   <g id="line2d_120">
    <path clip-path="url(#pd34bb0ccc0)" d="M 404.10554 211.023364 
L 404.10554 211.023364 
" style="fill:none;stroke:#1f77b4;stroke-linecap:square;stroke-width:1.5;"/>
   </g>
   <g id="line2d_121">
    <path clip-path="url(#pd34bb0ccc0)" d="M 407.634683 211.023364 
L 407.634683 211.023364 
" style="fill:none;stroke:#1f77b4;stroke-linecap:square;stroke-width:1.5;"/>
   </g>
   <g id="line2d_122">
    <path clip-path="url(#pd34bb0ccc0)" d="M 411.163826 211.023364 
L 411.163826 211.023364 
" style="fill:none;stroke:#1f77b4;stroke-linecap:square;stroke-width:1.5;"/>
   </g>
   <g id="line2d_123">
    <path clip-path="url(#pd34bb0ccc0)" d="M 414.692969 211.023364 
L 414.692969 211.023364 
" style="fill:none;stroke:#1f77b4;stroke-linecap:square;stroke-width:1.5;"/>
   </g>
   <g id="line2d_124">
    <path clip-path="url(#pd34bb0ccc0)" d="M 418.222112 211.023364 
L 418.222112 211.023364 
" style="fill:none;stroke:#1f77b4;stroke-linecap:square;stroke-width:1.5;"/>
   </g>
   <g id="line2d_125">
    <path clip-path="url(#pd34bb0ccc0)" d="M 421.751255 211.023364 
L 421.751255 211.023364 
" style="fill:none;stroke:#1f77b4;stroke-linecap:square;stroke-width:1.5;"/>
   </g>
   <g id="line2d_126">
    <path clip-path="url(#pd34bb0ccc0)" d="M 425.280398 211.023364 
L 425.280398 156.07227 
" style="fill:none;stroke:#1f77b4;stroke-linecap:square;stroke-width:1.5;"/>
   </g>
   <g id="line2d_127">
    <path clip-path="url(#pd34bb0ccc0)" d="M 428.809541 211.023364 
L 428.809541 211.023364 
" style="fill:none;stroke:#1f77b4;stroke-linecap:square;stroke-width:1.5;"/>
   </g>
   <g id="line2d_128">
    <path clip-path="url(#pd34bb0ccc0)" d="M 432.338684 211.023364 
L 432.338684 211.023364 
" style="fill:none;stroke:#1f77b4;stroke-linecap:square;stroke-width:1.5;"/>
   </g>
   <g id="line2d_129">
    <path clip-path="url(#pd34bb0ccc0)" d="M 435.867827 211.023364 
L 435.867827 211.023364 
" style="fill:none;stroke:#1f77b4;stroke-linecap:square;stroke-width:1.5;"/>
   </g>
   <g id="line2d_130">
    <path clip-path="url(#pd34bb0ccc0)" d="M 439.39697 211.023364 
L 439.39697 211.023364 
" style="fill:none;stroke:#1f77b4;stroke-linecap:square;stroke-width:1.5;"/>
   </g>
   <g id="line2d_131">
    <path clip-path="url(#pd34bb0ccc0)" d="M 442.926113 211.023364 
L 442.926113 211.023364 
" style="fill:none;stroke:#1f77b4;stroke-linecap:square;stroke-width:1.5;"/>
   </g>
   <g id="line2d_132">
    <path clip-path="url(#pd34bb0ccc0)" d="M 446.455256 211.023364 
L 446.455256 211.023364 
" style="fill:none;stroke:#1f77b4;stroke-linecap:square;stroke-width:1.5;"/>
   </g>
   <g id="line2d_133">
    <path clip-path="url(#pd34bb0ccc0)" d="M 449.984399 211.023364 
L 449.984399 211.023364 
" style="fill:none;stroke:#1f77b4;stroke-linecap:square;stroke-width:1.5;"/>
   </g>
   <g id="line2d_134">
    <path clip-path="url(#pd34bb0ccc0)" d="M 453.513542 211.023364 
L 453.513542 211.023364 
" style="fill:none;stroke:#1f77b4;stroke-linecap:square;stroke-width:1.5;"/>
   </g>
   <g id="line2d_135">
    <path clip-path="url(#pd34bb0ccc0)" d="M 457.042685 211.023364 
L 457.042685 211.023364 
" style="fill:none;stroke:#1f77b4;stroke-linecap:square;stroke-width:1.5;"/>
   </g>
   <g id="line2d_136">
    <path clip-path="url(#pd34bb0ccc0)" d="M 460.571828 211.023364 
L 460.571828 211.023364 
" style="fill:none;stroke:#1f77b4;stroke-linecap:square;stroke-width:1.5;"/>
   </g>
   <g id="line2d_137">
    <path clip-path="url(#pd34bb0ccc0)" d="M 464.100971 211.023364 
L 464.100971 211.023364 
" style="fill:none;stroke:#1f77b4;stroke-linecap:square;stroke-width:1.5;"/>
   </g>
   <g id="line2d_138">
    <path clip-path="url(#pd34bb0ccc0)" d="M 467.630114 211.023364 
L 467.630114 187.995599 
" style="fill:none;stroke:#1f77b4;stroke-linecap:square;stroke-width:1.5;"/>
   </g>
   <g id="line2d_139">
    <path clip-path="url(#pd34bb0ccc0)" d="M 471.159257 211.023364 
L 471.159257 211.023364 
" style="fill:none;stroke:#1f77b4;stroke-linecap:square;stroke-width:1.5;"/>
   </g>
   <g id="line2d_140">
    <path clip-path="url(#pd34bb0ccc0)" d="M 474.6884 211.023364 
L 474.6884 211.023364 
" style="fill:none;stroke:#1f77b4;stroke-linecap:square;stroke-width:1.5;"/>
   </g>
   <g id="line2d_141">
    <path clip-path="url(#pd34bb0ccc0)" d="M 478.217543 211.023364 
L 478.217543 211.023364 
" style="fill:none;stroke:#1f77b4;stroke-linecap:square;stroke-width:1.5;"/>
   </g>
   <g id="line2d_142">
    <path clip-path="url(#pd34bb0ccc0)" d="M 481.746686 211.023364 
L 481.746686 211.023364 
" style="fill:none;stroke:#1f77b4;stroke-linecap:square;stroke-width:1.5;"/>
   </g>
   <g id="line2d_143">
    <path clip-path="url(#pd34bb0ccc0)" d="M 485.275829 211.023364 
L 485.275829 211.023364 
" style="fill:none;stroke:#1f77b4;stroke-linecap:square;stroke-width:1.5;"/>
   </g>
   <g id="line2d_144">
    <path clip-path="url(#pd34bb0ccc0)" d="M 488.804972 211.023364 
L 488.804972 211.023364 
" style="fill:none;stroke:#1f77b4;stroke-linecap:square;stroke-width:1.5;"/>
   </g>
   <g id="line2d_145">
    <path clip-path="url(#pd34bb0ccc0)" d="M 492.334115 211.023364 
L 492.334115 211.023364 
" style="fill:none;stroke:#1f77b4;stroke-linecap:square;stroke-width:1.5;"/>
   </g>
   <g id="line2d_146">
    <path clip-path="url(#pd34bb0ccc0)" d="M 495.863258 211.023364 
L 495.863258 211.023364 
" style="fill:none;stroke:#1f77b4;stroke-linecap:square;stroke-width:1.5;"/>
   </g>
   <g id="line2d_147">
    <path clip-path="url(#pd34bb0ccc0)" d="M 499.392401 211.023364 
L 499.392401 211.023364 
" style="fill:none;stroke:#1f77b4;stroke-linecap:square;stroke-width:1.5;"/>
   </g>
   <g id="line2d_148">
    <path clip-path="url(#pd34bb0ccc0)" d="M 502.921544 211.023364 
L 502.921544 211.023364 
" style="fill:none;stroke:#1f77b4;stroke-linecap:square;stroke-width:1.5;"/>
   </g>
   <g id="line2d_149">
    <path clip-path="url(#pd34bb0ccc0)" d="M 506.450687 211.023364 
L 506.450687 211.023364 
" style="fill:none;stroke:#1f77b4;stroke-linecap:square;stroke-width:1.5;"/>
   </g>
   <g id="line2d_150">
    <path clip-path="url(#pd34bb0ccc0)" d="M 509.97983 211.023364 
L 509.97983 174.870445 
" style="fill:none;stroke:#1f77b4;stroke-linecap:square;stroke-width:1.5;"/>
   </g>
   <g id="line2d_151">
    <path clip-path="url(#pd34bb0ccc0)" d="M 86.48267 211.023364 
L 509.97983 211.023364 
" style="fill:none;stroke:#1f77b4;stroke-linecap:square;stroke-width:1.5;"/>
   </g>
   <g id="line2d_152">
    <path clip-path="url(#pd34bb0ccc0)" d="M 298.23125 211.023364 
L 298.23125 26.39843 
" style="fill:none;stroke:#008000;stroke-dasharray:5.55,2.4;stroke-dashoffset:0;stroke-width:1.5;"/>
   </g>
   <g id="line2d_153">
    <path clip-path="url(#pd34bb0ccc0)" d="M 213.531818 211.023364 
L 213.531818 26.39843 
" style="fill:none;stroke:#ff0000;stroke-dasharray:5.55,2.4;stroke-dashoffset:0;stroke-width:1.5;"/>
   </g>
   <g id="line2d_154">
    <path clip-path="url(#pd34bb0ccc0)" d="M 280.585535 211.023364 
L 280.585535 26.39843 
" style="fill:none;stroke:#0000ff;stroke-dasharray:5.55,2.4;stroke-dashoffset:0;stroke-width:1.5;"/>
   </g>
   <g id="patch_3">
    <path d="M 65.307812 274.181875 
L 65.307812 14.599219 
" style="fill:none;stroke:#000000;stroke-linecap:square;stroke-linejoin:miter;stroke-width:0.8;"/>
   </g>
   <g id="patch_4">
    <path d="M 531.154687 274.181875 
L 531.154687 14.599219 
" style="fill:none;stroke:#000000;stroke-linecap:square;stroke-linejoin:miter;stroke-width:0.8;"/>
   </g>
   <g id="patch_5">
    <path d="M 65.307813 274.181875 
L 531.154687 274.181875 
" style="fill:none;stroke:#000000;stroke-linecap:square;stroke-linejoin:miter;stroke-width:0.8;"/>
   </g>
   <g id="patch_6">
    <path d="M 65.307813 14.599219 
L 531.154687 14.599219 
" style="fill:none;stroke:#000000;stroke-linecap:square;stroke-linejoin:miter;stroke-width:0.8;"/>
   </g>
   <g id="text_17">
    <!-- d[2] -->
    <defs>
     <path d="M 8.59375 75.984375 
L 29.296875 75.984375 
L 29.296875 69 
L 17.578125 69 
L 17.578125 -6.203125 
L 29.296875 -6.203125 
L 29.296875 -13.1875 
L 8.59375 -13.1875 
z
" id="DejaVuSans-5b"/>
     <path d="M 30.421875 75.984375 
L 30.421875 -13.1875 
L 9.71875 -13.1875 
L 9.71875 -6.203125 
L 21.390625 -6.203125 
L 21.390625 69 
L 9.71875 69 
L 9.71875 75.984375 
z
" id="DejaVuSans-5d"/>
    </defs>
    <g transform="translate(93.540956 121.463487)scale(0.1 -0.1)">
     <use xlink:href="#DejaVuSans-64"/>
     <use x="63.476562" xlink:href="#DejaVuSans-5b"/>
     <use x="102.490234" xlink:href="#DejaVuSans-32"/>
     <use x="166.113281" xlink:href="#DejaVuSans-5d"/>
    </g>
   </g>
   <g id="text_18">
    <!-- d[3] -->
    <g transform="translate(135.890672 228.579516)scale(0.1 -0.1)">
     <use xlink:href="#DejaVuSans-64"/>
     <use x="63.476562" xlink:href="#DejaVuSans-5b"/>
     <use x="102.490234" xlink:href="#DejaVuSans-33"/>
     <use x="166.113281" xlink:href="#DejaVuSans-5d"/>
    </g>
   </g>
   <g id="text_19">
    <!-- d[4] -->
    <g transform="translate(178.240388 262.382663)scale(0.1 -0.1)">
     <use xlink:href="#DejaVuSans-64"/>
     <use x="63.476562" xlink:href="#DejaVuSans-5b"/>
     <use x="102.490234" xlink:href="#DejaVuSans-34"/>
     <use x="166.113281" xlink:href="#DejaVuSans-5d"/>
    </g>
   </g>
   <g id="text_20">
    <!-- d[5] -->
    <g transform="translate(220.590104 232.070606)scale(0.1 -0.1)">
     <use xlink:href="#DejaVuSans-64"/>
     <use x="63.476562" xlink:href="#DejaVuSans-5b"/>
     <use x="102.490234" xlink:href="#DejaVuSans-35"/>
     <use x="166.113281" xlink:href="#DejaVuSans-5d"/>
    </g>
   </g>
   <g id="text_21">
    <!-- d[6] -->
    <g transform="translate(262.93982 165.303517)scale(0.1 -0.1)">
     <use xlink:href="#DejaVuSans-64"/>
     <use x="63.476562" xlink:href="#DejaVuSans-5b"/>
     <use x="102.490234" xlink:href="#DejaVuSans-36"/>
     <use x="166.113281" xlink:href="#DejaVuSans-5d"/>
    </g>
   </g>
   <g id="text_22">
    <!-- d[7] -->
    <defs>
     <path d="M 8.203125 72.90625 
L 55.078125 72.90625 
L 55.078125 68.703125 
L 28.609375 0 
L 18.3125 0 
L 43.21875 64.59375 
L 8.203125 64.59375 
z
" id="DejaVuSans-37"/>
    </defs>
    <g transform="translate(305.289536 97.529382)scale(0.1 -0.1)">
     <use xlink:href="#DejaVuSans-64"/>
     <use x="63.476562" xlink:href="#DejaVuSans-5b"/>
     <use x="102.490234" xlink:href="#DejaVuSans-37"/>
     <use x="166.113281" xlink:href="#DejaVuSans-5d"/>
    </g>
   </g>
   <g id="text_23">
    <!-- d[8] -->
    <g transform="translate(347.639252 68.996438)scale(0.1 -0.1)">
     <use xlink:href="#DejaVuSans-64"/>
     <use x="63.476562" xlink:href="#DejaVuSans-5b"/>
     <use x="102.490234" xlink:href="#DejaVuSans-38"/>
     <use x="166.113281" xlink:href="#DejaVuSans-5d"/>
    </g>
   </g>
   <g id="text_24">
    <!-- d[9] -->
    <defs>
     <path d="M 10.984375 1.515625 
L 10.984375 10.5 
Q 14.703125 8.734375 18.5 7.8125 
Q 22.3125 6.890625 25.984375 6.890625 
Q 35.75 6.890625 40.890625 13.453125 
Q 46.046875 20.015625 46.78125 33.40625 
Q 43.953125 29.203125 39.59375 26.953125 
Q 35.25 24.703125 29.984375 24.703125 
Q 19.046875 24.703125 12.671875 31.3125 
Q 6.296875 37.9375 6.296875 49.421875 
Q 6.296875 60.640625 12.9375 67.421875 
Q 19.578125 74.21875 30.609375 74.21875 
Q 43.265625 74.21875 49.921875 64.515625 
Q 56.59375 54.828125 56.59375 36.375 
Q 56.59375 19.140625 48.40625 8.859375 
Q 40.234375 -1.421875 26.421875 -1.421875 
Q 22.703125 -1.421875 18.890625 -0.6875 
Q 15.09375 0.046875 10.984375 1.515625 
z
M 30.609375 32.421875 
Q 37.25 32.421875 41.125 36.953125 
Q 45.015625 41.5 45.015625 49.421875 
Q 45.015625 57.28125 41.125 61.84375 
Q 37.25 66.40625 30.609375 66.40625 
Q 23.96875 66.40625 20.09375 61.84375 
Q 16.21875 57.28125 16.21875 49.421875 
Q 16.21875 41.5 20.09375 36.953125 
Q 23.96875 32.421875 30.609375 32.421875 
z
" id="DejaVuSans-39"/>
    </defs>
    <g transform="translate(389.988968 98.100041)scale(0.1 -0.1)">
     <use xlink:href="#DejaVuSans-64"/>
     <use x="63.476562" xlink:href="#DejaVuSans-5b"/>
     <use x="102.490234" xlink:href="#DejaVuSans-39"/>
     <use x="166.113281" xlink:href="#DejaVuSans-5d"/>
    </g>
   </g>
   <g id="text_25">
    <!-- d[10] -->
    <g transform="translate(432.338684 156.07227)scale(0.1 -0.1)">
     <use xlink:href="#DejaVuSans-64"/>
     <use x="63.476562" xlink:href="#DejaVuSans-5b"/>
     <use x="102.490234" xlink:href="#DejaVuSans-31"/>
     <use x="166.113281" xlink:href="#DejaVuSans-30"/>
     <use x="229.736328" xlink:href="#DejaVuSans-5d"/>
    </g>
   </g>
   <g id="text_26">
    <!-- d[11] -->
    <g transform="translate(474.6884 187.995599)scale(0.1 -0.1)">
     <use xlink:href="#DejaVuSans-64"/>
     <use x="63.476562" xlink:href="#DejaVuSans-5b"/>
     <use x="102.490234" xlink:href="#DejaVuSans-31"/>
     <use x="166.113281" xlink:href="#DejaVuSans-31"/>
     <use x="229.736328" xlink:href="#DejaVuSans-5d"/>
    </g>
   </g>
   <g id="text_27">
    <!-- d[12] -->
    <g transform="translate(517.038116 174.870445)scale(0.1 -0.1)">
     <use xlink:href="#DejaVuSans-64"/>
     <use x="63.476562" xlink:href="#DejaVuSans-5b"/>
     <use x="102.490234" xlink:href="#DejaVuSans-31"/>
     <use x="166.113281" xlink:href="#DejaVuSans-32"/>
     <use x="229.736328" xlink:href="#DejaVuSans-5d"/>
    </g>
   </g>
   <g id="text_28">
    <!-- $\alpha=24$ -->
    <defs>
     <path d="M 40.921875 25.4375 
L 40.96875 36.71875 
Q 41.015625 48.25 32.328125 48.296875 
Q 25.828125 48.34375 21.78125 42.921875 
Q 16.703125 36.234375 14.984375 27.296875 
Q 12.890625 16.546875 15.53125 11.421875 
Q 18.265625 6.203125 24.171875 6.203125 
Q 30.71875 6.203125 36.234375 16.609375 
z
M 33.84375 55.90625 
Q 49.078125 56.15625 48.875 40.375 
Q 48.875 40.375 56.5 54.6875 
L 64.5 54.6875 
L 48.734375 25.046875 
L 48.578125 14.359375 
Q 48.578125 11.96875 49.90625 9.96875 
Q 51.421875 7.625 52.984375 7.625 
L 57.328125 7.625 
L 55.859375 0 
L 50.4375 0 
Q 45.84375 0 42.53125 4.109375 
Q 40.96875 6.15625 40.921875 10.453125 
Q 37.75 5.21875 32.28125 0.78125 
Q 29.6875 -1.265625 22.703125 -1.21875 
Q 11.28125 -1.125 7.125 6.203125 
Q 2.875 13.8125 5.515625 27.296875 
Q 8.34375 41.796875 15.765625 48.390625 
Q 24.125 55.765625 33.84375 55.90625 
z
" id="DejaVuSans-Oblique-3b1"/>
    </defs>
    <g transform="translate(220.590104 26.39843)scale(0.1 -0.1)">
     <use transform="translate(0 0.78125)" xlink:href="#DejaVuSans-Oblique-3b1"/>
     <use transform="translate(85.400391 0.78125)" xlink:href="#DejaVuSans-3d"/>
     <use transform="translate(188.671875 0.78125)" xlink:href="#DejaVuSans-32"/>
     <use transform="translate(252.294922 0.78125)" xlink:href="#DejaVuSans-34"/>
    </g>
   </g>
   <g id="patch_7">
    <path d="M 295.115149 43.182515 
Q 255.883205 43.182515 216.651262 43.182515 
" style="fill:none;stroke:#000000;stroke-linecap:round;"/>
    <path d="M 291.115149 41.182515 
L 295.115149 43.182515 
L 291.115149 45.182515 
" style="fill:none;stroke:#000000;stroke-linecap:round;"/>
    <path d="M 220.651262 45.182515 
L 216.651262 43.182515 
L 220.651262 41.182515 
" style="fill:none;stroke:#000000;stroke-linecap:round;"/>
   </g>
   <g id="text_29">
    <!-- $\delta=\alpha-19=5$ -->
    <defs>
     <path d="M 54.25 63.328125 
Q 49.953125 66.75 38.28125 66.75 
Q 25.921875 66.75 24.8125 61.03125 
Q 23.921875 56.546875 36.375 54.203125 
Q 46.140625 52.390625 50.828125 46.921875 
Q 56.5 40.328125 53.859375 26.8125 
Q 51.3125 13.875 43.171875 6.25 
Q 34.96875 -1.421875 23.25 -1.421875 
Q 11.578125 -1.421875 6.34375 6.25 
Q 1.125 13.875 3.765625 27.296875 
Q 5.671875 37.25 13.921875 45.3125 
Q 17.140625 48.4375 21.140625 50.203125 
Q 14.265625 54.046875 15.625 60.9375 
Q 18.21875 74.21875 39.75 74.21875 
Q 50.53125 74.21875 55.71875 70.796875 
z
M 27.390625 47.75 
Q 23.828125 46.34375 20.40625 42.78125 
Q 15.140625 37.25 13.234375 27.296875 
Q 11.28125 17.390625 14.359375 11.8125 
Q 17.484375 6.203125 24.75 6.203125 
Q 31.9375 6.203125 37.203125 11.859375 
Q 42.53125 17.53125 44.34375 26.8125 
Q 46.1875 36.53125 42.671875 41.21875 
Q 38.921875 46.234375 32.859375 46.78125 
Q 29.78125 47.078125 27.390625 47.75 
z
" id="DejaVuSans-Oblique-3b4"/>
    </defs>
    <g transform="translate(284.114678 26.39843)scale(0.1 -0.1)">
     <use transform="translate(0 0.78125)" xlink:href="#DejaVuSans-Oblique-3b4"/>
     <use transform="translate(80.664062 0.78125)" xlink:href="#DejaVuSans-3d"/>
     <use transform="translate(183.935547 0.78125)" xlink:href="#DejaVuSans-Oblique-3b1"/>
     <use transform="translate(269.335938 0.78125)" xlink:href="#DejaVuSans-2212"/>
     <use transform="translate(372.607422 0.78125)" xlink:href="#DejaVuSans-31"/>
     <use transform="translate(436.230469 0.78125)" xlink:href="#DejaVuSans-39"/>
     <use transform="translate(519.335938 0.78125)" xlink:href="#DejaVuSans-3d"/>
     <use transform="translate(622.607422 0.78125)" xlink:href="#DejaVuSans-35"/>
    </g>
   </g>
   <g id="patch_8">
    <path d="M 295.109979 33.112064 
Q 289.405433 33.112064 283.700887 33.112064 
" style="fill:none;stroke:#000000;stroke-linecap:round;"/>
    <path d="M 291.109979 31.112064 
L 295.109979 33.112064 
L 291.109979 35.112064 
" style="fill:none;stroke:#000000;stroke-linecap:round;"/>
    <path d="M 287.700887 35.112064 
L 283.700887 33.112064 
L 287.700887 31.112064 
" style="fill:none;stroke:#000000;stroke-linecap:round;"/>
   </g>
  </g>
  <g id="axes_2">
   <g id="matplotlib.axis_3">
    <g id="ytick_8">
     <g id="line2d_155">
      <defs>
       <path d="M 0 0 
L 3.5 0 
" id="mbce936a562" style="stroke:#000000;stroke-width:0.8;"/>
      </defs>
      <g>
       <use style="stroke:#000000;stroke-width:0.8;" x="531.154687" xlink:href="#mbce936a562" y="243.162564"/>
      </g>
     </g>
     <g id="text_30">
      <!-- −0.01 -->
      <defs>
       <path d="M 10.6875 12.40625 
L 21 12.40625 
L 21 0 
L 10.6875 0 
z
" id="DejaVuSans-2e"/>
      </defs>
      <g transform="translate(538.154687 246.961783)scale(0.1 -0.1)">
       <use xlink:href="#DejaVuSans-2212"/>
       <use x="83.789062" xlink:href="#DejaVuSans-30"/>
       <use x="147.412109" xlink:href="#DejaVuSans-2e"/>
       <use x="179.199219" xlink:href="#DejaVuSans-30"/>
       <use x="242.822266" xlink:href="#DejaVuSans-31"/>
      </g>
     </g>
    </g>
    <g id="ytick_9">
     <g id="line2d_156">
      <g>
       <use style="stroke:#000000;stroke-width:0.8;" x="531.154687" xlink:href="#mbce936a562" y="210.510657"/>
      </g>
     </g>
     <g id="text_31">
      <!-- 0.00 -->
      <g transform="translate(538.154687 214.309876)scale(0.1 -0.1)">
       <use xlink:href="#DejaVuSans-30"/>
       <use x="63.623047" xlink:href="#DejaVuSans-2e"/>
       <use x="95.410156" xlink:href="#DejaVuSans-30"/>
       <use x="159.033203" xlink:href="#DejaVuSans-30"/>
      </g>
     </g>
    </g>
    <g id="ytick_10">
     <g id="line2d_157">
      <g>
       <use style="stroke:#000000;stroke-width:0.8;" x="531.154687" xlink:href="#mbce936a562" y="177.858751"/>
      </g>
     </g>
     <g id="text_32">
      <!-- 0.01 -->
      <g transform="translate(538.154687 181.65797)scale(0.1 -0.1)">
       <use xlink:href="#DejaVuSans-30"/>
       <use x="63.623047" xlink:href="#DejaVuSans-2e"/>
       <use x="95.410156" xlink:href="#DejaVuSans-30"/>
       <use x="159.033203" xlink:href="#DejaVuSans-31"/>
      </g>
     </g>
    </g>
    <g id="ytick_11">
     <g id="line2d_158">
      <g>
       <use style="stroke:#000000;stroke-width:0.8;" x="531.154687" xlink:href="#mbce936a562" y="145.206845"/>
      </g>
     </g>
     <g id="text_33">
      <!-- 0.02 -->
      <g transform="translate(538.154687 149.006063)scale(0.1 -0.1)">
       <use xlink:href="#DejaVuSans-30"/>
       <use x="63.623047" xlink:href="#DejaVuSans-2e"/>
       <use x="95.410156" xlink:href="#DejaVuSans-30"/>
       <use x="159.033203" xlink:href="#DejaVuSans-32"/>
      </g>
     </g>
    </g>
    <g id="ytick_12">
     <g id="line2d_159">
      <g>
       <use style="stroke:#000000;stroke-width:0.8;" x="531.154687" xlink:href="#mbce936a562" y="112.554938"/>
      </g>
     </g>
     <g id="text_34">
      <!-- 0.03 -->
      <g transform="translate(538.154687 116.354157)scale(0.1 -0.1)">
       <use xlink:href="#DejaVuSans-30"/>
       <use x="63.623047" xlink:href="#DejaVuSans-2e"/>
       <use x="95.410156" xlink:href="#DejaVuSans-30"/>
       <use x="159.033203" xlink:href="#DejaVuSans-33"/>
      </g>
     </g>
    </g>
    <g id="ytick_13">
     <g id="line2d_160">
      <g>
       <use style="stroke:#000000;stroke-width:0.8;" x="531.154687" xlink:href="#mbce936a562" y="79.903032"/>
      </g>
     </g>
     <g id="text_35">
      <!-- 0.04 -->
      <g transform="translate(538.154687 83.70225)scale(0.1 -0.1)">
       <use xlink:href="#DejaVuSans-30"/>
       <use x="63.623047" xlink:href="#DejaVuSans-2e"/>
       <use x="95.410156" xlink:href="#DejaVuSans-30"/>
       <use x="159.033203" xlink:href="#DejaVuSans-34"/>
      </g>
     </g>
    </g>
    <g id="ytick_14">
     <g id="line2d_161">
      <g>
       <use style="stroke:#000000;stroke-width:0.8;" x="531.154687" xlink:href="#mbce936a562" y="47.251125"/>
      </g>
     </g>
     <g id="text_36">
      <!-- 0.05 -->
      <g transform="translate(538.154687 51.050344)scale(0.1 -0.1)">
       <use xlink:href="#DejaVuSans-30"/>
       <use x="63.623047" xlink:href="#DejaVuSans-2e"/>
       <use x="95.410156" xlink:href="#DejaVuSans-30"/>
       <use x="159.033203" xlink:href="#DejaVuSans-35"/>
      </g>
     </g>
    </g>
    <g id="ytick_15">
     <g id="line2d_162">
      <g>
       <use style="stroke:#000000;stroke-width:0.8;" x="531.154687" xlink:href="#mbce936a562" y="14.599219"/>
      </g>
     </g>
     <g id="text_37">
      <!-- 0.06 -->
      <g transform="translate(538.154687 18.398438)scale(0.1 -0.1)">
       <use xlink:href="#DejaVuSans-30"/>
       <use x="63.623047" xlink:href="#DejaVuSans-2e"/>
       <use x="95.410156" xlink:href="#DejaVuSans-30"/>
       <use x="159.033203" xlink:href="#DejaVuSans-36"/>
      </g>
     </g>
    </g>
   </g>
   <g id="line2d_163">
    <path clip-path="url(#pd34bb0ccc0)" d="M 86.48267 209.924464 
L 90.011813 209.572931 
L 93.540956 209.180996 
L 97.070099 208.75199 
L 100.599242 208.293635 
L 104.128385 207.81853 
L 107.657528 207.344362 
L 111.186671 206.893833 
L 114.715814 206.494254 
L 118.244957 206.176803 
L 121.7741 205.975446 
L 125.303243 205.925558 
L 128.832386 206.06226 
L 132.361529 206.418548 
L 135.890672 207.023269 
L 139.419815 207.899032 
L 142.948958 209.060143 
L 146.478101 210.510657 
L 150.007244 212.242655 
L 153.536387 214.234818 
L 157.06553 216.451417 
L 160.594673 218.84177 
L 164.123816 221.340237 
L 167.652959 223.866804 
L 171.182102 226.328266 
L 174.711245 228.620022 
L 178.240388 230.628444 
L 181.769531 232.233785 
L 185.298674 233.313546 
L 188.827817 233.74621 
L 192.35696 233.415231 
L 195.886103 232.213153 
L 199.415246 230.045718 
L 202.944389 226.835812 
L 206.473532 222.527112 
L 210.002675 217.087294 
L 213.531818 210.510657 
L 217.060961 202.820062 
L 220.590104 194.068076 
L 224.119247 184.337267 
L 227.64839 173.739584 
L 231.177533 162.414824 
L 234.706676 150.528197 
L 238.235819 138.267033 
L 241.764962 125.836716 
L 245.294105 113.455955 
L 248.823248 101.351507 
L 252.352391 89.752524 
L 255.881534 78.884689 
L 259.410677 68.964304 
L 262.93982 60.192539 
L 266.468963 52.75 
L 269.998106 46.791802 
L 273.527249 42.4433 
L 277.056392 39.796615 
L 280.585535 38.908069 
L 284.114678 39.796615 
L 287.643821 42.4433 
L 291.172964 46.791802 
L 294.702107 52.75 
L 298.23125 60.192539 
L 301.760393 68.964304 
L 305.289536 78.884689 
L 308.818679 89.752524 
L 312.347822 101.351507 
L 315.876965 113.455955 
L 319.406108 125.836716 
L 322.935251 138.267033 
L 326.464394 150.528197 
L 329.993537 162.414824 
L 333.52268 173.739584 
L 337.051823 184.337267 
L 340.580966 194.068076 
L 344.110109 202.820062 
L 347.639252 210.510657 
L 351.168395 217.087294 
L 354.697538 222.527112 
L 358.226681 226.835812 
L 361.755824 230.045718 
L 365.284967 232.213153 
L 368.81411 233.415231 
L 372.343253 233.74621 
L 375.872396 233.313546 
L 379.401539 232.233785 
L 382.930682 230.628444 
L 386.459825 228.620022 
L 389.988968 226.328266 
L 393.518111 223.866804 
L 397.047254 221.340237 
L 400.576397 218.84177 
L 404.10554 216.451417 
L 407.634683 214.234818 
L 411.163826 212.242655 
L 414.692969 210.510657 
L 418.222112 209.060143 
L 421.751255 207.899032 
L 425.280398 207.023269 
L 428.809541 206.418548 
L 432.338684 206.06226 
L 435.867827 205.925558 
L 439.39697 205.975446 
L 442.926113 206.176803 
L 446.455256 206.494254 
L 449.984399 206.893833 
L 453.513542 207.344362 
L 457.042685 207.81853 
L 460.571828 208.293635 
L 464.100971 208.75199 
L 467.630114 209.180996 
L 471.159257 209.572931 
L 474.6884 209.924464 
L 478.217543 210.235964 
L 481.746686 210.510657 
L 485.275829 210.753695 
L 488.804972 210.971185 
L 492.334115 211.169263 
" style="fill:none;stroke:#ff0000;stroke-linecap:square;stroke-width:1.5;"/>
   </g>
   <g id="line2d_164">
    <defs>
     <path d="M -3 3 
L 3 3 
L 3 -3 
L -3 -3 
z
" id="m2be8a1a87d" style="stroke:#008000;stroke-linejoin:miter;"/>
    </defs>
    <g clip-path="url(#pd34bb0ccc0)">
     <use style="fill:#008000;stroke:#008000;stroke-linejoin:miter;" x="86.48267" xlink:href="#m2be8a1a87d" y="209.924464"/>
     <use style="fill:#008000;stroke:#008000;stroke-linejoin:miter;" x="128.832386" xlink:href="#m2be8a1a87d" y="206.06226"/>
     <use style="fill:#008000;stroke:#008000;stroke-linejoin:miter;" x="171.182102" xlink:href="#m2be8a1a87d" y="226.328266"/>
     <use style="fill:#008000;stroke:#008000;stroke-linejoin:miter;" x="213.531818" xlink:href="#m2be8a1a87d" y="210.510657"/>
     <use style="fill:#008000;stroke:#008000;stroke-linejoin:miter;" x="255.881534" xlink:href="#m2be8a1a87d" y="78.884689"/>
     <use style="fill:#008000;stroke:#008000;stroke-linejoin:miter;" x="298.23125" xlink:href="#m2be8a1a87d" y="60.192539"/>
     <use style="fill:#008000;stroke:#008000;stroke-linejoin:miter;" x="340.580966" xlink:href="#m2be8a1a87d" y="194.068076"/>
     <use style="fill:#008000;stroke:#008000;stroke-linejoin:miter;" x="382.930682" xlink:href="#m2be8a1a87d" y="230.628444"/>
     <use style="fill:#008000;stroke:#008000;stroke-linejoin:miter;" x="425.280398" xlink:href="#m2be8a1a87d" y="207.023269"/>
     <use style="fill:#008000;stroke:#008000;stroke-linejoin:miter;" x="467.630114" xlink:href="#m2be8a1a87d" y="209.180996"/>
    </g>
   </g>
   <g id="patch_9">
    <path d="M 65.307812 274.181875 
L 65.307812 14.599219 
" style="fill:none;stroke:#000000;stroke-linecap:square;stroke-linejoin:miter;stroke-width:0.8;"/>
   </g>
   <g id="patch_10">
    <path d="M 531.154687 274.181875 
L 531.154687 14.599219 
" style="fill:none;stroke:#000000;stroke-linecap:square;stroke-linejoin:miter;stroke-width:0.8;"/>
   </g>
   <g id="patch_11">
    <path d="M 65.307813 274.181875 
L 531.154687 274.181875 
" style="fill:none;stroke:#000000;stroke-linecap:square;stroke-linejoin:miter;stroke-width:0.8;"/>
   </g>
   <g id="patch_12">
    <path d="M 65.307813 14.599219 
L 531.154687 14.599219 
" style="fill:none;stroke:#000000;stroke-linecap:square;stroke-linejoin:miter;stroke-width:0.8;"/>
   </g>
  </g>
 </g>
 <defs>
  <clipPath id="pd34bb0ccc0">
   <rect height="259.582656" width="465.846875" x="65.307812" y="14.599219"/>
  </clipPath>
 </defs>
</svg>
