<?xml version="1.0" encoding="utf-8" standalone="no"?>
<!DOCTYPE svg PUBLIC "-//W3C//DTD SVG 1.1//EN"
  "http://www.w3.org/Graphics/SVG/1.1/DTD/svg11.dtd">
<!-- Created with matplotlib (http://matplotlib.org/) -->
<svg height="315pt" version="1.1" viewBox="0 0 579 315" width="579pt" xmlns="http://www.w3.org/2000/svg" xmlns:xlink="http://www.w3.org/1999/xlink">
 <defs>
  <style type="text/css">
*{stroke-linecap:butt;stroke-linejoin:round;}
  </style>
 </defs>
 <g id="figure_1">
  <g id="patch_1">
   <path d="M 0 315.36 
L 579.6 315.36 
L 579.6 0 
L 0 0 
z
" style="fill:#ffffff;"/>
  </g>
  <g id="axes_1">
   <g id="patch_2">
    <path d="M 65.307812 274.181875 
L 517.476562 274.181875 
L 517.476562 14.599219 
L 65.307812 14.599219 
z
" style="fill:#ffffff;"/>
   </g>
   <g id="matplotlib.axis_1">
    <g id="xtick_1">
     <g id="line2d_1">
      <path clip-path="url(#p07d7f7880b)" d="M 85.860937 274.181875 
L 85.860937 14.599219 
" style="fill:none;stroke:#b0b0b0;stroke-dasharray:0.8,1.32;stroke-dashoffset:0;stroke-width:0.8;"/>
     </g>
     <g id="line2d_2">
      <defs>
       <path d="M 0 0 
L 0 3.5 
" id="m9b2925f31c" style="stroke:#000000;stroke-width:0.8;"/>
      </defs>
      <g>
       <use style="stroke:#000000;stroke-width:0.8;" x="85.860937" xlink:href="#m9b2925f31c" y="274.181875"/>
      </g>
     </g>
     <g id="text_1">
      <!-- 0 -->
      <defs>
       <path d="M 31.78125 66.40625 
Q 24.171875 66.40625 20.328125 58.90625 
Q 16.5 51.421875 16.5 36.375 
Q 16.5 21.390625 20.328125 13.890625 
Q 24.171875 6.390625 31.78125 6.390625 
Q 39.453125 6.390625 43.28125 13.890625 
Q 47.125 21.390625 47.125 36.375 
Q 47.125 51.421875 43.28125 58.90625 
Q 39.453125 66.40625 31.78125 66.40625 
z
M 31.78125 74.21875 
Q 44.046875 74.21875 50.515625 64.515625 
Q 56.984375 54.828125 56.984375 36.375 
Q 56.984375 17.96875 50.515625 8.265625 
Q 44.046875 -1.421875 31.78125 -1.421875 
Q 19.53125 -1.421875 13.0625 8.265625 
Q 6.59375 17.96875 6.59375 36.375 
Q 6.59375 54.828125 13.0625 64.515625 
Q 19.53125 74.21875 31.78125 74.21875 
z
" id="DejaVuSans-30"/>
      </defs>
      <g transform="translate(82.679687 288.780313)scale(0.1 -0.1)">
       <use xlink:href="#DejaVuSans-30"/>
      </g>
     </g>
    </g>
    <g id="xtick_2">
     <g id="line2d_3">
      <path clip-path="url(#p07d7f7880b)" d="M 154.371354 274.181875 
L 154.371354 14.599219 
" style="fill:none;stroke:#b0b0b0;stroke-dasharray:0.8,1.32;stroke-dashoffset:0;stroke-width:0.8;"/>
     </g>
     <g id="line2d_4">
      <g>
       <use style="stroke:#000000;stroke-width:0.8;" x="154.371354" xlink:href="#m9b2925f31c" y="274.181875"/>
      </g>
     </g>
     <g id="text_2">
      <!-- 20 -->
      <defs>
       <path d="M 19.1875 8.296875 
L 53.609375 8.296875 
L 53.609375 0 
L 7.328125 0 
L 7.328125 8.296875 
Q 12.9375 14.109375 22.625 23.890625 
Q 32.328125 33.6875 34.8125 36.53125 
Q 39.546875 41.84375 41.421875 45.53125 
Q 43.3125 49.21875 43.3125 52.78125 
Q 43.3125 58.59375 39.234375 62.25 
Q 35.15625 65.921875 28.609375 65.921875 
Q 23.96875 65.921875 18.8125 64.3125 
Q 13.671875 62.703125 7.8125 59.421875 
L 7.8125 69.390625 
Q 13.765625 71.78125 18.9375 73 
Q 24.125 74.21875 28.421875 74.21875 
Q 39.75 74.21875 46.484375 68.546875 
Q 53.21875 62.890625 53.21875 53.421875 
Q 53.21875 48.921875 51.53125 44.890625 
Q 49.859375 40.875 45.40625 35.40625 
Q 44.1875 33.984375 37.640625 27.21875 
Q 31.109375 20.453125 19.1875 8.296875 
z
" id="DejaVuSans-32"/>
      </defs>
      <g transform="translate(148.008854 288.780313)scale(0.1 -0.1)">
       <use xlink:href="#DejaVuSans-32"/>
       <use x="63.623047" xlink:href="#DejaVuSans-30"/>
      </g>
     </g>
    </g>
    <g id="xtick_3">
     <g id="line2d_5">
      <path clip-path="url(#p07d7f7880b)" d="M 222.881771 274.181875 
L 222.881771 14.599219 
" style="fill:none;stroke:#b0b0b0;stroke-dasharray:0.8,1.32;stroke-dashoffset:0;stroke-width:0.8;"/>
     </g>
     <g id="line2d_6">
      <g>
       <use style="stroke:#000000;stroke-width:0.8;" x="222.881771" xlink:href="#m9b2925f31c" y="274.181875"/>
      </g>
     </g>
     <g id="text_3">
      <!-- 40 -->
      <defs>
       <path d="M 37.796875 64.3125 
L 12.890625 25.390625 
L 37.796875 25.390625 
z
M 35.203125 72.90625 
L 47.609375 72.90625 
L 47.609375 25.390625 
L 58.015625 25.390625 
L 58.015625 17.1875 
L 47.609375 17.1875 
L 47.609375 0 
L 37.796875 0 
L 37.796875 17.1875 
L 4.890625 17.1875 
L 4.890625 26.703125 
z
" id="DejaVuSans-34"/>
      </defs>
      <g transform="translate(216.519271 288.780313)scale(0.1 -0.1)">
       <use xlink:href="#DejaVuSans-34"/>
       <use x="63.623047" xlink:href="#DejaVuSans-30"/>
      </g>
     </g>
    </g>
    <g id="xtick_4">
     <g id="line2d_7">
      <path clip-path="url(#p07d7f7880b)" d="M 291.392187 274.181875 
L 291.392187 14.599219 
" style="fill:none;stroke:#b0b0b0;stroke-dasharray:0.8,1.32;stroke-dashoffset:0;stroke-width:0.8;"/>
     </g>
     <g id="line2d_8">
      <g>
       <use style="stroke:#000000;stroke-width:0.8;" x="291.392187" xlink:href="#m9b2925f31c" y="274.181875"/>
      </g>
     </g>
     <g id="text_4">
      <!-- 60 -->
      <defs>
       <path d="M 33.015625 40.375 
Q 26.375 40.375 22.484375 35.828125 
Q 18.609375 31.296875 18.609375 23.390625 
Q 18.609375 15.53125 22.484375 10.953125 
Q 26.375 6.390625 33.015625 6.390625 
Q 39.65625 6.390625 43.53125 10.953125 
Q 47.40625 15.53125 47.40625 23.390625 
Q 47.40625 31.296875 43.53125 35.828125 
Q 39.65625 40.375 33.015625 40.375 
z
M 52.59375 71.296875 
L 52.59375 62.3125 
Q 48.875 64.0625 45.09375 64.984375 
Q 41.3125 65.921875 37.59375 65.921875 
Q 27.828125 65.921875 22.671875 59.328125 
Q 17.53125 52.734375 16.796875 39.40625 
Q 19.671875 43.65625 24.015625 45.921875 
Q 28.375 48.1875 33.59375 48.1875 
Q 44.578125 48.1875 50.953125 41.515625 
Q 57.328125 34.859375 57.328125 23.390625 
Q 57.328125 12.15625 50.6875 5.359375 
Q 44.046875 -1.421875 33.015625 -1.421875 
Q 20.359375 -1.421875 13.671875 8.265625 
Q 6.984375 17.96875 6.984375 36.375 
Q 6.984375 53.65625 15.1875 63.9375 
Q 23.390625 74.21875 37.203125 74.21875 
Q 40.921875 74.21875 44.703125 73.484375 
Q 48.484375 72.75 52.59375 71.296875 
z
" id="DejaVuSans-36"/>
      </defs>
      <g transform="translate(285.029687 288.780313)scale(0.1 -0.1)">
       <use xlink:href="#DejaVuSans-36"/>
       <use x="63.623047" xlink:href="#DejaVuSans-30"/>
      </g>
     </g>
    </g>
    <g id="xtick_5">
     <g id="line2d_9">
      <path clip-path="url(#p07d7f7880b)" d="M 359.902604 274.181875 
L 359.902604 14.599219 
" style="fill:none;stroke:#b0b0b0;stroke-dasharray:0.8,1.32;stroke-dashoffset:0;stroke-width:0.8;"/>
     </g>
     <g id="line2d_10">
      <g>
       <use style="stroke:#000000;stroke-width:0.8;" x="359.902604" xlink:href="#m9b2925f31c" y="274.181875"/>
      </g>
     </g>
     <g id="text_5">
      <!-- 80 -->
      <defs>
       <path d="M 31.78125 34.625 
Q 24.75 34.625 20.71875 30.859375 
Q 16.703125 27.09375 16.703125 20.515625 
Q 16.703125 13.921875 20.71875 10.15625 
Q 24.75 6.390625 31.78125 6.390625 
Q 38.8125 6.390625 42.859375 10.171875 
Q 46.921875 13.96875 46.921875 20.515625 
Q 46.921875 27.09375 42.890625 30.859375 
Q 38.875 34.625 31.78125 34.625 
z
M 21.921875 38.8125 
Q 15.578125 40.375 12.03125 44.71875 
Q 8.5 49.078125 8.5 55.328125 
Q 8.5 64.0625 14.71875 69.140625 
Q 20.953125 74.21875 31.78125 74.21875 
Q 42.671875 74.21875 48.875 69.140625 
Q 55.078125 64.0625 55.078125 55.328125 
Q 55.078125 49.078125 51.53125 44.71875 
Q 48 40.375 41.703125 38.8125 
Q 48.828125 37.15625 52.796875 32.3125 
Q 56.78125 27.484375 56.78125 20.515625 
Q 56.78125 9.90625 50.3125 4.234375 
Q 43.84375 -1.421875 31.78125 -1.421875 
Q 19.734375 -1.421875 13.25 4.234375 
Q 6.78125 9.90625 6.78125 20.515625 
Q 6.78125 27.484375 10.78125 32.3125 
Q 14.796875 37.15625 21.921875 38.8125 
z
M 18.3125 54.390625 
Q 18.3125 48.734375 21.84375 45.5625 
Q 25.390625 42.390625 31.78125 42.390625 
Q 38.140625 42.390625 41.71875 45.5625 
Q 45.3125 48.734375 45.3125 54.390625 
Q 45.3125 60.0625 41.71875 63.234375 
Q 38.140625 66.40625 31.78125 66.40625 
Q 25.390625 66.40625 21.84375 63.234375 
Q 18.3125 60.0625 18.3125 54.390625 
z
" id="DejaVuSans-38"/>
      </defs>
      <g transform="translate(353.540104 288.780313)scale(0.1 -0.1)">
       <use xlink:href="#DejaVuSans-38"/>
       <use x="63.623047" xlink:href="#DejaVuSans-30"/>
      </g>
     </g>
    </g>
    <g id="xtick_6">
     <g id="line2d_11">
      <path clip-path="url(#p07d7f7880b)" d="M 428.413021 274.181875 
L 428.413021 14.599219 
" style="fill:none;stroke:#b0b0b0;stroke-dasharray:0.8,1.32;stroke-dashoffset:0;stroke-width:0.8;"/>
     </g>
     <g id="line2d_12">
      <g>
       <use style="stroke:#000000;stroke-width:0.8;" x="428.413021" xlink:href="#m9b2925f31c" y="274.181875"/>
      </g>
     </g>
     <g id="text_6">
      <!-- 100 -->
      <defs>
       <path d="M 12.40625 8.296875 
L 28.515625 8.296875 
L 28.515625 63.921875 
L 10.984375 60.40625 
L 10.984375 69.390625 
L 28.421875 72.90625 
L 38.28125 72.90625 
L 38.28125 8.296875 
L 54.390625 8.296875 
L 54.390625 0 
L 12.40625 0 
z
" id="DejaVuSans-31"/>
      </defs>
      <g transform="translate(418.869271 288.780313)scale(0.1 -0.1)">
       <use xlink:href="#DejaVuSans-31"/>
       <use x="63.623047" xlink:href="#DejaVuSans-30"/>
       <use x="127.246094" xlink:href="#DejaVuSans-30"/>
      </g>
     </g>
    </g>
    <g id="xtick_7">
     <g id="line2d_13">
      <path clip-path="url(#p07d7f7880b)" d="M 496.923437 274.181875 
L 496.923437 14.599219 
" style="fill:none;stroke:#b0b0b0;stroke-dasharray:0.8,1.32;stroke-dashoffset:0;stroke-width:0.8;"/>
     </g>
     <g id="line2d_14">
      <g>
       <use style="stroke:#000000;stroke-width:0.8;" x="496.923437" xlink:href="#m9b2925f31c" y="274.181875"/>
      </g>
     </g>
     <g id="text_7">
      <!-- 120 -->
      <g transform="translate(487.379687 288.780313)scale(0.1 -0.1)">
       <use xlink:href="#DejaVuSans-31"/>
       <use x="63.623047" xlink:href="#DejaVuSans-32"/>
       <use x="127.246094" xlink:href="#DejaVuSans-30"/>
      </g>
     </g>
    </g>
    <g id="text_8">
     <!-- n (sampling frequency = M$f_i$) -->
     <defs>
      <path d="M 54.890625 33.015625 
L 54.890625 0 
L 45.90625 0 
L 45.90625 32.71875 
Q 45.90625 40.484375 42.875 44.328125 
Q 39.84375 48.1875 33.796875 48.1875 
Q 26.515625 48.1875 22.3125 43.546875 
Q 18.109375 38.921875 18.109375 30.90625 
L 18.109375 0 
L 9.078125 0 
L 9.078125 54.6875 
L 18.109375 54.6875 
L 18.109375 46.1875 
Q 21.34375 51.125 25.703125 53.5625 
Q 30.078125 56 35.796875 56 
Q 45.21875 56 50.046875 50.171875 
Q 54.890625 44.34375 54.890625 33.015625 
z
" id="DejaVuSans-6e"/>
      <path id="DejaVuSans-20"/>
      <path d="M 31 75.875 
Q 24.46875 64.65625 21.28125 53.65625 
Q 18.109375 42.671875 18.109375 31.390625 
Q 18.109375 20.125 21.3125 9.0625 
Q 24.515625 -2 31 -13.1875 
L 23.1875 -13.1875 
Q 15.875 -1.703125 12.234375 9.375 
Q 8.59375 20.453125 8.59375 31.390625 
Q 8.59375 42.28125 12.203125 53.3125 
Q 15.828125 64.359375 23.1875 75.875 
z
" id="DejaVuSans-28"/>
      <path d="M 44.28125 53.078125 
L 44.28125 44.578125 
Q 40.484375 46.53125 36.375 47.5 
Q 32.28125 48.484375 27.875 48.484375 
Q 21.1875 48.484375 17.84375 46.4375 
Q 14.5 44.390625 14.5 40.28125 
Q 14.5 37.15625 16.890625 35.375 
Q 19.28125 33.59375 26.515625 31.984375 
L 29.59375 31.296875 
Q 39.15625 29.25 43.1875 25.515625 
Q 47.21875 21.78125 47.21875 15.09375 
Q 47.21875 7.46875 41.1875 3.015625 
Q 35.15625 -1.421875 24.609375 -1.421875 
Q 20.21875 -1.421875 15.453125 -0.5625 
Q 10.6875 0.296875 5.421875 2 
L 5.421875 11.28125 
Q 10.40625 8.6875 15.234375 7.390625 
Q 20.0625 6.109375 24.8125 6.109375 
Q 31.15625 6.109375 34.5625 8.28125 
Q 37.984375 10.453125 37.984375 14.40625 
Q 37.984375 18.0625 35.515625 20.015625 
Q 33.0625 21.96875 24.703125 23.78125 
L 21.578125 24.515625 
Q 13.234375 26.265625 9.515625 29.90625 
Q 5.8125 33.546875 5.8125 39.890625 
Q 5.8125 47.609375 11.28125 51.796875 
Q 16.75 56 26.8125 56 
Q 31.78125 56 36.171875 55.265625 
Q 40.578125 54.546875 44.28125 53.078125 
z
" id="DejaVuSans-73"/>
      <path d="M 34.28125 27.484375 
Q 23.390625 27.484375 19.1875 25 
Q 14.984375 22.515625 14.984375 16.5 
Q 14.984375 11.71875 18.140625 8.90625 
Q 21.296875 6.109375 26.703125 6.109375 
Q 34.1875 6.109375 38.703125 11.40625 
Q 43.21875 16.703125 43.21875 25.484375 
L 43.21875 27.484375 
z
M 52.203125 31.203125 
L 52.203125 0 
L 43.21875 0 
L 43.21875 8.296875 
Q 40.140625 3.328125 35.546875 0.953125 
Q 30.953125 -1.421875 24.3125 -1.421875 
Q 15.921875 -1.421875 10.953125 3.296875 
Q 6 8.015625 6 15.921875 
Q 6 25.140625 12.171875 29.828125 
Q 18.359375 34.515625 30.609375 34.515625 
L 43.21875 34.515625 
L 43.21875 35.40625 
Q 43.21875 41.609375 39.140625 45 
Q 35.0625 48.390625 27.6875 48.390625 
Q 23 48.390625 18.546875 47.265625 
Q 14.109375 46.140625 10.015625 43.890625 
L 10.015625 52.203125 
Q 14.9375 54.109375 19.578125 55.046875 
Q 24.21875 56 28.609375 56 
Q 40.484375 56 46.34375 49.84375 
Q 52.203125 43.703125 52.203125 31.203125 
z
" id="DejaVuSans-61"/>
      <path d="M 52 44.1875 
Q 55.375 50.25 60.0625 53.125 
Q 64.75 56 71.09375 56 
Q 79.640625 56 84.28125 50.015625 
Q 88.921875 44.046875 88.921875 33.015625 
L 88.921875 0 
L 79.890625 0 
L 79.890625 32.71875 
Q 79.890625 40.578125 77.09375 44.375 
Q 74.3125 48.1875 68.609375 48.1875 
Q 61.625 48.1875 57.5625 43.546875 
Q 53.515625 38.921875 53.515625 30.90625 
L 53.515625 0 
L 44.484375 0 
L 44.484375 32.71875 
Q 44.484375 40.625 41.703125 44.40625 
Q 38.921875 48.1875 33.109375 48.1875 
Q 26.21875 48.1875 22.15625 43.53125 
Q 18.109375 38.875 18.109375 30.90625 
L 18.109375 0 
L 9.078125 0 
L 9.078125 54.6875 
L 18.109375 54.6875 
L 18.109375 46.1875 
Q 21.1875 51.21875 25.484375 53.609375 
Q 29.78125 56 35.6875 56 
Q 41.65625 56 45.828125 52.96875 
Q 50 49.953125 52 44.1875 
z
" id="DejaVuSans-6d"/>
      <path d="M 18.109375 8.203125 
L 18.109375 -20.796875 
L 9.078125 -20.796875 
L 9.078125 54.6875 
L 18.109375 54.6875 
L 18.109375 46.390625 
Q 20.953125 51.265625 25.265625 53.625 
Q 29.59375 56 35.59375 56 
Q 45.5625 56 51.78125 48.09375 
Q 58.015625 40.1875 58.015625 27.296875 
Q 58.015625 14.40625 51.78125 6.484375 
Q 45.5625 -1.421875 35.59375 -1.421875 
Q 29.59375 -1.421875 25.265625 0.953125 
Q 20.953125 3.328125 18.109375 8.203125 
z
M 48.6875 27.296875 
Q 48.6875 37.203125 44.609375 42.84375 
Q 40.53125 48.484375 33.40625 48.484375 
Q 26.265625 48.484375 22.1875 42.84375 
Q 18.109375 37.203125 18.109375 27.296875 
Q 18.109375 17.390625 22.1875 11.75 
Q 26.265625 6.109375 33.40625 6.109375 
Q 40.53125 6.109375 44.609375 11.75 
Q 48.6875 17.390625 48.6875 27.296875 
z
" id="DejaVuSans-70"/>
      <path d="M 9.421875 75.984375 
L 18.40625 75.984375 
L 18.40625 0 
L 9.421875 0 
z
" id="DejaVuSans-6c"/>
      <path d="M 9.421875 54.6875 
L 18.40625 54.6875 
L 18.40625 0 
L 9.421875 0 
z
M 9.421875 75.984375 
L 18.40625 75.984375 
L 18.40625 64.59375 
L 9.421875 64.59375 
z
" id="DejaVuSans-69"/>
      <path d="M 45.40625 27.984375 
Q 45.40625 37.75 41.375 43.109375 
Q 37.359375 48.484375 30.078125 48.484375 
Q 22.859375 48.484375 18.828125 43.109375 
Q 14.796875 37.75 14.796875 27.984375 
Q 14.796875 18.265625 18.828125 12.890625 
Q 22.859375 7.515625 30.078125 7.515625 
Q 37.359375 7.515625 41.375 12.890625 
Q 45.40625 18.265625 45.40625 27.984375 
z
M 54.390625 6.78125 
Q 54.390625 -7.171875 48.1875 -13.984375 
Q 42 -20.796875 29.203125 -20.796875 
Q 24.46875 -20.796875 20.265625 -20.09375 
Q 16.0625 -19.390625 12.109375 -17.921875 
L 12.109375 -9.1875 
Q 16.0625 -11.328125 19.921875 -12.34375 
Q 23.78125 -13.375 27.78125 -13.375 
Q 36.625 -13.375 41.015625 -8.765625 
Q 45.40625 -4.15625 45.40625 5.171875 
L 45.40625 9.625 
Q 42.625 4.78125 38.28125 2.390625 
Q 33.9375 0 27.875 0 
Q 17.828125 0 11.671875 7.65625 
Q 5.515625 15.328125 5.515625 27.984375 
Q 5.515625 40.671875 11.671875 48.328125 
Q 17.828125 56 27.875 56 
Q 33.9375 56 38.28125 53.609375 
Q 42.625 51.21875 45.40625 46.390625 
L 45.40625 54.6875 
L 54.390625 54.6875 
z
" id="DejaVuSans-67"/>
      <path d="M 37.109375 75.984375 
L 37.109375 68.5 
L 28.515625 68.5 
Q 23.6875 68.5 21.796875 66.546875 
Q 19.921875 64.59375 19.921875 59.515625 
L 19.921875 54.6875 
L 34.71875 54.6875 
L 34.71875 47.703125 
L 19.921875 47.703125 
L 19.921875 0 
L 10.890625 0 
L 10.890625 47.703125 
L 2.296875 47.703125 
L 2.296875 54.6875 
L 10.890625 54.6875 
L 10.890625 58.5 
Q 10.890625 67.625 15.140625 71.796875 
Q 19.390625 75.984375 28.609375 75.984375 
z
" id="DejaVuSans-66"/>
      <path d="M 41.109375 46.296875 
Q 39.59375 47.171875 37.8125 47.578125 
Q 36.03125 48 33.890625 48 
Q 26.265625 48 22.1875 43.046875 
Q 18.109375 38.09375 18.109375 28.8125 
L 18.109375 0 
L 9.078125 0 
L 9.078125 54.6875 
L 18.109375 54.6875 
L 18.109375 46.1875 
Q 20.953125 51.171875 25.484375 53.578125 
Q 30.03125 56 36.53125 56 
Q 37.453125 56 38.578125 55.875 
Q 39.703125 55.765625 41.0625 55.515625 
z
" id="DejaVuSans-72"/>
      <path d="M 56.203125 29.59375 
L 56.203125 25.203125 
L 14.890625 25.203125 
Q 15.484375 15.921875 20.484375 11.0625 
Q 25.484375 6.203125 34.421875 6.203125 
Q 39.59375 6.203125 44.453125 7.46875 
Q 49.3125 8.734375 54.109375 11.28125 
L 54.109375 2.78125 
Q 49.265625 0.734375 44.1875 -0.34375 
Q 39.109375 -1.421875 33.890625 -1.421875 
Q 20.796875 -1.421875 13.15625 6.1875 
Q 5.515625 13.8125 5.515625 26.8125 
Q 5.515625 40.234375 12.765625 48.109375 
Q 20.015625 56 32.328125 56 
Q 43.359375 56 49.78125 48.890625 
Q 56.203125 41.796875 56.203125 29.59375 
z
M 47.21875 32.234375 
Q 47.125 39.59375 43.09375 43.984375 
Q 39.0625 48.390625 32.421875 48.390625 
Q 24.90625 48.390625 20.390625 44.140625 
Q 15.875 39.890625 15.1875 32.171875 
z
" id="DejaVuSans-65"/>
      <path d="M 14.796875 27.296875 
Q 14.796875 17.390625 18.875 11.75 
Q 22.953125 6.109375 30.078125 6.109375 
Q 37.203125 6.109375 41.296875 11.75 
Q 45.40625 17.390625 45.40625 27.296875 
Q 45.40625 37.203125 41.296875 42.84375 
Q 37.203125 48.484375 30.078125 48.484375 
Q 22.953125 48.484375 18.875 42.84375 
Q 14.796875 37.203125 14.796875 27.296875 
z
M 45.40625 8.203125 
Q 42.578125 3.328125 38.25 0.953125 
Q 33.9375 -1.421875 27.875 -1.421875 
Q 17.96875 -1.421875 11.734375 6.484375 
Q 5.515625 14.40625 5.515625 27.296875 
Q 5.515625 40.1875 11.734375 48.09375 
Q 17.96875 56 27.875 56 
Q 33.9375 56 38.25 53.625 
Q 42.578125 51.265625 45.40625 46.390625 
L 45.40625 54.6875 
L 54.390625 54.6875 
L 54.390625 -20.796875 
L 45.40625 -20.796875 
z
" id="DejaVuSans-71"/>
      <path d="M 8.5 21.578125 
L 8.5 54.6875 
L 17.484375 54.6875 
L 17.484375 21.921875 
Q 17.484375 14.15625 20.5 10.265625 
Q 23.53125 6.390625 29.59375 6.390625 
Q 36.859375 6.390625 41.078125 11.03125 
Q 45.3125 15.671875 45.3125 23.6875 
L 45.3125 54.6875 
L 54.296875 54.6875 
L 54.296875 0 
L 45.3125 0 
L 45.3125 8.40625 
Q 42.046875 3.421875 37.71875 1 
Q 33.40625 -1.421875 27.6875 -1.421875 
Q 18.265625 -1.421875 13.375 4.4375 
Q 8.5 10.296875 8.5 21.578125 
z
M 31.109375 56 
z
" id="DejaVuSans-75"/>
      <path d="M 48.78125 52.59375 
L 48.78125 44.1875 
Q 44.96875 46.296875 41.140625 47.34375 
Q 37.3125 48.390625 33.40625 48.390625 
Q 24.65625 48.390625 19.8125 42.84375 
Q 14.984375 37.3125 14.984375 27.296875 
Q 14.984375 17.28125 19.8125 11.734375 
Q 24.65625 6.203125 33.40625 6.203125 
Q 37.3125 6.203125 41.140625 7.25 
Q 44.96875 8.296875 48.78125 10.40625 
L 48.78125 2.09375 
Q 45.015625 0.34375 40.984375 -0.53125 
Q 36.96875 -1.421875 32.421875 -1.421875 
Q 20.0625 -1.421875 12.78125 6.34375 
Q 5.515625 14.109375 5.515625 27.296875 
Q 5.515625 40.671875 12.859375 48.328125 
Q 20.21875 56 33.015625 56 
Q 37.15625 56 41.109375 55.140625 
Q 45.0625 54.296875 48.78125 52.59375 
z
" id="DejaVuSans-63"/>
      <path d="M 32.171875 -5.078125 
Q 28.375 -14.84375 24.75 -17.8125 
Q 21.140625 -20.796875 15.09375 -20.796875 
L 7.90625 -20.796875 
L 7.90625 -13.28125 
L 13.1875 -13.28125 
Q 16.890625 -13.28125 18.9375 -11.515625 
Q 21 -9.765625 23.484375 -3.21875 
L 25.09375 0.875 
L 2.984375 54.6875 
L 12.5 54.6875 
L 29.59375 11.921875 
L 46.6875 54.6875 
L 56.203125 54.6875 
z
" id="DejaVuSans-79"/>
      <path d="M 10.59375 45.40625 
L 73.1875 45.40625 
L 73.1875 37.203125 
L 10.59375 37.203125 
z
M 10.59375 25.484375 
L 73.1875 25.484375 
L 73.1875 17.1875 
L 10.59375 17.1875 
z
" id="DejaVuSans-3d"/>
      <path d="M 9.8125 72.90625 
L 24.515625 72.90625 
L 43.109375 23.296875 
L 61.8125 72.90625 
L 76.515625 72.90625 
L 76.515625 0 
L 66.890625 0 
L 66.890625 64.015625 
L 48.09375 14.015625 
L 38.1875 14.015625 
L 19.390625 64.015625 
L 19.390625 0 
L 9.8125 0 
z
" id="DejaVuSans-4d"/>
      <path d="M 47.796875 75.984375 
L 46.390625 68.5 
L 37.796875 68.5 
Q 32.90625 68.5 30.6875 66.578125 
Q 28.46875 64.65625 27.390625 59.515625 
L 26.421875 54.6875 
L 41.21875 54.6875 
L 39.890625 47.703125 
L 25.09375 47.703125 
L 15.828125 0 
L 6.78125 0 
L 16.109375 47.703125 
L 7.515625 47.703125 
L 8.796875 54.6875 
L 17.390625 54.6875 
L 18.109375 58.5 
Q 19.96875 68.171875 24.625 72.078125 
Q 29.296875 75.984375 39.3125 75.984375 
z
" id="DejaVuSans-Oblique-66"/>
      <path d="M 18.3125 75.984375 
L 27.296875 75.984375 
L 25.09375 64.59375 
L 16.109375 64.59375 
z
M 14.203125 54.6875 
L 23.1875 54.6875 
L 12.5 0 
L 3.515625 0 
z
" id="DejaVuSans-Oblique-69"/>
      <path d="M 8.015625 75.875 
L 15.828125 75.875 
Q 23.140625 64.359375 26.78125 53.3125 
Q 30.421875 42.28125 30.421875 31.390625 
Q 30.421875 20.453125 26.78125 9.375 
Q 23.140625 -1.703125 15.828125 -13.1875 
L 8.015625 -13.1875 
Q 14.5 -2 17.703125 9.0625 
Q 20.90625 20.125 20.90625 31.390625 
Q 20.90625 42.671875 17.703125 53.65625 
Q 14.5 64.65625 8.015625 75.875 
z
" id="DejaVuSans-29"/>
     </defs>
     <g transform="translate(218.542187 302.46)scale(0.1 -0.1)">
      <use transform="translate(0 0.015625)" xlink:href="#DejaVuSans-6e"/>
      <use transform="translate(63.378906 0.015625)" xlink:href="#DejaVuSans-20"/>
      <use transform="translate(95.166016 0.015625)" xlink:href="#DejaVuSans-28"/>
      <use transform="translate(134.179688 0.015625)" xlink:href="#DejaVuSans-73"/>
      <use transform="translate(186.279297 0.015625)" xlink:href="#DejaVuSans-61"/>
      <use transform="translate(247.558594 0.015625)" xlink:href="#DejaVuSans-6d"/>
      <use transform="translate(344.970703 0.015625)" xlink:href="#DejaVuSans-70"/>
      <use transform="translate(408.447266 0.015625)" xlink:href="#DejaVuSans-6c"/>
      <use transform="translate(436.230469 0.015625)" xlink:href="#DejaVuSans-69"/>
      <use transform="translate(464.013672 0.015625)" xlink:href="#DejaVuSans-6e"/>
      <use transform="translate(527.392578 0.015625)" xlink:href="#DejaVuSans-67"/>
      <use transform="translate(590.869141 0.015625)" xlink:href="#DejaVuSans-20"/>
      <use transform="translate(622.65625 0.015625)" xlink:href="#DejaVuSans-66"/>
      <use transform="translate(657.861328 0.015625)" xlink:href="#DejaVuSans-72"/>
      <use transform="translate(698.974609 0.015625)" xlink:href="#DejaVuSans-65"/>
      <use transform="translate(760.498047 0.015625)" xlink:href="#DejaVuSans-71"/>
      <use transform="translate(823.974609 0.015625)" xlink:href="#DejaVuSans-75"/>
      <use transform="translate(887.353516 0.015625)" xlink:href="#DejaVuSans-65"/>
      <use transform="translate(948.876953 0.015625)" xlink:href="#DejaVuSans-6e"/>
      <use transform="translate(1012.255859 0.015625)" xlink:href="#DejaVuSans-63"/>
      <use transform="translate(1067.236328 0.015625)" xlink:href="#DejaVuSans-79"/>
      <use transform="translate(1126.416016 0.015625)" xlink:href="#DejaVuSans-20"/>
      <use transform="translate(1158.203125 0.015625)" xlink:href="#DejaVuSans-3d"/>
      <use transform="translate(1241.992188 0.015625)" xlink:href="#DejaVuSans-20"/>
      <use transform="translate(1273.779297 0.015625)" xlink:href="#DejaVuSans-4d"/>
      <use transform="translate(1360.058594 0.015625)" xlink:href="#DejaVuSans-Oblique-66"/>
      <use transform="translate(1395.263672 -16.390625)scale(0.7)" xlink:href="#DejaVuSans-Oblique-69"/>
      <use transform="translate(1417.446289 0.015625)" xlink:href="#DejaVuSans-29"/>
     </g>
    </g>
   </g>
   <g id="matplotlib.axis_2">
    <g id="ytick_1">
     <g id="line2d_15">
      <path clip-path="url(#p07d7f7880b)" d="M 65.307812 273.815772 
L 517.476562 273.815772 
" style="fill:none;stroke:#b0b0b0;stroke-dasharray:0.8,1.32;stroke-dashoffset:0;stroke-width:0.8;"/>
     </g>
     <g id="line2d_16">
      <defs>
       <path d="M 0 0 
L -3.5 0 
" id="mc73f0a8360" style="stroke:#000000;stroke-width:0.8;"/>
      </defs>
      <g>
       <use style="stroke:#000000;stroke-width:0.8;" x="65.307812" xlink:href="#mc73f0a8360" y="273.815772"/>
      </g>
     </g>
     <g id="text_9">
      <!-- −2000 -->
      <defs>
       <path d="M 10.59375 35.5 
L 73.1875 35.5 
L 73.1875 27.203125 
L 10.59375 27.203125 
z
" id="DejaVuSans-2212"/>
      </defs>
      <g transform="translate(24.478125 277.614991)scale(0.1 -0.1)">
       <use xlink:href="#DejaVuSans-2212"/>
       <use x="83.789062" xlink:href="#DejaVuSans-32"/>
       <use x="147.412109" xlink:href="#DejaVuSans-30"/>
       <use x="211.035156" xlink:href="#DejaVuSans-30"/>
       <use x="274.658203" xlink:href="#DejaVuSans-30"/>
      </g>
     </g>
    </g>
    <g id="ytick_2">
     <g id="line2d_17">
      <path clip-path="url(#p07d7f7880b)" d="M 65.307812 225.164245 
L 517.476562 225.164245 
" style="fill:none;stroke:#b0b0b0;stroke-dasharray:0.8,1.32;stroke-dashoffset:0;stroke-width:0.8;"/>
     </g>
     <g id="line2d_18">
      <g>
       <use style="stroke:#000000;stroke-width:0.8;" x="65.307812" xlink:href="#mc73f0a8360" y="225.164245"/>
      </g>
     </g>
     <g id="text_10">
      <!-- 0 -->
      <g transform="translate(51.945312 228.963464)scale(0.1 -0.1)">
       <use xlink:href="#DejaVuSans-30"/>
      </g>
     </g>
    </g>
    <g id="ytick_3">
     <g id="line2d_19">
      <path clip-path="url(#p07d7f7880b)" d="M 65.307812 176.512718 
L 517.476562 176.512718 
" style="fill:none;stroke:#b0b0b0;stroke-dasharray:0.8,1.32;stroke-dashoffset:0;stroke-width:0.8;"/>
     </g>
     <g id="line2d_20">
      <g>
       <use style="stroke:#000000;stroke-width:0.8;" x="65.307812" xlink:href="#mc73f0a8360" y="176.512718"/>
      </g>
     </g>
     <g id="text_11">
      <!-- 2000 -->
      <g transform="translate(32.857812 180.311936)scale(0.1 -0.1)">
       <use xlink:href="#DejaVuSans-32"/>
       <use x="63.623047" xlink:href="#DejaVuSans-30"/>
       <use x="127.246094" xlink:href="#DejaVuSans-30"/>
       <use x="190.869141" xlink:href="#DejaVuSans-30"/>
      </g>
     </g>
    </g>
    <g id="ytick_4">
     <g id="line2d_21">
      <path clip-path="url(#p07d7f7880b)" d="M 65.307812 127.86119 
L 517.476562 127.86119 
" style="fill:none;stroke:#b0b0b0;stroke-dasharray:0.8,1.32;stroke-dashoffset:0;stroke-width:0.8;"/>
     </g>
     <g id="line2d_22">
      <g>
       <use style="stroke:#000000;stroke-width:0.8;" x="65.307812" xlink:href="#mc73f0a8360" y="127.86119"/>
      </g>
     </g>
     <g id="text_12">
      <!-- 4000 -->
      <g transform="translate(32.857812 131.660409)scale(0.1 -0.1)">
       <use xlink:href="#DejaVuSans-34"/>
       <use x="63.623047" xlink:href="#DejaVuSans-30"/>
       <use x="127.246094" xlink:href="#DejaVuSans-30"/>
       <use x="190.869141" xlink:href="#DejaVuSans-30"/>
      </g>
     </g>
    </g>
    <g id="ytick_5">
     <g id="line2d_23">
      <path clip-path="url(#p07d7f7880b)" d="M 65.307812 79.209663 
L 517.476562 79.209663 
" style="fill:none;stroke:#b0b0b0;stroke-dasharray:0.8,1.32;stroke-dashoffset:0;stroke-width:0.8;"/>
     </g>
     <g id="line2d_24">
      <g>
       <use style="stroke:#000000;stroke-width:0.8;" x="65.307812" xlink:href="#mc73f0a8360" y="79.209663"/>
      </g>
     </g>
     <g id="text_13">
      <!-- 6000 -->
      <g transform="translate(32.857812 83.008882)scale(0.1 -0.1)">
       <use xlink:href="#DejaVuSans-36"/>
       <use x="63.623047" xlink:href="#DejaVuSans-30"/>
       <use x="127.246094" xlink:href="#DejaVuSans-30"/>
       <use x="190.869141" xlink:href="#DejaVuSans-30"/>
      </g>
     </g>
    </g>
    <g id="ytick_6">
     <g id="line2d_25">
      <path clip-path="url(#p07d7f7880b)" d="M 65.307812 30.558136 
L 517.476562 30.558136 
" style="fill:none;stroke:#b0b0b0;stroke-dasharray:0.8,1.32;stroke-dashoffset:0;stroke-width:0.8;"/>
     </g>
     <g id="line2d_26">
      <g>
       <use style="stroke:#000000;stroke-width:0.8;" x="65.307812" xlink:href="#mc73f0a8360" y="30.558136"/>
      </g>
     </g>
     <g id="text_14">
      <!-- 8000 -->
      <g transform="translate(32.857812 34.357355)scale(0.1 -0.1)">
       <use xlink:href="#DejaVuSans-38"/>
       <use x="63.623047" xlink:href="#DejaVuSans-30"/>
       <use x="127.246094" xlink:href="#DejaVuSans-30"/>
       <use x="190.869141" xlink:href="#DejaVuSans-30"/>
      </g>
     </g>
    </g>
    <g id="text_15">
     <!-- d12 -->
     <defs>
      <path d="M 45.40625 46.390625 
L 45.40625 75.984375 
L 54.390625 75.984375 
L 54.390625 0 
L 45.40625 0 
L 45.40625 8.203125 
Q 42.578125 3.328125 38.25 0.953125 
Q 33.9375 -1.421875 27.875 -1.421875 
Q 17.96875 -1.421875 11.734375 6.484375 
Q 5.515625 14.40625 5.515625 27.296875 
Q 5.515625 40.1875 11.734375 48.09375 
Q 17.96875 56 27.875 56 
Q 33.9375 56 38.25 53.625 
Q 42.578125 51.265625 45.40625 46.390625 
z
M 14.796875 27.296875 
Q 14.796875 17.390625 18.875 11.75 
Q 22.953125 6.109375 30.078125 6.109375 
Q 37.203125 6.109375 41.296875 11.75 
Q 45.40625 17.390625 45.40625 27.296875 
Q 45.40625 37.203125 41.296875 42.84375 
Q 37.203125 48.484375 30.078125 48.484375 
Q 22.953125 48.484375 18.875 42.84375 
Q 14.796875 37.203125 14.796875 27.296875 
z
" id="DejaVuSans-64"/>
     </defs>
     <g transform="translate(18.398438 153.927266)rotate(-90)scale(0.1 -0.1)">
      <use xlink:href="#DejaVuSans-64"/>
      <use x="63.476562" xlink:href="#DejaVuSans-31"/>
      <use x="127.099609" xlink:href="#DejaVuSans-32"/>
     </g>
    </g>
   </g>
   <g id="line2d_27">
    <defs>
     <path d="M 0 3 
C 0.795609 3 1.55874 2.683901 2.12132 2.12132 
C 2.683901 1.55874 3 0.795609 3 0 
C 3 -0.795609 2.683901 -1.55874 2.12132 -2.12132 
C 1.55874 -2.683901 0.795609 -3 0 -3 
C -0.795609 -3 -1.55874 -2.683901 -2.12132 -2.12132 
C -2.683901 -1.55874 -3 -0.795609 -3 0 
C -3 0.795609 -2.683901 1.55874 -2.12132 2.12132 
C -1.55874 2.683901 -0.795609 3 0 3 
z
" id="m2d1325a494" style="stroke:#1f77b4;"/>
    </defs>
    <g clip-path="url(#p07d7f7880b)">
     <use style="fill:#1f77b4;stroke:#1f77b4;" x="85.860937" xlink:href="#m2d1325a494" y="26.39843"/>
     <use style="fill:#1f77b4;stroke:#1f77b4;" x="89.286458" xlink:href="#m2d1325a494" y="225.164245"/>
     <use style="fill:#1f77b4;stroke:#1f77b4;" x="92.711979" xlink:href="#m2d1325a494" y="225.164245"/>
     <use style="fill:#1f77b4;stroke:#1f77b4;" x="96.1375" xlink:href="#m2d1325a494" y="225.164245"/>
     <use style="fill:#1f77b4;stroke:#1f77b4;" x="99.563021" xlink:href="#m2d1325a494" y="225.164245"/>
     <use style="fill:#1f77b4;stroke:#1f77b4;" x="102.988542" xlink:href="#m2d1325a494" y="225.164245"/>
     <use style="fill:#1f77b4;stroke:#1f77b4;" x="106.414062" xlink:href="#m2d1325a494" y="225.164245"/>
     <use style="fill:#1f77b4;stroke:#1f77b4;" x="109.839583" xlink:href="#m2d1325a494" y="225.164245"/>
     <use style="fill:#1f77b4;stroke:#1f77b4;" x="113.265104" xlink:href="#m2d1325a494" y="225.164245"/>
     <use style="fill:#1f77b4;stroke:#1f77b4;" x="116.690625" xlink:href="#m2d1325a494" y="225.164245"/>
     <use style="fill:#1f77b4;stroke:#1f77b4;" x="120.116146" xlink:href="#m2d1325a494" y="225.164245"/>
     <use style="fill:#1f77b4;stroke:#1f77b4;" x="123.541667" xlink:href="#m2d1325a494" y="225.164245"/>
     <use style="fill:#1f77b4;stroke:#1f77b4;" x="126.967187" xlink:href="#m2d1325a494" y="65.052069"/>
     <use style="fill:#1f77b4;stroke:#1f77b4;" x="130.392708" xlink:href="#m2d1325a494" y="225.164245"/>
     <use style="fill:#1f77b4;stroke:#1f77b4;" x="133.818229" xlink:href="#m2d1325a494" y="225.164245"/>
     <use style="fill:#1f77b4;stroke:#1f77b4;" x="137.24375" xlink:href="#m2d1325a494" y="225.164245"/>
     <use style="fill:#1f77b4;stroke:#1f77b4;" x="140.669271" xlink:href="#m2d1325a494" y="225.164245"/>
     <use style="fill:#1f77b4;stroke:#1f77b4;" x="144.094792" xlink:href="#m2d1325a494" y="225.164245"/>
     <use style="fill:#1f77b4;stroke:#1f77b4;" x="147.520312" xlink:href="#m2d1325a494" y="225.164245"/>
     <use style="fill:#1f77b4;stroke:#1f77b4;" x="150.945833" xlink:href="#m2d1325a494" y="225.164245"/>
     <use style="fill:#1f77b4;stroke:#1f77b4;" x="154.371354" xlink:href="#m2d1325a494" y="225.164245"/>
     <use style="fill:#1f77b4;stroke:#1f77b4;" x="157.796875" xlink:href="#m2d1325a494" y="225.164245"/>
     <use style="fill:#1f77b4;stroke:#1f77b4;" x="161.222396" xlink:href="#m2d1325a494" y="225.164245"/>
     <use style="fill:#1f77b4;stroke:#1f77b4;" x="164.647917" xlink:href="#m2d1325a494" y="225.164245"/>
     <use style="fill:#1f77b4;stroke:#1f77b4;" x="168.073437" xlink:href="#m2d1325a494" y="160.263108"/>
     <use style="fill:#1f77b4;stroke:#1f77b4;" x="171.498958" xlink:href="#m2d1325a494" y="225.164245"/>
     <use style="fill:#1f77b4;stroke:#1f77b4;" x="174.924479" xlink:href="#m2d1325a494" y="225.164245"/>
     <use style="fill:#1f77b4;stroke:#1f77b4;" x="178.35" xlink:href="#m2d1325a494" y="225.164245"/>
     <use style="fill:#1f77b4;stroke:#1f77b4;" x="181.775521" xlink:href="#m2d1325a494" y="225.164245"/>
     <use style="fill:#1f77b4;stroke:#1f77b4;" x="185.201042" xlink:href="#m2d1325a494" y="225.164245"/>
     <use style="fill:#1f77b4;stroke:#1f77b4;" x="188.626562" xlink:href="#m2d1325a494" y="225.164245"/>
     <use style="fill:#1f77b4;stroke:#1f77b4;" x="192.052083" xlink:href="#m2d1325a494" y="225.164245"/>
     <use style="fill:#1f77b4;stroke:#1f77b4;" x="195.477604" xlink:href="#m2d1325a494" y="225.164245"/>
     <use style="fill:#1f77b4;stroke:#1f77b4;" x="198.903125" xlink:href="#m2d1325a494" y="225.164245"/>
     <use style="fill:#1f77b4;stroke:#1f77b4;" x="202.328646" xlink:href="#m2d1325a494" y="225.164245"/>
     <use style="fill:#1f77b4;stroke:#1f77b4;" x="205.754167" xlink:href="#m2d1325a494" y="225.164245"/>
     <use style="fill:#1f77b4;stroke:#1f77b4;" x="209.179687" xlink:href="#m2d1325a494" y="237.886619"/>
     <use style="fill:#1f77b4;stroke:#1f77b4;" x="212.605208" xlink:href="#m2d1325a494" y="225.164245"/>
     <use style="fill:#1f77b4;stroke:#1f77b4;" x="216.030729" xlink:href="#m2d1325a494" y="225.164245"/>
     <use style="fill:#1f77b4;stroke:#1f77b4;" x="219.45625" xlink:href="#m2d1325a494" y="225.164245"/>
     <use style="fill:#1f77b4;stroke:#1f77b4;" x="222.881771" xlink:href="#m2d1325a494" y="225.164245"/>
     <use style="fill:#1f77b4;stroke:#1f77b4;" x="226.307292" xlink:href="#m2d1325a494" y="225.164245"/>
     <use style="fill:#1f77b4;stroke:#1f77b4;" x="229.732812" xlink:href="#m2d1325a494" y="225.164245"/>
     <use style="fill:#1f77b4;stroke:#1f77b4;" x="233.158333" xlink:href="#m2d1325a494" y="225.164245"/>
     <use style="fill:#1f77b4;stroke:#1f77b4;" x="236.583854" xlink:href="#m2d1325a494" y="225.164245"/>
     <use style="fill:#1f77b4;stroke:#1f77b4;" x="240.009375" xlink:href="#m2d1325a494" y="225.164245"/>
     <use style="fill:#1f77b4;stroke:#1f77b4;" x="243.434896" xlink:href="#m2d1325a494" y="225.164245"/>
     <use style="fill:#1f77b4;stroke:#1f77b4;" x="246.860417" xlink:href="#m2d1325a494" y="225.164245"/>
     <use style="fill:#1f77b4;stroke:#1f77b4;" x="250.285937" xlink:href="#m2d1325a494" y="262.382663"/>
     <use style="fill:#1f77b4;stroke:#1f77b4;" x="253.711458" xlink:href="#m2d1325a494" y="225.164245"/>
     <use style="fill:#1f77b4;stroke:#1f77b4;" x="257.136979" xlink:href="#m2d1325a494" y="225.164245"/>
     <use style="fill:#1f77b4;stroke:#1f77b4;" x="260.5625" xlink:href="#m2d1325a494" y="225.164245"/>
     <use style="fill:#1f77b4;stroke:#1f77b4;" x="263.988021" xlink:href="#m2d1325a494" y="225.164245"/>
     <use style="fill:#1f77b4;stroke:#1f77b4;" x="267.413542" xlink:href="#m2d1325a494" y="225.164245"/>
     <use style="fill:#1f77b4;stroke:#1f77b4;" x="270.839062" xlink:href="#m2d1325a494" y="225.164245"/>
     <use style="fill:#1f77b4;stroke:#1f77b4;" x="274.264583" xlink:href="#m2d1325a494" y="225.164245"/>
     <use style="fill:#1f77b4;stroke:#1f77b4;" x="277.690104" xlink:href="#m2d1325a494" y="225.164245"/>
     <use style="fill:#1f77b4;stroke:#1f77b4;" x="281.115625" xlink:href="#m2d1325a494" y="225.164245"/>
     <use style="fill:#1f77b4;stroke:#1f77b4;" x="284.541146" xlink:href="#m2d1325a494" y="225.164245"/>
     <use style="fill:#1f77b4;stroke:#1f77b4;" x="287.966667" xlink:href="#m2d1325a494" y="225.164245"/>
     <use style="fill:#1f77b4;stroke:#1f77b4;" x="291.392187" xlink:href="#m2d1325a494" y="240.416499"/>
     <use style="fill:#1f77b4;stroke:#1f77b4;" x="294.817708" xlink:href="#m2d1325a494" y="225.164245"/>
     <use style="fill:#1f77b4;stroke:#1f77b4;" x="298.243229" xlink:href="#m2d1325a494" y="225.164245"/>
     <use style="fill:#1f77b4;stroke:#1f77b4;" x="301.66875" xlink:href="#m2d1325a494" y="225.164245"/>
     <use style="fill:#1f77b4;stroke:#1f77b4;" x="305.094271" xlink:href="#m2d1325a494" y="225.164245"/>
     <use style="fill:#1f77b4;stroke:#1f77b4;" x="308.519792" xlink:href="#m2d1325a494" y="225.164245"/>
     <use style="fill:#1f77b4;stroke:#1f77b4;" x="311.945312" xlink:href="#m2d1325a494" y="225.164245"/>
     <use style="fill:#1f77b4;stroke:#1f77b4;" x="315.370833" xlink:href="#m2d1325a494" y="225.164245"/>
     <use style="fill:#1f77b4;stroke:#1f77b4;" x="318.796354" xlink:href="#m2d1325a494" y="225.164245"/>
     <use style="fill:#1f77b4;stroke:#1f77b4;" x="322.221875" xlink:href="#m2d1325a494" y="225.164245"/>
     <use style="fill:#1f77b4;stroke:#1f77b4;" x="325.647396" xlink:href="#m2d1325a494" y="225.164245"/>
     <use style="fill:#1f77b4;stroke:#1f77b4;" x="329.072917" xlink:href="#m2d1325a494" y="225.164245"/>
     <use style="fill:#1f77b4;stroke:#1f77b4;" x="332.498437" xlink:href="#m2d1325a494" y="192.032555"/>
     <use style="fill:#1f77b4;stroke:#1f77b4;" x="335.923958" xlink:href="#m2d1325a494" y="225.164245"/>
     <use style="fill:#1f77b4;stroke:#1f77b4;" x="339.349479" xlink:href="#m2d1325a494" y="225.164245"/>
     <use style="fill:#1f77b4;stroke:#1f77b4;" x="342.775" xlink:href="#m2d1325a494" y="225.164245"/>
     <use style="fill:#1f77b4;stroke:#1f77b4;" x="346.200521" xlink:href="#m2d1325a494" y="225.164245"/>
     <use style="fill:#1f77b4;stroke:#1f77b4;" x="349.626042" xlink:href="#m2d1325a494" y="225.164245"/>
     <use style="fill:#1f77b4;stroke:#1f77b4;" x="353.051562" xlink:href="#m2d1325a494" y="225.164245"/>
     <use style="fill:#1f77b4;stroke:#1f77b4;" x="356.477083" xlink:href="#m2d1325a494" y="225.164245"/>
     <use style="fill:#1f77b4;stroke:#1f77b4;" x="359.902604" xlink:href="#m2d1325a494" y="225.164245"/>
     <use style="fill:#1f77b4;stroke:#1f77b4;" x="363.328125" xlink:href="#m2d1325a494" y="225.164245"/>
     <use style="fill:#1f77b4;stroke:#1f77b4;" x="366.753646" xlink:href="#m2d1325a494" y="225.164245"/>
     <use style="fill:#1f77b4;stroke:#1f77b4;" x="370.179167" xlink:href="#m2d1325a494" y="225.164245"/>
     <use style="fill:#1f77b4;stroke:#1f77b4;" x="373.604687" xlink:href="#m2d1325a494" y="142.918838"/>
     <use style="fill:#1f77b4;stroke:#1f77b4;" x="377.030208" xlink:href="#m2d1325a494" y="225.164245"/>
     <use style="fill:#1f77b4;stroke:#1f77b4;" x="380.455729" xlink:href="#m2d1325a494" y="225.164245"/>
     <use style="fill:#1f77b4;stroke:#1f77b4;" x="383.88125" xlink:href="#m2d1325a494" y="225.164245"/>
     <use style="fill:#1f77b4;stroke:#1f77b4;" x="387.306771" xlink:href="#m2d1325a494" y="225.164245"/>
     <use style="fill:#1f77b4;stroke:#1f77b4;" x="390.732292" xlink:href="#m2d1325a494" y="225.164245"/>
     <use style="fill:#1f77b4;stroke:#1f77b4;" x="394.157812" xlink:href="#m2d1325a494" y="225.164245"/>
     <use style="fill:#1f77b4;stroke:#1f77b4;" x="397.583333" xlink:href="#m2d1325a494" y="225.164245"/>
     <use style="fill:#1f77b4;stroke:#1f77b4;" x="401.008854" xlink:href="#m2d1325a494" y="225.164245"/>
     <use style="fill:#1f77b4;stroke:#1f77b4;" x="404.434375" xlink:href="#m2d1325a494" y="225.164245"/>
     <use style="fill:#1f77b4;stroke:#1f77b4;" x="407.859896" xlink:href="#m2d1325a494" y="225.164245"/>
     <use style="fill:#1f77b4;stroke:#1f77b4;" x="411.285417" xlink:href="#m2d1325a494" y="225.164245"/>
     <use style="fill:#1f77b4;stroke:#1f77b4;" x="414.710937" xlink:href="#m2d1325a494" y="122.241939"/>
     <use style="fill:#1f77b4;stroke:#1f77b4;" x="418.136458" xlink:href="#m2d1325a494" y="225.164245"/>
     <use style="fill:#1f77b4;stroke:#1f77b4;" x="421.561979" xlink:href="#m2d1325a494" y="225.164245"/>
     <use style="fill:#1f77b4;stroke:#1f77b4;" x="424.9875" xlink:href="#m2d1325a494" y="225.164245"/>
     <use style="fill:#1f77b4;stroke:#1f77b4;" x="428.413021" xlink:href="#m2d1325a494" y="225.164245"/>
     <use style="fill:#1f77b4;stroke:#1f77b4;" x="431.838542" xlink:href="#m2d1325a494" y="225.164245"/>
     <use style="fill:#1f77b4;stroke:#1f77b4;" x="435.264062" xlink:href="#m2d1325a494" y="225.164245"/>
     <use style="fill:#1f77b4;stroke:#1f77b4;" x="438.689583" xlink:href="#m2d1325a494" y="225.164245"/>
     <use style="fill:#1f77b4;stroke:#1f77b4;" x="442.115104" xlink:href="#m2d1325a494" y="225.164245"/>
     <use style="fill:#1f77b4;stroke:#1f77b4;" x="445.540625" xlink:href="#m2d1325a494" y="225.164245"/>
     <use style="fill:#1f77b4;stroke:#1f77b4;" x="448.966146" xlink:href="#m2d1325a494" y="225.164245"/>
     <use style="fill:#1f77b4;stroke:#1f77b4;" x="452.391667" xlink:href="#m2d1325a494" y="225.164245"/>
     <use style="fill:#1f77b4;stroke:#1f77b4;" x="455.817187" xlink:href="#m2d1325a494" y="143.332376"/>
     <use style="fill:#1f77b4;stroke:#1f77b4;" x="459.242708" xlink:href="#m2d1325a494" y="225.164245"/>
     <use style="fill:#1f77b4;stroke:#1f77b4;" x="462.668229" xlink:href="#m2d1325a494" y="225.164245"/>
     <use style="fill:#1f77b4;stroke:#1f77b4;" x="466.09375" xlink:href="#m2d1325a494" y="225.164245"/>
     <use style="fill:#1f77b4;stroke:#1f77b4;" x="469.519271" xlink:href="#m2d1325a494" y="225.164245"/>
     <use style="fill:#1f77b4;stroke:#1f77b4;" x="472.944792" xlink:href="#m2d1325a494" y="225.164245"/>
     <use style="fill:#1f77b4;stroke:#1f77b4;" x="476.370312" xlink:href="#m2d1325a494" y="225.164245"/>
     <use style="fill:#1f77b4;stroke:#1f77b4;" x="479.795833" xlink:href="#m2d1325a494" y="225.164245"/>
     <use style="fill:#1f77b4;stroke:#1f77b4;" x="483.221354" xlink:href="#m2d1325a494" y="225.164245"/>
     <use style="fill:#1f77b4;stroke:#1f77b4;" x="486.646875" xlink:href="#m2d1325a494" y="225.164245"/>
     <use style="fill:#1f77b4;stroke:#1f77b4;" x="490.072396" xlink:href="#m2d1325a494" y="225.164245"/>
     <use style="fill:#1f77b4;stroke:#1f77b4;" x="493.497917" xlink:href="#m2d1325a494" y="225.164245"/>
     <use style="fill:#1f77b4;stroke:#1f77b4;" x="496.923437" xlink:href="#m2d1325a494" y="185.34297"/>
    </g>
   </g>
   <g id="line2d_28">
    <path clip-path="url(#p07d7f7880b)" d="M 85.860937 225.164245 
L 85.860937 26.39843 
" style="fill:none;stroke:#1f77b4;stroke-linecap:square;stroke-width:1.5;"/>
   </g>
   <g id="line2d_29">
    <path clip-path="url(#p07d7f7880b)" d="M 89.286458 225.164245 
L 89.286458 225.164245 
" style="fill:none;stroke:#1f77b4;stroke-linecap:square;stroke-width:1.5;"/>
   </g>
   <g id="line2d_30">
    <path clip-path="url(#p07d7f7880b)" d="M 92.711979 225.164245 
L 92.711979 225.164245 
" style="fill:none;stroke:#1f77b4;stroke-linecap:square;stroke-width:1.5;"/>
   </g>
   <g id="line2d_31">
    <path clip-path="url(#p07d7f7880b)" d="M 96.1375 225.164245 
L 96.1375 225.164245 
" style="fill:none;stroke:#1f77b4;stroke-linecap:square;stroke-width:1.5;"/>
   </g>
   <g id="line2d_32">
    <path clip-path="url(#p07d7f7880b)" d="M 99.563021 225.164245 
L 99.563021 225.164245 
" style="fill:none;stroke:#1f77b4;stroke-linecap:square;stroke-width:1.5;"/>
   </g>
   <g id="line2d_33">
    <path clip-path="url(#p07d7f7880b)" d="M 102.988542 225.164245 
L 102.988542 225.164245 
" style="fill:none;stroke:#1f77b4;stroke-linecap:square;stroke-width:1.5;"/>
   </g>
   <g id="line2d_34">
    <path clip-path="url(#p07d7f7880b)" d="M 106.414062 225.164245 
L 106.414062 225.164245 
" style="fill:none;stroke:#1f77b4;stroke-linecap:square;stroke-width:1.5;"/>
   </g>
   <g id="line2d_35">
    <path clip-path="url(#p07d7f7880b)" d="M 109.839583 225.164245 
L 109.839583 225.164245 
" style="fill:none;stroke:#1f77b4;stroke-linecap:square;stroke-width:1.5;"/>
   </g>
   <g id="line2d_36">
    <path clip-path="url(#p07d7f7880b)" d="M 113.265104 225.164245 
L 113.265104 225.164245 
" style="fill:none;stroke:#1f77b4;stroke-linecap:square;stroke-width:1.5;"/>
   </g>
   <g id="line2d_37">
    <path clip-path="url(#p07d7f7880b)" d="M 116.690625 225.164245 
L 116.690625 225.164245 
" style="fill:none;stroke:#1f77b4;stroke-linecap:square;stroke-width:1.5;"/>
   </g>
   <g id="line2d_38">
    <path clip-path="url(#p07d7f7880b)" d="M 120.116146 225.164245 
L 120.116146 225.164245 
" style="fill:none;stroke:#1f77b4;stroke-linecap:square;stroke-width:1.5;"/>
   </g>
   <g id="line2d_39">
    <path clip-path="url(#p07d7f7880b)" d="M 123.541667 225.164245 
L 123.541667 225.164245 
" style="fill:none;stroke:#1f77b4;stroke-linecap:square;stroke-width:1.5;"/>
   </g>
   <g id="line2d_40">
    <path clip-path="url(#p07d7f7880b)" d="M 126.967187 225.164245 
L 126.967187 65.052069 
" style="fill:none;stroke:#1f77b4;stroke-linecap:square;stroke-width:1.5;"/>
   </g>
   <g id="line2d_41">
    <path clip-path="url(#p07d7f7880b)" d="M 130.392708 225.164245 
L 130.392708 225.164245 
" style="fill:none;stroke:#1f77b4;stroke-linecap:square;stroke-width:1.5;"/>
   </g>
   <g id="line2d_42">
    <path clip-path="url(#p07d7f7880b)" d="M 133.818229 225.164245 
L 133.818229 225.164245 
" style="fill:none;stroke:#1f77b4;stroke-linecap:square;stroke-width:1.5;"/>
   </g>
   <g id="line2d_43">
    <path clip-path="url(#p07d7f7880b)" d="M 137.24375 225.164245 
L 137.24375 225.164245 
" style="fill:none;stroke:#1f77b4;stroke-linecap:square;stroke-width:1.5;"/>
   </g>
   <g id="line2d_44">
    <path clip-path="url(#p07d7f7880b)" d="M 140.669271 225.164245 
L 140.669271 225.164245 
" style="fill:none;stroke:#1f77b4;stroke-linecap:square;stroke-width:1.5;"/>
   </g>
   <g id="line2d_45">
    <path clip-path="url(#p07d7f7880b)" d="M 144.094792 225.164245 
L 144.094792 225.164245 
" style="fill:none;stroke:#1f77b4;stroke-linecap:square;stroke-width:1.5;"/>
   </g>
   <g id="line2d_46">
    <path clip-path="url(#p07d7f7880b)" d="M 147.520312 225.164245 
L 147.520312 225.164245 
" style="fill:none;stroke:#1f77b4;stroke-linecap:square;stroke-width:1.5;"/>
   </g>
   <g id="line2d_47">
    <path clip-path="url(#p07d7f7880b)" d="M 150.945833 225.164245 
L 150.945833 225.164245 
" style="fill:none;stroke:#1f77b4;stroke-linecap:square;stroke-width:1.5;"/>
   </g>
   <g id="line2d_48">
    <path clip-path="url(#p07d7f7880b)" d="M 154.371354 225.164245 
L 154.371354 225.164245 
" style="fill:none;stroke:#1f77b4;stroke-linecap:square;stroke-width:1.5;"/>
   </g>
   <g id="line2d_49">
    <path clip-path="url(#p07d7f7880b)" d="M 157.796875 225.164245 
L 157.796875 225.164245 
" style="fill:none;stroke:#1f77b4;stroke-linecap:square;stroke-width:1.5;"/>
   </g>
   <g id="line2d_50">
    <path clip-path="url(#p07d7f7880b)" d="M 161.222396 225.164245 
L 161.222396 225.164245 
" style="fill:none;stroke:#1f77b4;stroke-linecap:square;stroke-width:1.5;"/>
   </g>
   <g id="line2d_51">
    <path clip-path="url(#p07d7f7880b)" d="M 164.647917 225.164245 
L 164.647917 225.164245 
" style="fill:none;stroke:#1f77b4;stroke-linecap:square;stroke-width:1.5;"/>
   </g>
   <g id="line2d_52">
    <path clip-path="url(#p07d7f7880b)" d="M 168.073437 225.164245 
L 168.073437 160.263108 
" style="fill:none;stroke:#1f77b4;stroke-linecap:square;stroke-width:1.5;"/>
   </g>
   <g id="line2d_53">
    <path clip-path="url(#p07d7f7880b)" d="M 171.498958 225.164245 
L 171.498958 225.164245 
" style="fill:none;stroke:#1f77b4;stroke-linecap:square;stroke-width:1.5;"/>
   </g>
   <g id="line2d_54">
    <path clip-path="url(#p07d7f7880b)" d="M 174.924479 225.164245 
L 174.924479 225.164245 
" style="fill:none;stroke:#1f77b4;stroke-linecap:square;stroke-width:1.5;"/>
   </g>
   <g id="line2d_55">
    <path clip-path="url(#p07d7f7880b)" d="M 178.35 225.164245 
L 178.35 225.164245 
" style="fill:none;stroke:#1f77b4;stroke-linecap:square;stroke-width:1.5;"/>
   </g>
   <g id="line2d_56">
    <path clip-path="url(#p07d7f7880b)" d="M 181.775521 225.164245 
L 181.775521 225.164245 
" style="fill:none;stroke:#1f77b4;stroke-linecap:square;stroke-width:1.5;"/>
   </g>
   <g id="line2d_57">
    <path clip-path="url(#p07d7f7880b)" d="M 185.201042 225.164245 
L 185.201042 225.164245 
" style="fill:none;stroke:#1f77b4;stroke-linecap:square;stroke-width:1.5;"/>
   </g>
   <g id="line2d_58">
    <path clip-path="url(#p07d7f7880b)" d="M 188.626562 225.164245 
L 188.626562 225.164245 
" style="fill:none;stroke:#1f77b4;stroke-linecap:square;stroke-width:1.5;"/>
   </g>
   <g id="line2d_59">
    <path clip-path="url(#p07d7f7880b)" d="M 192.052083 225.164245 
L 192.052083 225.164245 
" style="fill:none;stroke:#1f77b4;stroke-linecap:square;stroke-width:1.5;"/>
   </g>
   <g id="line2d_60">
    <path clip-path="url(#p07d7f7880b)" d="M 195.477604 225.164245 
L 195.477604 225.164245 
" style="fill:none;stroke:#1f77b4;stroke-linecap:square;stroke-width:1.5;"/>
   </g>
   <g id="line2d_61">
    <path clip-path="url(#p07d7f7880b)" d="M 198.903125 225.164245 
L 198.903125 225.164245 
" style="fill:none;stroke:#1f77b4;stroke-linecap:square;stroke-width:1.5;"/>
   </g>
   <g id="line2d_62">
    <path clip-path="url(#p07d7f7880b)" d="M 202.328646 225.164245 
L 202.328646 225.164245 
" style="fill:none;stroke:#1f77b4;stroke-linecap:square;stroke-width:1.5;"/>
   </g>
   <g id="line2d_63">
    <path clip-path="url(#p07d7f7880b)" d="M 205.754167 225.164245 
L 205.754167 225.164245 
" style="fill:none;stroke:#1f77b4;stroke-linecap:square;stroke-width:1.5;"/>
   </g>
   <g id="line2d_64">
    <path clip-path="url(#p07d7f7880b)" d="M 209.179687 225.164245 
L 209.179687 237.886619 
" style="fill:none;stroke:#1f77b4;stroke-linecap:square;stroke-width:1.5;"/>
   </g>
   <g id="line2d_65">
    <path clip-path="url(#p07d7f7880b)" d="M 212.605208 225.164245 
L 212.605208 225.164245 
" style="fill:none;stroke:#1f77b4;stroke-linecap:square;stroke-width:1.5;"/>
   </g>
   <g id="line2d_66">
    <path clip-path="url(#p07d7f7880b)" d="M 216.030729 225.164245 
L 216.030729 225.164245 
" style="fill:none;stroke:#1f77b4;stroke-linecap:square;stroke-width:1.5;"/>
   </g>
   <g id="line2d_67">
    <path clip-path="url(#p07d7f7880b)" d="M 219.45625 225.164245 
L 219.45625 225.164245 
" style="fill:none;stroke:#1f77b4;stroke-linecap:square;stroke-width:1.5;"/>
   </g>
   <g id="line2d_68">
    <path clip-path="url(#p07d7f7880b)" d="M 222.881771 225.164245 
L 222.881771 225.164245 
" style="fill:none;stroke:#1f77b4;stroke-linecap:square;stroke-width:1.5;"/>
   </g>
   <g id="line2d_69">
    <path clip-path="url(#p07d7f7880b)" d="M 226.307292 225.164245 
L 226.307292 225.164245 
" style="fill:none;stroke:#1f77b4;stroke-linecap:square;stroke-width:1.5;"/>
   </g>
   <g id="line2d_70">
    <path clip-path="url(#p07d7f7880b)" d="M 229.732812 225.164245 
L 229.732812 225.164245 
" style="fill:none;stroke:#1f77b4;stroke-linecap:square;stroke-width:1.5;"/>
   </g>
   <g id="line2d_71">
    <path clip-path="url(#p07d7f7880b)" d="M 233.158333 225.164245 
L 233.158333 225.164245 
" style="fill:none;stroke:#1f77b4;stroke-linecap:square;stroke-width:1.5;"/>
   </g>
   <g id="line2d_72">
    <path clip-path="url(#p07d7f7880b)" d="M 236.583854 225.164245 
L 236.583854 225.164245 
" style="fill:none;stroke:#1f77b4;stroke-linecap:square;stroke-width:1.5;"/>
   </g>
   <g id="line2d_73">
    <path clip-path="url(#p07d7f7880b)" d="M 240.009375 225.164245 
L 240.009375 225.164245 
" style="fill:none;stroke:#1f77b4;stroke-linecap:square;stroke-width:1.5;"/>
   </g>
   <g id="line2d_74">
    <path clip-path="url(#p07d7f7880b)" d="M 243.434896 225.164245 
L 243.434896 225.164245 
" style="fill:none;stroke:#1f77b4;stroke-linecap:square;stroke-width:1.5;"/>
   </g>
   <g id="line2d_75">
    <path clip-path="url(#p07d7f7880b)" d="M 246.860417 225.164245 
L 246.860417 225.164245 
" style="fill:none;stroke:#1f77b4;stroke-linecap:square;stroke-width:1.5;"/>
   </g>
   <g id="line2d_76">
    <path clip-path="url(#p07d7f7880b)" d="M 250.285937 225.164245 
L 250.285937 262.382663 
" style="fill:none;stroke:#1f77b4;stroke-linecap:square;stroke-width:1.5;"/>
   </g>
   <g id="line2d_77">
    <path clip-path="url(#p07d7f7880b)" d="M 253.711458 225.164245 
L 253.711458 225.164245 
" style="fill:none;stroke:#1f77b4;stroke-linecap:square;stroke-width:1.5;"/>
   </g>
   <g id="line2d_78">
    <path clip-path="url(#p07d7f7880b)" d="M 257.136979 225.164245 
L 257.136979 225.164245 
" style="fill:none;stroke:#1f77b4;stroke-linecap:square;stroke-width:1.5;"/>
   </g>
   <g id="line2d_79">
    <path clip-path="url(#p07d7f7880b)" d="M 260.5625 225.164245 
L 260.5625 225.164245 
" style="fill:none;stroke:#1f77b4;stroke-linecap:square;stroke-width:1.5;"/>
   </g>
   <g id="line2d_80">
    <path clip-path="url(#p07d7f7880b)" d="M 263.988021 225.164245 
L 263.988021 225.164245 
" style="fill:none;stroke:#1f77b4;stroke-linecap:square;stroke-width:1.5;"/>
   </g>
   <g id="line2d_81">
    <path clip-path="url(#p07d7f7880b)" d="M 267.413542 225.164245 
L 267.413542 225.164245 
" style="fill:none;stroke:#1f77b4;stroke-linecap:square;stroke-width:1.5;"/>
   </g>
   <g id="line2d_82">
    <path clip-path="url(#p07d7f7880b)" d="M 270.839062 225.164245 
L 270.839062 225.164245 
" style="fill:none;stroke:#1f77b4;stroke-linecap:square;stroke-width:1.5;"/>
   </g>
   <g id="line2d_83">
    <path clip-path="url(#p07d7f7880b)" d="M 274.264583 225.164245 
L 274.264583 225.164245 
" style="fill:none;stroke:#1f77b4;stroke-linecap:square;stroke-width:1.5;"/>
   </g>
   <g id="line2d_84">
    <path clip-path="url(#p07d7f7880b)" d="M 277.690104 225.164245 
L 277.690104 225.164245 
" style="fill:none;stroke:#1f77b4;stroke-linecap:square;stroke-width:1.5;"/>
   </g>
   <g id="line2d_85">
    <path clip-path="url(#p07d7f7880b)" d="M 281.115625 225.164245 
L 281.115625 225.164245 
" style="fill:none;stroke:#1f77b4;stroke-linecap:square;stroke-width:1.5;"/>
   </g>
   <g id="line2d_86">
    <path clip-path="url(#p07d7f7880b)" d="M 284.541146 225.164245 
L 284.541146 225.164245 
" style="fill:none;stroke:#1f77b4;stroke-linecap:square;stroke-width:1.5;"/>
   </g>
   <g id="line2d_87">
    <path clip-path="url(#p07d7f7880b)" d="M 287.966667 225.164245 
L 287.966667 225.164245 
" style="fill:none;stroke:#1f77b4;stroke-linecap:square;stroke-width:1.5;"/>
   </g>
   <g id="line2d_88">
    <path clip-path="url(#p07d7f7880b)" d="M 291.392187 225.164245 
L 291.392187 240.416499 
" style="fill:none;stroke:#1f77b4;stroke-linecap:square;stroke-width:1.5;"/>
   </g>
   <g id="line2d_89">
    <path clip-path="url(#p07d7f7880b)" d="M 294.817708 225.164245 
L 294.817708 225.164245 
" style="fill:none;stroke:#1f77b4;stroke-linecap:square;stroke-width:1.5;"/>
   </g>
   <g id="line2d_90">
    <path clip-path="url(#p07d7f7880b)" d="M 298.243229 225.164245 
L 298.243229 225.164245 
" style="fill:none;stroke:#1f77b4;stroke-linecap:square;stroke-width:1.5;"/>
   </g>
   <g id="line2d_91">
    <path clip-path="url(#p07d7f7880b)" d="M 301.66875 225.164245 
L 301.66875 225.164245 
" style="fill:none;stroke:#1f77b4;stroke-linecap:square;stroke-width:1.5;"/>
   </g>
   <g id="line2d_92">
    <path clip-path="url(#p07d7f7880b)" d="M 305.094271 225.164245 
L 305.094271 225.164245 
" style="fill:none;stroke:#1f77b4;stroke-linecap:square;stroke-width:1.5;"/>
   </g>
   <g id="line2d_93">
    <path clip-path="url(#p07d7f7880b)" d="M 308.519792 225.164245 
L 308.519792 225.164245 
" style="fill:none;stroke:#1f77b4;stroke-linecap:square;stroke-width:1.5;"/>
   </g>
   <g id="line2d_94">
    <path clip-path="url(#p07d7f7880b)" d="M 311.945312 225.164245 
L 311.945312 225.164245 
" style="fill:none;stroke:#1f77b4;stroke-linecap:square;stroke-width:1.5;"/>
   </g>
   <g id="line2d_95">
    <path clip-path="url(#p07d7f7880b)" d="M 315.370833 225.164245 
L 315.370833 225.164245 
" style="fill:none;stroke:#1f77b4;stroke-linecap:square;stroke-width:1.5;"/>
   </g>
   <g id="line2d_96">
    <path clip-path="url(#p07d7f7880b)" d="M 318.796354 225.164245 
L 318.796354 225.164245 
" style="fill:none;stroke:#1f77b4;stroke-linecap:square;stroke-width:1.5;"/>
   </g>
   <g id="line2d_97">
    <path clip-path="url(#p07d7f7880b)" d="M 322.221875 225.164245 
L 322.221875 225.164245 
" style="fill:none;stroke:#1f77b4;stroke-linecap:square;stroke-width:1.5;"/>
   </g>
   <g id="line2d_98">
    <path clip-path="url(#p07d7f7880b)" d="M 325.647396 225.164245 
L 325.647396 225.164245 
" style="fill:none;stroke:#1f77b4;stroke-linecap:square;stroke-width:1.5;"/>
   </g>
   <g id="line2d_99">
    <path clip-path="url(#p07d7f7880b)" d="M 329.072917 225.164245 
L 329.072917 225.164245 
" style="fill:none;stroke:#1f77b4;stroke-linecap:square;stroke-width:1.5;"/>
   </g>
   <g id="line2d_100">
    <path clip-path="url(#p07d7f7880b)" d="M 332.498437 225.164245 
L 332.498437 192.032555 
" style="fill:none;stroke:#1f77b4;stroke-linecap:square;stroke-width:1.5;"/>
   </g>
   <g id="line2d_101">
    <path clip-path="url(#p07d7f7880b)" d="M 335.923958 225.164245 
L 335.923958 225.164245 
" style="fill:none;stroke:#1f77b4;stroke-linecap:square;stroke-width:1.5;"/>
   </g>
   <g id="line2d_102">
    <path clip-path="url(#p07d7f7880b)" d="M 339.349479 225.164245 
L 339.349479 225.164245 
" style="fill:none;stroke:#1f77b4;stroke-linecap:square;stroke-width:1.5;"/>
   </g>
   <g id="line2d_103">
    <path clip-path="url(#p07d7f7880b)" d="M 342.775 225.164245 
L 342.775 225.164245 
" style="fill:none;stroke:#1f77b4;stroke-linecap:square;stroke-width:1.5;"/>
   </g>
   <g id="line2d_104">
    <path clip-path="url(#p07d7f7880b)" d="M 346.200521 225.164245 
L 346.200521 225.164245 
" style="fill:none;stroke:#1f77b4;stroke-linecap:square;stroke-width:1.5;"/>
   </g>
   <g id="line2d_105">
    <path clip-path="url(#p07d7f7880b)" d="M 349.626042 225.164245 
L 349.626042 225.164245 
" style="fill:none;stroke:#1f77b4;stroke-linecap:square;stroke-width:1.5;"/>
   </g>
   <g id="line2d_106">
    <path clip-path="url(#p07d7f7880b)" d="M 353.051562 225.164245 
L 353.051562 225.164245 
" style="fill:none;stroke:#1f77b4;stroke-linecap:square;stroke-width:1.5;"/>
   </g>
   <g id="line2d_107">
    <path clip-path="url(#p07d7f7880b)" d="M 356.477083 225.164245 
L 356.477083 225.164245 
" style="fill:none;stroke:#1f77b4;stroke-linecap:square;stroke-width:1.5;"/>
   </g>
   <g id="line2d_108">
    <path clip-path="url(#p07d7f7880b)" d="M 359.902604 225.164245 
L 359.902604 225.164245 
" style="fill:none;stroke:#1f77b4;stroke-linecap:square;stroke-width:1.5;"/>
   </g>
   <g id="line2d_109">
    <path clip-path="url(#p07d7f7880b)" d="M 363.328125 225.164245 
L 363.328125 225.164245 
" style="fill:none;stroke:#1f77b4;stroke-linecap:square;stroke-width:1.5;"/>
   </g>
   <g id="line2d_110">
    <path clip-path="url(#p07d7f7880b)" d="M 366.753646 225.164245 
L 366.753646 225.164245 
" style="fill:none;stroke:#1f77b4;stroke-linecap:square;stroke-width:1.5;"/>
   </g>
   <g id="line2d_111">
    <path clip-path="url(#p07d7f7880b)" d="M 370.179167 225.164245 
L 370.179167 225.164245 
" style="fill:none;stroke:#1f77b4;stroke-linecap:square;stroke-width:1.5;"/>
   </g>
   <g id="line2d_112">
    <path clip-path="url(#p07d7f7880b)" d="M 373.604687 225.164245 
L 373.604687 142.918838 
" style="fill:none;stroke:#1f77b4;stroke-linecap:square;stroke-width:1.5;"/>
   </g>
   <g id="line2d_113">
    <path clip-path="url(#p07d7f7880b)" d="M 377.030208 225.164245 
L 377.030208 225.164245 
" style="fill:none;stroke:#1f77b4;stroke-linecap:square;stroke-width:1.5;"/>
   </g>
   <g id="line2d_114">
    <path clip-path="url(#p07d7f7880b)" d="M 380.455729 225.164245 
L 380.455729 225.164245 
" style="fill:none;stroke:#1f77b4;stroke-linecap:square;stroke-width:1.5;"/>
   </g>
   <g id="line2d_115">
    <path clip-path="url(#p07d7f7880b)" d="M 383.88125 225.164245 
L 383.88125 225.164245 
" style="fill:none;stroke:#1f77b4;stroke-linecap:square;stroke-width:1.5;"/>
   </g>
   <g id="line2d_116">
    <path clip-path="url(#p07d7f7880b)" d="M 387.306771 225.164245 
L 387.306771 225.164245 
" style="fill:none;stroke:#1f77b4;stroke-linecap:square;stroke-width:1.5;"/>
   </g>
   <g id="line2d_117">
    <path clip-path="url(#p07d7f7880b)" d="M 390.732292 225.164245 
L 390.732292 225.164245 
" style="fill:none;stroke:#1f77b4;stroke-linecap:square;stroke-width:1.5;"/>
   </g>
   <g id="line2d_118">
    <path clip-path="url(#p07d7f7880b)" d="M 394.157812 225.164245 
L 394.157812 225.164245 
" style="fill:none;stroke:#1f77b4;stroke-linecap:square;stroke-width:1.5;"/>
   </g>
   <g id="line2d_119">
    <path clip-path="url(#p07d7f7880b)" d="M 397.583333 225.164245 
L 397.583333 225.164245 
" style="fill:none;stroke:#1f77b4;stroke-linecap:square;stroke-width:1.5;"/>
   </g>
   <g id="line2d_120">
    <path clip-path="url(#p07d7f7880b)" d="M 401.008854 225.164245 
L 401.008854 225.164245 
" style="fill:none;stroke:#1f77b4;stroke-linecap:square;stroke-width:1.5;"/>
   </g>
   <g id="line2d_121">
    <path clip-path="url(#p07d7f7880b)" d="M 404.434375 225.164245 
L 404.434375 225.164245 
" style="fill:none;stroke:#1f77b4;stroke-linecap:square;stroke-width:1.5;"/>
   </g>
   <g id="line2d_122">
    <path clip-path="url(#p07d7f7880b)" d="M 407.859896 225.164245 
L 407.859896 225.164245 
" style="fill:none;stroke:#1f77b4;stroke-linecap:square;stroke-width:1.5;"/>
   </g>
   <g id="line2d_123">
    <path clip-path="url(#p07d7f7880b)" d="M 411.285417 225.164245 
L 411.285417 225.164245 
" style="fill:none;stroke:#1f77b4;stroke-linecap:square;stroke-width:1.5;"/>
   </g>
   <g id="line2d_124">
    <path clip-path="url(#p07d7f7880b)" d="M 414.710937 225.164245 
L 414.710937 122.241939 
" style="fill:none;stroke:#1f77b4;stroke-linecap:square;stroke-width:1.5;"/>
   </g>
   <g id="line2d_125">
    <path clip-path="url(#p07d7f7880b)" d="M 418.136458 225.164245 
L 418.136458 225.164245 
" style="fill:none;stroke:#1f77b4;stroke-linecap:square;stroke-width:1.5;"/>
   </g>
   <g id="line2d_126">
    <path clip-path="url(#p07d7f7880b)" d="M 421.561979 225.164245 
L 421.561979 225.164245 
" style="fill:none;stroke:#1f77b4;stroke-linecap:square;stroke-width:1.5;"/>
   </g>
   <g id="line2d_127">
    <path clip-path="url(#p07d7f7880b)" d="M 424.9875 225.164245 
L 424.9875 225.164245 
" style="fill:none;stroke:#1f77b4;stroke-linecap:square;stroke-width:1.5;"/>
   </g>
   <g id="line2d_128">
    <path clip-path="url(#p07d7f7880b)" d="M 428.413021 225.164245 
L 428.413021 225.164245 
" style="fill:none;stroke:#1f77b4;stroke-linecap:square;stroke-width:1.5;"/>
   </g>
   <g id="line2d_129">
    <path clip-path="url(#p07d7f7880b)" d="M 431.838542 225.164245 
L 431.838542 225.164245 
" style="fill:none;stroke:#1f77b4;stroke-linecap:square;stroke-width:1.5;"/>
   </g>
   <g id="line2d_130">
    <path clip-path="url(#p07d7f7880b)" d="M 435.264062 225.164245 
L 435.264062 225.164245 
" style="fill:none;stroke:#1f77b4;stroke-linecap:square;stroke-width:1.5;"/>
   </g>
   <g id="line2d_131">
    <path clip-path="url(#p07d7f7880b)" d="M 438.689583 225.164245 
L 438.689583 225.164245 
" style="fill:none;stroke:#1f77b4;stroke-linecap:square;stroke-width:1.5;"/>
   </g>
   <g id="line2d_132">
    <path clip-path="url(#p07d7f7880b)" d="M 442.115104 225.164245 
L 442.115104 225.164245 
" style="fill:none;stroke:#1f77b4;stroke-linecap:square;stroke-width:1.5;"/>
   </g>
   <g id="line2d_133">
    <path clip-path="url(#p07d7f7880b)" d="M 445.540625 225.164245 
L 445.540625 225.164245 
" style="fill:none;stroke:#1f77b4;stroke-linecap:square;stroke-width:1.5;"/>
   </g>
   <g id="line2d_134">
    <path clip-path="url(#p07d7f7880b)" d="M 448.966146 225.164245 
L 448.966146 225.164245 
" style="fill:none;stroke:#1f77b4;stroke-linecap:square;stroke-width:1.5;"/>
   </g>
   <g id="line2d_135">
    <path clip-path="url(#p07d7f7880b)" d="M 452.391667 225.164245 
L 452.391667 225.164245 
" style="fill:none;stroke:#1f77b4;stroke-linecap:square;stroke-width:1.5;"/>
   </g>
   <g id="line2d_136">
    <path clip-path="url(#p07d7f7880b)" d="M 455.817187 225.164245 
L 455.817187 143.332376 
" style="fill:none;stroke:#1f77b4;stroke-linecap:square;stroke-width:1.5;"/>
   </g>
   <g id="line2d_137">
    <path clip-path="url(#p07d7f7880b)" d="M 459.242708 225.164245 
L 459.242708 225.164245 
" style="fill:none;stroke:#1f77b4;stroke-linecap:square;stroke-width:1.5;"/>
   </g>
   <g id="line2d_138">
    <path clip-path="url(#p07d7f7880b)" d="M 462.668229 225.164245 
L 462.668229 225.164245 
" style="fill:none;stroke:#1f77b4;stroke-linecap:square;stroke-width:1.5;"/>
   </g>
   <g id="line2d_139">
    <path clip-path="url(#p07d7f7880b)" d="M 466.09375 225.164245 
L 466.09375 225.164245 
" style="fill:none;stroke:#1f77b4;stroke-linecap:square;stroke-width:1.5;"/>
   </g>
   <g id="line2d_140">
    <path clip-path="url(#p07d7f7880b)" d="M 469.519271 225.164245 
L 469.519271 225.164245 
" style="fill:none;stroke:#1f77b4;stroke-linecap:square;stroke-width:1.5;"/>
   </g>
   <g id="line2d_141">
    <path clip-path="url(#p07d7f7880b)" d="M 472.944792 225.164245 
L 472.944792 225.164245 
" style="fill:none;stroke:#1f77b4;stroke-linecap:square;stroke-width:1.5;"/>
   </g>
   <g id="line2d_142">
    <path clip-path="url(#p07d7f7880b)" d="M 476.370312 225.164245 
L 476.370312 225.164245 
" style="fill:none;stroke:#1f77b4;stroke-linecap:square;stroke-width:1.5;"/>
   </g>
   <g id="line2d_143">
    <path clip-path="url(#p07d7f7880b)" d="M 479.795833 225.164245 
L 479.795833 225.164245 
" style="fill:none;stroke:#1f77b4;stroke-linecap:square;stroke-width:1.5;"/>
   </g>
   <g id="line2d_144">
    <path clip-path="url(#p07d7f7880b)" d="M 483.221354 225.164245 
L 483.221354 225.164245 
" style="fill:none;stroke:#1f77b4;stroke-linecap:square;stroke-width:1.5;"/>
   </g>
   <g id="line2d_145">
    <path clip-path="url(#p07d7f7880b)" d="M 486.646875 225.164245 
L 486.646875 225.164245 
" style="fill:none;stroke:#1f77b4;stroke-linecap:square;stroke-width:1.5;"/>
   </g>
   <g id="line2d_146">
    <path clip-path="url(#p07d7f7880b)" d="M 490.072396 225.164245 
L 490.072396 225.164245 
" style="fill:none;stroke:#1f77b4;stroke-linecap:square;stroke-width:1.5;"/>
   </g>
   <g id="line2d_147">
    <path clip-path="url(#p07d7f7880b)" d="M 493.497917 225.164245 
L 493.497917 225.164245 
" style="fill:none;stroke:#1f77b4;stroke-linecap:square;stroke-width:1.5;"/>
   </g>
   <g id="line2d_148">
    <path clip-path="url(#p07d7f7880b)" d="M 496.923437 225.164245 
L 496.923437 185.34297 
" style="fill:none;stroke:#1f77b4;stroke-linecap:square;stroke-width:1.5;"/>
   </g>
   <g id="line2d_149">
    <path clip-path="url(#p07d7f7880b)" d="M 85.860937 225.164245 
L 496.923437 225.164245 
" style="fill:none;stroke:#1f77b4;stroke-linecap:square;stroke-width:1.5;"/>
   </g>
   <g id="patch_3">
    <path d="M 65.307812 274.181875 
L 65.307812 14.599219 
" style="fill:none;stroke:#000000;stroke-linecap:square;stroke-linejoin:miter;stroke-width:0.8;"/>
   </g>
   <g id="patch_4">
    <path d="M 517.476562 274.181875 
L 517.476562 14.599219 
" style="fill:none;stroke:#000000;stroke-linecap:square;stroke-linejoin:miter;stroke-width:0.8;"/>
   </g>
   <g id="patch_5">
    <path d="M 65.307812 274.181875 
L 517.476562 274.181875 
" style="fill:none;stroke:#000000;stroke-linecap:square;stroke-linejoin:miter;stroke-width:0.8;"/>
   </g>
   <g id="patch_6">
    <path d="M 65.307812 14.599219 
L 517.476562 14.599219 
" style="fill:none;stroke:#000000;stroke-linecap:square;stroke-linejoin:miter;stroke-width:0.8;"/>
   </g>
   <g id="text_16">
    <!-- d[0] -->
    <defs>
     <path d="M 8.59375 75.984375 
L 29.296875 75.984375 
L 29.296875 69 
L 17.578125 69 
L 17.578125 -6.203125 
L 29.296875 -6.203125 
L 29.296875 -13.1875 
L 8.59375 -13.1875 
z
" id="DejaVuSans-5b"/>
     <path d="M 30.421875 75.984375 
L 30.421875 -13.1875 
L 9.71875 -13.1875 
L 9.71875 -6.203125 
L 21.390625 -6.203125 
L 21.390625 69 
L 9.71875 69 
L 9.71875 75.984375 
z
" id="DejaVuSans-5d"/>
    </defs>
    <g transform="translate(92.711979 26.39843)scale(0.1 -0.1)">
     <use xlink:href="#DejaVuSans-64"/>
     <use x="63.476562" xlink:href="#DejaVuSans-5b"/>
     <use x="102.490234" xlink:href="#DejaVuSans-30"/>
     <use x="166.113281" xlink:href="#DejaVuSans-5d"/>
    </g>
   </g>
   <g id="text_17">
    <!-- d[1] -->
    <g transform="translate(133.818229 65.052069)scale(0.1 -0.1)">
     <use xlink:href="#DejaVuSans-64"/>
     <use x="63.476562" xlink:href="#DejaVuSans-5b"/>
     <use x="102.490234" xlink:href="#DejaVuSans-31"/>
     <use x="166.113281" xlink:href="#DejaVuSans-5d"/>
    </g>
   </g>
   <g id="text_18">
    <!-- d[2] -->
    <g transform="translate(174.924479 160.263108)scale(0.1 -0.1)">
     <use xlink:href="#DejaVuSans-64"/>
     <use x="63.476562" xlink:href="#DejaVuSans-5b"/>
     <use x="102.490234" xlink:href="#DejaVuSans-32"/>
     <use x="166.113281" xlink:href="#DejaVuSans-5d"/>
    </g>
   </g>
   <g id="text_19">
    <!-- d[3] -->
    <defs>
     <path d="M 40.578125 39.3125 
Q 47.65625 37.796875 51.625 33 
Q 55.609375 28.21875 55.609375 21.1875 
Q 55.609375 10.40625 48.1875 4.484375 
Q 40.765625 -1.421875 27.09375 -1.421875 
Q 22.515625 -1.421875 17.65625 -0.515625 
Q 12.796875 0.390625 7.625 2.203125 
L 7.625 11.71875 
Q 11.71875 9.328125 16.59375 8.109375 
Q 21.484375 6.890625 26.8125 6.890625 
Q 36.078125 6.890625 40.9375 10.546875 
Q 45.796875 14.203125 45.796875 21.1875 
Q 45.796875 27.640625 41.28125 31.265625 
Q 36.765625 34.90625 28.71875 34.90625 
L 20.21875 34.90625 
L 20.21875 43.015625 
L 29.109375 43.015625 
Q 36.375 43.015625 40.234375 45.921875 
Q 44.09375 48.828125 44.09375 54.296875 
Q 44.09375 59.90625 40.109375 62.90625 
Q 36.140625 65.921875 28.71875 65.921875 
Q 24.65625 65.921875 20.015625 65.03125 
Q 15.375 64.15625 9.8125 62.3125 
L 9.8125 71.09375 
Q 15.4375 72.65625 20.34375 73.4375 
Q 25.25 74.21875 29.59375 74.21875 
Q 40.828125 74.21875 47.359375 69.109375 
Q 53.90625 64.015625 53.90625 55.328125 
Q 53.90625 49.265625 50.4375 45.09375 
Q 46.96875 40.921875 40.578125 39.3125 
z
" id="DejaVuSans-33"/>
    </defs>
    <g transform="translate(216.030729 237.886619)scale(0.1 -0.1)">
     <use xlink:href="#DejaVuSans-64"/>
     <use x="63.476562" xlink:href="#DejaVuSans-5b"/>
     <use x="102.490234" xlink:href="#DejaVuSans-33"/>
     <use x="166.113281" xlink:href="#DejaVuSans-5d"/>
    </g>
   </g>
   <g id="text_20">
    <!-- d[4] -->
    <g transform="translate(257.136979 262.382663)scale(0.1 -0.1)">
     <use xlink:href="#DejaVuSans-64"/>
     <use x="63.476562" xlink:href="#DejaVuSans-5b"/>
     <use x="102.490234" xlink:href="#DejaVuSans-34"/>
     <use x="166.113281" xlink:href="#DejaVuSans-5d"/>
    </g>
   </g>
   <g id="text_21">
    <!-- d[5] -->
    <defs>
     <path d="M 10.796875 72.90625 
L 49.515625 72.90625 
L 49.515625 64.59375 
L 19.828125 64.59375 
L 19.828125 46.734375 
Q 21.96875 47.46875 24.109375 47.828125 
Q 26.265625 48.1875 28.421875 48.1875 
Q 40.625 48.1875 47.75 41.5 
Q 54.890625 34.8125 54.890625 23.390625 
Q 54.890625 11.625 47.5625 5.09375 
Q 40.234375 -1.421875 26.90625 -1.421875 
Q 22.3125 -1.421875 17.546875 -0.640625 
Q 12.796875 0.140625 7.71875 1.703125 
L 7.71875 11.625 
Q 12.109375 9.234375 16.796875 8.0625 
Q 21.484375 6.890625 26.703125 6.890625 
Q 35.15625 6.890625 40.078125 11.328125 
Q 45.015625 15.765625 45.015625 23.390625 
Q 45.015625 31 40.078125 35.4375 
Q 35.15625 39.890625 26.703125 39.890625 
Q 22.75 39.890625 18.8125 39.015625 
Q 14.890625 38.140625 10.796875 36.28125 
z
" id="DejaVuSans-35"/>
    </defs>
    <g transform="translate(298.243229 240.416499)scale(0.1 -0.1)">
     <use xlink:href="#DejaVuSans-64"/>
     <use x="63.476562" xlink:href="#DejaVuSans-5b"/>
     <use x="102.490234" xlink:href="#DejaVuSans-35"/>
     <use x="166.113281" xlink:href="#DejaVuSans-5d"/>
    </g>
   </g>
   <g id="text_22">
    <!-- d[6] -->
    <g transform="translate(339.349479 192.032555)scale(0.1 -0.1)">
     <use xlink:href="#DejaVuSans-64"/>
     <use x="63.476562" xlink:href="#DejaVuSans-5b"/>
     <use x="102.490234" xlink:href="#DejaVuSans-36"/>
     <use x="166.113281" xlink:href="#DejaVuSans-5d"/>
    </g>
   </g>
   <g id="text_23">
    <!-- d[7] -->
    <defs>
     <path d="M 8.203125 72.90625 
L 55.078125 72.90625 
L 55.078125 68.703125 
L 28.609375 0 
L 18.3125 0 
L 43.21875 64.59375 
L 8.203125 64.59375 
z
" id="DejaVuSans-37"/>
    </defs>
    <g transform="translate(380.455729 142.918838)scale(0.1 -0.1)">
     <use xlink:href="#DejaVuSans-64"/>
     <use x="63.476562" xlink:href="#DejaVuSans-5b"/>
     <use x="102.490234" xlink:href="#DejaVuSans-37"/>
     <use x="166.113281" xlink:href="#DejaVuSans-5d"/>
    </g>
   </g>
   <g id="text_24">
    <!-- d[8] -->
    <g transform="translate(421.561979 122.241939)scale(0.1 -0.1)">
     <use xlink:href="#DejaVuSans-64"/>
     <use x="63.476562" xlink:href="#DejaVuSans-5b"/>
     <use x="102.490234" xlink:href="#DejaVuSans-38"/>
     <use x="166.113281" xlink:href="#DejaVuSans-5d"/>
    </g>
   </g>
   <g id="text_25">
    <!-- d[9] -->
    <defs>
     <path d="M 10.984375 1.515625 
L 10.984375 10.5 
Q 14.703125 8.734375 18.5 7.8125 
Q 22.3125 6.890625 25.984375 6.890625 
Q 35.75 6.890625 40.890625 13.453125 
Q 46.046875 20.015625 46.78125 33.40625 
Q 43.953125 29.203125 39.59375 26.953125 
Q 35.25 24.703125 29.984375 24.703125 
Q 19.046875 24.703125 12.671875 31.3125 
Q 6.296875 37.9375 6.296875 49.421875 
Q 6.296875 60.640625 12.9375 67.421875 
Q 19.578125 74.21875 30.609375 74.21875 
Q 43.265625 74.21875 49.921875 64.515625 
Q 56.59375 54.828125 56.59375 36.375 
Q 56.59375 19.140625 48.40625 8.859375 
Q 40.234375 -1.421875 26.421875 -1.421875 
Q 22.703125 -1.421875 18.890625 -0.6875 
Q 15.09375 0.046875 10.984375 1.515625 
z
M 30.609375 32.421875 
Q 37.25 32.421875 41.125 36.953125 
Q 45.015625 41.5 45.015625 49.421875 
Q 45.015625 57.28125 41.125 61.84375 
Q 37.25 66.40625 30.609375 66.40625 
Q 23.96875 66.40625 20.09375 61.84375 
Q 16.21875 57.28125 16.21875 49.421875 
Q 16.21875 41.5 20.09375 36.953125 
Q 23.96875 32.421875 30.609375 32.421875 
z
" id="DejaVuSans-39"/>
    </defs>
    <g transform="translate(462.668229 143.332376)scale(0.1 -0.1)">
     <use xlink:href="#DejaVuSans-64"/>
     <use x="63.476562" xlink:href="#DejaVuSans-5b"/>
     <use x="102.490234" xlink:href="#DejaVuSans-39"/>
     <use x="166.113281" xlink:href="#DejaVuSans-5d"/>
    </g>
   </g>
   <g id="text_26">
    <!-- d[10] -->
    <g transform="translate(503.774479 185.34297)scale(0.1 -0.1)">
     <use xlink:href="#DejaVuSans-64"/>
     <use x="63.476562" xlink:href="#DejaVuSans-5b"/>
     <use x="102.490234" xlink:href="#DejaVuSans-31"/>
     <use x="166.113281" xlink:href="#DejaVuSans-30"/>
     <use x="229.736328" xlink:href="#DejaVuSans-5d"/>
    </g>
   </g>
  </g>
  <g id="axes_2">
   <g id="matplotlib.axis_3">
    <g id="ytick_7">
     <g id="line2d_150">
      <defs>
       <path d="M 0 0 
L 3.5 0 
" id="m53f804e6cb" style="stroke:#000000;stroke-width:0.8;"/>
      </defs>
      <g>
       <use style="stroke:#000000;stroke-width:0.8;" x="517.476562" xlink:href="#m53f804e6cb" y="256.876365"/>
      </g>
     </g>
     <g id="text_27">
      <!-- −0.01 -->
      <defs>
       <path d="M 10.6875 12.40625 
L 21 12.40625 
L 21 0 
L 10.6875 0 
z
" id="DejaVuSans-2e"/>
      </defs>
      <g transform="translate(524.476562 260.675583)scale(0.1 -0.1)">
       <use xlink:href="#DejaVuSans-2212"/>
       <use x="83.789062" xlink:href="#DejaVuSans-30"/>
       <use x="147.412109" xlink:href="#DejaVuSans-2e"/>
       <use x="179.199219" xlink:href="#DejaVuSans-30"/>
       <use x="242.822266" xlink:href="#DejaVuSans-31"/>
      </g>
     </g>
    </g>
    <g id="ytick_8">
     <g id="line2d_151">
      <g>
       <use style="stroke:#000000;stroke-width:0.8;" x="517.476562" xlink:href="#m53f804e6cb" y="222.265344"/>
      </g>
     </g>
     <g id="text_28">
      <!-- 0.00 -->
      <g transform="translate(524.476562 226.064563)scale(0.1 -0.1)">
       <use xlink:href="#DejaVuSans-30"/>
       <use x="63.623047" xlink:href="#DejaVuSans-2e"/>
       <use x="95.410156" xlink:href="#DejaVuSans-30"/>
       <use x="159.033203" xlink:href="#DejaVuSans-30"/>
      </g>
     </g>
    </g>
    <g id="ytick_9">
     <g id="line2d_152">
      <g>
       <use style="stroke:#000000;stroke-width:0.8;" x="517.476562" xlink:href="#m53f804e6cb" y="187.654323"/>
      </g>
     </g>
     <g id="text_29">
      <!-- 0.01 -->
      <g transform="translate(524.476562 191.453542)scale(0.1 -0.1)">
       <use xlink:href="#DejaVuSans-30"/>
       <use x="63.623047" xlink:href="#DejaVuSans-2e"/>
       <use x="95.410156" xlink:href="#DejaVuSans-30"/>
       <use x="159.033203" xlink:href="#DejaVuSans-31"/>
      </g>
     </g>
    </g>
    <g id="ytick_10">
     <g id="line2d_153">
      <g>
       <use style="stroke:#000000;stroke-width:0.8;" x="517.476562" xlink:href="#m53f804e6cb" y="153.043302"/>
      </g>
     </g>
     <g id="text_30">
      <!-- 0.02 -->
      <g transform="translate(524.476562 156.842521)scale(0.1 -0.1)">
       <use xlink:href="#DejaVuSans-30"/>
       <use x="63.623047" xlink:href="#DejaVuSans-2e"/>
       <use x="95.410156" xlink:href="#DejaVuSans-30"/>
       <use x="159.033203" xlink:href="#DejaVuSans-32"/>
      </g>
     </g>
    </g>
    <g id="ytick_11">
     <g id="line2d_154">
      <g>
       <use style="stroke:#000000;stroke-width:0.8;" x="517.476562" xlink:href="#m53f804e6cb" y="118.432281"/>
      </g>
     </g>
     <g id="text_31">
      <!-- 0.03 -->
      <g transform="translate(524.476562 122.2315)scale(0.1 -0.1)">
       <use xlink:href="#DejaVuSans-30"/>
       <use x="63.623047" xlink:href="#DejaVuSans-2e"/>
       <use x="95.410156" xlink:href="#DejaVuSans-30"/>
       <use x="159.033203" xlink:href="#DejaVuSans-33"/>
      </g>
     </g>
    </g>
    <g id="ytick_12">
     <g id="line2d_155">
      <g>
       <use style="stroke:#000000;stroke-width:0.8;" x="517.476562" xlink:href="#m53f804e6cb" y="83.82126"/>
      </g>
     </g>
     <g id="text_32">
      <!-- 0.04 -->
      <g transform="translate(524.476562 87.620479)scale(0.1 -0.1)">
       <use xlink:href="#DejaVuSans-30"/>
       <use x="63.623047" xlink:href="#DejaVuSans-2e"/>
       <use x="95.410156" xlink:href="#DejaVuSans-30"/>
       <use x="159.033203" xlink:href="#DejaVuSans-34"/>
      </g>
     </g>
    </g>
    <g id="ytick_13">
     <g id="line2d_156">
      <g>
       <use style="stroke:#000000;stroke-width:0.8;" x="517.476562" xlink:href="#m53f804e6cb" y="49.21024"/>
      </g>
     </g>
     <g id="text_33">
      <!-- 0.05 -->
      <g transform="translate(524.476562 53.009458)scale(0.1 -0.1)">
       <use xlink:href="#DejaVuSans-30"/>
       <use x="63.623047" xlink:href="#DejaVuSans-2e"/>
       <use x="95.410156" xlink:href="#DejaVuSans-30"/>
       <use x="159.033203" xlink:href="#DejaVuSans-35"/>
      </g>
     </g>
    </g>
    <g id="ytick_14">
     <g id="line2d_157">
      <g>
       <use style="stroke:#000000;stroke-width:0.8;" x="517.476562" xlink:href="#m53f804e6cb" y="14.599219"/>
      </g>
     </g>
     <g id="text_34">
      <!-- 0.06 -->
      <g transform="translate(524.476562 18.398438)scale(0.1 -0.1)">
       <use xlink:href="#DejaVuSans-30"/>
       <use x="63.623047" xlink:href="#DejaVuSans-2e"/>
       <use x="95.410156" xlink:href="#DejaVuSans-30"/>
       <use x="159.033203" xlink:href="#DejaVuSans-36"/>
      </g>
     </g>
    </g>
    <g id="text_35">
     <!-- filter coefficients -->
     <defs>
      <path d="M 18.3125 70.21875 
L 18.3125 54.6875 
L 36.8125 54.6875 
L 36.8125 47.703125 
L 18.3125 47.703125 
L 18.3125 18.015625 
Q 18.3125 11.328125 20.140625 9.421875 
Q 21.96875 7.515625 27.59375 7.515625 
L 36.8125 7.515625 
L 36.8125 0 
L 27.59375 0 
Q 17.1875 0 13.234375 3.875 
Q 9.28125 7.765625 9.28125 18.015625 
L 9.28125 47.703125 
L 2.6875 47.703125 
L 2.6875 54.6875 
L 9.28125 54.6875 
L 9.28125 70.21875 
z
" id="DejaVuSans-74"/>
      <path d="M 30.609375 48.390625 
Q 23.390625 48.390625 19.1875 42.75 
Q 14.984375 37.109375 14.984375 27.296875 
Q 14.984375 17.484375 19.15625 11.84375 
Q 23.34375 6.203125 30.609375 6.203125 
Q 37.796875 6.203125 41.984375 11.859375 
Q 46.1875 17.53125 46.1875 27.296875 
Q 46.1875 37.015625 41.984375 42.703125 
Q 37.796875 48.390625 30.609375 48.390625 
z
M 30.609375 56 
Q 42.328125 56 49.015625 48.375 
Q 55.71875 40.765625 55.71875 27.296875 
Q 55.71875 13.875 49.015625 6.21875 
Q 42.328125 -1.421875 30.609375 -1.421875 
Q 18.84375 -1.421875 12.171875 6.21875 
Q 5.515625 13.875 5.515625 27.296875 
Q 5.515625 40.765625 12.171875 48.375 
Q 18.84375 56 30.609375 56 
z
" id="DejaVuSans-6f"/>
     </defs>
     <g transform="translate(566.720312 186.353047)rotate(-90)scale(0.1 -0.1)">
      <use xlink:href="#DejaVuSans-66"/>
      <use x="35.205078" xlink:href="#DejaVuSans-69"/>
      <use x="62.988281" xlink:href="#DejaVuSans-6c"/>
      <use x="90.771484" xlink:href="#DejaVuSans-74"/>
      <use x="129.980469" xlink:href="#DejaVuSans-65"/>
      <use x="191.503906" xlink:href="#DejaVuSans-72"/>
      <use x="232.617188" xlink:href="#DejaVuSans-20"/>
      <use x="264.404297" xlink:href="#DejaVuSans-63"/>
      <use x="319.384766" xlink:href="#DejaVuSans-6f"/>
      <use x="380.566406" xlink:href="#DejaVuSans-65"/>
      <use x="442.089844" xlink:href="#DejaVuSans-66"/>
      <use x="477.294922" xlink:href="#DejaVuSans-66"/>
      <use x="512.5" xlink:href="#DejaVuSans-69"/>
      <use x="540.283203" xlink:href="#DejaVuSans-63"/>
      <use x="595.263672" xlink:href="#DejaVuSans-69"/>
      <use x="623.046875" xlink:href="#DejaVuSans-65"/>
      <use x="684.570312" xlink:href="#DejaVuSans-6e"/>
      <use x="747.949219" xlink:href="#DejaVuSans-74"/>
      <use x="787.158203" xlink:href="#DejaVuSans-73"/>
     </g>
    </g>
   </g>
   <g id="line2d_158">
    <path clip-path="url(#p07d7f7880b)" d="M 85.860937 222.963465 
L 89.286458 222.753503 
L 92.711979 222.522964 
L 96.1375 222.265344 
L 99.563021 221.974168 
L 102.988542 221.643979 
L 106.414062 221.271354 
L 109.839583 220.855903 
L 113.265104 220.401156 
L 116.690625 219.9153 
L 120.116146 219.411689 
L 123.541667 218.90907 
L 126.967187 218.43151 
L 130.392708 218.007956 
L 133.818229 217.671458 
L 137.24375 217.45802 
L 140.669271 217.405138 
L 144.094792 217.550042 
L 147.520312 217.927708 
L 150.945833 218.568712 
L 154.371354 219.497021 
L 157.796875 220.727798 
L 161.222396 222.265344 
L 164.647917 224.101261 
L 168.073437 226.212954 
L 171.498958 228.562549 
L 174.924479 231.096323 
L 178.35 233.744698 
L 181.775521 236.422859 
L 185.201042 239.032009 
L 188.626562 241.46127 
L 192.052083 243.590197 
L 195.477604 245.291859 
L 198.903125 246.436406 
L 202.328646 246.895029 
L 205.754167 246.544191 
L 209.179687 245.269989 
L 212.605208 242.972508 
L 216.030729 239.570007 
L 219.45625 235.002785 
L 222.881771 229.236579 
L 226.307292 222.265344 
L 229.732812 214.113312 
L 233.158333 204.836207 
L 236.583854 194.52155 
L 240.009375 183.288006 
L 243.434896 171.283761 
L 246.860417 158.683936 
L 250.285937 145.687101 
L 253.711458 132.510966 
L 257.136979 119.387359 
L 260.5625 106.556644 
L 263.988021 94.261722 
L 267.413542 82.741817 
L 270.839062 72.226209 
L 274.264583 62.928138 
L 277.690104 55.039047 
L 281.115625 48.723357 
L 284.541146 44.113944 
L 287.966667 41.308458 
L 291.392187 40.3666 
L 294.817708 41.308458 
L 298.243229 44.113944 
L 301.66875 48.723357 
L 305.094271 55.039047 
L 308.519792 62.928138 
L 311.945312 72.226209 
L 315.370833 82.741817 
L 318.796354 94.261722 
L 322.221875 106.556644 
L 325.647396 119.387359 
L 329.072917 132.510966 
L 332.498437 145.687101 
L 335.923958 158.683936 
L 339.349479 171.283761 
L 342.775 183.288006 
L 346.200521 194.52155 
L 349.626042 204.836207 
L 353.051562 214.113312 
L 356.477083 222.265344 
L 359.902604 229.236579 
L 363.328125 235.002785 
L 366.753646 239.570007 
L 370.179167 242.972508 
L 373.604687 245.269989 
L 377.030208 246.544191 
L 380.455729 246.895029 
L 383.88125 246.436406 
L 387.306771 245.291859 
L 390.732292 243.590197 
L 394.157812 241.46127 
L 397.583333 239.032009 
L 401.008854 236.422859 
L 404.434375 233.744698 
L 407.859896 231.096323 
L 411.285417 228.562549 
L 414.710937 226.212954 
L 418.136458 224.101261 
L 421.561979 222.265344 
L 424.9875 220.727798 
L 428.413021 219.497021 
L 431.838542 218.568712 
L 435.264062 217.927708 
L 438.689583 217.550042 
L 442.115104 217.405138 
L 445.540625 217.45802 
L 448.966146 217.671458 
L 452.391667 218.007956 
L 455.817187 218.43151 
L 459.242708 218.90907 
L 462.668229 219.411689 
L 466.09375 219.9153 
L 469.519271 220.401156 
L 472.944792 220.855903 
L 476.370312 221.271354 
L 479.795833 221.643979 
L 483.221354 221.974168 
L 486.646875 222.265344 
L 490.072396 222.522964 
L 493.497917 222.753503 
L 496.923437 222.963465 
" style="fill:none;stroke:#ff0000;stroke-linecap:square;stroke-width:1.5;"/>
   </g>
   <g id="line2d_159">
    <path clip-path="url(#p07d7f7880b)" d="M 291.392187 222.265344 
L 291.392187 14.599219 
" style="fill:none;stroke:#008000;stroke-dasharray:5.55,2.4;stroke-dashoffset:0;stroke-width:1.5;"/>
   </g>
   <g id="line2d_160">
    <defs>
     <path d="M -3 3 
L 3 3 
L 3 -3 
L -3 -3 
z
" id="m00a9ae02a0" style="stroke:#008000;stroke-linejoin:miter;"/>
    </defs>
    <g clip-path="url(#p07d7f7880b)">
     <use style="fill:#008000;stroke:#008000;stroke-linejoin:miter;" x="85.860937" xlink:href="#m00a9ae02a0" y="222.963465"/>
     <use style="fill:#008000;stroke:#008000;stroke-linejoin:miter;" x="126.967187" xlink:href="#m00a9ae02a0" y="218.43151"/>
     <use style="fill:#008000;stroke:#008000;stroke-linejoin:miter;" x="168.073437" xlink:href="#m00a9ae02a0" y="226.212954"/>
     <use style="fill:#008000;stroke:#008000;stroke-linejoin:miter;" x="209.179687" xlink:href="#m00a9ae02a0" y="245.269989"/>
     <use style="fill:#008000;stroke:#008000;stroke-linejoin:miter;" x="250.285937" xlink:href="#m00a9ae02a0" y="145.687101"/>
     <use style="fill:#008000;stroke:#008000;stroke-linejoin:miter;" x="291.392187" xlink:href="#m00a9ae02a0" y="40.3666"/>
     <use style="fill:#008000;stroke:#008000;stroke-linejoin:miter;" x="332.498437" xlink:href="#m00a9ae02a0" y="145.687101"/>
     <use style="fill:#008000;stroke:#008000;stroke-linejoin:miter;" x="373.604687" xlink:href="#m00a9ae02a0" y="245.269989"/>
     <use style="fill:#008000;stroke:#008000;stroke-linejoin:miter;" x="414.710937" xlink:href="#m00a9ae02a0" y="226.212954"/>
     <use style="fill:#008000;stroke:#008000;stroke-linejoin:miter;" x="455.817187" xlink:href="#m00a9ae02a0" y="218.43151"/>
     <use style="fill:#008000;stroke:#008000;stroke-linejoin:miter;" x="496.923437" xlink:href="#m00a9ae02a0" y="222.963465"/>
    </g>
   </g>
   <g id="patch_7">
    <path d="M 65.307812 274.181875 
L 65.307812 14.599219 
" style="fill:none;stroke:#000000;stroke-linecap:square;stroke-linejoin:miter;stroke-width:0.8;"/>
   </g>
   <g id="patch_8">
    <path d="M 517.476562 274.181875 
L 517.476562 14.599219 
" style="fill:none;stroke:#000000;stroke-linecap:square;stroke-linejoin:miter;stroke-width:0.8;"/>
   </g>
   <g id="patch_9">
    <path d="M 65.307812 274.181875 
L 517.476562 274.181875 
" style="fill:none;stroke:#000000;stroke-linecap:square;stroke-linejoin:miter;stroke-width:0.8;"/>
   </g>
   <g id="patch_10">
    <path d="M 65.307812 14.599219 
L 517.476562 14.599219 
" style="fill:none;stroke:#000000;stroke-linecap:square;stroke-linejoin:miter;stroke-width:0.8;"/>
   </g>
   <g id="text_36">
    <!-- $\alpha=19$ -->
    <defs>
     <path d="M 40.921875 25.4375 
L 40.96875 36.71875 
Q 41.015625 48.25 32.328125 48.296875 
Q 25.828125 48.34375 21.78125 42.921875 
Q 16.703125 36.234375 14.984375 27.296875 
Q 12.890625 16.546875 15.53125 11.421875 
Q 18.265625 6.203125 24.171875 6.203125 
Q 30.71875 6.203125 36.234375 16.609375 
z
M 33.84375 55.90625 
Q 49.078125 56.15625 48.875 40.375 
Q 48.875 40.375 56.5 54.6875 
L 64.5 54.6875 
L 48.734375 25.046875 
L 48.578125 14.359375 
Q 48.578125 11.96875 49.90625 9.96875 
Q 51.421875 7.625 52.984375 7.625 
L 57.328125 7.625 
L 55.859375 0 
L 50.4375 0 
Q 45.84375 0 42.53125 4.109375 
Q 40.96875 6.15625 40.921875 10.453125 
Q 37.75 5.21875 32.28125 0.78125 
Q 29.6875 -1.265625 22.703125 -1.21875 
Q 11.28125 -1.125 7.125 6.203125 
Q 2.875 13.8125 5.515625 27.296875 
Q 8.34375 41.796875 15.765625 48.390625 
Q 24.125 55.765625 33.84375 55.90625 
z
" id="DejaVuSans-Oblique-3b1"/>
    </defs>
    <g transform="translate(298.243229 40.3666)scale(0.1 -0.1)">
     <use transform="translate(0 0.78125)" xlink:href="#DejaVuSans-Oblique-3b1"/>
     <use transform="translate(85.400391 0.78125)" xlink:href="#DejaVuSans-3d"/>
     <use transform="translate(188.671875 0.78125)" xlink:href="#DejaVuSans-31"/>
     <use transform="translate(252.294922 0.78125)" xlink:href="#DejaVuSans-39"/>
    </g>
   </g>
  </g>
 </g>
 <defs>
  <clipPath id="p07d7f7880b">
   <rect height="259.582656" width="452.16875" x="65.307812" y="14.599219"/>
  </clipPath>
 </defs>
</svg>
