<?xml version="1.0" encoding="utf-8" standalone="no"?>
<!DOCTYPE svg PUBLIC "-//W3C//DTD SVG 1.1//EN"
  "http://www.w3.org/Graphics/SVG/1.1/DTD/svg11.dtd">
<!-- Created with matplotlib (http://matplotlib.org/) -->
<svg height="345pt" version="1.1" viewBox="0 0 460 345" width="460pt" xmlns="http://www.w3.org/2000/svg" xmlns:xlink="http://www.w3.org/1999/xlink">
 <defs>
  <style type="text/css">
*{stroke-linecap:butt;stroke-linejoin:round;}
  </style>
 </defs>
 <g id="figure_1">
  <g id="patch_1">
   <path d="M 0 345.6 
L 460.8 345.6 
L 460.8 0 
L 0 0 
z
" style="fill:#ffffff;"/>
  </g>
  <g id="axes_1">
   <g id="patch_2">
    <path d="M 59.42 135.52 
L 447.48 135.52 
L 447.48 13.32 
L 59.42 13.32 
z
" style="fill:#ffffff;"/>
   </g>
   <g id="matplotlib.axis_1">
    <g id="xtick_1">
     <g id="line2d_1">
      <path clip-path="url(#p629be17a6e)" d="M 77.059091 135.52 
L 77.059091 13.32 
" style="fill:none;stroke:#b0b0b0;stroke-dasharray:0.8,1.32;stroke-dashoffset:0;stroke-width:0.8;"/>
     </g>
     <g id="line2d_2">
      <defs>
       <path d="M 0 0 
L 0 3.5 
" id="m20a32e2ead" style="stroke:#000000;stroke-width:0.8;"/>
      </defs>
      <g>
       <use style="stroke:#000000;stroke-width:0.8;" x="77.059091" xlink:href="#m20a32e2ead" y="135.52"/>
      </g>
     </g>
     <g id="text_1">
      <!-- 0.0 -->
      <defs>
       <path d="M 31.78125 66.40625 
Q 24.171875 66.40625 20.328125 58.90625 
Q 16.5 51.421875 16.5 36.375 
Q 16.5 21.390625 20.328125 13.890625 
Q 24.171875 6.390625 31.78125 6.390625 
Q 39.453125 6.390625 43.28125 13.890625 
Q 47.125 21.390625 47.125 36.375 
Q 47.125 51.421875 43.28125 58.90625 
Q 39.453125 66.40625 31.78125 66.40625 
z
M 31.78125 74.21875 
Q 44.046875 74.21875 50.515625 64.515625 
Q 56.984375 54.828125 56.984375 36.375 
Q 56.984375 17.96875 50.515625 8.265625 
Q 44.046875 -1.421875 31.78125 -1.421875 
Q 19.53125 -1.421875 13.0625 8.265625 
Q 6.59375 17.96875 6.59375 36.375 
Q 6.59375 54.828125 13.0625 64.515625 
Q 19.53125 74.21875 31.78125 74.21875 
z
" id="DejaVuSans-30"/>
       <path d="M 10.6875 12.40625 
L 21 12.40625 
L 21 0 
L 10.6875 0 
z
" id="DejaVuSans-2e"/>
      </defs>
      <g transform="translate(69.107528 150.118437)scale(0.1 -0.1)">
       <use xlink:href="#DejaVuSans-30"/>
       <use x="63.623047" xlink:href="#DejaVuSans-2e"/>
       <use x="95.410156" xlink:href="#DejaVuSans-30"/>
      </g>
     </g>
    </g>
    <g id="xtick_2">
     <g id="line2d_3">
      <path clip-path="url(#p629be17a6e)" d="M 147.686082 135.52 
L 147.686082 13.32 
" style="fill:none;stroke:#b0b0b0;stroke-dasharray:0.8,1.32;stroke-dashoffset:0;stroke-width:0.8;"/>
     </g>
     <g id="line2d_4">
      <g>
       <use style="stroke:#000000;stroke-width:0.8;" x="147.686082" xlink:href="#m20a32e2ead" y="135.52"/>
      </g>
     </g>
     <g id="text_2">
      <!-- 0.2 -->
      <defs>
       <path d="M 19.1875 8.296875 
L 53.609375 8.296875 
L 53.609375 0 
L 7.328125 0 
L 7.328125 8.296875 
Q 12.9375 14.109375 22.625 23.890625 
Q 32.328125 33.6875 34.8125 36.53125 
Q 39.546875 41.84375 41.421875 45.53125 
Q 43.3125 49.21875 43.3125 52.78125 
Q 43.3125 58.59375 39.234375 62.25 
Q 35.15625 65.921875 28.609375 65.921875 
Q 23.96875 65.921875 18.8125 64.3125 
Q 13.671875 62.703125 7.8125 59.421875 
L 7.8125 69.390625 
Q 13.765625 71.78125 18.9375 73 
Q 24.125 74.21875 28.421875 74.21875 
Q 39.75 74.21875 46.484375 68.546875 
Q 53.21875 62.890625 53.21875 53.421875 
Q 53.21875 48.921875 51.53125 44.890625 
Q 49.859375 40.875 45.40625 35.40625 
Q 44.1875 33.984375 37.640625 27.21875 
Q 31.109375 20.453125 19.1875 8.296875 
z
" id="DejaVuSans-32"/>
      </defs>
      <g transform="translate(139.734519 150.118437)scale(0.1 -0.1)">
       <use xlink:href="#DejaVuSans-30"/>
       <use x="63.623047" xlink:href="#DejaVuSans-2e"/>
       <use x="95.410156" xlink:href="#DejaVuSans-32"/>
      </g>
     </g>
    </g>
    <g id="xtick_3">
     <g id="line2d_5">
      <path clip-path="url(#p629be17a6e)" d="M 218.313072 135.52 
L 218.313072 13.32 
" style="fill:none;stroke:#b0b0b0;stroke-dasharray:0.8,1.32;stroke-dashoffset:0;stroke-width:0.8;"/>
     </g>
     <g id="line2d_6">
      <g>
       <use style="stroke:#000000;stroke-width:0.8;" x="218.313072" xlink:href="#m20a32e2ead" y="135.52"/>
      </g>
     </g>
     <g id="text_3">
      <!-- 0.4 -->
      <defs>
       <path d="M 37.796875 64.3125 
L 12.890625 25.390625 
L 37.796875 25.390625 
z
M 35.203125 72.90625 
L 47.609375 72.90625 
L 47.609375 25.390625 
L 58.015625 25.390625 
L 58.015625 17.1875 
L 47.609375 17.1875 
L 47.609375 0 
L 37.796875 0 
L 37.796875 17.1875 
L 4.890625 17.1875 
L 4.890625 26.703125 
z
" id="DejaVuSans-34"/>
      </defs>
      <g transform="translate(210.36151 150.118437)scale(0.1 -0.1)">
       <use xlink:href="#DejaVuSans-30"/>
       <use x="63.623047" xlink:href="#DejaVuSans-2e"/>
       <use x="95.410156" xlink:href="#DejaVuSans-34"/>
      </g>
     </g>
    </g>
    <g id="xtick_4">
     <g id="line2d_7">
      <path clip-path="url(#p629be17a6e)" d="M 288.940063 135.52 
L 288.940063 13.32 
" style="fill:none;stroke:#b0b0b0;stroke-dasharray:0.8,1.32;stroke-dashoffset:0;stroke-width:0.8;"/>
     </g>
     <g id="line2d_8">
      <g>
       <use style="stroke:#000000;stroke-width:0.8;" x="288.940063" xlink:href="#m20a32e2ead" y="135.52"/>
      </g>
     </g>
     <g id="text_4">
      <!-- 0.6 -->
      <defs>
       <path d="M 33.015625 40.375 
Q 26.375 40.375 22.484375 35.828125 
Q 18.609375 31.296875 18.609375 23.390625 
Q 18.609375 15.53125 22.484375 10.953125 
Q 26.375 6.390625 33.015625 6.390625 
Q 39.65625 6.390625 43.53125 10.953125 
Q 47.40625 15.53125 47.40625 23.390625 
Q 47.40625 31.296875 43.53125 35.828125 
Q 39.65625 40.375 33.015625 40.375 
z
M 52.59375 71.296875 
L 52.59375 62.3125 
Q 48.875 64.0625 45.09375 64.984375 
Q 41.3125 65.921875 37.59375 65.921875 
Q 27.828125 65.921875 22.671875 59.328125 
Q 17.53125 52.734375 16.796875 39.40625 
Q 19.671875 43.65625 24.015625 45.921875 
Q 28.375 48.1875 33.59375 48.1875 
Q 44.578125 48.1875 50.953125 41.515625 
Q 57.328125 34.859375 57.328125 23.390625 
Q 57.328125 12.15625 50.6875 5.359375 
Q 44.046875 -1.421875 33.015625 -1.421875 
Q 20.359375 -1.421875 13.671875 8.265625 
Q 6.984375 17.96875 6.984375 36.375 
Q 6.984375 53.65625 15.1875 63.9375 
Q 23.390625 74.21875 37.203125 74.21875 
Q 40.921875 74.21875 44.703125 73.484375 
Q 48.484375 72.75 52.59375 71.296875 
z
" id="DejaVuSans-36"/>
      </defs>
      <g transform="translate(280.9885 150.118437)scale(0.1 -0.1)">
       <use xlink:href="#DejaVuSans-30"/>
       <use x="63.623047" xlink:href="#DejaVuSans-2e"/>
       <use x="95.410156" xlink:href="#DejaVuSans-36"/>
      </g>
     </g>
    </g>
    <g id="xtick_5">
     <g id="line2d_9">
      <path clip-path="url(#p629be17a6e)" d="M 359.567053 135.52 
L 359.567053 13.32 
" style="fill:none;stroke:#b0b0b0;stroke-dasharray:0.8,1.32;stroke-dashoffset:0;stroke-width:0.8;"/>
     </g>
     <g id="line2d_10">
      <g>
       <use style="stroke:#000000;stroke-width:0.8;" x="359.567053" xlink:href="#m20a32e2ead" y="135.52"/>
      </g>
     </g>
     <g id="text_5">
      <!-- 0.8 -->
      <defs>
       <path d="M 31.78125 34.625 
Q 24.75 34.625 20.71875 30.859375 
Q 16.703125 27.09375 16.703125 20.515625 
Q 16.703125 13.921875 20.71875 10.15625 
Q 24.75 6.390625 31.78125 6.390625 
Q 38.8125 6.390625 42.859375 10.171875 
Q 46.921875 13.96875 46.921875 20.515625 
Q 46.921875 27.09375 42.890625 30.859375 
Q 38.875 34.625 31.78125 34.625 
z
M 21.921875 38.8125 
Q 15.578125 40.375 12.03125 44.71875 
Q 8.5 49.078125 8.5 55.328125 
Q 8.5 64.0625 14.71875 69.140625 
Q 20.953125 74.21875 31.78125 74.21875 
Q 42.671875 74.21875 48.875 69.140625 
Q 55.078125 64.0625 55.078125 55.328125 
Q 55.078125 49.078125 51.53125 44.71875 
Q 48 40.375 41.703125 38.8125 
Q 48.828125 37.15625 52.796875 32.3125 
Q 56.78125 27.484375 56.78125 20.515625 
Q 56.78125 9.90625 50.3125 4.234375 
Q 43.84375 -1.421875 31.78125 -1.421875 
Q 19.734375 -1.421875 13.25 4.234375 
Q 6.78125 9.90625 6.78125 20.515625 
Q 6.78125 27.484375 10.78125 32.3125 
Q 14.796875 37.15625 21.921875 38.8125 
z
M 18.3125 54.390625 
Q 18.3125 48.734375 21.84375 45.5625 
Q 25.390625 42.390625 31.78125 42.390625 
Q 38.140625 42.390625 41.71875 45.5625 
Q 45.3125 48.734375 45.3125 54.390625 
Q 45.3125 60.0625 41.71875 63.234375 
Q 38.140625 66.40625 31.78125 66.40625 
Q 25.390625 66.40625 21.84375 63.234375 
Q 18.3125 60.0625 18.3125 54.390625 
z
" id="DejaVuSans-38"/>
      </defs>
      <g transform="translate(351.615491 150.118437)scale(0.1 -0.1)">
       <use xlink:href="#DejaVuSans-30"/>
       <use x="63.623047" xlink:href="#DejaVuSans-2e"/>
       <use x="95.410156" xlink:href="#DejaVuSans-38"/>
      </g>
     </g>
    </g>
    <g id="xtick_6">
     <g id="line2d_11">
      <path clip-path="url(#p629be17a6e)" d="M 430.194044 135.52 
L 430.194044 13.32 
" style="fill:none;stroke:#b0b0b0;stroke-dasharray:0.8,1.32;stroke-dashoffset:0;stroke-width:0.8;"/>
     </g>
     <g id="line2d_12">
      <g>
       <use style="stroke:#000000;stroke-width:0.8;" x="430.194044" xlink:href="#m20a32e2ead" y="135.52"/>
      </g>
     </g>
     <g id="text_6">
      <!-- 1.0 -->
      <defs>
       <path d="M 12.40625 8.296875 
L 28.515625 8.296875 
L 28.515625 63.921875 
L 10.984375 60.40625 
L 10.984375 69.390625 
L 28.421875 72.90625 
L 38.28125 72.90625 
L 38.28125 8.296875 
L 54.390625 8.296875 
L 54.390625 0 
L 12.40625 0 
z
" id="DejaVuSans-31"/>
      </defs>
      <g transform="translate(422.242482 150.118437)scale(0.1 -0.1)">
       <use xlink:href="#DejaVuSans-31"/>
       <use x="63.623047" xlink:href="#DejaVuSans-2e"/>
       <use x="95.410156" xlink:href="#DejaVuSans-30"/>
      </g>
     </g>
    </g>
    <g id="text_7">
     <!-- t(ms) -->
     <defs>
      <path d="M 18.3125 70.21875 
L 18.3125 54.6875 
L 36.8125 54.6875 
L 36.8125 47.703125 
L 18.3125 47.703125 
L 18.3125 18.015625 
Q 18.3125 11.328125 20.140625 9.421875 
Q 21.96875 7.515625 27.59375 7.515625 
L 36.8125 7.515625 
L 36.8125 0 
L 27.59375 0 
Q 17.1875 0 13.234375 3.875 
Q 9.28125 7.765625 9.28125 18.015625 
L 9.28125 47.703125 
L 2.6875 47.703125 
L 2.6875 54.6875 
L 9.28125 54.6875 
L 9.28125 70.21875 
z
" id="DejaVuSans-74"/>
      <path d="M 31 75.875 
Q 24.46875 64.65625 21.28125 53.65625 
Q 18.109375 42.671875 18.109375 31.390625 
Q 18.109375 20.125 21.3125 9.0625 
Q 24.515625 -2 31 -13.1875 
L 23.1875 -13.1875 
Q 15.875 -1.703125 12.234375 9.375 
Q 8.59375 20.453125 8.59375 31.390625 
Q 8.59375 42.28125 12.203125 53.3125 
Q 15.828125 64.359375 23.1875 75.875 
z
" id="DejaVuSans-28"/>
      <path d="M 52 44.1875 
Q 55.375 50.25 60.0625 53.125 
Q 64.75 56 71.09375 56 
Q 79.640625 56 84.28125 50.015625 
Q 88.921875 44.046875 88.921875 33.015625 
L 88.921875 0 
L 79.890625 0 
L 79.890625 32.71875 
Q 79.890625 40.578125 77.09375 44.375 
Q 74.3125 48.1875 68.609375 48.1875 
Q 61.625 48.1875 57.5625 43.546875 
Q 53.515625 38.921875 53.515625 30.90625 
L 53.515625 0 
L 44.484375 0 
L 44.484375 32.71875 
Q 44.484375 40.625 41.703125 44.40625 
Q 38.921875 48.1875 33.109375 48.1875 
Q 26.21875 48.1875 22.15625 43.53125 
Q 18.109375 38.875 18.109375 30.90625 
L 18.109375 0 
L 9.078125 0 
L 9.078125 54.6875 
L 18.109375 54.6875 
L 18.109375 46.1875 
Q 21.1875 51.21875 25.484375 53.609375 
Q 29.78125 56 35.6875 56 
Q 41.65625 56 45.828125 52.96875 
Q 50 49.953125 52 44.1875 
z
" id="DejaVuSans-6d"/>
      <path d="M 44.28125 53.078125 
L 44.28125 44.578125 
Q 40.484375 46.53125 36.375 47.5 
Q 32.28125 48.484375 27.875 48.484375 
Q 21.1875 48.484375 17.84375 46.4375 
Q 14.5 44.390625 14.5 40.28125 
Q 14.5 37.15625 16.890625 35.375 
Q 19.28125 33.59375 26.515625 31.984375 
L 29.59375 31.296875 
Q 39.15625 29.25 43.1875 25.515625 
Q 47.21875 21.78125 47.21875 15.09375 
Q 47.21875 7.46875 41.1875 3.015625 
Q 35.15625 -1.421875 24.609375 -1.421875 
Q 20.21875 -1.421875 15.453125 -0.5625 
Q 10.6875 0.296875 5.421875 2 
L 5.421875 11.28125 
Q 10.40625 8.6875 15.234375 7.390625 
Q 20.0625 6.109375 24.8125 6.109375 
Q 31.15625 6.109375 34.5625 8.28125 
Q 37.984375 10.453125 37.984375 14.40625 
Q 37.984375 18.0625 35.515625 20.015625 
Q 33.0625 21.96875 24.703125 23.78125 
L 21.578125 24.515625 
Q 13.234375 26.265625 9.515625 29.90625 
Q 5.8125 33.546875 5.8125 39.890625 
Q 5.8125 47.609375 11.28125 51.796875 
Q 16.75 56 26.8125 56 
Q 31.78125 56 36.171875 55.265625 
Q 40.578125 54.546875 44.28125 53.078125 
z
" id="DejaVuSans-73"/>
      <path d="M 8.015625 75.875 
L 15.828125 75.875 
Q 23.140625 64.359375 26.78125 53.3125 
Q 30.421875 42.28125 30.421875 31.390625 
Q 30.421875 20.453125 26.78125 9.375 
Q 23.140625 -1.703125 15.828125 -13.1875 
L 8.015625 -13.1875 
Q 14.5 -2 17.703125 9.0625 
Q 20.90625 20.125 20.90625 31.390625 
Q 20.90625 42.671875 17.703125 53.65625 
Q 14.5 64.65625 8.015625 75.875 
z
" id="DejaVuSans-29"/>
     </defs>
     <g transform="translate(240.113281 163.796562)scale(0.1 -0.1)">
      <use xlink:href="#DejaVuSans-74"/>
      <use x="39.208984" xlink:href="#DejaVuSans-28"/>
      <use x="78.222656" xlink:href="#DejaVuSans-6d"/>
      <use x="175.634766" xlink:href="#DejaVuSans-73"/>
      <use x="227.734375" xlink:href="#DejaVuSans-29"/>
     </g>
    </g>
   </g>
   <g id="matplotlib.axis_2">
    <g id="ytick_1">
     <g id="line2d_13">
      <path clip-path="url(#p629be17a6e)" d="M 59.42 130.075278 
L 447.48 130.075278 
" style="fill:none;stroke:#b0b0b0;stroke-dasharray:0.8,1.32;stroke-dashoffset:0;stroke-width:0.8;"/>
     </g>
     <g id="line2d_14">
      <defs>
       <path d="M 0 0 
L -3.5 0 
" id="mf6a5974026" style="stroke:#000000;stroke-width:0.8;"/>
      </defs>
      <g>
       <use style="stroke:#000000;stroke-width:0.8;" x="59.42" xlink:href="#mf6a5974026" y="130.075278"/>
      </g>
     </g>
     <g id="text_8">
      <!-- −1.0 -->
      <defs>
       <path d="M 10.59375 35.5 
L 73.1875 35.5 
L 73.1875 27.203125 
L 10.59375 27.203125 
z
" id="DejaVuSans-2212"/>
      </defs>
      <g transform="translate(28.137188 133.874496)scale(0.1 -0.1)">
       <use xlink:href="#DejaVuSans-2212"/>
       <use x="83.789062" xlink:href="#DejaVuSans-31"/>
       <use x="147.412109" xlink:href="#DejaVuSans-2e"/>
       <use x="179.199219" xlink:href="#DejaVuSans-30"/>
      </g>
     </g>
    </g>
    <g id="ytick_2">
     <g id="line2d_15">
      <path clip-path="url(#p629be17a6e)" d="M 59.42 102.247639 
L 447.48 102.247639 
" style="fill:none;stroke:#b0b0b0;stroke-dasharray:0.8,1.32;stroke-dashoffset:0;stroke-width:0.8;"/>
     </g>
     <g id="line2d_16">
      <g>
       <use style="stroke:#000000;stroke-width:0.8;" x="59.42" xlink:href="#mf6a5974026" y="102.247639"/>
      </g>
     </g>
     <g id="text_9">
      <!-- −0.5 -->
      <defs>
       <path d="M 10.796875 72.90625 
L 49.515625 72.90625 
L 49.515625 64.59375 
L 19.828125 64.59375 
L 19.828125 46.734375 
Q 21.96875 47.46875 24.109375 47.828125 
Q 26.265625 48.1875 28.421875 48.1875 
Q 40.625 48.1875 47.75 41.5 
Q 54.890625 34.8125 54.890625 23.390625 
Q 54.890625 11.625 47.5625 5.09375 
Q 40.234375 -1.421875 26.90625 -1.421875 
Q 22.3125 -1.421875 17.546875 -0.640625 
Q 12.796875 0.140625 7.71875 1.703125 
L 7.71875 11.625 
Q 12.109375 9.234375 16.796875 8.0625 
Q 21.484375 6.890625 26.703125 6.890625 
Q 35.15625 6.890625 40.078125 11.328125 
Q 45.015625 15.765625 45.015625 23.390625 
Q 45.015625 31 40.078125 35.4375 
Q 35.15625 39.890625 26.703125 39.890625 
Q 22.75 39.890625 18.8125 39.015625 
Q 14.890625 38.140625 10.796875 36.28125 
z
" id="DejaVuSans-35"/>
      </defs>
      <g transform="translate(28.137188 106.046858)scale(0.1 -0.1)">
       <use xlink:href="#DejaVuSans-2212"/>
       <use x="83.789062" xlink:href="#DejaVuSans-30"/>
       <use x="147.412109" xlink:href="#DejaVuSans-2e"/>
       <use x="179.199219" xlink:href="#DejaVuSans-35"/>
      </g>
     </g>
    </g>
    <g id="ytick_3">
     <g id="line2d_17">
      <path clip-path="url(#p629be17a6e)" d="M 59.42 74.42 
L 447.48 74.42 
" style="fill:none;stroke:#b0b0b0;stroke-dasharray:0.8,1.32;stroke-dashoffset:0;stroke-width:0.8;"/>
     </g>
     <g id="line2d_18">
      <g>
       <use style="stroke:#000000;stroke-width:0.8;" x="59.42" xlink:href="#mf6a5974026" y="74.42"/>
      </g>
     </g>
     <g id="text_10">
      <!-- 0.0 -->
      <g transform="translate(36.516875 78.219219)scale(0.1 -0.1)">
       <use xlink:href="#DejaVuSans-30"/>
       <use x="63.623047" xlink:href="#DejaVuSans-2e"/>
       <use x="95.410156" xlink:href="#DejaVuSans-30"/>
      </g>
     </g>
    </g>
    <g id="ytick_4">
     <g id="line2d_19">
      <path clip-path="url(#p629be17a6e)" d="M 59.42 46.592361 
L 447.48 46.592361 
" style="fill:none;stroke:#b0b0b0;stroke-dasharray:0.8,1.32;stroke-dashoffset:0;stroke-width:0.8;"/>
     </g>
     <g id="line2d_20">
      <g>
       <use style="stroke:#000000;stroke-width:0.8;" x="59.42" xlink:href="#mf6a5974026" y="46.592361"/>
      </g>
     </g>
     <g id="text_11">
      <!-- 0.5 -->
      <g transform="translate(36.516875 50.39158)scale(0.1 -0.1)">
       <use xlink:href="#DejaVuSans-30"/>
       <use x="63.623047" xlink:href="#DejaVuSans-2e"/>
       <use x="95.410156" xlink:href="#DejaVuSans-35"/>
      </g>
     </g>
    </g>
    <g id="ytick_5">
     <g id="line2d_21">
      <path clip-path="url(#p629be17a6e)" d="M 59.42 18.764722 
L 447.48 18.764722 
" style="fill:none;stroke:#b0b0b0;stroke-dasharray:0.8,1.32;stroke-dashoffset:0;stroke-width:0.8;"/>
     </g>
     <g id="line2d_22">
      <g>
       <use style="stroke:#000000;stroke-width:0.8;" x="59.42" xlink:href="#mf6a5974026" y="18.764722"/>
      </g>
     </g>
     <g id="text_12">
      <!-- 1.0 -->
      <g transform="translate(36.516875 22.563941)scale(0.1 -0.1)">
       <use xlink:href="#DejaVuSans-31"/>
       <use x="63.623047" xlink:href="#DejaVuSans-2e"/>
       <use x="95.410156" xlink:href="#DejaVuSans-30"/>
      </g>
     </g>
    </g>
   </g>
   <g id="line2d_23">
    <path clip-path="url(#p629be17a6e)" d="M 77.059091 74.42 
L 78.824766 41.706649 
L 79.531036 31.536872 
L 80.237305 24.061599 
L 80.59044 21.488686 
L 80.943575 19.75053 
L 81.29671 18.874545 
L 81.649845 18.874545 
L 82.00298 19.75053 
L 82.356115 21.488686 
L 83.062385 27.428695 
L 83.768655 36.321341 
L 84.82806 53.931926 
L 88.006274 112.518659 
L 88.712544 121.411305 
L 89.418814 127.351314 
L 89.771949 129.08947 
L 90.125084 129.965455 
L 90.478219 129.965455 
L 90.831354 129.08947 
L 91.184489 127.351314 
L 91.890759 121.411305 
L 92.597029 112.518659 
L 93.656434 94.908074 
L 96.834648 36.321341 
L 97.540918 27.428695 
L 98.247188 21.488686 
L 98.600323 19.75053 
L 98.953458 18.874545 
L 99.306593 18.874545 
L 99.659728 19.75053 
L 100.012863 21.488686 
L 100.719133 27.428695 
L 101.425403 36.321341 
L 102.484808 53.931926 
L 105.663022 112.518659 
L 106.369292 121.411305 
L 107.075562 127.351314 
L 107.428697 129.08947 
L 107.781832 129.965455 
L 108.134967 129.965455 
L 108.488102 129.08947 
L 108.841237 127.351314 
L 109.547507 121.411305 
L 110.253777 112.518659 
L 111.313181 94.908074 
L 114.491396 36.321341 
L 115.197666 27.428695 
L 115.903936 21.488686 
L 116.257071 19.75053 
L 116.610206 18.874545 
L 116.963341 18.874545 
L 117.316476 19.75053 
L 117.669611 21.488686 
L 118.37588 27.428695 
L 119.08215 36.321341 
L 120.141555 53.931926 
L 123.31977 112.518659 
L 124.02604 121.411305 
L 124.73231 127.351314 
L 125.085445 129.08947 
L 125.438579 129.965455 
L 125.791714 129.965455 
L 126.144849 129.08947 
L 126.497984 127.351314 
L 127.204254 121.411305 
L 127.910524 112.518659 
L 128.969929 94.908074 
L 132.148144 36.321341 
L 132.854414 27.428695 
L 133.560683 21.488686 
L 133.913818 19.75053 
L 134.266953 18.874545 
L 134.620088 18.874545 
L 134.973223 19.75053 
L 135.326358 21.488686 
L 136.032628 27.428695 
L 136.738898 36.321341 
L 137.798303 53.931926 
L 140.976517 112.518659 
L 141.682787 121.411305 
L 142.389057 127.351314 
L 142.742192 129.08947 
L 143.095327 129.965455 
L 143.448462 129.965455 
L 143.801597 129.08947 
L 144.154732 127.351314 
L 144.861002 121.411305 
L 145.567272 112.518659 
L 146.626677 94.908074 
L 149.804891 36.321341 
L 150.511161 27.428695 
L 151.217431 21.488686 
L 151.570566 19.75053 
L 151.923701 18.874545 
L 152.276836 18.874545 
L 152.629971 19.75053 
L 152.983106 21.488686 
L 153.689376 27.428695 
L 154.395646 36.321341 
L 155.455051 53.931926 
L 158.633265 112.518659 
L 159.339535 121.411305 
L 160.045805 127.351314 
L 160.39894 129.08947 
L 160.752075 129.965455 
L 161.10521 129.965455 
L 161.458345 129.08947 
L 161.81148 127.351314 
L 162.51775 121.411305 
L 163.224019 112.518659 
L 164.283424 94.908074 
L 167.461639 36.321341 
L 168.167909 27.428695 
L 168.874179 21.488686 
L 169.227314 19.75053 
L 169.580449 18.874545 
L 169.933584 18.874545 
L 170.286719 19.75053 
L 170.639853 21.488686 
L 171.346123 27.428695 
L 172.052393 36.321341 
L 173.111798 53.931926 
L 176.290013 112.518659 
L 176.996283 121.411305 
L 177.702553 127.351314 
L 178.055688 129.08947 
L 178.408822 129.965455 
L 178.761957 129.965455 
L 179.115092 129.08947 
L 179.468227 127.351314 
L 180.174497 121.411305 
L 180.880767 112.518659 
L 181.940172 94.908074 
L 185.118387 36.321341 
L 185.824656 27.428695 
L 186.530926 21.488686 
L 186.884061 19.75053 
L 187.237196 18.874545 
L 187.590331 18.874545 
L 187.943466 19.75053 
L 188.296601 21.488686 
L 189.002871 27.428695 
L 189.709141 36.321341 
L 190.768546 53.931926 
L 193.94676 112.518659 
L 194.65303 121.411305 
L 195.3593 127.351314 
L 195.712435 129.08947 
L 196.06557 129.965455 
L 196.418705 129.965455 
L 196.77184 129.08947 
L 197.124975 127.351314 
L 197.831245 121.411305 
L 198.537515 112.518659 
L 199.59692 94.908074 
L 202.775134 36.321341 
L 203.481404 27.428695 
L 204.187674 21.488686 
L 204.540809 19.75053 
L 204.893944 18.874545 
L 205.247079 18.874545 
L 205.600214 19.75053 
L 205.953349 21.488686 
L 206.659619 27.428695 
L 207.365889 36.321341 
L 208.425293 53.931926 
L 211.603508 112.518659 
L 212.309778 121.411305 
L 213.016048 127.351314 
L 213.369183 129.08947 
L 213.722318 129.965455 
L 214.075453 129.965455 
L 214.428588 129.08947 
L 214.781723 127.351314 
L 215.487993 121.411305 
L 216.194262 112.518659 
L 217.253667 94.908074 
L 220.431882 36.321341 
L 221.138152 27.428695 
L 221.844422 21.488686 
L 222.197557 19.75053 
L 222.550692 18.874545 
L 222.903827 18.874545 
L 223.256962 19.75053 
L 223.610096 21.488686 
L 224.316366 27.428695 
L 225.022636 36.321341 
L 226.082041 53.931926 
L 229.260256 112.518659 
L 229.966526 121.411305 
L 230.672796 127.351314 
L 231.02593 129.08947 
L 231.379065 129.965455 
L 231.7322 129.965455 
L 232.085335 129.08947 
L 232.43847 127.351314 
L 233.14474 121.411305 
L 233.85101 112.518659 
L 234.910415 94.908074 
L 238.08863 36.321341 
L 238.794899 27.428695 
L 239.501169 21.488686 
L 239.854304 19.75053 
L 240.207439 18.874545 
L 240.560574 18.874545 
L 240.913709 19.75053 
L 241.266844 21.488686 
L 241.973114 27.428695 
L 242.679384 36.321341 
L 243.738789 53.931926 
L 246.917003 112.518659 
L 247.623273 121.411305 
L 248.329543 127.351314 
L 248.682678 129.08947 
L 249.035813 129.965455 
L 249.388948 129.965455 
L 249.742083 129.08947 
L 250.095218 127.351314 
L 250.801488 121.411305 
L 251.507758 112.518659 
L 252.567163 94.908074 
L 255.745377 36.321341 
L 256.451647 27.428695 
L 257.157917 21.488686 
L 257.511052 19.75053 
L 257.864187 18.874545 
L 258.217322 18.874545 
L 258.570457 19.75053 
L 258.923592 21.488686 
L 259.629862 27.428695 
L 260.336132 36.321341 
L 261.395536 53.931926 
L 264.573751 112.518659 
L 265.280021 121.411305 
L 265.986291 127.351314 
L 266.339426 129.08947 
L 266.692561 129.965455 
L 267.045696 129.965455 
L 267.398831 129.08947 
L 267.751966 127.351314 
L 268.458236 121.411305 
L 269.164505 112.518659 
L 270.22391 94.908074 
L 273.402125 36.321341 
L 274.108395 27.428695 
L 274.814665 21.488686 
L 275.1678 19.75053 
L 275.520935 18.874545 
L 275.87407 18.874545 
L 276.227204 19.75053 
L 276.580339 21.488686 
L 277.286609 27.428695 
L 277.992879 36.321341 
L 279.052284 53.931926 
L 282.230499 112.518659 
L 282.936769 121.411305 
L 283.643038 127.351314 
L 283.996173 129.08947 
L 284.349308 129.965455 
L 284.702443 129.965455 
L 285.055578 129.08947 
L 285.408713 127.351314 
L 286.114983 121.411305 
L 286.821253 112.518659 
L 287.880658 94.908074 
L 291.058873 36.321341 
L 291.765142 27.428695 
L 292.471412 21.488686 
L 292.824547 19.75053 
L 293.177682 18.874545 
L 293.530817 18.874545 
L 293.883952 19.75053 
L 294.237087 21.488686 
L 294.943357 27.428695 
L 295.649627 36.321341 
L 296.709032 53.931926 
L 299.887246 112.518659 
L 300.593516 121.411305 
L 301.299786 127.351314 
L 301.652921 129.08947 
L 302.006056 129.965455 
L 302.359191 129.965455 
L 302.712326 129.08947 
L 303.065461 127.351314 
L 303.771731 121.411305 
L 304.478001 112.518659 
L 305.537406 94.908074 
L 308.71562 36.321341 
L 309.42189 27.428695 
L 310.12816 21.488686 
L 310.481295 19.75053 
L 310.83443 18.874545 
L 311.187565 18.874545 
L 311.5407 19.75053 
L 311.893835 21.488686 
L 312.600105 27.428695 
L 313.306375 36.321341 
L 314.365779 53.931926 
L 317.543994 112.518659 
L 318.250264 121.411305 
L 318.956534 127.351314 
L 319.309669 129.08947 
L 319.662804 129.965455 
L 320.015939 129.965455 
L 320.369074 129.08947 
L 320.722209 127.351314 
L 321.428478 121.411305 
L 322.134748 112.518659 
L 323.194153 94.908074 
L 326.372368 36.321341 
L 327.078638 27.428695 
L 327.784908 21.488686 
L 328.138043 19.75053 
L 328.491178 18.874545 
L 328.844312 18.874545 
L 329.197447 19.75053 
L 329.550582 21.488686 
L 330.256852 27.428695 
L 330.963122 36.321341 
L 332.022527 53.931926 
L 335.200742 112.518659 
L 335.907012 121.411305 
L 336.613281 127.351314 
L 336.966416 129.08947 
L 337.319551 129.965455 
L 337.672686 129.965455 
L 338.025821 129.08947 
L 338.378956 127.351314 
L 339.085226 121.411305 
L 339.791496 112.518659 
L 340.850901 94.908074 
L 344.029115 36.321341 
L 344.735385 27.428695 
L 345.441655 21.488686 
L 345.79479 19.75053 
L 346.147925 18.874545 
L 346.50106 18.874545 
L 346.854195 19.75053 
L 347.20733 21.488686 
L 347.9136 27.428695 
L 348.61987 36.321341 
L 349.679275 53.931926 
L 352.857489 112.518659 
L 353.563759 121.411305 
L 354.270029 127.351314 
L 354.623164 129.08947 
L 354.976299 129.965455 
L 355.329434 129.965455 
L 355.682569 129.08947 
L 356.035704 127.351314 
L 356.741974 121.411305 
L 357.448244 112.518659 
L 358.507649 94.908074 
L 361.685863 36.321341 
L 362.392133 27.428695 
L 363.098403 21.488686 
L 363.451538 19.75053 
L 363.804673 18.874545 
L 364.157808 18.874545 
L 364.510943 19.75053 
L 364.864078 21.488686 
L 365.570348 27.428695 
L 366.276618 36.321341 
L 367.336022 53.931926 
L 370.514237 112.518659 
L 371.220507 121.411305 
L 371.926777 127.351314 
L 372.279912 129.08947 
L 372.633047 129.965455 
L 372.986182 129.965455 
L 373.339317 129.08947 
L 373.692452 127.351314 
L 374.398721 121.411305 
L 375.104991 112.518659 
L 376.164396 94.908074 
L 379.342611 36.321341 
L 380.048881 27.428695 
L 380.755151 21.488686 
L 381.108286 19.75053 
L 381.461421 18.874545 
L 381.814555 18.874545 
L 382.16769 19.75053 
L 382.520825 21.488686 
L 383.227095 27.428695 
L 383.933365 36.321341 
L 384.99277 53.931926 
L 388.170985 112.518659 
L 388.877255 121.411305 
L 389.583524 127.351314 
L 389.936659 129.08947 
L 390.289794 129.965455 
L 390.642929 129.965455 
L 390.996064 129.08947 
L 391.349199 127.351314 
L 392.055469 121.411305 
L 392.761739 112.518659 
L 393.821144 94.908074 
L 396.999358 36.321341 
L 397.705628 27.428695 
L 398.411898 21.488686 
L 398.765033 19.75053 
L 399.118168 18.874545 
L 399.471303 18.874545 
L 399.824438 19.75053 
L 400.177573 21.488686 
L 400.883843 27.428695 
L 401.590113 36.321341 
L 402.649518 53.931926 
L 405.827732 112.518659 
L 406.534002 121.411305 
L 407.240272 127.351314 
L 407.593407 129.08947 
L 407.946542 129.965455 
L 408.299677 129.965455 
L 408.652812 129.08947 
L 409.005947 127.351314 
L 409.712217 121.411305 
L 410.418487 112.518659 
L 411.477892 94.908074 
L 414.656106 36.321341 
L 415.362376 27.428695 
L 416.068646 21.488686 
L 416.421781 19.75053 
L 416.774916 18.874545 
L 417.128051 18.874545 
L 417.481186 19.75053 
L 417.834321 21.488686 
L 418.540591 27.428695 
L 419.24686 36.321341 
L 420.306265 53.931926 
L 423.48448 112.518659 
L 424.19075 121.411305 
L 424.89702 127.351314 
L 425.250155 129.08947 
L 425.60329 129.965455 
L 425.956425 129.965455 
L 426.30956 129.08947 
L 426.662695 127.351314 
L 427.368964 121.411305 
L 428.075234 112.518659 
L 429.134639 94.908074 
L 429.840909 81.395456 
L 429.840909 81.395456 
" style="fill:none;stroke:#1f77b4;stroke-linecap:square;stroke-width:1.5;"/>
   </g>
   <g id="patch_3">
    <path d="M 59.42 135.52 
L 59.42 13.32 
" style="fill:none;stroke:#000000;stroke-linecap:square;stroke-linejoin:miter;stroke-width:0.8;"/>
   </g>
   <g id="patch_4">
    <path d="M 447.48 135.52 
L 447.48 13.32 
" style="fill:none;stroke:#000000;stroke-linecap:square;stroke-linejoin:miter;stroke-width:0.8;"/>
   </g>
   <g id="patch_5">
    <path d="M 59.42 135.52 
L 447.48 135.52 
" style="fill:none;stroke:#000000;stroke-linecap:square;stroke-linejoin:miter;stroke-width:0.8;"/>
   </g>
   <g id="patch_6">
    <path d="M 59.42 13.32 
L 447.48 13.32 
" style="fill:none;stroke:#000000;stroke-linecap:square;stroke-linejoin:miter;stroke-width:0.8;"/>
   </g>
  </g>
  <g id="axes_2">
   <g id="patch_7">
    <path d="M 59.42 302.2 
L 447.48 302.2 
L 447.48 180 
L 59.42 180 
z
" style="fill:#ffffff;"/>
   </g>
   <g id="matplotlib.axis_3">
    <g id="xtick_7">
     <g id="line2d_24">
      <path clip-path="url(#p664b6c1184)" d="M 77.059091 302.2 
L 77.059091 180 
" style="fill:none;stroke:#b0b0b0;stroke-dasharray:0.8,1.32;stroke-dashoffset:0;stroke-width:0.8;"/>
     </g>
     <g id="line2d_25">
      <g>
       <use style="stroke:#000000;stroke-width:0.8;" x="77.059091" xlink:href="#m20a32e2ead" y="302.2"/>
      </g>
     </g>
     <g id="text_13">
      <!-- 0 -->
      <g transform="translate(73.877841 316.798437)scale(0.1 -0.1)">
       <use xlink:href="#DejaVuSans-30"/>
      </g>
     </g>
    </g>
    <g id="xtick_8">
     <g id="line2d_26">
      <path clip-path="url(#p664b6c1184)" d="M 147.686082 302.2 
L 147.686082 180 
" style="fill:none;stroke:#b0b0b0;stroke-dasharray:0.8,1.32;stroke-dashoffset:0;stroke-width:0.8;"/>
     </g>
     <g id="line2d_27">
      <g>
       <use style="stroke:#000000;stroke-width:0.8;" x="147.686082" xlink:href="#m20a32e2ead" y="302.2"/>
      </g>
     </g>
     <g id="text_14">
      <!-- 200 -->
      <g transform="translate(138.142332 316.798437)scale(0.1 -0.1)">
       <use xlink:href="#DejaVuSans-32"/>
       <use x="63.623047" xlink:href="#DejaVuSans-30"/>
       <use x="127.246094" xlink:href="#DejaVuSans-30"/>
      </g>
     </g>
    </g>
    <g id="xtick_9">
     <g id="line2d_28">
      <path clip-path="url(#p664b6c1184)" d="M 218.313072 302.2 
L 218.313072 180 
" style="fill:none;stroke:#b0b0b0;stroke-dasharray:0.8,1.32;stroke-dashoffset:0;stroke-width:0.8;"/>
     </g>
     <g id="line2d_29">
      <g>
       <use style="stroke:#000000;stroke-width:0.8;" x="218.313072" xlink:href="#m20a32e2ead" y="302.2"/>
      </g>
     </g>
     <g id="text_15">
      <!-- 400 -->
      <g transform="translate(208.769322 316.798437)scale(0.1 -0.1)">
       <use xlink:href="#DejaVuSans-34"/>
       <use x="63.623047" xlink:href="#DejaVuSans-30"/>
       <use x="127.246094" xlink:href="#DejaVuSans-30"/>
      </g>
     </g>
    </g>
    <g id="xtick_10">
     <g id="line2d_30">
      <path clip-path="url(#p664b6c1184)" d="M 288.940063 302.2 
L 288.940063 180 
" style="fill:none;stroke:#b0b0b0;stroke-dasharray:0.8,1.32;stroke-dashoffset:0;stroke-width:0.8;"/>
     </g>
     <g id="line2d_31">
      <g>
       <use style="stroke:#000000;stroke-width:0.8;" x="288.940063" xlink:href="#m20a32e2ead" y="302.2"/>
      </g>
     </g>
     <g id="text_16">
      <!-- 600 -->
      <g transform="translate(279.396313 316.798437)scale(0.1 -0.1)">
       <use xlink:href="#DejaVuSans-36"/>
       <use x="63.623047" xlink:href="#DejaVuSans-30"/>
       <use x="127.246094" xlink:href="#DejaVuSans-30"/>
      </g>
     </g>
    </g>
    <g id="xtick_11">
     <g id="line2d_32">
      <path clip-path="url(#p664b6c1184)" d="M 359.567053 302.2 
L 359.567053 180 
" style="fill:none;stroke:#b0b0b0;stroke-dasharray:0.8,1.32;stroke-dashoffset:0;stroke-width:0.8;"/>
     </g>
     <g id="line2d_33">
      <g>
       <use style="stroke:#000000;stroke-width:0.8;" x="359.567053" xlink:href="#m20a32e2ead" y="302.2"/>
      </g>
     </g>
     <g id="text_17">
      <!-- 800 -->
      <g transform="translate(350.023303 316.798437)scale(0.1 -0.1)">
       <use xlink:href="#DejaVuSans-38"/>
       <use x="63.623047" xlink:href="#DejaVuSans-30"/>
       <use x="127.246094" xlink:href="#DejaVuSans-30"/>
      </g>
     </g>
    </g>
    <g id="xtick_12">
     <g id="line2d_34">
      <path clip-path="url(#p664b6c1184)" d="M 430.194044 302.2 
L 430.194044 180 
" style="fill:none;stroke:#b0b0b0;stroke-dasharray:0.8,1.32;stroke-dashoffset:0;stroke-width:0.8;"/>
     </g>
     <g id="line2d_35">
      <g>
       <use style="stroke:#000000;stroke-width:0.8;" x="430.194044" xlink:href="#m20a32e2ead" y="302.2"/>
      </g>
     </g>
     <g id="text_18">
      <!-- 1000 -->
      <g transform="translate(417.469044 316.798437)scale(0.1 -0.1)">
       <use xlink:href="#DejaVuSans-31"/>
       <use x="63.623047" xlink:href="#DejaVuSans-30"/>
       <use x="127.246094" xlink:href="#DejaVuSans-30"/>
       <use x="190.869141" xlink:href="#DejaVuSans-30"/>
      </g>
     </g>
    </g>
    <g id="text_19">
     <!-- $f$ (kHz) -->
     <defs>
      <path d="M 47.796875 75.984375 
L 46.390625 68.5 
L 37.796875 68.5 
Q 32.90625 68.5 30.6875 66.578125 
Q 28.46875 64.65625 27.390625 59.515625 
L 26.421875 54.6875 
L 41.21875 54.6875 
L 39.890625 47.703125 
L 25.09375 47.703125 
L 15.828125 0 
L 6.78125 0 
L 16.109375 47.703125 
L 7.515625 47.703125 
L 8.796875 54.6875 
L 17.390625 54.6875 
L 18.109375 58.5 
Q 19.96875 68.171875 24.625 72.078125 
Q 29.296875 75.984375 39.3125 75.984375 
z
" id="DejaVuSans-Oblique-66"/>
      <path id="DejaVuSans-20"/>
      <path d="M 9.078125 75.984375 
L 18.109375 75.984375 
L 18.109375 31.109375 
L 44.921875 54.6875 
L 56.390625 54.6875 
L 27.390625 29.109375 
L 57.625 0 
L 45.90625 0 
L 18.109375 26.703125 
L 18.109375 0 
L 9.078125 0 
z
" id="DejaVuSans-6b"/>
      <path d="M 9.8125 72.90625 
L 19.671875 72.90625 
L 19.671875 43.015625 
L 55.515625 43.015625 
L 55.515625 72.90625 
L 65.375 72.90625 
L 65.375 0 
L 55.515625 0 
L 55.515625 34.71875 
L 19.671875 34.71875 
L 19.671875 0 
L 9.8125 0 
z
" id="DejaVuSans-48"/>
      <path d="M 5.515625 54.6875 
L 48.1875 54.6875 
L 48.1875 46.484375 
L 14.40625 7.171875 
L 48.1875 7.171875 
L 48.1875 0 
L 4.296875 0 
L 4.296875 8.203125 
L 38.09375 47.515625 
L 5.515625 47.515625 
z
" id="DejaVuSans-7a"/>
     </defs>
     <g transform="translate(236.9 330.476562)scale(0.1 -0.1)">
      <use transform="translate(0 0.015625)" xlink:href="#DejaVuSans-Oblique-66"/>
      <use transform="translate(35.205078 0.015625)" xlink:href="#DejaVuSans-20"/>
      <use transform="translate(66.992188 0.015625)" xlink:href="#DejaVuSans-28"/>
      <use transform="translate(106.005859 0.015625)" xlink:href="#DejaVuSans-6b"/>
      <use transform="translate(163.916016 0.015625)" xlink:href="#DejaVuSans-48"/>
      <use transform="translate(239.111328 0.015625)" xlink:href="#DejaVuSans-7a"/>
      <use transform="translate(291.601562 0.015625)" xlink:href="#DejaVuSans-29"/>
     </g>
    </g>
   </g>
   <g id="matplotlib.axis_4">
    <g id="ytick_6">
     <g id="line2d_36">
      <path clip-path="url(#p664b6c1184)" d="M 59.42 296.84687 
L 447.48 296.84687 
" style="fill:none;stroke:#b0b0b0;stroke-dasharray:0.8,1.32;stroke-dashoffset:0;stroke-width:0.8;"/>
     </g>
     <g id="line2d_37">
      <g>
       <use style="stroke:#000000;stroke-width:0.8;" x="59.42" xlink:href="#mf6a5974026" y="296.84687"/>
      </g>
     </g>
     <g id="text_20">
      <!-- −300 -->
      <defs>
       <path d="M 40.578125 39.3125 
Q 47.65625 37.796875 51.625 33 
Q 55.609375 28.21875 55.609375 21.1875 
Q 55.609375 10.40625 48.1875 4.484375 
Q 40.765625 -1.421875 27.09375 -1.421875 
Q 22.515625 -1.421875 17.65625 -0.515625 
Q 12.796875 0.390625 7.625 2.203125 
L 7.625 11.71875 
Q 11.71875 9.328125 16.59375 8.109375 
Q 21.484375 6.890625 26.8125 6.890625 
Q 36.078125 6.890625 40.9375 10.546875 
Q 45.796875 14.203125 45.796875 21.1875 
Q 45.796875 27.640625 41.28125 31.265625 
Q 36.765625 34.90625 28.71875 34.90625 
L 20.21875 34.90625 
L 20.21875 43.015625 
L 29.109375 43.015625 
Q 36.375 43.015625 40.234375 45.921875 
Q 44.09375 48.828125 44.09375 54.296875 
Q 44.09375 59.90625 40.109375 62.90625 
Q 36.140625 65.921875 28.71875 65.921875 
Q 24.65625 65.921875 20.015625 65.03125 
Q 15.375 64.15625 9.8125 62.3125 
L 9.8125 71.09375 
Q 15.4375 72.65625 20.34375 73.4375 
Q 25.25 74.21875 29.59375 74.21875 
Q 40.828125 74.21875 47.359375 69.109375 
Q 53.90625 64.015625 53.90625 55.328125 
Q 53.90625 49.265625 50.4375 45.09375 
Q 46.96875 40.921875 40.578125 39.3125 
z
" id="DejaVuSans-33"/>
      </defs>
      <g transform="translate(24.952813 300.646089)scale(0.1 -0.1)">
       <use xlink:href="#DejaVuSans-2212"/>
       <use x="83.789062" xlink:href="#DejaVuSans-33"/>
       <use x="147.412109" xlink:href="#DejaVuSans-30"/>
       <use x="211.035156" xlink:href="#DejaVuSans-30"/>
      </g>
     </g>
    </g>
    <g id="ytick_7">
     <g id="line2d_38">
      <path clip-path="url(#p664b6c1184)" d="M 59.42 265.406531 
L 447.48 265.406531 
" style="fill:none;stroke:#b0b0b0;stroke-dasharray:0.8,1.32;stroke-dashoffset:0;stroke-width:0.8;"/>
     </g>
     <g id="line2d_39">
      <g>
       <use style="stroke:#000000;stroke-width:0.8;" x="59.42" xlink:href="#mf6a5974026" y="265.406531"/>
      </g>
     </g>
     <g id="text_21">
      <!-- −200 -->
      <g transform="translate(24.952813 269.20575)scale(0.1 -0.1)">
       <use xlink:href="#DejaVuSans-2212"/>
       <use x="83.789062" xlink:href="#DejaVuSans-32"/>
       <use x="147.412109" xlink:href="#DejaVuSans-30"/>
       <use x="211.035156" xlink:href="#DejaVuSans-30"/>
      </g>
     </g>
    </g>
    <g id="ytick_8">
     <g id="line2d_40">
      <path clip-path="url(#p664b6c1184)" d="M 59.42 233.966191 
L 447.48 233.966191 
" style="fill:none;stroke:#b0b0b0;stroke-dasharray:0.8,1.32;stroke-dashoffset:0;stroke-width:0.8;"/>
     </g>
     <g id="line2d_41">
      <g>
       <use style="stroke:#000000;stroke-width:0.8;" x="59.42" xlink:href="#mf6a5974026" y="233.966191"/>
      </g>
     </g>
     <g id="text_22">
      <!-- −100 -->
      <g transform="translate(24.952813 237.76541)scale(0.1 -0.1)">
       <use xlink:href="#DejaVuSans-2212"/>
       <use x="83.789062" xlink:href="#DejaVuSans-31"/>
       <use x="147.412109" xlink:href="#DejaVuSans-30"/>
       <use x="211.035156" xlink:href="#DejaVuSans-30"/>
      </g>
     </g>
    </g>
    <g id="ytick_9">
     <g id="line2d_42">
      <path clip-path="url(#p664b6c1184)" d="M 59.42 202.525852 
L 447.48 202.525852 
" style="fill:none;stroke:#b0b0b0;stroke-dasharray:0.8,1.32;stroke-dashoffset:0;stroke-width:0.8;"/>
     </g>
     <g id="line2d_43">
      <g>
       <use style="stroke:#000000;stroke-width:0.8;" x="59.42" xlink:href="#mf6a5974026" y="202.525852"/>
      </g>
     </g>
     <g id="text_23">
      <!-- 0 -->
      <g transform="translate(46.0575 206.325071)scale(0.1 -0.1)">
       <use xlink:href="#DejaVuSans-30"/>
      </g>
     </g>
    </g>
    <g id="text_24">
     <!-- Magnitude (dB) -->
     <defs>
      <path d="M 9.8125 72.90625 
L 24.515625 72.90625 
L 43.109375 23.296875 
L 61.8125 72.90625 
L 76.515625 72.90625 
L 76.515625 0 
L 66.890625 0 
L 66.890625 64.015625 
L 48.09375 14.015625 
L 38.1875 14.015625 
L 19.390625 64.015625 
L 19.390625 0 
L 9.8125 0 
z
" id="DejaVuSans-4d"/>
      <path d="M 34.28125 27.484375 
Q 23.390625 27.484375 19.1875 25 
Q 14.984375 22.515625 14.984375 16.5 
Q 14.984375 11.71875 18.140625 8.90625 
Q 21.296875 6.109375 26.703125 6.109375 
Q 34.1875 6.109375 38.703125 11.40625 
Q 43.21875 16.703125 43.21875 25.484375 
L 43.21875 27.484375 
z
M 52.203125 31.203125 
L 52.203125 0 
L 43.21875 0 
L 43.21875 8.296875 
Q 40.140625 3.328125 35.546875 0.953125 
Q 30.953125 -1.421875 24.3125 -1.421875 
Q 15.921875 -1.421875 10.953125 3.296875 
Q 6 8.015625 6 15.921875 
Q 6 25.140625 12.171875 29.828125 
Q 18.359375 34.515625 30.609375 34.515625 
L 43.21875 34.515625 
L 43.21875 35.40625 
Q 43.21875 41.609375 39.140625 45 
Q 35.0625 48.390625 27.6875 48.390625 
Q 23 48.390625 18.546875 47.265625 
Q 14.109375 46.140625 10.015625 43.890625 
L 10.015625 52.203125 
Q 14.9375 54.109375 19.578125 55.046875 
Q 24.21875 56 28.609375 56 
Q 40.484375 56 46.34375 49.84375 
Q 52.203125 43.703125 52.203125 31.203125 
z
" id="DejaVuSans-61"/>
      <path d="M 45.40625 27.984375 
Q 45.40625 37.75 41.375 43.109375 
Q 37.359375 48.484375 30.078125 48.484375 
Q 22.859375 48.484375 18.828125 43.109375 
Q 14.796875 37.75 14.796875 27.984375 
Q 14.796875 18.265625 18.828125 12.890625 
Q 22.859375 7.515625 30.078125 7.515625 
Q 37.359375 7.515625 41.375 12.890625 
Q 45.40625 18.265625 45.40625 27.984375 
z
M 54.390625 6.78125 
Q 54.390625 -7.171875 48.1875 -13.984375 
Q 42 -20.796875 29.203125 -20.796875 
Q 24.46875 -20.796875 20.265625 -20.09375 
Q 16.0625 -19.390625 12.109375 -17.921875 
L 12.109375 -9.1875 
Q 16.0625 -11.328125 19.921875 -12.34375 
Q 23.78125 -13.375 27.78125 -13.375 
Q 36.625 -13.375 41.015625 -8.765625 
Q 45.40625 -4.15625 45.40625 5.171875 
L 45.40625 9.625 
Q 42.625 4.78125 38.28125 2.390625 
Q 33.9375 0 27.875 0 
Q 17.828125 0 11.671875 7.65625 
Q 5.515625 15.328125 5.515625 27.984375 
Q 5.515625 40.671875 11.671875 48.328125 
Q 17.828125 56 27.875 56 
Q 33.9375 56 38.28125 53.609375 
Q 42.625 51.21875 45.40625 46.390625 
L 45.40625 54.6875 
L 54.390625 54.6875 
z
" id="DejaVuSans-67"/>
      <path d="M 54.890625 33.015625 
L 54.890625 0 
L 45.90625 0 
L 45.90625 32.71875 
Q 45.90625 40.484375 42.875 44.328125 
Q 39.84375 48.1875 33.796875 48.1875 
Q 26.515625 48.1875 22.3125 43.546875 
Q 18.109375 38.921875 18.109375 30.90625 
L 18.109375 0 
L 9.078125 0 
L 9.078125 54.6875 
L 18.109375 54.6875 
L 18.109375 46.1875 
Q 21.34375 51.125 25.703125 53.5625 
Q 30.078125 56 35.796875 56 
Q 45.21875 56 50.046875 50.171875 
Q 54.890625 44.34375 54.890625 33.015625 
z
" id="DejaVuSans-6e"/>
      <path d="M 9.421875 54.6875 
L 18.40625 54.6875 
L 18.40625 0 
L 9.421875 0 
z
M 9.421875 75.984375 
L 18.40625 75.984375 
L 18.40625 64.59375 
L 9.421875 64.59375 
z
" id="DejaVuSans-69"/>
      <path d="M 8.5 21.578125 
L 8.5 54.6875 
L 17.484375 54.6875 
L 17.484375 21.921875 
Q 17.484375 14.15625 20.5 10.265625 
Q 23.53125 6.390625 29.59375 6.390625 
Q 36.859375 6.390625 41.078125 11.03125 
Q 45.3125 15.671875 45.3125 23.6875 
L 45.3125 54.6875 
L 54.296875 54.6875 
L 54.296875 0 
L 45.3125 0 
L 45.3125 8.40625 
Q 42.046875 3.421875 37.71875 1 
Q 33.40625 -1.421875 27.6875 -1.421875 
Q 18.265625 -1.421875 13.375 4.4375 
Q 8.5 10.296875 8.5 21.578125 
z
M 31.109375 56 
z
" id="DejaVuSans-75"/>
      <path d="M 45.40625 46.390625 
L 45.40625 75.984375 
L 54.390625 75.984375 
L 54.390625 0 
L 45.40625 0 
L 45.40625 8.203125 
Q 42.578125 3.328125 38.25 0.953125 
Q 33.9375 -1.421875 27.875 -1.421875 
Q 17.96875 -1.421875 11.734375 6.484375 
Q 5.515625 14.40625 5.515625 27.296875 
Q 5.515625 40.1875 11.734375 48.09375 
Q 17.96875 56 27.875 56 
Q 33.9375 56 38.25 53.625 
Q 42.578125 51.265625 45.40625 46.390625 
z
M 14.796875 27.296875 
Q 14.796875 17.390625 18.875 11.75 
Q 22.953125 6.109375 30.078125 6.109375 
Q 37.203125 6.109375 41.296875 11.75 
Q 45.40625 17.390625 45.40625 27.296875 
Q 45.40625 37.203125 41.296875 42.84375 
Q 37.203125 48.484375 30.078125 48.484375 
Q 22.953125 48.484375 18.875 42.84375 
Q 14.796875 37.203125 14.796875 27.296875 
z
" id="DejaVuSans-64"/>
      <path d="M 56.203125 29.59375 
L 56.203125 25.203125 
L 14.890625 25.203125 
Q 15.484375 15.921875 20.484375 11.0625 
Q 25.484375 6.203125 34.421875 6.203125 
Q 39.59375 6.203125 44.453125 7.46875 
Q 49.3125 8.734375 54.109375 11.28125 
L 54.109375 2.78125 
Q 49.265625 0.734375 44.1875 -0.34375 
Q 39.109375 -1.421875 33.890625 -1.421875 
Q 20.796875 -1.421875 13.15625 6.1875 
Q 5.515625 13.8125 5.515625 26.8125 
Q 5.515625 40.234375 12.765625 48.109375 
Q 20.015625 56 32.328125 56 
Q 43.359375 56 49.78125 48.890625 
Q 56.203125 41.796875 56.203125 29.59375 
z
M 47.21875 32.234375 
Q 47.125 39.59375 43.09375 43.984375 
Q 39.0625 48.390625 32.421875 48.390625 
Q 24.90625 48.390625 20.390625 44.140625 
Q 15.875 39.890625 15.1875 32.171875 
z
" id="DejaVuSans-65"/>
      <path d="M 19.671875 34.8125 
L 19.671875 8.109375 
L 35.5 8.109375 
Q 43.453125 8.109375 47.28125 11.40625 
Q 51.125 14.703125 51.125 21.484375 
Q 51.125 28.328125 47.28125 31.5625 
Q 43.453125 34.8125 35.5 34.8125 
z
M 19.671875 64.796875 
L 19.671875 42.828125 
L 34.28125 42.828125 
Q 41.5 42.828125 45.03125 45.53125 
Q 48.578125 48.25 48.578125 53.8125 
Q 48.578125 59.328125 45.03125 62.0625 
Q 41.5 64.796875 34.28125 64.796875 
z
M 9.8125 72.90625 
L 35.015625 72.90625 
Q 46.296875 72.90625 52.390625 68.21875 
Q 58.5 63.53125 58.5 54.890625 
Q 58.5 48.1875 55.375 44.234375 
Q 52.25 40.28125 46.1875 39.3125 
Q 53.46875 37.75 57.5 32.78125 
Q 61.53125 27.828125 61.53125 20.40625 
Q 61.53125 10.640625 54.890625 5.3125 
Q 48.25 0 35.984375 0 
L 9.8125 0 
z
" id="DejaVuSans-42"/>
     </defs>
     <g transform="translate(18.873125 279.685156)rotate(-90)scale(0.1 -0.1)">
      <use xlink:href="#DejaVuSans-4d"/>
      <use x="86.279297" xlink:href="#DejaVuSans-61"/>
      <use x="147.558594" xlink:href="#DejaVuSans-67"/>
      <use x="211.035156" xlink:href="#DejaVuSans-6e"/>
      <use x="274.414062" xlink:href="#DejaVuSans-69"/>
      <use x="302.197266" xlink:href="#DejaVuSans-74"/>
      <use x="341.40625" xlink:href="#DejaVuSans-75"/>
      <use x="404.785156" xlink:href="#DejaVuSans-64"/>
      <use x="468.261719" xlink:href="#DejaVuSans-65"/>
      <use x="529.785156" xlink:href="#DejaVuSans-20"/>
      <use x="561.572266" xlink:href="#DejaVuSans-28"/>
      <use x="600.585938" xlink:href="#DejaVuSans-64"/>
      <use x="664.0625" xlink:href="#DejaVuSans-42"/>
      <use x="732.666016" xlink:href="#DejaVuSans-29"/>
     </g>
    </g>
   </g>
   <g id="line2d_44">
    <path clip-path="url(#p664b6c1184)" d="M 77.059091 290.687084 
L 77.412226 289.616553 
L 77.765361 289.502557 
L 78.118496 290.854672 
L 78.471631 283.966568 
L 78.824766 286.859501 
L 79.177901 287.019103 
L 79.531036 287.828907 
L 79.884171 289.116962 
L 80.237305 286.658047 
L 80.59044 287.29376 
L 80.943575 286.373397 
L 81.29671 284.263455 
L 81.649845 286.339902 
L 82.00298 285.310385 
L 82.356115 284.885642 
L 82.70925 283.64196 
L 83.062385 282.930342 
L 83.41552 281.913041 
L 83.768655 280.008786 
L 84.12179 185.554545 
L 84.474925 279.803549 
L 84.82806 281.490493 
L 85.181195 283.853663 
L 85.53433 283.268592 
L 85.887465 284.224122 
L 86.2406 284.784356 
L 86.593735 285.080048 
L 86.94687 284.035246 
L 87.300005 285.591762 
L 87.65314 285.730326 
L 88.006274 284.977094 
L 88.359409 286.527482 
L 88.712544 286.171183 
L 89.065679 287.365917 
L 89.418814 285.507208 
L 89.771949 285.752026 
L 90.478219 288.797043 
L 90.831354 287.558684 
L 91.184489 285.354769 
L 91.537624 287.0129 
L 91.890759 286.495093 
L 92.243894 287.884964 
L 92.597029 291.204174 
L 92.950164 289.151708 
L 93.303299 288.602188 
L 93.656434 287.278801 
L 94.009569 287.072424 
L 94.362704 286.532371 
L 94.715839 287.392912 
L 95.068974 290.472809 
L 95.422108 286.925956 
L 95.775243 287.734701 
L 96.128378 287.858967 
L 96.834648 288.673605 
L 97.187783 291.946351 
L 97.540918 288.239955 
L 97.894053 287.338108 
L 98.247188 283.047142 
L 98.600323 288.375406 
L 98.953458 286.363526 
L 99.306593 286.375778 
L 99.659728 286.889466 
L 100.012863 287.671634 
L 100.365998 287.276861 
L 100.719133 286.202817 
L 101.072268 285.944222 
L 101.425403 288.56652 
L 101.778538 289.093022 
L 102.131673 285.626213 
L 102.484808 287.275062 
L 102.837942 286.976986 
L 103.191077 287.99663 
L 103.544212 285.951842 
L 103.897347 285.074542 
L 104.603617 286.417988 
L 104.956752 283.663432 
L 105.309887 282.9848 
L 105.663022 281.68973 
L 106.369292 282.265431 
L 106.722427 284.109127 
L 107.075562 286.548045 
L 107.428697 287.806498 
L 107.781832 287.444688 
L 108.134967 286.586729 
L 108.488102 289.485671 
L 108.841237 288.881484 
L 109.194372 287.137817 
L 109.547507 287.518895 
L 109.900642 291.629263 
L 110.253777 288.712339 
L 110.606911 287.334666 
L 110.960046 289.038955 
L 111.313181 291.966062 
L 111.666316 286.739834 
L 112.019451 286.837299 
L 112.372586 284.445122 
L 113.078856 293.096112 
L 113.431991 289.915293 
L 113.785126 289.251901 
L 114.138261 287.834286 
L 114.491396 287.997221 
L 114.844531 285.807933 
L 115.197666 287.703565 
L 115.550801 287.986102 
L 115.903936 287.721812 
L 116.257071 286.105702 
L 116.610206 287.570964 
L 116.963341 287.470024 
L 117.316476 287.009248 
L 117.669611 285.920188 
L 118.022745 285.792855 
L 118.37588 286.380303 
L 118.729015 288.090392 
L 119.08215 283.78675 
L 119.78842 281.746991 
L 120.141555 282.058712 
L 120.49469 282.171336 
L 120.847825 283.234527 
L 121.554095 288.441277 
L 121.90723 286.469816 
L 122.260365 286.941054 
L 122.6135 288.351807 
L 123.31977 287.042148 
L 124.02604 293.2737 
L 124.379175 293.325471 
L 124.73231 289.333037 
L 125.085445 287.707764 
L 125.438579 290.509719 
L 126.144849 287.188042 
L 126.851119 286.645021 
L 127.204254 289.105604 
L 127.557389 288.207078 
L 127.910524 292.078998 
L 128.263659 292.470875 
L 128.969929 288.505229 
L 129.323064 286.805158 
L 129.676199 288.362826 
L 130.029334 289.392527 
L 130.382469 289.154248 
L 130.735604 289.243893 
L 131.088739 288.531616 
L 131.441874 290.452242 
L 132.148144 288.150422 
L 132.501279 289.178273 
L 132.854414 288.433677 
L 133.560683 291.312252 
L 133.913818 289.983782 
L 134.266953 290.152633 
L 134.973223 285.863604 
L 135.326358 285.012845 
L 135.679493 285.865653 
L 136.032628 285.320485 
L 136.738898 289.412123 
L 137.092033 287.079975 
L 137.445168 288.822179 
L 137.798303 287.421747 
L 138.151438 289.293455 
L 138.504573 288.189009 
L 138.857708 288.538008 
L 139.210843 287.796304 
L 139.563978 288.066242 
L 139.917113 286.912451 
L 140.270248 286.828446 
L 140.623382 282.094375 
L 140.976517 284.154266 
L 141.329652 284.873809 
L 141.682787 282.861907 
L 142.035922 283.732242 
L 142.742192 287.039243 
L 143.095327 286.699841 
L 143.448462 287.232044 
L 143.801597 290.571775 
L 144.154732 290.425645 
L 144.507867 290.442538 
L 144.861002 288.509227 
L 145.214137 291.283548 
L 145.567272 287.637423 
L 145.920407 288.180581 
L 146.273542 287.72181 
L 146.626677 288.892601 
L 146.979812 288.501283 
L 147.332947 287.081075 
L 147.686082 296.645455 
L 148.039216 288.846181 
L 148.392351 290.326271 
L 148.745486 289.683324 
L 149.098621 290.753414 
L 149.451756 287.996157 
L 150.158026 285.946202 
L 150.864296 288.17077 
L 151.217431 288.434922 
L 152.276836 288.74228 
L 152.629971 289.343273 
L 152.983106 288.063513 
L 153.336241 290.756609 
L 153.689376 286.529904 
L 154.042511 287.329296 
L 154.395646 289.116025 
L 154.748781 285.994106 
L 155.101916 285.231873 
L 155.455051 284.906341 
L 155.808185 282.879649 
L 156.16132 283.726411 
L 156.514455 287.930993 
L 156.86759 283.278577 
L 157.57386 287.877008 
L 157.926995 286.619611 
L 158.28013 289.945453 
L 158.633265 288.829128 
L 158.9864 288.6707 
L 159.339535 290.261091 
L 159.69267 288.156543 
L 160.045805 289.156813 
L 160.39894 287.803297 
L 160.752075 289.592366 
L 161.458345 287.235377 
L 161.81148 295.22989 
L 162.164615 287.208053 
L 162.51775 288.004642 
L 162.870885 287.46219 
L 163.224019 292.62119 
L 163.577154 289.498576 
L 163.930289 289.662711 
L 164.283424 292.679479 
L 164.636559 291.977202 
L 164.989694 292.78885 
L 165.342829 287.953241 
L 165.695964 288.305198 
L 166.049099 288.314274 
L 166.402234 289.339463 
L 166.755369 291.817218 
L 167.108504 287.836432 
L 167.461639 293.731167 
L 167.814774 288.387743 
L 168.167909 288.071762 
L 168.521044 291.095536 
L 168.874179 286.26409 
L 169.227314 291.707141 
L 169.933584 288.566377 
L 170.286719 290.418485 
L 170.639853 285.517192 
L 170.992988 283.924119 
L 171.699258 286.910691 
L 172.052393 287.005155 
L 172.405528 286.506827 
L 172.758663 286.594795 
L 173.464933 290.692596 
L 173.818068 286.599094 
L 174.171203 288.003849 
L 174.524338 287.108755 
L 174.877473 288.265431 
L 175.230608 287.807494 
L 175.583743 286.953326 
L 175.936878 287.171945 
L 176.290013 287.898194 
L 176.643148 285.630616 
L 176.996283 286.748593 
L 177.349418 284.326196 
L 177.702553 285.421325 
L 178.055688 284.981962 
L 178.408822 288.022399 
L 178.761957 288.031754 
L 179.115092 293.67782 
L 179.821362 290.29128 
L 180.174497 289.839553 
L 180.527632 288.959236 
L 180.880767 289.523562 
L 181.233902 290.535698 
L 181.587037 290.777029 
L 181.940172 290.068093 
L 182.293307 290.565858 
L 182.646442 290.217396 
L 182.999577 286.174667 
L 184.058982 290.044178 
L 184.412117 290.089458 
L 184.765252 292.23952 
L 185.118387 289.44312 
L 185.471522 292.545322 
L 185.824656 286.513708 
L 186.177791 287.944093 
L 186.530926 286.633356 
L 186.884061 292.201849 
L 187.237196 287.677467 
L 187.590331 290.234057 
L 187.943466 287.977759 
L 188.296601 288.952324 
L 188.649736 288.876274 
L 189.002871 288.987086 
L 189.356006 287.822625 
L 189.709141 287.456344 
L 190.415411 289.39961 
L 190.768546 286.783415 
L 191.121681 286.733752 
L 191.474816 285.137734 
L 191.827951 284.873849 
L 192.181086 284.416794 
L 192.534221 282.782278 
L 192.887356 282.837125 
L 193.593625 287.496996 
L 193.94676 287.3453 
L 194.299895 288.624533 
L 194.65303 286.837467 
L 195.006165 289.659183 
L 195.3593 287.167075 
L 195.712435 290.111851 
L 196.06557 294.239108 
L 196.418705 291.578499 
L 196.77184 287.387079 
L 197.124975 287.443109 
L 197.47811 290.584149 
L 197.831245 289.055997 
L 198.18438 286.694454 
L 198.537515 287.082468 
L 198.89065 289.585109 
L 199.243785 290.769091 
L 199.59692 291.326189 
L 199.950055 290.767246 
L 200.30319 288.85563 
L 200.656325 291.442174 
L 201.009459 287.11945 
L 201.362594 287.909467 
L 201.715729 290.150284 
L 202.068864 289.697673 
L 202.421999 287.877903 
L 202.775134 291.266494 
L 203.128269 289.643937 
L 203.481404 292.486484 
L 203.834539 288.588208 
L 204.187674 290.134074 
L 204.540809 289.281754 
L 204.893944 290.228229 
L 205.247079 290.63129 
L 205.600214 288.306429 
L 205.953349 289.183417 
L 206.306484 287.295237 
L 206.659619 283.15744 
L 207.012754 282.533804 
L 207.365889 284.692645 
L 207.719024 285.036645 
L 208.072159 285.744442 
L 208.425293 286.880882 
L 208.778428 287.275795 
L 209.131563 291.075625 
L 209.484698 287.214368 
L 210.190968 292.463829 
L 210.544103 290.538465 
L 210.897238 287.374397 
L 211.250373 282.415349 
L 211.956643 290.102606 
L 212.309778 285.790488 
L 212.662913 286.911795 
L 213.016048 291.422783 
L 213.369183 284.002705 
L 213.722318 286.47483 
L 214.075453 287.404262 
L 214.428588 291.843485 
L 214.781723 291.225842 
L 215.134858 286.685703 
L 215.841127 288.256303 
L 216.194262 291.47633 
L 216.547397 287.501913 
L 216.900532 290.458942 
L 217.606802 287.609489 
L 217.959937 292.107484 
L 218.313072 287.588375 
L 218.666207 288.535497 
L 219.019342 286.814567 
L 219.372477 289.93837 
L 219.725612 287.815458 
L 220.431882 288.853768 
L 220.785017 287.033663 
L 221.138152 289.745884 
L 221.491287 288.348031 
L 221.844422 285.098197 
L 222.197557 286.6094 
L 222.550692 288.806786 
L 222.903827 287.55597 
L 223.256962 288.227199 
L 223.610096 288.621308 
L 223.963231 288.025153 
L 224.316366 292.45001 
L 224.669501 287.362998 
L 225.022636 288.419814 
L 225.375771 286.23834 
L 225.728906 288.493749 
L 226.082041 285.436885 
L 226.435176 287.732066 
L 226.788311 285.391424 
L 227.141446 292.927638 
L 227.494581 282.835103 
L 227.847716 287.488747 
L 228.200851 281.581063 
L 228.553986 279.645547 
L 228.907121 280.265949 
L 229.260256 285.292893 
L 229.613391 284.467808 
L 229.966526 286.032233 
L 230.319661 285.186922 
L 230.672796 286.27587 
L 231.02593 287.809347 
L 231.379065 286.036169 
L 231.7322 287.272782 
L 232.085335 287.6887 
L 232.791605 286.943144 
L 233.14474 288.233671 
L 233.497875 288.659403 
L 233.85101 286.102885 
L 234.55728 289.74361 
L 234.910415 288.097619 
L 235.26355 290.166852 
L 235.616685 288.866514 
L 235.96982 288.42671 
L 236.322955 289.053944 
L 236.67609 288.347546 
L 237.029225 286.685662 
L 237.38236 287.462741 
L 237.735495 287.235797 
L 238.08863 286.426618 
L 238.441764 292.853426 
L 238.794899 287.243295 
L 239.148034 290.21706 
L 239.501169 284.211383 
L 239.854304 291.595215 
L 240.207439 286.537758 
L 240.560574 291.060623 
L 240.913709 285.715465 
L 241.266844 291.57003 
L 241.619979 283.90362 
L 241.973114 287.031292 
L 242.326249 281.369527 
L 242.679384 279.61564 
L 243.032519 280.443188 
L 243.385654 284.325753 
L 243.738789 283.952813 
L 244.091924 284.665344 
L 244.445059 284.511595 
L 244.798194 286.66845 
L 245.151329 286.798702 
L 245.504464 286.147176 
L 246.210733 287.391006 
L 246.563868 286.827206 
L 246.917003 287.21576 
L 247.270138 287.260293 
L 247.623273 286.547171 
L 247.976408 287.830171 
L 248.329543 286.37951 
L 248.682678 289.950919 
L 249.035813 285.312809 
L 249.388948 287.633045 
L 249.742083 286.302842 
L 250.095218 290.836605 
L 250.448353 289.593771 
L 250.801488 291.02264 
L 251.154623 289.921137 
L 251.507758 289.68231 
L 251.860893 288.110667 
L 252.214028 288.753455 
L 252.567163 291.403937 
L 253.273433 289.53715 
L 253.626567 286.548602 
L 253.979702 289.53715 
L 254.332837 290.301224 
L 254.685972 291.403937 
L 255.039107 288.753455 
L 255.392242 288.110667 
L 255.745377 289.68231 
L 256.098512 289.921137 
L 256.451647 292.905262 
L 256.804782 289.593771 
L 257.157917 290.836605 
L 257.511052 286.302842 
L 257.864187 287.633045 
L 258.217322 285.312809 
L 258.570457 289.950919 
L 258.923592 286.37951 
L 259.276727 287.353838 
L 259.629862 286.547171 
L 259.982997 287.260293 
L 260.336132 287.21576 
L 260.689267 286.827206 
L 261.042401 287.391006 
L 261.748671 286.147176 
L 262.101806 287.807477 
L 262.454941 286.66845 
L 262.808076 284.511595 
L 263.161211 284.665344 
L 263.514346 283.952813 
L 263.867481 284.325753 
L 264.220616 280.443188 
L 264.573751 279.61564 
L 264.926886 281.288679 
L 265.280021 287.031292 
L 265.633156 283.90362 
L 265.986291 291.57003 
L 266.339426 285.715465 
L 266.692561 291.060623 
L 267.045696 286.537758 
L 267.398831 291.595215 
L 267.751966 287.195959 
L 268.105101 290.21706 
L 268.458236 287.243295 
L 268.81137 292.853426 
L 269.164505 286.426618 
L 269.51764 287.235797 
L 269.870775 287.462741 
L 270.22391 286.685662 
L 270.577045 287.356363 
L 270.93018 289.053944 
L 271.283315 288.42671 
L 271.63645 288.866514 
L 271.989585 290.166852 
L 272.34272 288.097619 
L 272.695855 289.74361 
L 273.04899 287.823446 
L 273.402125 286.601726 
L 273.75526 288.659403 
L 274.108395 288.233671 
L 274.46153 286.943144 
L 275.1678 287.6887 
L 275.520935 287.272782 
L 275.87407 286.036169 
L 276.227204 286.28949 
L 276.580339 286.27587 
L 276.933474 285.186922 
L 277.286609 286.032233 
L 277.639744 284.467808 
L 277.992879 285.292893 
L 278.346014 280.265949 
L 278.699149 279.645547 
L 279.052284 281.71138 
L 279.405419 287.488747 
L 279.758554 282.835103 
L 280.111689 292.927638 
L 280.464824 285.391424 
L 280.817959 287.732066 
L 281.171094 285.436885 
L 281.524229 288.493749 
L 281.877364 281.862863 
L 282.230499 288.419814 
L 282.583634 287.362998 
L 282.936769 292.45001 
L 283.289904 288.025153 
L 283.643038 288.621308 
L 283.996173 288.227199 
L 284.349308 287.55597 
L 284.702443 287.293215 
L 285.055578 286.6094 
L 285.408713 285.098197 
L 285.761848 288.348031 
L 286.114983 289.745884 
L 286.468118 287.033663 
L 286.821253 288.853768 
L 287.174388 288.249123 
L 287.527523 287.361127 
L 287.880658 289.93837 
L 288.233793 286.814567 
L 288.586928 288.535497 
L 288.940063 287.588375 
L 289.293198 292.107484 
L 289.646333 287.609489 
L 289.999468 288.91929 
L 290.352603 292.029389 
L 290.705738 287.501913 
L 291.058873 291.47633 
L 291.412007 288.256303 
L 292.118277 286.685703 
L 292.471412 291.225842 
L 292.824547 291.843485 
L 293.177682 287.393822 
L 293.530817 286.47483 
L 293.883952 284.002705 
L 294.237087 291.422783 
L 294.590222 286.911795 
L 294.943357 285.790488 
L 295.296492 290.102606 
L 295.649627 286.811925 
L 296.002762 286.945088 
L 296.355897 287.374397 
L 296.709032 290.538465 
L 297.062167 292.463829 
L 297.768437 287.214368 
L 298.121572 291.075625 
L 298.474707 287.275795 
L 298.827841 286.765641 
L 299.534111 285.036645 
L 299.887246 284.692645 
L 300.240381 282.533804 
L 300.593516 283.15744 
L 300.946651 287.295237 
L 301.299786 289.183417 
L 301.652921 287.940975 
L 302.006056 290.63129 
L 302.359191 290.228229 
L 302.712326 289.281754 
L 303.065461 290.134074 
L 303.418596 288.588208 
L 303.771731 292.486484 
L 304.124866 289.643937 
L 304.478001 288.13095 
L 304.831136 287.877903 
L 305.184271 289.697673 
L 305.537406 290.150284 
L 305.890541 287.909467 
L 306.243675 287.11945 
L 306.59681 291.442174 
L 306.949945 288.85563 
L 307.30308 291.798242 
L 308.00935 290.769091 
L 308.362485 289.585109 
L 308.71562 287.082468 
L 309.068755 286.694454 
L 309.42189 289.055997 
L 309.775025 290.584149 
L 310.12816 284.821967 
L 310.481295 287.387079 
L 310.83443 291.578499 
L 311.187565 294.239108 
L 311.893835 287.167075 
L 312.24697 289.659183 
L 312.600105 286.837467 
L 312.95324 289.931221 
L 313.306375 287.3453 
L 313.65951 287.496996 
L 314.365779 282.837125 
L 314.718914 282.782278 
L 315.072049 284.416794 
L 315.425184 284.873849 
L 315.778319 284.789616 
L 316.131454 286.733752 
L 316.484589 286.783415 
L 316.837724 289.39961 
L 317.190859 288.616473 
L 317.543994 287.456344 
L 317.897129 287.822625 
L 318.603399 290.142984 
L 319.309669 287.977759 
L 319.662804 290.234057 
L 320.015939 287.677467 
L 320.369074 292.201849 
L 320.722209 286.633356 
L 321.075344 287.944093 
L 321.428478 286.306221 
L 321.781613 292.545322 
L 322.134748 289.44312 
L 322.487883 292.23952 
L 322.841018 290.089458 
L 323.194153 290.044178 
L 324.253558 285.716967 
L 324.606693 290.217396 
L 324.959828 290.565858 
L 325.312963 290.068093 
L 325.666098 290.777029 
L 326.019233 290.535698 
L 326.372368 289.523562 
L 326.725503 288.959236 
L 327.078638 287.847754 
L 327.431773 290.29128 
L 328.138043 293.67782 
L 328.491178 288.031754 
L 328.844312 288.022399 
L 329.197447 284.981962 
L 329.550582 285.421325 
L 329.903717 284.495015 
L 330.256852 286.748593 
L 330.609987 285.630616 
L 330.963122 287.898194 
L 331.316257 287.171945 
L 331.669392 286.953326 
L 332.022527 287.807494 
L 332.375662 288.265431 
L 332.728797 287.472062 
L 333.081932 288.003849 
L 333.435067 286.599094 
L 333.788202 290.692596 
L 334.494472 286.594795 
L 334.847607 286.506827 
L 335.200742 287.005155 
L 335.553877 286.447459 
L 335.907012 285.3696 
L 336.260147 283.924119 
L 336.613281 285.517192 
L 336.966416 290.418485 
L 337.319551 288.566377 
L 338.025821 291.707141 
L 338.378956 288.544478 
L 338.732091 291.095536 
L 339.085226 288.071762 
L 339.438361 288.387743 
L 339.791496 293.731167 
L 340.144631 287.836432 
L 340.497766 291.817218 
L 340.850901 289.339463 
L 341.204036 289.30134 
L 341.557171 288.305198 
L 341.910306 287.953241 
L 342.263441 292.78885 
L 342.616576 291.977202 
L 342.969711 292.679479 
L 343.322846 289.662711 
L 343.675981 289.498576 
L 344.029115 288.6381 
L 344.38225 287.46219 
L 344.735385 288.004642 
L 345.08852 287.208053 
L 345.441655 295.22989 
L 345.79479 287.235377 
L 346.50106 289.592366 
L 346.854195 289.458326 
L 347.20733 289.156813 
L 347.560465 288.156543 
L 347.9136 290.261091 
L 348.266735 288.6707 
L 348.61987 288.829128 
L 348.973005 289.945453 
L 349.32614 286.619611 
L 349.679275 287.830743 
L 350.385545 283.278577 
L 350.73868 287.930993 
L 351.091815 283.726411 
L 351.444949 282.879649 
L 351.798084 284.906341 
L 352.151219 285.231873 
L 352.504354 282.975663 
L 352.857489 289.116025 
L 353.210624 287.329296 
L 353.563759 286.529904 
L 353.916894 290.756609 
L 354.270029 288.063513 
L 354.623164 289.343273 
L 354.976299 288.74228 
L 355.329434 287.320334 
L 355.682569 288.521 
L 356.035704 288.434922 
L 356.388839 288.17077 
L 357.095109 285.946202 
L 358.154514 288.881363 
L 358.860784 290.326271 
L 359.213918 288.846181 
L 359.567053 296.645455 
L 359.920188 287.081075 
L 360.273323 288.501283 
L 360.626458 288.892601 
L 360.979593 286.72991 
L 361.332728 288.180581 
L 361.685863 287.637423 
L 362.038998 291.283548 
L 362.392133 288.509227 
L 362.745268 290.442538 
L 363.098403 290.425645 
L 363.451538 290.571775 
L 363.804673 287.495073 
L 364.157808 286.699841 
L 364.510943 287.039243 
L 365.217213 283.732242 
L 365.570348 282.861907 
L 365.923483 284.873809 
L 366.276618 284.154266 
L 366.629752 287.994775 
L 366.982887 286.828446 
L 367.336022 286.912451 
L 367.689157 288.066242 
L 368.042292 287.796304 
L 368.395427 288.538008 
L 368.748562 288.189009 
L 369.101697 289.293455 
L 369.454832 287.729004 
L 369.807967 288.822179 
L 370.161102 287.079975 
L 370.514237 289.412123 
L 371.220507 285.320485 
L 371.573642 285.865653 
L 371.926777 285.012845 
L 372.279912 285.916993 
L 372.633047 287.648916 
L 372.986182 290.152633 
L 373.339317 289.983782 
L 373.692452 291.312252 
L 374.398721 288.433677 
L 374.751856 289.178273 
L 375.104991 288.443314 
L 375.811261 290.452242 
L 376.164396 288.531616 
L 376.517531 289.243893 
L 376.870666 289.154248 
L 377.223801 289.392527 
L 377.576936 288.362826 
L 377.930071 287.687716 
L 378.283206 288.505229 
L 378.636341 290.164677 
L 378.989476 292.470875 
L 379.342611 292.078998 
L 379.695746 288.207078 
L 380.048881 289.105604 
L 380.402016 286.645021 
L 380.755151 285.639608 
L 381.814555 290.509719 
L 382.16769 287.707764 
L 382.520825 289.333037 
L 382.87396 293.325471 
L 383.227095 293.2737 
L 383.58023 289.02704 
L 383.933365 287.042148 
L 384.639635 288.351807 
L 384.99277 286.941054 
L 385.345905 286.469816 
L 385.69904 288.441277 
L 386.40531 282.939266 
L 386.758445 282.171336 
L 387.11158 282.058712 
L 387.464715 281.746991 
L 388.170985 283.78675 
L 388.52412 288.090392 
L 389.230389 285.152255 
L 389.583524 285.920188 
L 389.936659 287.009248 
L 390.289794 287.470024 
L 390.642929 287.570964 
L 390.996064 286.105702 
L 391.349199 287.721812 
L 392.055469 288.220019 
L 392.408604 285.807933 
L 392.761739 287.997221 
L 393.114874 287.834286 
L 393.468009 289.251901 
L 393.821144 289.915293 
L 394.174279 293.096112 
L 394.880549 284.905025 
L 395.233684 286.837299 
L 395.586819 286.739834 
L 395.939954 291.966062 
L 396.293089 289.038955 
L 396.646223 287.334666 
L 396.999358 288.712339 
L 397.352493 291.629263 
L 397.705628 290.515512 
L 398.058763 287.137817 
L 398.411898 288.881484 
L 398.765033 289.485671 
L 399.118168 286.586729 
L 399.471303 287.444688 
L 399.824438 287.806498 
L 400.177573 286.548045 
L 400.530708 283.947879 
L 400.883843 282.265431 
L 401.590113 281.68973 
L 401.943248 282.9848 
L 402.296383 283.663432 
L 402.649518 286.417988 
L 403.002653 285.75543 
L 403.708923 285.951842 
L 404.062058 287.99663 
L 404.415192 286.976986 
L 404.768327 287.275062 
L 405.121462 285.626213 
L 405.474597 289.093022 
L 405.827732 288.56652 
L 406.180867 286.513637 
L 406.534002 286.202817 
L 406.887137 287.276861 
L 407.240272 287.671634 
L 407.946542 286.375778 
L 408.299677 286.363526 
L 408.652812 288.375406 
L 409.005947 284.454177 
L 409.359082 287.338108 
L 409.712217 288.239955 
L 410.065352 291.946351 
L 410.418487 288.673605 
L 411.124757 287.858967 
L 411.477892 287.734701 
L 411.831026 285.909436 
L 412.184161 290.472809 
L 412.537296 287.392912 
L 412.890431 286.532371 
L 413.243566 287.072424 
L 413.596701 287.278801 
L 413.949836 288.602188 
L 414.302971 289.151708 
L 414.656106 285.315499 
L 415.009241 287.884964 
L 415.362376 286.495093 
L 415.715511 287.0129 
L 416.068646 285.354769 
L 416.421781 287.558684 
L 416.774916 288.797043 
L 417.128051 287.093362 
L 417.481186 284.400108 
L 417.834321 285.507208 
L 418.187456 287.365917 
L 418.540591 286.171183 
L 418.893726 286.527482 
L 419.24686 284.977094 
L 419.599995 285.730326 
L 419.95313 285.591762 
L 420.306265 284.143456 
L 420.6594 285.080048 
L 421.012535 284.784356 
L 421.36567 284.224122 
L 421.718805 283.268592 
L 422.07194 283.853663 
L 422.77821 279.803549 
L 423.131345 185.554545 
L 423.48448 280.008786 
L 423.837615 281.913041 
L 424.89702 284.885642 
L 425.250155 285.310385 
L 425.60329 286.339902 
L 425.956425 283.6382 
L 426.30956 286.373397 
L 426.662695 287.29376 
L 427.015829 286.658047 
L 427.368964 289.116962 
L 427.722099 287.828907 
L 428.075234 287.019103 
L 428.428369 286.859501 
L 428.781504 283.143 
L 429.134639 290.854672 
L 429.487774 289.502557 
L 429.840909 289.616553 
L 429.840909 289.616553 
" style="fill:none;stroke:#1f77b4;stroke-linecap:square;stroke-width:1.5;"/>
   </g>
   <g id="patch_8">
    <path d="M 59.42 302.2 
L 59.42 180 
" style="fill:none;stroke:#000000;stroke-linecap:square;stroke-linejoin:miter;stroke-width:0.8;"/>
   </g>
   <g id="patch_9">
    <path d="M 447.48 302.2 
L 447.48 180 
" style="fill:none;stroke:#000000;stroke-linecap:square;stroke-linejoin:miter;stroke-width:0.8;"/>
   </g>
   <g id="patch_10">
    <path d="M 59.42 302.2 
L 447.48 302.2 
" style="fill:none;stroke:#000000;stroke-linecap:square;stroke-linejoin:miter;stroke-width:0.8;"/>
   </g>
   <g id="patch_11">
    <path d="M 59.42 180 
L 447.48 180 
" style="fill:none;stroke:#000000;stroke-linecap:square;stroke-linejoin:miter;stroke-width:0.8;"/>
   </g>
  </g>
 </g>
 <defs>
  <clipPath id="p629be17a6e">
   <rect height="122.2" width="388.06" x="59.42" y="13.32"/>
  </clipPath>
  <clipPath id="p664b6c1184">
   <rect height="122.2" width="388.06" x="59.42" y="180"/>
  </clipPath>
 </defs>
</svg>
