<?xml version="1.0" encoding="utf-8" standalone="no"?>
<!DOCTYPE svg PUBLIC "-//W3C//DTD SVG 1.1//EN"
  "http://www.w3.org/Graphics/SVG/1.1/DTD/svg11.dtd">
<!-- Created with matplotlib (https://matplotlib.org/) -->
<svg height="345.6pt" version="1.1" viewBox="0 0 460.8 345.6" width="460.8pt" xmlns="http://www.w3.org/2000/svg" xmlns:xlink="http://www.w3.org/1999/xlink">
 <defs>
  <style type="text/css">
*{stroke-linecap:butt;stroke-linejoin:round;}
  </style>
 </defs>
 <g id="figure_1">
  <g id="patch_1">
   <path d="M 0 345.6 
L 460.8 345.6 
L 460.8 0 
L 0 0 
z
" style="fill:#ffffff;"/>
  </g>
  <g id="axes_1">
   <g id="patch_2">
    <path d="M 57.6 307.584 
L 414.72 307.584 
L 414.72 41.472 
L 57.6 41.472 
z
" style="fill:#ffffff;"/>
   </g>
   <g id="matplotlib.axis_1">
    <g id="xtick_1">
     <g id="line2d_1">
      <path clip-path="url(#p344e1eea97)" d="M 73.832727 307.584 
L 73.832727 41.472 
" style="fill:none;stroke:#b0b0b0;stroke-linecap:square;stroke-width:0.8;"/>
     </g>
     <g id="line2d_2">
      <defs>
       <path d="M 0 0 
L 0 3.5 
" id="m3dc3fdb460" style="stroke:#000000;stroke-width:0.8;"/>
      </defs>
      <g>
       <use style="stroke:#000000;stroke-width:0.8;" x="73.832727" xlink:href="#m3dc3fdb460" y="307.584"/>
      </g>
     </g>
     <g id="text_1">
      <!-- 0 -->
      <defs>
       <path d="M 31.78125 66.40625 
Q 24.171875 66.40625 20.328125 58.90625 
Q 16.5 51.421875 16.5 36.375 
Q 16.5 21.390625 20.328125 13.890625 
Q 24.171875 6.390625 31.78125 6.390625 
Q 39.453125 6.390625 43.28125 13.890625 
Q 47.125 21.390625 47.125 36.375 
Q 47.125 51.421875 43.28125 58.90625 
Q 39.453125 66.40625 31.78125 66.40625 
z
M 31.78125 74.21875 
Q 44.046875 74.21875 50.515625 64.515625 
Q 56.984375 54.828125 56.984375 36.375 
Q 56.984375 17.96875 50.515625 8.265625 
Q 44.046875 -1.421875 31.78125 -1.421875 
Q 19.53125 -1.421875 13.0625 8.265625 
Q 6.59375 17.96875 6.59375 36.375 
Q 6.59375 54.828125 13.0625 64.515625 
Q 19.53125 74.21875 31.78125 74.21875 
z
" id="DejaVuSans-48"/>
      </defs>
      <g transform="translate(70.651477 322.182437)scale(0.1 -0.1)">
       <use xlink:href="#DejaVuSans-48"/>
      </g>
     </g>
    </g>
    <g id="xtick_2">
     <g id="line2d_3">
      <path clip-path="url(#p344e1eea97)" d="M 147.450538 307.584 
L 147.450538 41.472 
" style="fill:none;stroke:#b0b0b0;stroke-linecap:square;stroke-width:0.8;"/>
     </g>
     <g id="line2d_4">
      <g>
       <use style="stroke:#000000;stroke-width:0.8;" x="147.450538" xlink:href="#m3dc3fdb460" y="307.584"/>
      </g>
     </g>
     <g id="text_2">
      <!-- 100 -->
      <defs>
       <path d="M 12.40625 8.296875 
L 28.515625 8.296875 
L 28.515625 63.921875 
L 10.984375 60.40625 
L 10.984375 69.390625 
L 28.421875 72.90625 
L 38.28125 72.90625 
L 38.28125 8.296875 
L 54.390625 8.296875 
L 54.390625 0 
L 12.40625 0 
z
" id="DejaVuSans-49"/>
      </defs>
      <g transform="translate(137.906788 322.182437)scale(0.1 -0.1)">
       <use xlink:href="#DejaVuSans-49"/>
       <use x="63.623047" xlink:href="#DejaVuSans-48"/>
       <use x="127.246094" xlink:href="#DejaVuSans-48"/>
      </g>
     </g>
    </g>
    <g id="xtick_3">
     <g id="line2d_5">
      <path clip-path="url(#p344e1eea97)" d="M 221.068349 307.584 
L 221.068349 41.472 
" style="fill:none;stroke:#b0b0b0;stroke-linecap:square;stroke-width:0.8;"/>
     </g>
     <g id="line2d_6">
      <g>
       <use style="stroke:#000000;stroke-width:0.8;" x="221.068349" xlink:href="#m3dc3fdb460" y="307.584"/>
      </g>
     </g>
     <g id="text_3">
      <!-- 200 -->
      <defs>
       <path d="M 19.1875 8.296875 
L 53.609375 8.296875 
L 53.609375 0 
L 7.328125 0 
L 7.328125 8.296875 
Q 12.9375 14.109375 22.625 23.890625 
Q 32.328125 33.6875 34.8125 36.53125 
Q 39.546875 41.84375 41.421875 45.53125 
Q 43.3125 49.21875 43.3125 52.78125 
Q 43.3125 58.59375 39.234375 62.25 
Q 35.15625 65.921875 28.609375 65.921875 
Q 23.96875 65.921875 18.8125 64.3125 
Q 13.671875 62.703125 7.8125 59.421875 
L 7.8125 69.390625 
Q 13.765625 71.78125 18.9375 73 
Q 24.125 74.21875 28.421875 74.21875 
Q 39.75 74.21875 46.484375 68.546875 
Q 53.21875 62.890625 53.21875 53.421875 
Q 53.21875 48.921875 51.53125 44.890625 
Q 49.859375 40.875 45.40625 35.40625 
Q 44.1875 33.984375 37.640625 27.21875 
Q 31.109375 20.453125 19.1875 8.296875 
z
" id="DejaVuSans-50"/>
      </defs>
      <g transform="translate(211.524599 322.182437)scale(0.1 -0.1)">
       <use xlink:href="#DejaVuSans-50"/>
       <use x="63.623047" xlink:href="#DejaVuSans-48"/>
       <use x="127.246094" xlink:href="#DejaVuSans-48"/>
      </g>
     </g>
    </g>
    <g id="xtick_4">
     <g id="line2d_7">
      <path clip-path="url(#p344e1eea97)" d="M 294.68616 307.584 
L 294.68616 41.472 
" style="fill:none;stroke:#b0b0b0;stroke-linecap:square;stroke-width:0.8;"/>
     </g>
     <g id="line2d_8">
      <g>
       <use style="stroke:#000000;stroke-width:0.8;" x="294.68616" xlink:href="#m3dc3fdb460" y="307.584"/>
      </g>
     </g>
     <g id="text_4">
      <!-- 300 -->
      <defs>
       <path d="M 40.578125 39.3125 
Q 47.65625 37.796875 51.625 33 
Q 55.609375 28.21875 55.609375 21.1875 
Q 55.609375 10.40625 48.1875 4.484375 
Q 40.765625 -1.421875 27.09375 -1.421875 
Q 22.515625 -1.421875 17.65625 -0.515625 
Q 12.796875 0.390625 7.625 2.203125 
L 7.625 11.71875 
Q 11.71875 9.328125 16.59375 8.109375 
Q 21.484375 6.890625 26.8125 6.890625 
Q 36.078125 6.890625 40.9375 10.546875 
Q 45.796875 14.203125 45.796875 21.1875 
Q 45.796875 27.640625 41.28125 31.265625 
Q 36.765625 34.90625 28.71875 34.90625 
L 20.21875 34.90625 
L 20.21875 43.015625 
L 29.109375 43.015625 
Q 36.375 43.015625 40.234375 45.921875 
Q 44.09375 48.828125 44.09375 54.296875 
Q 44.09375 59.90625 40.109375 62.90625 
Q 36.140625 65.921875 28.71875 65.921875 
Q 24.65625 65.921875 20.015625 65.03125 
Q 15.375 64.15625 9.8125 62.3125 
L 9.8125 71.09375 
Q 15.4375 72.65625 20.34375 73.4375 
Q 25.25 74.21875 29.59375 74.21875 
Q 40.828125 74.21875 47.359375 69.109375 
Q 53.90625 64.015625 53.90625 55.328125 
Q 53.90625 49.265625 50.4375 45.09375 
Q 46.96875 40.921875 40.578125 39.3125 
z
" id="DejaVuSans-51"/>
      </defs>
      <g transform="translate(285.14241 322.182437)scale(0.1 -0.1)">
       <use xlink:href="#DejaVuSans-51"/>
       <use x="63.623047" xlink:href="#DejaVuSans-48"/>
       <use x="127.246094" xlink:href="#DejaVuSans-48"/>
      </g>
     </g>
    </g>
    <g id="xtick_5">
     <g id="line2d_9">
      <path clip-path="url(#p344e1eea97)" d="M 368.30397 307.584 
L 368.30397 41.472 
" style="fill:none;stroke:#b0b0b0;stroke-linecap:square;stroke-width:0.8;"/>
     </g>
     <g id="line2d_10">
      <g>
       <use style="stroke:#000000;stroke-width:0.8;" x="368.30397" xlink:href="#m3dc3fdb460" y="307.584"/>
      </g>
     </g>
     <g id="text_5">
      <!-- 400 -->
      <defs>
       <path d="M 37.796875 64.3125 
L 12.890625 25.390625 
L 37.796875 25.390625 
z
M 35.203125 72.90625 
L 47.609375 72.90625 
L 47.609375 25.390625 
L 58.015625 25.390625 
L 58.015625 17.1875 
L 47.609375 17.1875 
L 47.609375 0 
L 37.796875 0 
L 37.796875 17.1875 
L 4.890625 17.1875 
L 4.890625 26.703125 
z
" id="DejaVuSans-52"/>
      </defs>
      <g transform="translate(358.76022 322.182437)scale(0.1 -0.1)">
       <use xlink:href="#DejaVuSans-52"/>
       <use x="63.623047" xlink:href="#DejaVuSans-48"/>
       <use x="127.246094" xlink:href="#DejaVuSans-48"/>
      </g>
     </g>
    </g>
   </g>
   <g id="matplotlib.axis_2">
    <g id="ytick_1">
     <g id="line2d_11">
      <path clip-path="url(#p344e1eea97)" d="M 57.6 304.285091 
L 414.72 304.285091 
" style="fill:none;stroke:#b0b0b0;stroke-linecap:square;stroke-width:0.8;"/>
     </g>
     <g id="line2d_12">
      <defs>
       <path d="M 0 0 
L -3.5 0 
" id="mc8246e8b3c" style="stroke:#000000;stroke-width:0.8;"/>
      </defs>
      <g>
       <use style="stroke:#000000;stroke-width:0.8;" x="57.6" xlink:href="#mc8246e8b3c" y="304.285091"/>
      </g>
     </g>
     <g id="text_6">
      <!-- 0 -->
      <g transform="translate(44.2375 308.08431)scale(0.1 -0.1)">
       <use xlink:href="#DejaVuSans-48"/>
      </g>
     </g>
    </g>
    <g id="ytick_2">
     <g id="line2d_13">
      <path clip-path="url(#p344e1eea97)" d="M 57.6 260.299636 
L 414.72 260.299636 
" style="fill:none;stroke:#b0b0b0;stroke-linecap:square;stroke-width:0.8;"/>
     </g>
     <g id="line2d_14">
      <g>
       <use style="stroke:#000000;stroke-width:0.8;" x="57.6" xlink:href="#mc8246e8b3c" y="260.299636"/>
      </g>
     </g>
     <g id="text_7">
      <!-- 10 -->
      <g transform="translate(37.875 264.098855)scale(0.1 -0.1)">
       <use xlink:href="#DejaVuSans-49"/>
       <use x="63.623047" xlink:href="#DejaVuSans-48"/>
      </g>
     </g>
    </g>
    <g id="ytick_3">
     <g id="line2d_15">
      <path clip-path="url(#p344e1eea97)" d="M 57.6 216.314182 
L 414.72 216.314182 
" style="fill:none;stroke:#b0b0b0;stroke-linecap:square;stroke-width:0.8;"/>
     </g>
     <g id="line2d_16">
      <g>
       <use style="stroke:#000000;stroke-width:0.8;" x="57.6" xlink:href="#mc8246e8b3c" y="216.314182"/>
      </g>
     </g>
     <g id="text_8">
      <!-- 20 -->
      <g transform="translate(37.875 220.113401)scale(0.1 -0.1)">
       <use xlink:href="#DejaVuSans-50"/>
       <use x="63.623047" xlink:href="#DejaVuSans-48"/>
      </g>
     </g>
    </g>
    <g id="ytick_4">
     <g id="line2d_17">
      <path clip-path="url(#p344e1eea97)" d="M 57.6 172.328727 
L 414.72 172.328727 
" style="fill:none;stroke:#b0b0b0;stroke-linecap:square;stroke-width:0.8;"/>
     </g>
     <g id="line2d_18">
      <g>
       <use style="stroke:#000000;stroke-width:0.8;" x="57.6" xlink:href="#mc8246e8b3c" y="172.328727"/>
      </g>
     </g>
     <g id="text_9">
      <!-- 30 -->
      <g transform="translate(37.875 176.127946)scale(0.1 -0.1)">
       <use xlink:href="#DejaVuSans-51"/>
       <use x="63.623047" xlink:href="#DejaVuSans-48"/>
      </g>
     </g>
    </g>
    <g id="ytick_5">
     <g id="line2d_19">
      <path clip-path="url(#p344e1eea97)" d="M 57.6 128.343273 
L 414.72 128.343273 
" style="fill:none;stroke:#b0b0b0;stroke-linecap:square;stroke-width:0.8;"/>
     </g>
     <g id="line2d_20">
      <g>
       <use style="stroke:#000000;stroke-width:0.8;" x="57.6" xlink:href="#mc8246e8b3c" y="128.343273"/>
      </g>
     </g>
     <g id="text_10">
      <!-- 40 -->
      <g transform="translate(37.875 132.142491)scale(0.1 -0.1)">
       <use xlink:href="#DejaVuSans-52"/>
       <use x="63.623047" xlink:href="#DejaVuSans-48"/>
      </g>
     </g>
    </g>
    <g id="ytick_6">
     <g id="line2d_21">
      <path clip-path="url(#p344e1eea97)" d="M 57.6 84.357818 
L 414.72 84.357818 
" style="fill:none;stroke:#b0b0b0;stroke-linecap:square;stroke-width:0.8;"/>
     </g>
     <g id="line2d_22">
      <g>
       <use style="stroke:#000000;stroke-width:0.8;" x="57.6" xlink:href="#mc8246e8b3c" y="84.357818"/>
      </g>
     </g>
     <g id="text_11">
      <!-- 50 -->
      <defs>
       <path d="M 10.796875 72.90625 
L 49.515625 72.90625 
L 49.515625 64.59375 
L 19.828125 64.59375 
L 19.828125 46.734375 
Q 21.96875 47.46875 24.109375 47.828125 
Q 26.265625 48.1875 28.421875 48.1875 
Q 40.625 48.1875 47.75 41.5 
Q 54.890625 34.8125 54.890625 23.390625 
Q 54.890625 11.625 47.5625 5.09375 
Q 40.234375 -1.421875 26.90625 -1.421875 
Q 22.3125 -1.421875 17.546875 -0.640625 
Q 12.796875 0.140625 7.71875 1.703125 
L 7.71875 11.625 
Q 12.109375 9.234375 16.796875 8.0625 
Q 21.484375 6.890625 26.703125 6.890625 
Q 35.15625 6.890625 40.078125 11.328125 
Q 45.015625 15.765625 45.015625 23.390625 
Q 45.015625 31 40.078125 35.4375 
Q 35.15625 39.890625 26.703125 39.890625 
Q 22.75 39.890625 18.8125 39.015625 
Q 14.890625 38.140625 10.796875 36.28125 
z
" id="DejaVuSans-53"/>
      </defs>
      <g transform="translate(37.875 88.157037)scale(0.1 -0.1)">
       <use xlink:href="#DejaVuSans-53"/>
       <use x="63.623047" xlink:href="#DejaVuSans-48"/>
      </g>
     </g>
    </g>
   </g>
   <g id="line2d_23">
    <path clip-path="url(#p344e1eea97)" d="M 73.832727 247.104 
L 74.568905 53.568 
L 75.305083 242.705455 
L 76.77744 242.705455 
L 77.513618 247.104 
L 78.249796 242.705455 
L 79.722152 242.705455 
L 80.45833 247.104 
L 81.194508 242.705455 
L 81.930686 242.705455 
L 82.666865 247.104 
L 83.403043 247.104 
L 84.139221 242.705455 
L 85.611577 251.502545 
L 86.347755 242.705455 
L 87.083933 247.104 
L 87.820111 238.306909 
L 88.556289 247.104 
L 89.292468 242.705455 
L 92.23718 242.705455 
L 92.973358 247.104 
L 96.654249 247.104 
L 97.390427 251.502545 
L 99.598961 238.306909 
L 100.335139 238.306909 
L 101.071317 247.104 
L 101.807495 251.502545 
L 102.543673 260.299636 
L 103.279852 255.901091 
L 104.01603 247.104 
L 104.752208 247.104 
L 105.488386 238.306909 
L 107.69692 238.306909 
L 108.433098 242.705455 
L 109.169276 238.306909 
L 109.905455 238.306909 
L 110.641633 242.705455 
L 111.377811 242.705455 
L 112.113989 251.502545 
L 112.850167 255.901091 
L 114.322523 273.495273 
L 115.794879 273.495273 
L 116.531058 264.698182 
L 117.267236 247.104 
L 118.003414 242.705455 
L 118.739592 247.104 
L 119.47577 242.705455 
L 120.211948 242.705455 
L 120.948126 238.306909 
L 121.684304 242.705455 
L 122.420482 242.705455 
L 123.15666 247.104 
L 123.892839 247.104 
L 124.629017 251.502545 
L 125.365195 238.306909 
L 126.837551 247.104 
L 127.573729 247.104 
L 129.046085 255.901091 
L 129.782263 273.495273 
L 131.25462 282.292364 
L 131.990798 291.089455 
L 132.726976 286.690909 
L 133.463154 273.495273 
L 134.199332 251.502545 
L 135.671688 216.314182 
L 136.407866 216.314182 
L 137.144045 229.509818 
L 137.880223 238.306909 
L 138.616401 238.306909 
L 139.352579 242.705455 
L 140.824935 242.705455 
L 141.561113 247.104 
L 143.769647 247.104 
L 144.505826 242.705455 
L 145.242004 242.705455 
L 145.978182 247.104 
L 146.71436 247.104 
L 147.450538 255.901091 
L 148.186716 255.901091 
L 148.922894 264.698182 
L 149.659072 269.096727 
L 150.39525 277.893818 
L 151.131429 273.495273 
L 152.603785 238.306909 
L 153.339963 233.908364 
L 154.076141 238.306909 
L 154.812319 238.306909 
L 155.548497 247.104 
L 156.284675 247.104 
L 157.020853 242.705455 
L 157.757032 242.705455 
L 158.49321 238.306909 
L 159.965566 238.306909 
L 160.701744 233.908364 
L 163.646456 233.908364 
L 164.382635 238.306909 
L 165.118813 260.299636 
L 165.854991 291.089455 
L 166.591169 291.089455 
L 167.327347 295.488 
L 168.063525 295.488 
L 168.799703 282.292364 
L 169.535881 251.502545 
L 170.272059 229.509818 
L 171.008237 220.712727 
L 171.744416 216.314182 
L 172.480594 229.509818 
L 173.95295 247.104 
L 174.689128 242.705455 
L 175.425306 247.104 
L 176.161484 247.104 
L 176.897662 238.306909 
L 177.63384 242.705455 
L 178.370019 242.705455 
L 179.842375 233.908364 
L 180.578553 238.306909 
L 181.314731 233.908364 
L 182.050909 233.908364 
L 182.787087 238.306909 
L 183.523265 251.502545 
L 184.259443 260.299636 
L 184.995622 264.698182 
L 185.7318 273.495273 
L 187.204156 273.495273 
L 187.940334 260.299636 
L 188.676512 260.299636 
L 189.41269 247.104 
L 190.148868 238.306909 
L 190.885046 238.306909 
L 191.621224 233.908364 
L 192.357403 233.908364 
L 193.829759 242.705455 
L 194.565937 233.908364 
L 195.302115 233.908364 
L 196.038293 238.306909 
L 196.774471 233.908364 
L 197.510649 233.908364 
L 198.246827 238.306909 
L 198.983006 238.306909 
L 199.719184 229.509818 
L 201.19154 273.495273 
L 201.927718 282.292364 
L 202.663896 282.292364 
L 203.400074 286.690909 
L 204.87243 269.096727 
L 205.608609 242.705455 
L 206.344787 238.306909 
L 207.080965 216.314182 
L 207.817143 229.509818 
L 208.553321 238.306909 
L 209.289499 238.306909 
L 210.025677 247.104 
L 210.761855 247.104 
L 211.498033 242.705455 
L 212.234212 242.705455 
L 212.97039 247.104 
L 213.706568 238.306909 
L 214.442746 242.705455 
L 215.915102 233.908364 
L 216.65128 242.705455 
L 217.387458 238.306909 
L 218.123636 238.306909 
L 219.595993 264.698182 
L 220.332171 269.096727 
L 221.068349 269.096727 
L 222.540705 277.893818 
L 223.276883 264.698182 
L 224.013061 260.299636 
L 224.749239 238.306909 
L 225.485417 233.908364 
L 226.221596 238.306909 
L 226.957774 238.306909 
L 228.43013 247.104 
L 229.902486 238.306909 
L 232.11102 238.306909 
L 232.847199 233.908364 
L 233.583377 242.705455 
L 234.319555 242.705455 
L 235.791911 260.299636 
L 236.528089 273.495273 
L 237.264267 277.893818 
L 238.736623 277.893818 
L 240.20898 269.096727 
L 240.945158 242.705455 
L 241.681336 225.111273 
L 242.417514 225.111273 
L 243.88987 233.908364 
L 244.626048 242.705455 
L 245.362226 242.705455 
L 246.834583 251.502545 
L 247.570761 251.502545 
L 249.043117 242.705455 
L 249.779295 242.705455 
L 250.515473 233.908364 
L 251.987829 225.111273 
L 253.460186 242.705455 
L 254.196364 247.104 
L 254.932542 247.104 
L 255.66872 260.299636 
L 257.141076 260.299636 
L 257.877254 264.698182 
L 258.613432 277.893818 
L 259.34961 277.893818 
L 260.821967 242.705455 
L 261.558145 255.901091 
L 262.294323 251.502545 
L 263.030501 242.705455 
L 263.766679 238.306909 
L 264.502857 238.306909 
L 265.239035 233.908364 
L 265.975213 242.705455 
L 267.44757 242.705455 
L 268.183748 238.306909 
L 268.919926 242.705455 
L 269.656104 238.306909 
L 270.392282 242.705455 
L 271.12846 238.306909 
L 273.336994 238.306909 
L 274.809351 247.104 
L 275.545529 242.705455 
L 276.281707 251.502545 
L 277.017885 247.104 
L 278.490241 247.104 
L 279.226419 242.705455 
L 279.962597 242.705455 
L 280.698776 251.502545 
L 282.90731 264.698182 
L 284.379666 264.698182 
L 285.115844 269.096727 
L 285.852022 264.698182 
L 286.5882 255.901091 
L 287.324378 251.502545 
L 288.796735 225.111273 
L 289.532913 229.509818 
L 291.005269 229.509818 
L 291.741447 238.306909 
L 292.477625 233.908364 
L 293.213803 242.705455 
L 293.949981 247.104 
L 294.68616 260.299636 
L 295.422338 269.096727 
L 296.894694 269.096727 
L 297.630872 264.698182 
L 298.36705 247.104 
L 299.839406 229.509818 
L 301.311763 220.712727 
L 302.047941 220.712727 
L 302.784119 251.502545 
L 303.520297 273.495273 
L 304.256475 273.495273 
L 304.992653 260.299636 
L 305.728831 255.901091 
L 306.465009 247.104 
L 307.201187 247.104 
L 307.937365 242.705455 
L 308.673544 247.104 
L 309.409722 242.705455 
L 310.1459 247.104 
L 312.354434 247.104 
L 313.090612 242.705455 
L 313.82679 242.705455 
L 314.562968 251.502545 
L 315.299147 238.306909 
L 316.035325 233.908364 
L 316.771503 242.705455 
L 317.507681 242.705455 
L 318.243859 238.306909 
L 319.716215 247.104 
L 320.452393 247.104 
L 321.188571 251.502545 
L 323.397106 251.502545 
L 324.133284 247.104 
L 324.869462 247.104 
L 325.60564 238.306909 
L 326.341818 247.104 
L 327.814174 247.104 
L 328.550353 242.705455 
L 329.286531 242.705455 
L 330.022709 238.306909 
L 330.758887 238.306909 
L 331.495065 242.705455 
L 332.231243 242.705455 
L 332.967421 233.908364 
L 333.703599 242.705455 
L 334.439777 233.908364 
L 335.175955 233.908364 
L 335.912134 238.306909 
L 336.648312 233.908364 
L 337.38449 238.306909 
L 338.120668 255.901091 
L 338.856846 264.698182 
L 339.593024 255.901091 
L 340.329202 251.502545 
L 341.06538 260.299636 
L 342.537737 269.096727 
L 343.273915 251.502545 
L 344.746271 242.705455 
L 345.482449 251.502545 
L 346.954805 242.705455 
L 349.16334 242.705455 
L 349.899518 247.104 
L 350.635696 260.299636 
L 351.371874 251.502545 
L 352.108052 247.104 
L 352.84423 238.306909 
L 353.580408 247.104 
L 355.052764 238.306909 
L 355.788942 242.705455 
L 356.525121 242.705455 
L 357.261299 251.502545 
L 357.997477 242.705455 
L 358.733655 238.306909 
L 359.469833 229.509818 
L 360.206011 238.306909 
L 360.942189 233.908364 
L 362.414545 251.502545 
L 363.150724 247.104 
L 364.62308 247.104 
L 365.359258 242.705455 
L 366.095436 251.502545 
L 367.567792 242.705455 
L 368.30397 242.705455 
L 369.040148 247.104 
L 369.776327 247.104 
L 370.512505 242.705455 
L 371.248683 242.705455 
L 371.984861 247.104 
L 372.721039 242.705455 
L 373.457217 247.104 
L 374.193395 247.104 
L 375.665751 238.306909 
L 376.401929 242.705455 
L 377.138108 251.502545 
L 377.874286 242.705455 
L 378.610464 251.502545 
L 379.346642 247.104 
L 382.291354 247.104 
L 383.027532 242.705455 
L 383.763711 242.705455 
L 384.499889 247.104 
L 385.236067 242.705455 
L 387.444601 242.705455 
L 388.180779 247.104 
L 388.916957 242.705455 
L 389.653135 247.104 
L 390.389314 247.104 
L 391.125492 242.705455 
L 391.86167 242.705455 
L 392.597848 247.104 
L 394.806382 247.104 
L 395.54256 242.705455 
L 396.278738 251.502545 
L 397.014917 242.705455 
L 398.487273 242.705455 
L 398.487273 242.705455 
" style="fill:none;stroke:#1f77b4;stroke-linecap:square;stroke-width:1.5;"/>
   </g>
   <g id="line2d_24">
    <path clip-path="url(#p344e1eea97)" d="M 73.832727 132.741818 
L 74.568905 159.133091 
L 75.305083 123.944727 
L 76.041262 128.343273 
L 76.77744 123.944727 
L 77.513618 123.944727 
L 78.249796 128.343273 
L 78.985974 123.944727 
L 79.722152 132.741818 
L 80.45833 123.944727 
L 81.194508 128.343273 
L 82.666865 128.343273 
L 83.403043 123.944727 
L 84.875399 132.741818 
L 85.611577 132.741818 
L 86.347755 123.944727 
L 87.083933 128.343273 
L 87.820111 123.944727 
L 88.556289 128.343273 
L 90.028646 128.343273 
L 90.764824 123.944727 
L 91.501002 132.741818 
L 92.23718 123.944727 
L 93.709536 123.944727 
L 94.445714 128.343273 
L 95.181892 128.343273 
L 95.918071 132.741818 
L 96.654249 128.343273 
L 97.390427 128.343273 
L 98.862783 137.140364 
L 99.598961 145.937455 
L 100.335139 141.538909 
L 101.071317 145.937455 
L 101.807495 137.140364 
L 102.543673 137.140364 
L 103.279852 150.336 
L 104.01603 141.538909 
L 104.752208 154.734545 
L 105.488386 154.734545 
L 106.224564 145.937455 
L 106.960742 141.538909 
L 107.69692 145.937455 
L 108.433098 137.140364 
L 109.169276 137.140364 
L 110.641633 145.937455 
L 111.377811 137.140364 
L 112.113989 141.538909 
L 112.850167 132.741818 
L 113.586345 145.937455 
L 115.058701 128.343273 
L 116.531058 137.140364 
L 117.267236 145.937455 
L 118.003414 145.937455 
L 118.739592 150.336 
L 119.47577 145.937455 
L 120.211948 137.140364 
L 120.948126 137.140364 
L 121.684304 141.538909 
L 123.15666 141.538909 
L 123.892839 137.140364 
L 124.629017 137.140364 
L 125.365195 132.741818 
L 126.101373 137.140364 
L 126.837551 132.741818 
L 127.573729 137.140364 
L 128.309907 128.343273 
L 130.518442 128.343273 
L 131.25462 123.944727 
L 131.990798 115.147636 
L 132.726976 115.147636 
L 133.463154 123.944727 
L 134.199332 137.140364 
L 134.93551 154.734545 
L 135.671688 163.531636 
L 137.144045 172.328727 
L 139.352579 145.937455 
L 141.561113 145.937455 
L 142.297291 141.538909 
L 143.033469 145.937455 
L 143.769647 141.538909 
L 144.505826 145.937455 
L 145.242004 145.937455 
L 145.978182 141.538909 
L 146.71436 145.937455 
L 148.186716 145.937455 
L 148.922894 141.538909 
L 149.659072 128.343273 
L 150.39525 128.343273 
L 151.131429 132.741818 
L 151.867607 128.343273 
L 152.603785 145.937455 
L 153.339963 132.741818 
L 154.076141 145.937455 
L 154.812319 141.538909 
L 155.548497 141.538909 
L 157.020853 132.741818 
L 157.757032 141.538909 
L 158.49321 132.741818 
L 159.229388 132.741818 
L 159.965566 137.140364 
L 160.701744 137.140364 
L 161.437922 128.343273 
L 162.910278 128.343273 
L 163.646456 132.741818 
L 165.118813 123.944727 
L 165.854991 115.147636 
L 166.591169 119.546182 
L 167.327347 115.147636 
L 168.063525 123.944727 
L 168.799703 123.944727 
L 169.535881 145.937455 
L 170.272059 128.343273 
L 171.008237 154.734545 
L 172.480594 154.734545 
L 173.216772 150.336 
L 173.95295 141.538909 
L 175.425306 150.336 
L 176.161484 150.336 
L 176.897662 141.538909 
L 177.63384 137.140364 
L 178.370019 145.937455 
L 179.106197 141.538909 
L 179.842375 150.336 
L 180.578553 141.538909 
L 181.314731 141.538909 
L 182.050909 145.937455 
L 182.787087 141.538909 
L 183.523265 141.538909 
L 185.7318 128.343273 
L 186.467978 132.741818 
L 187.204156 123.944727 
L 187.940334 132.741818 
L 188.676512 123.944727 
L 189.41269 137.140364 
L 190.148868 141.538909 
L 190.885046 132.741818 
L 191.621224 137.140364 
L 193.093581 137.140364 
L 193.829759 132.741818 
L 195.302115 132.741818 
L 196.038293 137.140364 
L 197.510649 137.140364 
L 198.246827 141.538909 
L 198.983006 137.140364 
L 199.719184 137.140364 
L 200.455362 128.343273 
L 202.663896 115.147636 
L 203.400074 115.147636 
L 204.136252 119.546182 
L 204.87243 132.741818 
L 206.344787 141.538909 
L 207.080965 163.531636 
L 207.817143 154.734545 
L 208.553321 159.133091 
L 209.289499 159.133091 
L 210.025677 145.937455 
L 210.761855 137.140364 
L 211.498033 150.336 
L 212.234212 141.538909 
L 212.97039 145.937455 
L 214.442746 145.937455 
L 215.178924 141.538909 
L 215.915102 145.937455 
L 216.65128 145.937455 
L 217.387458 141.538909 
L 218.123636 141.538909 
L 218.859814 132.741818 
L 219.595993 137.140364 
L 220.332171 132.741818 
L 224.749239 132.741818 
L 225.485417 137.140364 
L 226.221596 132.741818 
L 227.693952 141.538909 
L 228.43013 128.343273 
L 229.902486 137.140364 
L 231.374842 128.343273 
L 232.11102 137.140364 
L 232.847199 132.741818 
L 233.583377 132.741818 
L 234.319555 137.140364 
L 235.055733 137.140364 
L 236.528089 128.343273 
L 237.264267 119.546182 
L 238.000445 123.944727 
L 238.736623 123.944727 
L 239.472801 128.343273 
L 240.20898 128.343273 
L 240.945158 141.538909 
L 243.153692 154.734545 
L 243.88987 150.336 
L 244.626048 154.734545 
L 245.362226 145.937455 
L 246.098404 141.538909 
L 246.834583 150.336 
L 247.570761 141.538909 
L 248.306939 145.937455 
L 250.515473 132.741818 
L 251.251651 145.937455 
L 251.987829 137.140364 
L 252.724007 141.538909 
L 253.460186 137.140364 
L 254.196364 137.140364 
L 254.932542 128.343273 
L 256.404898 128.343273 
L 257.141076 123.944727 
L 258.613432 123.944727 
L 259.34961 128.343273 
L 260.085788 128.343273 
L 260.821967 132.741818 
L 261.558145 141.538909 
L 263.030501 141.538909 
L 263.766679 145.937455 
L 264.502857 132.741818 
L 265.239035 137.140364 
L 268.183748 137.140364 
L 268.919926 132.741818 
L 269.656104 132.741818 
L 270.392282 137.140364 
L 271.12846 128.343273 
L 271.864638 132.741818 
L 272.600816 132.741818 
L 273.336994 123.944727 
L 274.073173 128.343273 
L 274.809351 128.343273 
L 275.545529 132.741818 
L 276.281707 119.546182 
L 277.017885 119.546182 
L 278.490241 128.343273 
L 279.226419 123.944727 
L 279.962597 123.944727 
L 280.698776 119.546182 
L 281.434954 119.546182 
L 282.171132 128.343273 
L 282.90731 119.546182 
L 283.643488 123.944727 
L 284.379666 119.546182 
L 285.852022 128.343273 
L 286.5882 137.140364 
L 287.324378 132.741818 
L 288.060557 141.538909 
L 289.532913 150.336 
L 290.269091 159.133091 
L 291.005269 150.336 
L 291.741447 159.133091 
L 292.477625 154.734545 
L 293.213803 154.734545 
L 293.949981 150.336 
L 294.68616 150.336 
L 295.422338 145.937455 
L 296.158516 145.937455 
L 296.894694 132.741818 
L 297.630872 141.538909 
L 298.36705 145.937455 
L 299.103228 154.734545 
L 299.839406 150.336 
L 300.575584 150.336 
L 301.311763 141.538909 
L 302.047941 141.538909 
L 302.784119 137.140364 
L 303.520297 123.944727 
L 304.256475 128.343273 
L 304.992653 123.944727 
L 305.728831 123.944727 
L 306.465009 132.741818 
L 307.201187 128.343273 
L 307.937365 128.343273 
L 308.673544 123.944727 
L 310.882078 123.944727 
L 311.618256 128.343273 
L 312.354434 137.140364 
L 313.090612 137.140364 
L 313.82679 128.343273 
L 314.562968 132.741818 
L 316.771503 132.741818 
L 317.507681 128.343273 
L 318.243859 137.140364 
L 319.716215 137.140364 
L 320.452393 132.741818 
L 321.188571 141.538909 
L 324.133284 141.538909 
L 324.869462 137.140364 
L 325.60564 137.140364 
L 326.341818 128.343273 
L 327.077996 137.140364 
L 327.814174 141.538909 
L 329.286531 132.741818 
L 330.022709 132.741818 
L 330.758887 137.140364 
L 331.495065 137.140364 
L 332.231243 132.741818 
L 333.703599 141.538909 
L 335.175955 132.741818 
L 335.912134 137.140364 
L 336.648312 137.140364 
L 337.38449 132.741818 
L 338.120668 132.741818 
L 338.856846 123.944727 
L 339.593024 128.343273 
L 340.329202 137.140364 
L 341.06538 123.944727 
L 341.801558 137.140364 
L 342.537737 132.741818 
L 343.273915 132.741818 
L 344.010093 128.343273 
L 344.746271 141.538909 
L 345.482449 137.140364 
L 346.218627 141.538909 
L 346.954805 132.741818 
L 347.690983 137.140364 
L 348.427161 132.741818 
L 349.16334 141.538909 
L 349.899518 132.741818 
L 351.371874 132.741818 
L 352.108052 137.140364 
L 352.84423 132.741818 
L 353.580408 141.538909 
L 354.316586 141.538909 
L 355.052764 145.937455 
L 355.788942 137.140364 
L 356.525121 137.140364 
L 357.261299 150.336 
L 357.997477 145.937455 
L 358.733655 145.937455 
L 359.469833 154.734545 
L 360.206011 141.538909 
L 360.942189 145.937455 
L 362.414545 137.140364 
L 363.150724 137.140364 
L 363.886902 132.741818 
L 364.62308 141.538909 
L 365.359258 137.140364 
L 366.095436 128.343273 
L 366.831614 137.140364 
L 367.567792 132.741818 
L 368.30397 132.741818 
L 369.040148 123.944727 
L 369.776327 137.140364 
L 370.512505 137.140364 
L 371.248683 132.741818 
L 371.984861 137.140364 
L 372.721039 132.741818 
L 373.457217 137.140364 
L 374.193395 137.140364 
L 374.929573 132.741818 
L 375.665751 137.140364 
L 376.401929 137.140364 
L 377.138108 132.741818 
L 378.610464 132.741818 
L 379.346642 137.140364 
L 380.818998 137.140364 
L 381.555176 132.741818 
L 382.291354 137.140364 
L 383.027532 132.741818 
L 383.763711 137.140364 
L 384.499889 132.741818 
L 385.972245 132.741818 
L 386.708423 137.140364 
L 387.444601 132.741818 
L 388.180779 137.140364 
L 388.916957 128.343273 
L 389.653135 137.140364 
L 390.389314 141.538909 
L 391.125492 132.741818 
L 391.86167 128.343273 
L 392.597848 132.741818 
L 397.751095 132.741818 
L 398.487273 141.538909 
L 398.487273 141.538909 
" style="fill:none;stroke:#ff7f0e;stroke-linecap:square;stroke-width:1.5;"/>
   </g>
   <g id="line2d_25">
    <path clip-path="url(#p344e1eea97)" d="M 73.832727 159.133091 
L 74.568905 163.531636 
L 75.305083 137.140364 
L 76.041262 141.538909 
L 76.77744 137.140364 
L 78.249796 137.140364 
L 78.985974 132.741818 
L 79.722152 141.538909 
L 80.45833 145.937455 
L 81.194508 137.140364 
L 81.930686 137.140364 
L 82.666865 141.538909 
L 83.403043 132.741818 
L 84.875399 141.538909 
L 85.611577 137.140364 
L 86.347755 137.140364 
L 87.083933 141.538909 
L 87.820111 137.140364 
L 88.556289 141.538909 
L 90.028646 132.741818 
L 91.501002 132.741818 
L 92.23718 137.140364 
L 95.181892 137.140364 
L 95.918071 141.538909 
L 96.654249 137.140364 
L 97.390427 137.140364 
L 98.126605 141.538909 
L 98.862783 137.140364 
L 99.598961 141.538909 
L 100.335139 137.140364 
L 101.071317 137.140364 
L 101.807495 132.741818 
L 102.543673 137.140364 
L 103.279852 132.741818 
L 104.752208 132.741818 
L 105.488386 128.343273 
L 106.224564 128.343273 
L 106.960742 132.741818 
L 107.69692 132.741818 
L 108.433098 137.140364 
L 109.169276 132.741818 
L 110.641633 141.538909 
L 112.113989 141.538909 
L 112.850167 145.937455 
L 113.586345 141.538909 
L 114.322523 150.336 
L 115.058701 145.937455 
L 115.794879 150.336 
L 116.531058 141.538909 
L 117.267236 150.336 
L 118.003414 154.734545 
L 119.47577 154.734545 
L 120.211948 159.133091 
L 121.684304 150.336 
L 122.420482 159.133091 
L 123.15666 154.734545 
L 128.309907 154.734545 
L 129.046085 150.336 
L 129.782263 150.336 
L 130.518442 145.937455 
L 131.990798 154.734545 
L 132.726976 154.734545 
L 133.463154 150.336 
L 134.199332 150.336 
L 134.93551 159.133091 
L 135.671688 163.531636 
L 137.880223 163.531636 
L 138.616401 150.336 
L 140.824935 150.336 
L 141.561113 145.937455 
L 144.505826 145.937455 
L 145.242004 150.336 
L 145.978182 145.937455 
L 146.71436 150.336 
L 147.450538 145.937455 
L 148.186716 137.140364 
L 151.131429 137.140364 
L 152.603785 145.937455 
L 153.339963 145.937455 
L 154.076141 159.133091 
L 154.812319 154.734545 
L 157.020853 154.734545 
L 157.757032 150.336 
L 160.701744 150.336 
L 161.437922 145.937455 
L 162.910278 145.937455 
L 163.646456 141.538909 
L 164.382635 141.538909 
L 165.118813 137.140364 
L 165.854991 128.343273 
L 168.063525 128.343273 
L 168.799703 137.140364 
L 170.272059 145.937455 
L 171.008237 163.531636 
L 171.744416 163.531636 
L 172.480594 154.734545 
L 173.216772 159.133091 
L 173.95295 154.734545 
L 174.689128 154.734545 
L 175.425306 145.937455 
L 176.161484 154.734545 
L 176.897662 145.937455 
L 177.63384 150.336 
L 179.106197 141.538909 
L 180.578553 141.538909 
L 181.314731 137.140364 
L 182.050909 141.538909 
L 182.787087 141.538909 
L 183.523265 137.140364 
L 184.995622 137.140364 
L 186.467978 128.343273 
L 187.204156 137.140364 
L 188.676512 145.937455 
L 189.41269 159.133091 
L 190.148868 150.336 
L 191.621224 150.336 
L 192.357403 159.133091 
L 193.093581 154.734545 
L 196.038293 154.734545 
L 196.774471 150.336 
L 198.983006 150.336 
L 200.455362 141.538909 
L 201.19154 141.538909 
L 202.663896 132.741818 
L 205.608609 150.336 
L 207.080965 167.930182 
L 207.817143 163.531636 
L 208.553321 163.531636 
L 209.289499 154.734545 
L 210.025677 159.133091 
L 210.761855 154.734545 
L 211.498033 145.937455 
L 213.706568 145.937455 
L 214.442746 141.538909 
L 215.178924 141.538909 
L 215.915102 145.937455 
L 217.387458 145.937455 
L 218.123636 137.140364 
L 218.859814 141.538909 
L 219.595993 137.140364 
L 220.332171 137.140364 
L 221.068349 132.741818 
L 221.804527 141.538909 
L 222.540705 141.538909 
L 224.013061 150.336 
L 224.749239 150.336 
L 226.221596 159.133091 
L 226.957774 159.133091 
L 227.693952 163.531636 
L 228.43013 159.133091 
L 229.166308 159.133091 
L 229.902486 163.531636 
L 230.638664 159.133091 
L 231.374842 159.133091 
L 232.11102 154.734545 
L 233.583377 154.734545 
L 234.319555 150.336 
L 235.055733 154.734545 
L 235.791911 150.336 
L 238.000445 150.336 
L 238.736623 154.734545 
L 239.472801 154.734545 
L 240.20898 150.336 
L 240.945158 159.133091 
L 241.681336 154.734545 
L 242.417514 154.734545 
L 243.153692 159.133091 
L 243.88987 154.734545 
L 245.362226 154.734545 
L 246.098404 145.937455 
L 246.834583 145.937455 
L 247.570761 150.336 
L 248.306939 145.937455 
L 249.043117 145.937455 
L 249.779295 141.538909 
L 253.460186 141.538909 
L 254.196364 137.140364 
L 254.932542 137.140364 
L 255.66872 132.741818 
L 256.404898 141.538909 
L 257.877254 132.741818 
L 258.613432 132.741818 
L 259.34961 145.937455 
L 260.085788 145.937455 
L 260.821967 154.734545 
L 261.558145 154.734545 
L 262.294323 167.930182 
L 263.030501 159.133091 
L 263.766679 167.930182 
L 264.502857 159.133091 
L 265.239035 154.734545 
L 265.975213 163.531636 
L 267.44757 154.734545 
L 269.656104 154.734545 
L 270.392282 150.336 
L 271.864638 159.133091 
L 272.600816 154.734545 
L 273.336994 154.734545 
L 274.073173 145.937455 
L 274.809351 154.734545 
L 275.545529 154.734545 
L 276.281707 150.336 
L 277.017885 154.734545 
L 278.490241 154.734545 
L 279.962597 145.937455 
L 280.698776 150.336 
L 282.171132 141.538909 
L 282.90731 145.937455 
L 284.379666 145.937455 
L 285.115844 150.336 
L 285.852022 145.937455 
L 286.5882 145.937455 
L 287.324378 150.336 
L 288.060557 150.336 
L 288.796735 154.734545 
L 289.532913 150.336 
L 290.269091 159.133091 
L 291.005269 154.734545 
L 291.741447 154.734545 
L 292.477625 159.133091 
L 293.213803 154.734545 
L 293.949981 163.531636 
L 294.68616 154.734545 
L 295.422338 150.336 
L 296.158516 150.336 
L 296.894694 145.937455 
L 297.630872 150.336 
L 298.36705 150.336 
L 299.103228 145.937455 
L 299.839406 145.937455 
L 300.575584 150.336 
L 301.311763 145.937455 
L 302.047941 150.336 
L 302.784119 141.538909 
L 303.520297 145.937455 
L 304.256475 141.538909 
L 304.992653 141.538909 
L 307.937365 159.133091 
L 308.673544 154.734545 
L 309.409722 159.133091 
L 310.1459 154.734545 
L 310.882078 159.133091 
L 311.618256 150.336 
L 312.354434 150.336 
L 313.090612 145.937455 
L 313.82679 145.937455 
L 314.562968 141.538909 
L 315.299147 141.538909 
L 316.035325 137.140364 
L 316.771503 141.538909 
L 317.507681 141.538909 
L 318.243859 137.140364 
L 318.980037 141.538909 
L 319.716215 141.538909 
L 320.452393 137.140364 
L 321.188571 141.538909 
L 321.92475 141.538909 
L 322.660928 137.140364 
L 325.60564 137.140364 
L 326.341818 132.741818 
L 327.077996 132.741818 
L 327.814174 137.140364 
L 328.550353 132.741818 
L 329.286531 137.140364 
L 330.022709 132.741818 
L 330.758887 132.741818 
L 332.231243 141.538909 
L 332.967421 137.140364 
L 334.439777 137.140364 
L 335.175955 132.741818 
L 335.912134 141.538909 
L 336.648312 137.140364 
L 337.38449 141.538909 
L 341.06538 141.538909 
L 341.801558 145.937455 
L 342.537737 145.937455 
L 343.273915 141.538909 
L 344.010093 145.937455 
L 345.482449 145.937455 
L 346.218627 141.538909 
L 346.954805 145.937455 
L 347.690983 145.937455 
L 348.427161 150.336 
L 350.635696 137.140364 
L 351.371874 137.140364 
L 352.84423 128.343273 
L 353.580408 132.741818 
L 354.316586 132.741818 
L 355.052764 123.944727 
L 355.788942 123.944727 
L 356.525121 128.343273 
L 357.261299 123.944727 
L 357.997477 128.343273 
L 358.733655 123.944727 
L 360.206011 132.741818 
L 360.942189 132.741818 
L 361.678367 137.140364 
L 362.414545 132.741818 
L 363.886902 132.741818 
L 364.62308 137.140364 
L 365.359258 132.741818 
L 366.095436 137.140364 
L 367.567792 137.140364 
L 368.30397 128.343273 
L 369.040148 137.140364 
L 370.512505 137.140364 
L 371.248683 132.741818 
L 371.984861 141.538909 
L 372.721039 132.741818 
L 376.401929 132.741818 
L 377.138108 137.140364 
L 377.874286 137.140364 
L 378.610464 132.741818 
L 380.08282 132.741818 
L 380.818998 137.140364 
L 381.555176 132.741818 
L 382.291354 137.140364 
L 383.763711 137.140364 
L 384.499889 132.741818 
L 385.236067 132.741818 
L 385.972245 137.140364 
L 386.708423 137.140364 
L 387.444601 132.741818 
L 388.180779 137.140364 
L 388.916957 137.140364 
L 389.653135 132.741818 
L 390.389314 137.140364 
L 397.014917 137.140364 
L 397.751095 141.538909 
L 398.487273 137.140364 
L 398.487273 137.140364 
" style="fill:none;stroke:#2ca02c;stroke-linecap:square;stroke-width:1.5;"/>
   </g>
   <g id="patch_3">
    <path d="M 57.6 307.584 
L 57.6 41.472 
" style="fill:none;stroke:#000000;stroke-linecap:square;stroke-linejoin:miter;stroke-width:0.8;"/>
   </g>
   <g id="patch_4">
    <path d="M 414.72 307.584 
L 414.72 41.472 
" style="fill:none;stroke:#000000;stroke-linecap:square;stroke-linejoin:miter;stroke-width:0.8;"/>
   </g>
   <g id="patch_5">
    <path d="M 57.6 307.584 
L 414.72 307.584 
" style="fill:none;stroke:#000000;stroke-linecap:square;stroke-linejoin:miter;stroke-width:0.8;"/>
   </g>
   <g id="patch_6">
    <path d="M 57.6 41.472 
L 414.72 41.472 
" style="fill:none;stroke:#000000;stroke-linecap:square;stroke-linejoin:miter;stroke-width:0.8;"/>
   </g>
   <g id="legend_1">
    <g id="patch_7">
     <path d="M 369.80125 93.506375 
L 407.72 93.506375 
Q 409.72 93.506375 409.72 91.506375 
L 409.72 48.472 
Q 409.72 46.472 407.72 46.472 
L 369.80125 46.472 
Q 367.80125 46.472 367.80125 48.472 
L 367.80125 91.506375 
Q 367.80125 93.506375 369.80125 93.506375 
z
" style="fill:#ffffff;opacity:0.8;stroke:#cccccc;stroke-linejoin:miter;"/>
    </g>
    <g id="line2d_26">
     <path d="M 371.80125 54.570438 
L 391.80125 54.570438 
" style="fill:none;stroke:#1f77b4;stroke-linecap:square;stroke-width:1.5;"/>
    </g>
    <g id="line2d_27"/>
    <g id="text_12">
     <!-- x -->
     <defs>
      <path d="M 54.890625 54.6875 
L 35.109375 28.078125 
L 55.90625 0 
L 45.3125 0 
L 29.390625 21.484375 
L 13.484375 0 
L 2.875 0 
L 24.125 28.609375 
L 4.6875 54.6875 
L 15.28125 54.6875 
L 29.78125 35.203125 
L 44.28125 54.6875 
z
" id="DejaVuSans-120"/>
     </defs>
     <g transform="translate(399.80125 58.070438)scale(0.1 -0.1)">
      <use xlink:href="#DejaVuSans-120"/>
     </g>
    </g>
    <g id="line2d_28">
     <path d="M 371.80125 69.248563 
L 391.80125 69.248563 
" style="fill:none;stroke:#ff7f0e;stroke-linecap:square;stroke-width:1.5;"/>
    </g>
    <g id="line2d_29"/>
    <g id="text_13">
     <!-- y -->
     <defs>
      <path d="M 32.171875 -5.078125 
Q 28.375 -14.84375 24.75 -17.8125 
Q 21.140625 -20.796875 15.09375 -20.796875 
L 7.90625 -20.796875 
L 7.90625 -13.28125 
L 13.1875 -13.28125 
Q 16.890625 -13.28125 18.9375 -11.515625 
Q 21 -9.765625 23.484375 -3.21875 
L 25.09375 0.875 
L 2.984375 54.6875 
L 12.5 54.6875 
L 29.59375 11.921875 
L 46.6875 54.6875 
L 56.203125 54.6875 
z
" id="DejaVuSans-121"/>
     </defs>
     <g transform="translate(399.80125 72.748563)scale(0.1 -0.1)">
      <use xlink:href="#DejaVuSans-121"/>
     </g>
    </g>
    <g id="line2d_30">
     <path d="M 371.80125 83.926688 
L 391.80125 83.926688 
" style="fill:none;stroke:#2ca02c;stroke-linecap:square;stroke-width:1.5;"/>
    </g>
    <g id="line2d_31"/>
    <g id="text_14">
     <!-- z -->
     <defs>
      <path d="M 5.515625 54.6875 
L 48.1875 54.6875 
L 48.1875 46.484375 
L 14.40625 7.171875 
L 48.1875 7.171875 
L 48.1875 0 
L 4.296875 0 
L 4.296875 8.203125 
L 38.09375 47.515625 
L 5.515625 47.515625 
z
" id="DejaVuSans-122"/>
     </defs>
     <g transform="translate(399.80125 87.426688)scale(0.1 -0.1)">
      <use xlink:href="#DejaVuSans-122"/>
     </g>
    </g>
   </g>
  </g>
 </g>
 <defs>
  <clipPath id="p344e1eea97">
   <rect height="266.112" width="357.12" x="57.6" y="41.472"/>
  </clipPath>
 </defs>
</svg>
