<?xml version="1.0" encoding="utf-8" standalone="no"?>
<!DOCTYPE svg PUBLIC "-//W3C//DTD SVG 1.1//EN"
  "http://www.w3.org/Graphics/SVG/1.1/DTD/svg11.dtd">
<!-- Created with matplotlib (https://matplotlib.org/) -->
<svg height="345.6pt" version="1.1" viewBox="0 0 460.8 345.6" width="460.8pt" xmlns="http://www.w3.org/2000/svg" xmlns:xlink="http://www.w3.org/1999/xlink">
 <defs>
  <style type="text/css">
*{stroke-linecap:butt;stroke-linejoin:round;}
  </style>
 </defs>
 <g id="figure_1">
  <g id="patch_1">
   <path d="M 0 345.6 
L 460.8 345.6 
L 460.8 0 
L 0 0 
z
" style="fill:#ffffff;"/>
  </g>
  <g id="axes_1">
   <g id="patch_2">
    <path d="M 57.6 307.584 
L 414.72 307.584 
L 414.72 41.472 
L 57.6 41.472 
z
" style="fill:#ffffff;"/>
   </g>
   <g id="matplotlib.axis_1">
    <g id="xtick_1">
     <g id="line2d_1">
      <path clip-path="url(#pf590d1d3e0)" d="M 73.832727 307.584 
L 73.832727 41.472 
" style="fill:none;stroke:#b0b0b0;stroke-linecap:square;stroke-width:0.8;"/>
     </g>
     <g id="line2d_2">
      <defs>
       <path d="M 0 0 
L 0 3.5 
" id="m24d5181acb" style="stroke:#000000;stroke-width:0.8;"/>
      </defs>
      <g>
       <use style="stroke:#000000;stroke-width:0.8;" x="73.832727" xlink:href="#m24d5181acb" y="307.584"/>
      </g>
     </g>
     <g id="text_1">
      <!-- 0 -->
      <defs>
       <path d="M 31.78125 66.40625 
Q 24.171875 66.40625 20.328125 58.90625 
Q 16.5 51.421875 16.5 36.375 
Q 16.5 21.390625 20.328125 13.890625 
Q 24.171875 6.390625 31.78125 6.390625 
Q 39.453125 6.390625 43.28125 13.890625 
Q 47.125 21.390625 47.125 36.375 
Q 47.125 51.421875 43.28125 58.90625 
Q 39.453125 66.40625 31.78125 66.40625 
z
M 31.78125 74.21875 
Q 44.046875 74.21875 50.515625 64.515625 
Q 56.984375 54.828125 56.984375 36.375 
Q 56.984375 17.96875 50.515625 8.265625 
Q 44.046875 -1.421875 31.78125 -1.421875 
Q 19.53125 -1.421875 13.0625 8.265625 
Q 6.59375 17.96875 6.59375 36.375 
Q 6.59375 54.828125 13.0625 64.515625 
Q 19.53125 74.21875 31.78125 74.21875 
z
" id="DejaVuSans-48"/>
      </defs>
      <g transform="translate(70.651477 322.182437)scale(0.1 -0.1)">
       <use xlink:href="#DejaVuSans-48"/>
      </g>
     </g>
    </g>
    <g id="xtick_2">
     <g id="line2d_3">
      <path clip-path="url(#pf590d1d3e0)" d="M 113.913535 307.584 
L 113.913535 41.472 
" style="fill:none;stroke:#b0b0b0;stroke-linecap:square;stroke-width:0.8;"/>
     </g>
     <g id="line2d_4">
      <g>
       <use style="stroke:#000000;stroke-width:0.8;" x="113.913535" xlink:href="#m24d5181acb" y="307.584"/>
      </g>
     </g>
     <g id="text_2">
      <!-- 50 -->
      <defs>
       <path d="M 10.796875 72.90625 
L 49.515625 72.90625 
L 49.515625 64.59375 
L 19.828125 64.59375 
L 19.828125 46.734375 
Q 21.96875 47.46875 24.109375 47.828125 
Q 26.265625 48.1875 28.421875 48.1875 
Q 40.625 48.1875 47.75 41.5 
Q 54.890625 34.8125 54.890625 23.390625 
Q 54.890625 11.625 47.5625 5.09375 
Q 40.234375 -1.421875 26.90625 -1.421875 
Q 22.3125 -1.421875 17.546875 -0.640625 
Q 12.796875 0.140625 7.71875 1.703125 
L 7.71875 11.625 
Q 12.109375 9.234375 16.796875 8.0625 
Q 21.484375 6.890625 26.703125 6.890625 
Q 35.15625 6.890625 40.078125 11.328125 
Q 45.015625 15.765625 45.015625 23.390625 
Q 45.015625 31 40.078125 35.4375 
Q 35.15625 39.890625 26.703125 39.890625 
Q 22.75 39.890625 18.8125 39.015625 
Q 14.890625 38.140625 10.796875 36.28125 
z
" id="DejaVuSans-53"/>
      </defs>
      <g transform="translate(107.551035 322.182437)scale(0.1 -0.1)">
       <use xlink:href="#DejaVuSans-53"/>
       <use x="63.623047" xlink:href="#DejaVuSans-48"/>
      </g>
     </g>
    </g>
    <g id="xtick_3">
     <g id="line2d_5">
      <path clip-path="url(#pf590d1d3e0)" d="M 153.994343 307.584 
L 153.994343 41.472 
" style="fill:none;stroke:#b0b0b0;stroke-linecap:square;stroke-width:0.8;"/>
     </g>
     <g id="line2d_6">
      <g>
       <use style="stroke:#000000;stroke-width:0.8;" x="153.994343" xlink:href="#m24d5181acb" y="307.584"/>
      </g>
     </g>
     <g id="text_3">
      <!-- 100 -->
      <defs>
       <path d="M 12.40625 8.296875 
L 28.515625 8.296875 
L 28.515625 63.921875 
L 10.984375 60.40625 
L 10.984375 69.390625 
L 28.421875 72.90625 
L 38.28125 72.90625 
L 38.28125 8.296875 
L 54.390625 8.296875 
L 54.390625 0 
L 12.40625 0 
z
" id="DejaVuSans-49"/>
      </defs>
      <g transform="translate(144.450593 322.182437)scale(0.1 -0.1)">
       <use xlink:href="#DejaVuSans-49"/>
       <use x="63.623047" xlink:href="#DejaVuSans-48"/>
       <use x="127.246094" xlink:href="#DejaVuSans-48"/>
      </g>
     </g>
    </g>
    <g id="xtick_4">
     <g id="line2d_7">
      <path clip-path="url(#pf590d1d3e0)" d="M 194.075152 307.584 
L 194.075152 41.472 
" style="fill:none;stroke:#b0b0b0;stroke-linecap:square;stroke-width:0.8;"/>
     </g>
     <g id="line2d_8">
      <g>
       <use style="stroke:#000000;stroke-width:0.8;" x="194.075152" xlink:href="#m24d5181acb" y="307.584"/>
      </g>
     </g>
     <g id="text_4">
      <!-- 150 -->
      <g transform="translate(184.531402 322.182437)scale(0.1 -0.1)">
       <use xlink:href="#DejaVuSans-49"/>
       <use x="63.623047" xlink:href="#DejaVuSans-53"/>
       <use x="127.246094" xlink:href="#DejaVuSans-48"/>
      </g>
     </g>
    </g>
    <g id="xtick_5">
     <g id="line2d_9">
      <path clip-path="url(#pf590d1d3e0)" d="M 234.15596 307.584 
L 234.15596 41.472 
" style="fill:none;stroke:#b0b0b0;stroke-linecap:square;stroke-width:0.8;"/>
     </g>
     <g id="line2d_10">
      <g>
       <use style="stroke:#000000;stroke-width:0.8;" x="234.15596" xlink:href="#m24d5181acb" y="307.584"/>
      </g>
     </g>
     <g id="text_5">
      <!-- 200 -->
      <defs>
       <path d="M 19.1875 8.296875 
L 53.609375 8.296875 
L 53.609375 0 
L 7.328125 0 
L 7.328125 8.296875 
Q 12.9375 14.109375 22.625 23.890625 
Q 32.328125 33.6875 34.8125 36.53125 
Q 39.546875 41.84375 41.421875 45.53125 
Q 43.3125 49.21875 43.3125 52.78125 
Q 43.3125 58.59375 39.234375 62.25 
Q 35.15625 65.921875 28.609375 65.921875 
Q 23.96875 65.921875 18.8125 64.3125 
Q 13.671875 62.703125 7.8125 59.421875 
L 7.8125 69.390625 
Q 13.765625 71.78125 18.9375 73 
Q 24.125 74.21875 28.421875 74.21875 
Q 39.75 74.21875 46.484375 68.546875 
Q 53.21875 62.890625 53.21875 53.421875 
Q 53.21875 48.921875 51.53125 44.890625 
Q 49.859375 40.875 45.40625 35.40625 
Q 44.1875 33.984375 37.640625 27.21875 
Q 31.109375 20.453125 19.1875 8.296875 
z
" id="DejaVuSans-50"/>
      </defs>
      <g transform="translate(224.61221 322.182437)scale(0.1 -0.1)">
       <use xlink:href="#DejaVuSans-50"/>
       <use x="63.623047" xlink:href="#DejaVuSans-48"/>
       <use x="127.246094" xlink:href="#DejaVuSans-48"/>
      </g>
     </g>
    </g>
    <g id="xtick_6">
     <g id="line2d_11">
      <path clip-path="url(#pf590d1d3e0)" d="M 274.236768 307.584 
L 274.236768 41.472 
" style="fill:none;stroke:#b0b0b0;stroke-linecap:square;stroke-width:0.8;"/>
     </g>
     <g id="line2d_12">
      <g>
       <use style="stroke:#000000;stroke-width:0.8;" x="274.236768" xlink:href="#m24d5181acb" y="307.584"/>
      </g>
     </g>
     <g id="text_6">
      <!-- 250 -->
      <g transform="translate(264.693018 322.182437)scale(0.1 -0.1)">
       <use xlink:href="#DejaVuSans-50"/>
       <use x="63.623047" xlink:href="#DejaVuSans-53"/>
       <use x="127.246094" xlink:href="#DejaVuSans-48"/>
      </g>
     </g>
    </g>
    <g id="xtick_7">
     <g id="line2d_13">
      <path clip-path="url(#pf590d1d3e0)" d="M 314.317576 307.584 
L 314.317576 41.472 
" style="fill:none;stroke:#b0b0b0;stroke-linecap:square;stroke-width:0.8;"/>
     </g>
     <g id="line2d_14">
      <g>
       <use style="stroke:#000000;stroke-width:0.8;" x="314.317576" xlink:href="#m24d5181acb" y="307.584"/>
      </g>
     </g>
     <g id="text_7">
      <!-- 300 -->
      <defs>
       <path d="M 40.578125 39.3125 
Q 47.65625 37.796875 51.625 33 
Q 55.609375 28.21875 55.609375 21.1875 
Q 55.609375 10.40625 48.1875 4.484375 
Q 40.765625 -1.421875 27.09375 -1.421875 
Q 22.515625 -1.421875 17.65625 -0.515625 
Q 12.796875 0.390625 7.625 2.203125 
L 7.625 11.71875 
Q 11.71875 9.328125 16.59375 8.109375 
Q 21.484375 6.890625 26.8125 6.890625 
Q 36.078125 6.890625 40.9375 10.546875 
Q 45.796875 14.203125 45.796875 21.1875 
Q 45.796875 27.640625 41.28125 31.265625 
Q 36.765625 34.90625 28.71875 34.90625 
L 20.21875 34.90625 
L 20.21875 43.015625 
L 29.109375 43.015625 
Q 36.375 43.015625 40.234375 45.921875 
Q 44.09375 48.828125 44.09375 54.296875 
Q 44.09375 59.90625 40.109375 62.90625 
Q 36.140625 65.921875 28.71875 65.921875 
Q 24.65625 65.921875 20.015625 65.03125 
Q 15.375 64.15625 9.8125 62.3125 
L 9.8125 71.09375 
Q 15.4375 72.65625 20.34375 73.4375 
Q 25.25 74.21875 29.59375 74.21875 
Q 40.828125 74.21875 47.359375 69.109375 
Q 53.90625 64.015625 53.90625 55.328125 
Q 53.90625 49.265625 50.4375 45.09375 
Q 46.96875 40.921875 40.578125 39.3125 
z
" id="DejaVuSans-51"/>
      </defs>
      <g transform="translate(304.773826 322.182437)scale(0.1 -0.1)">
       <use xlink:href="#DejaVuSans-51"/>
       <use x="63.623047" xlink:href="#DejaVuSans-48"/>
       <use x="127.246094" xlink:href="#DejaVuSans-48"/>
      </g>
     </g>
    </g>
    <g id="xtick_8">
     <g id="line2d_15">
      <path clip-path="url(#pf590d1d3e0)" d="M 354.398384 307.584 
L 354.398384 41.472 
" style="fill:none;stroke:#b0b0b0;stroke-linecap:square;stroke-width:0.8;"/>
     </g>
     <g id="line2d_16">
      <g>
       <use style="stroke:#000000;stroke-width:0.8;" x="354.398384" xlink:href="#m24d5181acb" y="307.584"/>
      </g>
     </g>
     <g id="text_8">
      <!-- 350 -->
      <g transform="translate(344.854634 322.182437)scale(0.1 -0.1)">
       <use xlink:href="#DejaVuSans-51"/>
       <use x="63.623047" xlink:href="#DejaVuSans-53"/>
       <use x="127.246094" xlink:href="#DejaVuSans-48"/>
      </g>
     </g>
    </g>
    <g id="xtick_9">
     <g id="line2d_17">
      <path clip-path="url(#pf590d1d3e0)" d="M 394.479192 307.584 
L 394.479192 41.472 
" style="fill:none;stroke:#b0b0b0;stroke-linecap:square;stroke-width:0.8;"/>
     </g>
     <g id="line2d_18">
      <g>
       <use style="stroke:#000000;stroke-width:0.8;" x="394.479192" xlink:href="#m24d5181acb" y="307.584"/>
      </g>
     </g>
     <g id="text_9">
      <!-- 400 -->
      <defs>
       <path d="M 37.796875 64.3125 
L 12.890625 25.390625 
L 37.796875 25.390625 
z
M 35.203125 72.90625 
L 47.609375 72.90625 
L 47.609375 25.390625 
L 58.015625 25.390625 
L 58.015625 17.1875 
L 47.609375 17.1875 
L 47.609375 0 
L 37.796875 0 
L 37.796875 17.1875 
L 4.890625 17.1875 
L 4.890625 26.703125 
z
" id="DejaVuSans-52"/>
      </defs>
      <g transform="translate(384.935442 322.182437)scale(0.1 -0.1)">
       <use xlink:href="#DejaVuSans-52"/>
       <use x="63.623047" xlink:href="#DejaVuSans-48"/>
       <use x="127.246094" xlink:href="#DejaVuSans-48"/>
      </g>
     </g>
    </g>
   </g>
   <g id="matplotlib.axis_2">
    <g id="ytick_1">
     <g id="line2d_19">
      <path clip-path="url(#pf590d1d3e0)" d="M 57.6 295.488 
L 414.72 295.488 
" style="fill:none;stroke:#b0b0b0;stroke-linecap:square;stroke-width:0.8;"/>
     </g>
     <g id="line2d_20">
      <defs>
       <path d="M 0 0 
L -3.5 0 
" id="mf9a1831eb3" style="stroke:#000000;stroke-width:0.8;"/>
      </defs>
      <g>
       <use style="stroke:#000000;stroke-width:0.8;" x="57.6" xlink:href="#mf9a1831eb3" y="295.488"/>
      </g>
     </g>
     <g id="text_10">
      <!-- 0 -->
      <g transform="translate(44.2375 299.287219)scale(0.1 -0.1)">
       <use xlink:href="#DejaVuSans-48"/>
      </g>
     </g>
    </g>
    <g id="ytick_2">
     <g id="line2d_21">
      <path clip-path="url(#pf590d1d3e0)" d="M 57.6 254.48461 
L 414.72 254.48461 
" style="fill:none;stroke:#b0b0b0;stroke-linecap:square;stroke-width:0.8;"/>
     </g>
     <g id="line2d_22">
      <g>
       <use style="stroke:#000000;stroke-width:0.8;" x="57.6" xlink:href="#mf9a1831eb3" y="254.48461"/>
      </g>
     </g>
     <g id="text_11">
      <!-- 10 -->
      <g transform="translate(37.875 258.283829)scale(0.1 -0.1)">
       <use xlink:href="#DejaVuSans-49"/>
       <use x="63.623047" xlink:href="#DejaVuSans-48"/>
      </g>
     </g>
    </g>
    <g id="ytick_3">
     <g id="line2d_23">
      <path clip-path="url(#pf590d1d3e0)" d="M 57.6 213.48122 
L 414.72 213.48122 
" style="fill:none;stroke:#b0b0b0;stroke-linecap:square;stroke-width:0.8;"/>
     </g>
     <g id="line2d_24">
      <g>
       <use style="stroke:#000000;stroke-width:0.8;" x="57.6" xlink:href="#mf9a1831eb3" y="213.48122"/>
      </g>
     </g>
     <g id="text_12">
      <!-- 20 -->
      <g transform="translate(37.875 217.280439)scale(0.1 -0.1)">
       <use xlink:href="#DejaVuSans-50"/>
       <use x="63.623047" xlink:href="#DejaVuSans-48"/>
      </g>
     </g>
    </g>
    <g id="ytick_4">
     <g id="line2d_25">
      <path clip-path="url(#pf590d1d3e0)" d="M 57.6 172.477831 
L 414.72 172.477831 
" style="fill:none;stroke:#b0b0b0;stroke-linecap:square;stroke-width:0.8;"/>
     </g>
     <g id="line2d_26">
      <g>
       <use style="stroke:#000000;stroke-width:0.8;" x="57.6" xlink:href="#mf9a1831eb3" y="172.477831"/>
      </g>
     </g>
     <g id="text_13">
      <!-- 30 -->
      <g transform="translate(37.875 176.277049)scale(0.1 -0.1)">
       <use xlink:href="#DejaVuSans-51"/>
       <use x="63.623047" xlink:href="#DejaVuSans-48"/>
      </g>
     </g>
    </g>
    <g id="ytick_5">
     <g id="line2d_27">
      <path clip-path="url(#pf590d1d3e0)" d="M 57.6 131.474441 
L 414.72 131.474441 
" style="fill:none;stroke:#b0b0b0;stroke-linecap:square;stroke-width:0.8;"/>
     </g>
     <g id="line2d_28">
      <g>
       <use style="stroke:#000000;stroke-width:0.8;" x="57.6" xlink:href="#mf9a1831eb3" y="131.474441"/>
      </g>
     </g>
     <g id="text_14">
      <!-- 40 -->
      <g transform="translate(37.875 135.273659)scale(0.1 -0.1)">
       <use xlink:href="#DejaVuSans-52"/>
       <use x="63.623047" xlink:href="#DejaVuSans-48"/>
      </g>
     </g>
    </g>
    <g id="ytick_6">
     <g id="line2d_29">
      <path clip-path="url(#pf590d1d3e0)" d="M 57.6 90.471051 
L 414.72 90.471051 
" style="fill:none;stroke:#b0b0b0;stroke-linecap:square;stroke-width:0.8;"/>
     </g>
     <g id="line2d_30">
      <g>
       <use style="stroke:#000000;stroke-width:0.8;" x="57.6" xlink:href="#mf9a1831eb3" y="90.471051"/>
      </g>
     </g>
     <g id="text_15">
      <!-- 50 -->
      <g transform="translate(37.875 94.27027)scale(0.1 -0.1)">
       <use xlink:href="#DejaVuSans-53"/>
       <use x="63.623047" xlink:href="#DejaVuSans-48"/>
      </g>
     </g>
    </g>
    <g id="ytick_7">
     <g id="line2d_31">
      <path clip-path="url(#pf590d1d3e0)" d="M 57.6 49.467661 
L 414.72 49.467661 
" style="fill:none;stroke:#b0b0b0;stroke-linecap:square;stroke-width:0.8;"/>
     </g>
     <g id="line2d_32">
      <g>
       <use style="stroke:#000000;stroke-width:0.8;" x="57.6" xlink:href="#mf9a1831eb3" y="49.467661"/>
      </g>
     </g>
     <g id="text_16">
      <!-- 60 -->
      <defs>
       <path d="M 33.015625 40.375 
Q 26.375 40.375 22.484375 35.828125 
Q 18.609375 31.296875 18.609375 23.390625 
Q 18.609375 15.53125 22.484375 10.953125 
Q 26.375 6.390625 33.015625 6.390625 
Q 39.65625 6.390625 43.53125 10.953125 
Q 47.40625 15.53125 47.40625 23.390625 
Q 47.40625 31.296875 43.53125 35.828125 
Q 39.65625 40.375 33.015625 40.375 
z
M 52.59375 71.296875 
L 52.59375 62.3125 
Q 48.875 64.0625 45.09375 64.984375 
Q 41.3125 65.921875 37.59375 65.921875 
Q 27.828125 65.921875 22.671875 59.328125 
Q 17.53125 52.734375 16.796875 39.40625 
Q 19.671875 43.65625 24.015625 45.921875 
Q 28.375 48.1875 33.59375 48.1875 
Q 44.578125 48.1875 50.953125 41.515625 
Q 57.328125 34.859375 57.328125 23.390625 
Q 57.328125 12.15625 50.6875 5.359375 
Q 44.046875 -1.421875 33.015625 -1.421875 
Q 20.359375 -1.421875 13.671875 8.265625 
Q 6.984375 17.96875 6.984375 36.375 
Q 6.984375 53.65625 15.1875 63.9375 
Q 23.390625 74.21875 37.203125 74.21875 
Q 40.921875 74.21875 44.703125 73.484375 
Q 48.484375 72.75 52.59375 71.296875 
z
" id="DejaVuSans-54"/>
      </defs>
      <g transform="translate(37.875 53.26688)scale(0.1 -0.1)">
       <use xlink:href="#DejaVuSans-54"/>
       <use x="63.623047" xlink:href="#DejaVuSans-48"/>
      </g>
     </g>
    </g>
   </g>
   <g id="line2d_33">
    <path clip-path="url(#pf590d1d3e0)" d="M 73.832727 139.675119 
L 74.634343 131.474441 
L 75.43596 139.675119 
L 76.237576 143.775458 
L 77.840808 143.775458 
L 78.642424 156.076475 
L 79.44404 164.277153 
L 80.245657 168.377492 
L 81.047273 192.979525 
L 82.650505 201.180203 
L 83.452121 209.380881 
L 84.253737 201.180203 
L 85.055354 188.879186 
L 85.85697 188.879186 
L 86.658586 180.678508 
L 87.460202 188.879186 
L 89.063434 197.079864 
L 91.468283 197.079864 
L 92.269899 192.979525 
L 93.071515 197.079864 
L 93.873131 205.280542 
L 94.674747 209.380881 
L 95.476364 205.280542 
L 96.27798 209.380881 
L 97.079596 192.979525 
L 97.881212 197.079864 
L 98.682828 197.079864 
L 99.484444 192.979525 
L 100.286061 184.778847 
L 101.087677 180.678508 
L 101.889293 168.377492 
L 102.690909 168.377492 
L 103.492525 160.176814 
L 105.095758 160.176814 
L 105.897374 151.976136 
L 106.69899 160.176814 
L 107.500606 160.176814 
L 108.302222 168.377492 
L 109.103838 172.477831 
L 109.905455 180.678508 
L 110.707071 184.778847 
L 111.508687 184.778847 
L 112.310303 192.979525 
L 113.111919 188.879186 
L 113.913535 192.979525 
L 114.715152 201.180203 
L 115.516768 205.280542 
L 116.318384 197.079864 
L 117.12 197.079864 
L 117.921616 184.778847 
L 118.723232 184.778847 
L 120.326465 168.377492 
L 122.731313 180.678508 
L 123.532929 201.180203 
L 124.334545 201.180203 
L 125.136162 221.681898 
L 125.937778 262.685288 
L 126.739394 283.186983 
L 127.54101 291.387661 
L 128.342626 274.986305 
L 129.144242 270.885966 
L 129.945859 274.986305 
L 131.549091 274.986305 
L 132.350707 250.384271 
L 133.152323 238.083254 
L 133.953939 229.882576 
L 134.755556 233.982915 
L 136.358788 233.982915 
L 137.160404 225.782237 
L 137.96202 221.681898 
L 138.763636 229.882576 
L 139.565253 229.882576 
L 140.366869 242.183593 
L 141.168485 250.384271 
L 142.771717 274.986305 
L 143.573333 279.086644 
L 144.374949 250.384271 
L 145.176566 250.384271 
L 145.978182 246.283932 
L 146.779798 250.384271 
L 148.38303 242.183593 
L 149.986263 225.782237 
L 152.391111 238.083254 
L 153.192727 238.083254 
L 153.994343 233.982915 
L 156.399192 246.283932 
L 158.002424 246.283932 
L 158.80404 254.48461 
L 159.605657 274.986305 
L 162.010505 250.384271 
L 162.812121 233.982915 
L 163.613737 233.982915 
L 164.415354 242.183593 
L 165.21697 254.48461 
L 166.018586 270.885966 
L 166.820202 266.785627 
L 167.621818 250.384271 
L 168.423434 238.083254 
L 169.225051 229.882576 
L 170.026667 233.982915 
L 170.828283 242.183593 
L 171.629899 238.083254 
L 172.431515 238.083254 
L 173.233131 233.982915 
L 174.034747 242.183593 
L 174.836364 242.183593 
L 177.241212 254.48461 
L 178.042828 262.685288 
L 178.844444 254.48461 
L 179.646061 254.48461 
L 180.447677 250.384271 
L 181.249293 238.083254 
L 182.050909 229.882576 
L 182.852525 238.083254 
L 183.654141 250.384271 
L 184.455758 250.384271 
L 185.257374 242.183593 
L 186.05899 242.183593 
L 186.860606 238.083254 
L 187.662222 238.083254 
L 188.463838 242.183593 
L 189.265455 242.183593 
L 190.067071 238.083254 
L 191.670303 254.48461 
L 192.471919 242.183593 
L 193.273535 246.283932 
L 194.876768 238.083254 
L 195.678384 242.183593 
L 196.48 238.083254 
L 198.083232 238.083254 
L 198.884848 242.183593 
L 199.686465 238.083254 
L 200.488081 250.384271 
L 201.289697 238.083254 
L 202.091313 250.384271 
L 202.892929 258.584949 
L 203.694545 246.283932 
L 204.496162 250.384271 
L 205.297778 266.785627 
L 206.099394 254.48461 
L 206.90101 233.982915 
L 208.504242 233.982915 
L 209.305859 242.183593 
L 210.107475 242.183593 
L 210.909091 246.283932 
L 211.710707 254.48461 
L 212.512323 250.384271 
L 213.313939 254.48461 
L 214.115556 250.384271 
L 214.917172 242.183593 
L 215.718788 242.183593 
L 216.520404 238.083254 
L 218.123636 238.083254 
L 218.925253 242.183593 
L 219.726869 229.882576 
L 220.528485 229.882576 
L 221.330101 246.283932 
L 223.734949 258.584949 
L 224.536566 250.384271 
L 225.338182 250.384271 
L 226.139798 254.48461 
L 226.941414 266.785627 
L 227.74303 270.885966 
L 228.544646 266.785627 
L 230.147879 225.782237 
L 230.949495 229.882576 
L 231.751111 229.882576 
L 232.552727 238.083254 
L 233.354343 242.183593 
L 234.15596 250.384271 
L 237.362424 233.982915 
L 238.16404 225.782237 
L 238.965657 229.882576 
L 240.568889 229.882576 
L 241.370505 233.982915 
L 242.172121 233.982915 
L 242.973737 229.882576 
L 243.775354 238.083254 
L 244.57697 238.083254 
L 245.378586 242.183593 
L 246.180202 254.48461 
L 246.981818 254.48461 
L 247.783434 262.685288 
L 248.585051 274.986305 
L 249.386667 270.885966 
L 250.188283 246.283932 
L 250.989899 250.384271 
L 251.791515 262.685288 
L 252.593131 262.685288 
L 253.394747 258.584949 
L 254.196364 258.584949 
L 254.99798 246.283932 
L 256.601212 238.083254 
L 257.402828 229.882576 
L 258.204444 225.782237 
L 259.006061 229.882576 
L 259.807677 229.882576 
L 260.609293 217.581559 
L 261.410909 221.681898 
L 262.212525 229.882576 
L 263.014141 246.283932 
L 263.815758 258.584949 
L 264.617374 274.986305 
L 265.41899 295.488 
L 266.220606 295.488 
L 267.022222 254.48461 
L 267.823838 221.681898 
L 268.625455 229.882576 
L 270.228687 238.083254 
L 271.030303 229.882576 
L 272.633535 221.681898 
L 273.435152 225.782237 
L 274.236768 238.083254 
L 275.038384 242.183593 
L 275.84 233.982915 
L 276.641616 238.083254 
L 278.244848 254.48461 
L 279.848081 254.48461 
L 280.649697 258.584949 
L 281.451313 274.986305 
L 282.252929 274.986305 
L 283.054545 262.685288 
L 283.856162 254.48461 
L 285.459394 254.48461 
L 286.26101 262.685288 
L 288.665859 238.083254 
L 291.070707 238.083254 
L 291.872323 233.982915 
L 292.673939 233.982915 
L 293.475556 225.782237 
L 294.277172 242.183593 
L 295.078788 246.283932 
L 295.880404 254.48461 
L 296.68202 270.885966 
L 297.483636 274.986305 
L 298.285253 246.283932 
L 299.086869 225.782237 
L 299.888485 233.982915 
L 300.690101 246.283932 
L 301.491717 242.183593 
L 302.293333 242.183593 
L 303.094949 238.083254 
L 303.896566 225.782237 
L 304.698182 238.083254 
L 306.301414 238.083254 
L 307.10303 242.183593 
L 307.904646 233.982915 
L 309.507879 242.183593 
L 310.309495 250.384271 
L 311.111111 250.384271 
L 311.912727 258.584949 
L 312.714343 274.986305 
L 313.51596 279.086644 
L 314.317576 274.986305 
L 315.119192 250.384271 
L 315.920808 242.183593 
L 316.722424 250.384271 
L 317.52404 262.685288 
L 318.325657 270.885966 
L 319.127273 266.785627 
L 319.928889 250.384271 
L 321.532121 233.982915 
L 322.333737 229.882576 
L 323.93697 229.882576 
L 324.738586 225.782237 
L 325.540202 229.882576 
L 326.341818 229.882576 
L 327.143434 238.083254 
L 329.548283 274.986305 
L 330.349899 274.986305 
L 331.151515 270.885966 
L 331.953131 250.384271 
L 332.754747 242.183593 
L 333.556364 246.283932 
L 334.35798 254.48461 
L 335.961212 238.083254 
L 336.762828 233.982915 
L 337.564444 225.782237 
L 338.366061 229.882576 
L 339.167677 238.083254 
L 340.770909 238.083254 
L 341.572525 233.982915 
L 342.374141 242.183593 
L 343.175758 242.183593 
L 344.77899 250.384271 
L 345.580606 274.986305 
L 346.382222 279.086644 
L 347.183838 274.986305 
L 347.985455 250.384271 
L 348.787071 246.283932 
L 349.588687 254.48461 
L 350.390303 266.785627 
L 351.191919 262.685288 
L 351.993535 250.384271 
L 352.795152 242.183593 
L 353.596768 238.083254 
L 355.2 238.083254 
L 356.001616 229.882576 
L 356.803232 233.982915 
L 357.604848 229.882576 
L 359.208081 254.48461 
L 360.009697 254.48461 
L 360.811313 266.785627 
L 361.612929 262.685288 
L 362.414545 242.183593 
L 363.216162 225.782237 
L 364.819394 201.180203 
L 365.62101 197.079864 
L 367.224242 180.678508 
L 368.025859 176.578169 
L 368.827475 160.176814 
L 369.629091 151.976136 
L 370.430707 156.076475 
L 372.033939 147.875797 
L 372.835556 151.976136 
L 374.438788 143.775458 
L 375.240404 151.976136 
L 376.04202 147.875797 
L 376.843636 147.875797 
L 377.645253 143.775458 
L 378.446869 151.976136 
L 379.248485 151.976136 
L 380.050101 147.875797 
L 380.851717 147.875797 
L 381.653333 151.976136 
L 382.454949 143.775458 
L 385.661414 143.775458 
L 386.46303 147.875797 
L 388.066263 147.875797 
L 390.471111 135.57478 
L 391.272727 143.775458 
L 392.87596 143.775458 
L 393.677576 147.875797 
L 394.479192 143.775458 
L 395.280808 151.976136 
L 396.082424 147.875797 
L 397.685657 147.875797 
L 398.487273 139.675119 
L 398.487273 139.675119 
" style="fill:none;stroke:#1f77b4;stroke-linecap:square;stroke-width:1.5;"/>
   </g>
   <g id="line2d_34">
    <path clip-path="url(#pf590d1d3e0)" d="M 73.832727 115.073085 
L 74.634343 115.073085 
L 75.43596 135.57478 
L 76.237576 123.273763 
L 77.039192 119.173424 
L 77.840808 127.374102 
L 78.642424 90.471051 
L 79.44404 94.57139 
L 80.245657 127.374102 
L 81.047273 86.370712 
L 82.650505 110.972746 
L 83.452121 102.772068 
L 84.253737 102.772068 
L 85.055354 110.972746 
L 85.85697 123.273763 
L 86.658586 115.073085 
L 87.460202 115.073085 
L 89.063434 106.872407 
L 89.865051 106.872407 
L 90.666667 110.972746 
L 91.468283 110.972746 
L 92.269899 115.073085 
L 93.071515 90.471051 
L 93.873131 78.170034 
L 94.674747 78.170034 
L 95.476364 90.471051 
L 96.27798 94.57139 
L 97.079596 90.471051 
L 97.881212 78.170034 
L 98.682828 82.270373 
L 99.484444 74.069695 
L 101.087677 82.270373 
L 101.889293 90.471051 
L 102.690909 86.370712 
L 103.492525 90.471051 
L 104.294141 90.471051 
L 105.095758 94.57139 
L 105.897374 102.772068 
L 106.69899 86.370712 
L 108.302222 78.170034 
L 109.103838 65.869017 
L 109.905455 65.869017 
L 110.707071 74.069695 
L 111.508687 61.768678 
L 112.310303 53.568 
L 113.111919 69.969356 
L 113.913535 78.170034 
L 114.715152 82.270373 
L 115.516768 94.57139 
L 116.318384 94.57139 
L 117.12 98.671729 
L 117.921616 110.972746 
L 118.723232 106.872407 
L 119.524848 106.872407 
L 120.326465 123.273763 
L 121.128081 131.474441 
L 121.929697 123.273763 
L 122.731313 139.675119 
L 123.532929 106.872407 
L 124.334545 110.972746 
L 125.136162 90.471051 
L 125.937778 74.069695 
L 126.739394 102.772068 
L 127.54101 86.370712 
L 128.342626 94.57139 
L 129.144242 110.972746 
L 129.945859 131.474441 
L 130.747475 135.57478 
L 131.549091 143.775458 
L 133.953939 143.775458 
L 135.557172 135.57478 
L 136.358788 135.57478 
L 137.160404 147.875797 
L 139.565253 135.57478 
L 140.366869 139.675119 
L 141.168485 135.57478 
L 141.970101 139.675119 
L 142.771717 139.675119 
L 143.573333 135.57478 
L 144.374949 139.675119 
L 145.176566 139.675119 
L 145.978182 135.57478 
L 146.779798 143.775458 
L 147.581414 143.775458 
L 148.38303 139.675119 
L 149.184646 147.875797 
L 149.986263 139.675119 
L 150.787879 147.875797 
L 151.589495 143.775458 
L 152.391111 151.976136 
L 153.192727 147.875797 
L 153.994343 139.675119 
L 154.79596 143.775458 
L 155.597576 143.775458 
L 156.399192 147.875797 
L 158.002424 139.675119 
L 158.80404 143.775458 
L 160.407273 127.374102 
L 161.208889 139.675119 
L 162.010505 147.875797 
L 162.812121 139.675119 
L 163.613737 151.976136 
L 164.415354 151.976136 
L 165.21697 143.775458 
L 166.018586 143.775458 
L 166.820202 147.875797 
L 168.423434 139.675119 
L 169.225051 143.775458 
L 170.026667 135.57478 
L 170.828283 135.57478 
L 172.431515 143.775458 
L 173.233131 139.675119 
L 174.836364 139.675119 
L 175.63798 143.775458 
L 176.439596 139.675119 
L 178.042828 139.675119 
L 179.646061 147.875797 
L 180.447677 143.775458 
L 182.050909 143.775458 
L 182.852525 139.675119 
L 186.05899 139.675119 
L 186.860606 143.775458 
L 189.265455 143.775458 
L 190.067071 151.976136 
L 190.868687 139.675119 
L 191.670303 135.57478 
L 193.273535 151.976136 
L 194.075152 147.875797 
L 194.876768 139.675119 
L 196.48 147.875797 
L 197.281616 139.675119 
L 198.083232 143.775458 
L 198.884848 143.775458 
L 199.686465 147.875797 
L 200.488081 143.775458 
L 201.289697 143.775458 
L 202.091313 139.675119 
L 203.694545 139.675119 
L 204.496162 147.875797 
L 205.297778 147.875797 
L 206.099394 143.775458 
L 207.702626 143.775458 
L 208.504242 139.675119 
L 210.107475 147.875797 
L 210.909091 147.875797 
L 211.710707 139.675119 
L 212.512323 139.675119 
L 213.313939 143.775458 
L 214.115556 139.675119 
L 214.917172 143.775458 
L 215.718788 143.775458 
L 216.520404 147.875797 
L 218.123636 139.675119 
L 218.925253 139.675119 
L 219.726869 143.775458 
L 221.330101 127.374102 
L 222.131717 127.374102 
L 223.734949 143.775458 
L 225.338182 143.775458 
L 227.74303 131.474441 
L 228.544646 131.474441 
L 229.346263 139.675119 
L 230.147879 143.775458 
L 230.949495 156.076475 
L 231.751111 160.176814 
L 233.354343 151.976136 
L 234.15596 156.076475 
L 235.759192 147.875797 
L 236.560808 156.076475 
L 237.362424 156.076475 
L 238.16404 147.875797 
L 238.965657 151.976136 
L 239.767273 151.976136 
L 240.568889 143.775458 
L 242.973737 143.775458 
L 243.775354 135.57478 
L 244.57697 135.57478 
L 245.378586 123.273763 
L 246.180202 139.675119 
L 246.981818 143.775458 
L 247.783434 139.675119 
L 248.585051 131.474441 
L 249.386667 143.775458 
L 250.188283 139.675119 
L 250.989899 143.775458 
L 251.791515 143.775458 
L 252.593131 139.675119 
L 253.394747 147.875797 
L 254.196364 143.775458 
L 254.99798 143.775458 
L 255.799596 147.875797 
L 256.601212 143.775458 
L 258.204444 143.775458 
L 259.006061 151.976136 
L 259.807677 147.875797 
L 262.212525 123.273763 
L 263.014141 123.273763 
L 263.815758 131.474441 
L 264.617374 135.57478 
L 265.41899 143.775458 
L 266.220606 131.474441 
L 267.022222 131.474441 
L 267.823838 127.374102 
L 269.427071 143.775458 
L 270.228687 156.076475 
L 271.030303 160.176814 
L 271.831919 143.775458 
L 272.633535 135.57478 
L 273.435152 135.57478 
L 274.236768 143.775458 
L 275.038384 143.775458 
L 275.84 135.57478 
L 276.641616 143.775458 
L 277.443232 147.875797 
L 278.244848 143.775458 
L 279.046465 156.076475 
L 279.848081 156.076475 
L 280.649697 139.675119 
L 281.451313 131.474441 
L 282.252929 131.474441 
L 283.856162 139.675119 
L 284.657778 135.57478 
L 285.459394 139.675119 
L 287.062626 139.675119 
L 287.864242 147.875797 
L 288.665859 143.775458 
L 290.269091 143.775458 
L 291.070707 147.875797 
L 291.872323 143.775458 
L 292.673939 143.775458 
L 293.475556 147.875797 
L 294.277172 147.875797 
L 295.078788 143.775458 
L 295.880404 151.976136 
L 296.68202 143.775458 
L 297.483636 151.976136 
L 298.285253 147.875797 
L 299.888485 131.474441 
L 300.690101 143.775458 
L 301.491717 147.875797 
L 303.896566 147.875797 
L 304.698182 139.675119 
L 305.499798 139.675119 
L 306.301414 135.57478 
L 307.10303 139.675119 
L 307.904646 147.875797 
L 308.706263 139.675119 
L 309.507879 139.675119 
L 310.309495 143.775458 
L 311.111111 135.57478 
L 311.912727 131.474441 
L 312.714343 131.474441 
L 313.51596 135.57478 
L 314.317576 131.474441 
L 315.119192 139.675119 
L 316.722424 139.675119 
L 317.52404 151.976136 
L 318.325657 151.976136 
L 319.928889 143.775458 
L 320.730505 143.775458 
L 321.532121 139.675119 
L 322.333737 147.875797 
L 323.135354 139.675119 
L 323.93697 143.775458 
L 325.540202 143.775458 
L 326.341818 139.675119 
L 327.143434 139.675119 
L 327.945051 143.775458 
L 328.746667 156.076475 
L 329.548283 151.976136 
L 330.349899 160.176814 
L 331.151515 151.976136 
L 331.953131 147.875797 
L 332.754747 147.875797 
L 333.556364 143.775458 
L 335.159596 143.775458 
L 335.961212 135.57478 
L 336.762828 143.775458 
L 337.564444 143.775458 
L 338.366061 151.976136 
L 339.167677 151.976136 
L 339.969293 147.875797 
L 343.175758 147.875797 
L 343.977374 139.675119 
L 344.77899 139.675119 
L 345.580606 143.775458 
L 346.382222 143.775458 
L 347.183838 135.57478 
L 347.985455 143.775458 
L 348.787071 147.875797 
L 349.588687 143.775458 
L 350.390303 147.875797 
L 351.993535 147.875797 
L 352.795152 143.775458 
L 353.596768 143.775458 
L 354.398384 147.875797 
L 356.803232 147.875797 
L 358.406465 131.474441 
L 359.208081 110.972746 
L 360.009697 102.772068 
L 360.811313 78.170034 
L 361.612929 82.270373 
L 362.414545 82.270373 
L 364.017778 90.471051 
L 365.62101 115.073085 
L 367.224242 98.671729 
L 368.025859 102.772068 
L 368.827475 102.772068 
L 372.033939 135.57478 
L 372.835556 119.173424 
L 373.637172 127.374102 
L 374.438788 143.775458 
L 375.240404 127.374102 
L 376.04202 135.57478 
L 376.843636 135.57478 
L 377.645253 119.173424 
L 378.446869 131.474441 
L 379.248485 139.675119 
L 381.653333 139.675119 
L 383.256566 131.474441 
L 384.058182 147.875797 
L 384.859798 139.675119 
L 385.661414 135.57478 
L 386.46303 135.57478 
L 387.264646 131.474441 
L 388.066263 139.675119 
L 388.867879 131.474441 
L 390.471111 139.675119 
L 391.272727 131.474441 
L 392.074343 127.374102 
L 393.677576 127.374102 
L 394.479192 131.474441 
L 395.280808 131.474441 
L 396.082424 127.374102 
L 396.88404 119.173424 
L 397.685657 131.474441 
L 398.487273 127.374102 
L 398.487273 127.374102 
" style="fill:none;stroke:#ff7f0e;stroke-linecap:square;stroke-width:1.5;"/>
   </g>
   <g id="line2d_35">
    <path clip-path="url(#pf590d1d3e0)" d="M 73.832727 102.772068 
L 74.634343 115.073085 
L 75.43596 123.273763 
L 77.039192 123.273763 
L 77.840808 127.374102 
L 78.642424 110.972746 
L 79.44404 115.073085 
L 80.245657 110.972746 
L 81.047273 86.370712 
L 81.848889 98.671729 
L 82.650505 86.370712 
L 84.253737 86.370712 
L 85.85697 94.57139 
L 86.658586 90.471051 
L 87.460202 98.671729 
L 88.261818 94.57139 
L 89.865051 94.57139 
L 90.666667 98.671729 
L 93.071515 98.671729 
L 93.873131 102.772068 
L 94.674747 115.073085 
L 95.476364 123.273763 
L 96.27798 135.57478 
L 97.079596 131.474441 
L 97.881212 139.675119 
L 98.682828 151.976136 
L 99.484444 156.076475 
L 100.286061 156.076475 
L 101.889293 164.277153 
L 102.690909 164.277153 
L 103.492525 160.176814 
L 105.095758 160.176814 
L 106.69899 151.976136 
L 107.500606 151.976136 
L 109.103838 143.775458 
L 109.905455 147.875797 
L 110.707071 156.076475 
L 111.508687 151.976136 
L 112.310303 156.076475 
L 113.111919 156.076475 
L 113.913535 147.875797 
L 115.516768 147.875797 
L 116.318384 151.976136 
L 117.12 151.976136 
L 117.921616 147.875797 
L 118.723232 139.675119 
L 119.524848 139.675119 
L 120.326465 143.775458 
L 122.731313 143.775458 
L 123.532929 127.374102 
L 124.334545 135.57478 
L 125.136162 139.675119 
L 125.937778 135.57478 
L 126.739394 147.875797 
L 127.54101 147.875797 
L 128.342626 139.675119 
L 129.144242 143.775458 
L 129.945859 164.277153 
L 130.747475 172.477831 
L 132.350707 156.076475 
L 133.152323 156.076475 
L 133.953939 160.176814 
L 136.358788 160.176814 
L 137.160404 156.076475 
L 138.763636 156.076475 
L 139.565253 160.176814 
L 140.366869 156.076475 
L 141.168485 160.176814 
L 141.970101 156.076475 
L 143.573333 156.076475 
L 144.374949 147.875797 
L 145.978182 147.875797 
L 146.779798 151.976136 
L 148.38303 151.976136 
L 149.184646 147.875797 
L 149.986263 151.976136 
L 150.787879 143.775458 
L 151.589495 143.775458 
L 152.391111 135.57478 
L 153.192727 147.875797 
L 153.994343 143.775458 
L 156.399192 156.076475 
L 157.200808 156.076475 
L 158.80404 147.875797 
L 159.605657 156.076475 
L 160.407273 147.875797 
L 161.208889 147.875797 
L 162.010505 143.775458 
L 162.812121 151.976136 
L 163.613737 151.976136 
L 164.415354 160.176814 
L 165.21697 160.176814 
L 166.820202 168.377492 
L 168.423434 168.377492 
L 169.225051 160.176814 
L 170.026667 164.277153 
L 170.828283 160.176814 
L 171.629899 168.377492 
L 172.431515 168.377492 
L 174.034747 160.176814 
L 174.836364 160.176814 
L 175.63798 156.076475 
L 176.439596 156.076475 
L 177.241212 151.976136 
L 178.042828 151.976136 
L 178.844444 147.875797 
L 179.646061 147.875797 
L 180.447677 143.775458 
L 181.249293 135.57478 
L 182.852525 143.775458 
L 183.654141 143.775458 
L 184.455758 139.675119 
L 185.257374 131.474441 
L 186.05899 127.374102 
L 186.860606 139.675119 
L 189.265455 139.675119 
L 190.067071 131.474441 
L 190.868687 139.675119 
L 191.670303 139.675119 
L 193.273535 147.875797 
L 194.075152 143.775458 
L 195.678384 151.976136 
L 198.083232 139.675119 
L 203.694545 139.675119 
L 204.496162 143.775458 
L 205.297778 160.176814 
L 206.099394 151.976136 
L 209.305859 151.976136 
L 210.107475 156.076475 
L 210.909091 151.976136 
L 211.710707 151.976136 
L 212.512323 160.176814 
L 214.115556 151.976136 
L 217.32202 151.976136 
L 218.123636 147.875797 
L 218.925253 151.976136 
L 219.726869 151.976136 
L 220.528485 147.875797 
L 221.330101 139.675119 
L 222.131717 139.675119 
L 222.933333 147.875797 
L 223.734949 151.976136 
L 224.536566 151.976136 
L 225.338182 156.076475 
L 226.139798 151.976136 
L 226.941414 156.076475 
L 227.74303 147.875797 
L 229.346263 147.875797 
L 230.147879 143.775458 
L 230.949495 147.875797 
L 232.552727 147.875797 
L 233.354343 139.675119 
L 234.957576 139.675119 
L 235.759192 135.57478 
L 236.560808 139.675119 
L 237.362424 139.675119 
L 238.965657 131.474441 
L 239.767273 139.675119 
L 240.568889 131.474441 
L 241.370505 135.57478 
L 242.172121 147.875797 
L 243.775354 131.474441 
L 244.57697 135.57478 
L 245.378586 131.474441 
L 246.180202 139.675119 
L 248.585051 139.675119 
L 249.386667 143.775458 
L 250.188283 143.775458 
L 250.989899 147.875797 
L 251.791515 160.176814 
L 252.593131 151.976136 
L 253.394747 151.976136 
L 254.196364 156.076475 
L 254.99798 156.076475 
L 255.799596 151.976136 
L 258.204444 151.976136 
L 259.006061 156.076475 
L 259.807677 164.277153 
L 260.609293 151.976136 
L 261.410909 143.775458 
L 262.212525 143.775458 
L 263.014141 151.976136 
L 263.815758 147.875797 
L 264.617374 156.076475 
L 265.41899 172.477831 
L 266.220606 160.176814 
L 267.022222 123.273763 
L 267.823838 123.273763 
L 268.625455 143.775458 
L 269.427071 160.176814 
L 270.228687 164.277153 
L 271.831919 156.076475 
L 272.633535 147.875797 
L 276.641616 147.875797 
L 277.443232 143.775458 
L 278.244848 151.976136 
L 279.046465 151.976136 
L 279.848081 147.875797 
L 280.649697 156.076475 
L 281.451313 151.976136 
L 282.252929 156.076475 
L 283.054545 147.875797 
L 283.856162 151.976136 
L 284.657778 164.277153 
L 285.459394 160.176814 
L 289.467475 160.176814 
L 290.269091 164.277153 
L 291.872323 164.277153 
L 292.673939 160.176814 
L 295.078788 160.176814 
L 295.880404 164.277153 
L 296.68202 164.277153 
L 298.285253 156.076475 
L 299.086869 143.775458 
L 299.888485 139.675119 
L 300.690101 143.775458 
L 301.491717 139.675119 
L 302.293333 139.675119 
L 303.094949 147.875797 
L 304.698182 147.875797 
L 305.499798 139.675119 
L 307.904646 139.675119 
L 308.706263 143.775458 
L 310.309495 143.775458 
L 311.111111 147.875797 
L 311.912727 143.775458 
L 313.51596 151.976136 
L 314.317576 143.775458 
L 315.119192 151.976136 
L 316.722424 160.176814 
L 317.52404 156.076475 
L 318.325657 164.277153 
L 319.127273 156.076475 
L 320.730505 164.277153 
L 321.532121 151.976136 
L 323.135354 160.176814 
L 323.93697 156.076475 
L 324.738586 160.176814 
L 325.540202 156.076475 
L 327.143434 131.474441 
L 329.548283 156.076475 
L 330.349899 147.875797 
L 331.151515 151.976136 
L 332.754747 151.976136 
L 333.556364 160.176814 
L 334.35798 164.277153 
L 335.159596 160.176814 
L 335.961212 151.976136 
L 336.762828 151.976136 
L 337.564444 147.875797 
L 338.366061 139.675119 
L 339.167677 143.775458 
L 340.770909 127.374102 
L 341.572525 131.474441 
L 342.374141 139.675119 
L 343.175758 143.775458 
L 343.977374 143.775458 
L 344.77899 139.675119 
L 345.580606 147.875797 
L 346.382222 147.875797 
L 347.183838 143.775458 
L 347.985455 151.976136 
L 348.787071 151.976136 
L 349.588687 156.076475 
L 350.390303 156.076475 
L 351.191919 160.176814 
L 352.795152 160.176814 
L 353.596768 156.076475 
L 356.001616 156.076475 
L 356.803232 160.176814 
L 357.604848 147.875797 
L 358.406465 143.775458 
L 359.208081 143.775458 
L 360.009697 131.474441 
L 360.811313 127.374102 
L 361.612929 127.374102 
L 362.414545 119.173424 
L 363.216162 119.173424 
L 364.017778 127.374102 
L 364.819394 127.374102 
L 365.62101 131.474441 
L 366.422626 127.374102 
L 367.224242 115.073085 
L 368.025859 115.073085 
L 368.827475 98.671729 
L 369.629091 98.671729 
L 370.430707 110.972746 
L 371.232323 106.872407 
L 372.835556 106.872407 
L 375.240404 94.57139 
L 376.04202 102.772068 
L 376.843636 94.57139 
L 377.645253 82.270373 
L 379.248485 90.471051 
L 380.050101 82.270373 
L 380.851717 86.370712 
L 381.653333 82.270373 
L 382.454949 90.471051 
L 383.256566 82.270373 
L 384.058182 86.370712 
L 384.859798 82.270373 
L 385.661414 74.069695 
L 386.46303 86.370712 
L 387.264646 78.170034 
L 388.066263 86.370712 
L 388.867879 82.270373 
L 389.669495 86.370712 
L 390.471111 82.270373 
L 392.074343 82.270373 
L 392.87596 90.471051 
L 393.677576 86.370712 
L 395.280808 86.370712 
L 396.082424 90.471051 
L 396.88404 82.270373 
L 397.685657 90.471051 
L 398.487273 90.471051 
L 398.487273 90.471051 
" style="fill:none;stroke:#2ca02c;stroke-linecap:square;stroke-width:1.5;"/>
   </g>
   <g id="patch_3">
    <path d="M 57.6 307.584 
L 57.6 41.472 
" style="fill:none;stroke:#000000;stroke-linecap:square;stroke-linejoin:miter;stroke-width:0.8;"/>
   </g>
   <g id="patch_4">
    <path d="M 414.72 307.584 
L 414.72 41.472 
" style="fill:none;stroke:#000000;stroke-linecap:square;stroke-linejoin:miter;stroke-width:0.8;"/>
   </g>
   <g id="patch_5">
    <path d="M 57.6 307.584 
L 414.72 307.584 
" style="fill:none;stroke:#000000;stroke-linecap:square;stroke-linejoin:miter;stroke-width:0.8;"/>
   </g>
   <g id="patch_6">
    <path d="M 57.6 41.472 
L 414.72 41.472 
" style="fill:none;stroke:#000000;stroke-linecap:square;stroke-linejoin:miter;stroke-width:0.8;"/>
   </g>
   <g id="legend_1">
    <g id="patch_7">
     <path d="M 64.6 302.584 
L 102.51875 302.584 
Q 104.51875 302.584 104.51875 300.584 
L 104.51875 257.549625 
Q 104.51875 255.549625 102.51875 255.549625 
L 64.6 255.549625 
Q 62.6 255.549625 62.6 257.549625 
L 62.6 300.584 
Q 62.6 302.584 64.6 302.584 
z
" style="fill:#ffffff;opacity:0.8;stroke:#cccccc;stroke-linejoin:miter;"/>
    </g>
    <g id="line2d_36">
     <path d="M 66.6 263.648062 
L 86.6 263.648062 
" style="fill:none;stroke:#1f77b4;stroke-linecap:square;stroke-width:1.5;"/>
    </g>
    <g id="line2d_37"/>
    <g id="text_17">
     <!-- x -->
     <defs>
      <path d="M 54.890625 54.6875 
L 35.109375 28.078125 
L 55.90625 0 
L 45.3125 0 
L 29.390625 21.484375 
L 13.484375 0 
L 2.875 0 
L 24.125 28.609375 
L 4.6875 54.6875 
L 15.28125 54.6875 
L 29.78125 35.203125 
L 44.28125 54.6875 
z
" id="DejaVuSans-120"/>
     </defs>
     <g transform="translate(94.6 267.148062)scale(0.1 -0.1)">
      <use xlink:href="#DejaVuSans-120"/>
     </g>
    </g>
    <g id="line2d_38">
     <path d="M 66.6 278.326188 
L 86.6 278.326188 
" style="fill:none;stroke:#ff7f0e;stroke-linecap:square;stroke-width:1.5;"/>
    </g>
    <g id="line2d_39"/>
    <g id="text_18">
     <!-- y -->
     <defs>
      <path d="M 32.171875 -5.078125 
Q 28.375 -14.84375 24.75 -17.8125 
Q 21.140625 -20.796875 15.09375 -20.796875 
L 7.90625 -20.796875 
L 7.90625 -13.28125 
L 13.1875 -13.28125 
Q 16.890625 -13.28125 18.9375 -11.515625 
Q 21 -9.765625 23.484375 -3.21875 
L 25.09375 0.875 
L 2.984375 54.6875 
L 12.5 54.6875 
L 29.59375 11.921875 
L 46.6875 54.6875 
L 56.203125 54.6875 
z
" id="DejaVuSans-121"/>
     </defs>
     <g transform="translate(94.6 281.826188)scale(0.1 -0.1)">
      <use xlink:href="#DejaVuSans-121"/>
     </g>
    </g>
    <g id="line2d_40">
     <path d="M 66.6 293.004312 
L 86.6 293.004312 
" style="fill:none;stroke:#2ca02c;stroke-linecap:square;stroke-width:1.5;"/>
    </g>
    <g id="line2d_41"/>
    <g id="text_19">
     <!-- z -->
     <defs>
      <path d="M 5.515625 54.6875 
L 48.1875 54.6875 
L 48.1875 46.484375 
L 14.40625 7.171875 
L 48.1875 7.171875 
L 48.1875 0 
L 4.296875 0 
L 4.296875 8.203125 
L 38.09375 47.515625 
L 5.515625 47.515625 
z
" id="DejaVuSans-122"/>
     </defs>
     <g transform="translate(94.6 296.504312)scale(0.1 -0.1)">
      <use xlink:href="#DejaVuSans-122"/>
     </g>
    </g>
   </g>
  </g>
 </g>
 <defs>
  <clipPath id="pf590d1d3e0">
   <rect height="266.112" width="357.12" x="57.6" y="41.472"/>
  </clipPath>
 </defs>
</svg>
